<svg width="713" height="185" viewBox="0 0 713 185" fill="none" xmlns="http://www.w3.org/2000/svg">
<g filter="url(#filter0_d_84584_12844)">
<path d="M521.421 95.2174L519.753 92.1407V92.1407L521.421 95.2174ZM558.058 75.348L559.727 78.4246V78.4246L558.058 75.348ZM22.5643 153.627C20.7016 154.144 19.6106 156.073 20.1274 157.936C20.6442 159.798 22.5731 160.889 24.4357 160.373L22.5643 153.627ZM112.865 132.205L111.929 128.833L112.865 132.205ZM281.132 128.253L281.909 124.84L281.132 128.253ZM691.975 44.4749C693.342 43.108 693.342 40.892 691.975 39.5251L669.701 17.2513C668.334 15.8844 666.118 15.8844 664.751 17.2513C663.384 18.6181 663.384 20.8342 664.751 22.201L684.55 42L664.751 61.799C663.384 63.1658 663.384 65.3819 664.751 66.7487C666.118 68.1156 668.334 68.1156 669.701 66.7487L691.975 44.4749ZM523.09 98.294L559.727 78.4246L556.39 72.2713L519.753 92.1407L523.09 98.294ZM24.4357 160.373L113.801 135.578L111.929 128.833L22.5643 153.627L24.4357 160.373ZM113.801 135.578C168.139 120.501 225.37 119.157 280.356 131.666L281.909 124.84C225.793 112.074 167.384 113.446 111.929 128.833L113.801 135.578ZM559.727 78.4246C599.569 56.8172 644.176 45.5 689.5 45.5V38.5C643.01 38.5 597.257 50.1082 556.39 72.2713L559.727 78.4246ZM519.753 92.1407C447.072 131.558 362.531 143.181 281.909 124.84L280.356 131.666C362.635 150.383 448.914 138.521 523.09 98.294L519.753 92.1407Z" fill="white"/>
</g>
<defs>
<filter id="filter0_d_84584_12844" x="-0.000976562" y="0.226562" width="713.001" height="184.273" filterUnits="userSpaceOnUse" color-interpolation-filters="sRGB">
<feFlood flood-opacity="0" result="BackgroundImageFix"/>
<feColorMatrix in="SourceAlpha" type="matrix" values="0 0 0 0 0 0 0 0 0 0 0 0 0 0 0 0 0 0 127 0" result="hardAlpha"/>
<feOffset dy="4"/>
<feGaussianBlur stdDeviation="10"/>
<feComposite in2="hardAlpha" operator="out"/>
<feColorMatrix type="matrix" values="0 0 0 0 0 0 0 0 0 0.435294 0 0 0 0 0.717647 0 0 0 0.18 0"/>
<feBlend mode="normal" in2="BackgroundImageFix" result="effect1_dropShadow_84584_12844"/>
<feBlend mode="normal" in="SourceGraphic" in2="effect1_dropShadow_84584_12844" result="shape"/>
</filter>
</defs>
</svg>
