<svg width="290" height="309" viewBox="0 0 290 309" fill="none" xmlns="http://www.w3.org/2000/svg">
<g filter="url(#filter0_d_84730_8495)">
<rect x="10" y="6.5" width="270" height="288" rx="18" fill="white" shape-rendering="crispEdges"/>
<path fill-rule="evenodd" clip-rule="evenodd" d="M137.732 132.509L97.4873 56.8116C97.2561 56.3768 97.1128 55.9007 97.0656 55.4105C97.0184 54.9202 97.0682 54.4255 97.2122 53.9546C97.503 53.0034 98.1597 52.2067 99.0379 51.7398C99.9161 51.2728 100.944 51.1739 101.895 51.4647C102.366 51.6086 102.804 51.844 103.184 52.1572C103.564 52.4705 103.879 52.8555 104.11 53.2904L144.359 128.988L150.066 125.95C151.806 125.026 153.71 124.452 155.671 124.264C157.632 124.075 159.611 124.275 161.495 124.851C163.379 125.427 165.131 126.369 166.651 127.623C168.171 128.876 169.429 130.417 170.354 132.157L172.784 136.728L198.546 174.43L165.779 191.849L154.427 169.413L147.737 172.799L159.156 195.374L145.109 202.84L128.252 160.398L125.826 155.83C124.901 154.091 124.328 152.187 124.139 150.226C123.95 148.265 124.149 146.286 124.725 144.402C125.301 142.518 126.243 140.766 127.496 139.246C128.749 137.726 130.289 136.468 132.029 135.543L137.732 132.509ZM153.584 132.577L135.546 142.165C134.676 142.628 133.906 143.257 133.28 144.017C132.653 144.777 132.182 145.653 131.894 146.595C131.606 147.537 131.507 148.526 131.601 149.507C131.696 150.487 131.982 151.439 132.445 152.309L134.871 156.877L166.157 140.242L163.727 135.678C163.265 134.808 162.636 134.038 161.876 133.411C161.116 132.785 160.24 132.314 159.298 132.026C158.356 131.738 157.366 131.639 156.386 131.733C155.405 131.828 154.453 132.114 153.584 132.577Z" fill="#9061F3"/>
<path fill-rule="evenodd" clip-rule="evenodd" d="M137.732 132.509L97.4873 56.8116C97.2561 56.3768 97.1128 55.9007 97.0656 55.4105C97.0184 54.9202 97.0682 54.4255 97.2122 53.9546C97.503 53.0034 98.1597 52.2067 99.0379 51.7398C99.9161 51.2728 100.944 51.1739 101.895 51.4647C102.366 51.6086 102.804 51.844 103.184 52.1572C103.564 52.4705 103.879 52.8555 104.11 53.2904L144.359 128.988L150.066 125.95C151.806 125.026 153.71 124.452 155.671 124.264C157.632 124.075 159.611 124.275 161.495 124.851C163.379 125.427 165.131 126.369 166.651 127.623C168.171 128.876 169.429 130.417 170.354 132.157L172.784 136.728L198.546 174.43L165.779 191.849L154.427 169.413L147.737 172.799L159.156 195.374L145.109 202.84L128.252 160.398L125.826 155.83C124.901 154.091 124.328 152.187 124.139 150.226C123.95 148.265 124.149 146.286 124.725 144.402C125.301 142.518 126.243 140.766 127.496 139.246C128.749 137.726 130.289 136.468 132.029 135.543L137.732 132.509ZM153.584 132.577L135.546 142.165C134.676 142.628 133.906 143.257 133.28 144.017C132.653 144.777 132.182 145.653 131.894 146.595C131.606 147.537 131.507 148.526 131.601 149.507C131.696 150.487 131.982 151.439 132.445 152.309L134.871 156.877L166.157 140.242L163.727 135.678C163.265 134.808 162.636 134.038 161.876 133.411C161.116 132.785 160.24 132.314 159.298 132.026C158.356 131.738 157.366 131.639 156.386 131.733C155.405 131.828 154.453 132.114 153.584 132.577Z" fill="url(#paint0_linear_84730_8495)"/>
<path d="M121.63 169.101C120.994 168.337 120.08 167.856 119.09 167.766C118.1 167.675 117.114 167.981 116.35 168.617H116.357L116.316 168.647L116.08 168.827C115.744 169.079 115.402 169.322 115.052 169.554C114.122 170.173 112.735 171.017 110.95 171.864C106.362 174.07 101.341 175.226 96.25 175.251C95.2554 175.251 94.3016 175.646 93.5984 176.349C92.8951 177.052 92.5 178.006 92.5 179.001C92.5 179.995 92.8951 180.949 93.5984 181.652C94.3016 182.356 95.2554 182.751 96.25 182.751C102.456 182.727 108.579 181.322 114.175 178.637C115.92 177.81 117.605 176.861 119.215 175.794C119.818 175.391 120.406 174.966 120.977 174.519L121.09 174.433L121.128 174.403L121.139 174.388H121.146L121.15 174.381C121.914 173.744 122.393 172.83 122.483 171.84C122.573 170.85 122.266 169.865 121.63 169.101ZM129.37 188.169C129.643 188.579 129.833 189.039 129.929 189.522C130.025 190.005 130.024 190.502 129.928 190.985C129.832 191.468 129.641 191.928 129.367 192.337C129.093 192.746 128.741 193.097 128.331 193.371L128.324 193.378L128.309 193.386L128.271 193.408L128.155 193.483C127.506 193.896 126.847 194.294 126.179 194.676C124.863 195.429 122.991 196.431 120.741 197.428C116.316 199.397 110.129 201.501 103.75 201.501C102.755 201.501 101.802 201.106 101.098 200.402C100.395 199.699 100 198.745 100 197.751C100 196.756 100.395 195.802 101.098 195.099C101.802 194.396 102.755 194.001 103.75 194.001C108.617 194.001 113.687 192.354 117.696 190.573C119.785 189.641 121.811 188.577 123.764 187.386C123.873 187.321 123.981 187.254 124.086 187.183L124.161 187.138L124.169 187.131C124.578 186.857 125.038 186.667 125.521 186.572C126.004 186.476 126.502 186.476 126.985 186.573C127.468 186.669 127.927 186.86 128.336 187.134C128.745 187.408 129.097 187.76 129.37 188.169Z" fill="#9061F3"/>
<path d="M121.63 169.101C120.994 168.337 120.08 167.856 119.09 167.766C118.1 167.675 117.114 167.981 116.35 168.617H116.357L116.316 168.647L116.08 168.827C115.744 169.079 115.402 169.322 115.052 169.554C114.122 170.173 112.735 171.017 110.95 171.864C106.362 174.07 101.341 175.226 96.25 175.251C95.2554 175.251 94.3016 175.646 93.5984 176.349C92.8951 177.052 92.5 178.006 92.5 179.001C92.5 179.995 92.8951 180.949 93.5984 181.652C94.3016 182.356 95.2554 182.751 96.25 182.751C102.456 182.727 108.579 181.322 114.175 178.637C115.92 177.81 117.605 176.861 119.215 175.794C119.818 175.391 120.406 174.966 120.977 174.519L121.09 174.433L121.128 174.403L121.139 174.388H121.146L121.15 174.381C121.914 173.744 122.393 172.83 122.483 171.84C122.573 170.85 122.266 169.865 121.63 169.101ZM129.37 188.169C129.643 188.579 129.833 189.039 129.929 189.522C130.025 190.005 130.024 190.502 129.928 190.985C129.832 191.468 129.641 191.928 129.367 192.337C129.093 192.746 128.741 193.097 128.331 193.371L128.324 193.378L128.309 193.386L128.271 193.408L128.155 193.483C127.506 193.896 126.847 194.294 126.179 194.676C124.863 195.429 122.991 196.431 120.741 197.428C116.316 199.397 110.129 201.501 103.75 201.501C102.755 201.501 101.802 201.106 101.098 200.402C100.395 199.699 100 198.745 100 197.751C100 196.756 100.395 195.802 101.098 195.099C101.802 194.396 102.755 194.001 103.75 194.001C108.617 194.001 113.687 192.354 117.696 190.573C119.785 189.641 121.811 188.577 123.764 187.386C123.873 187.321 123.981 187.254 124.086 187.183L124.161 187.138L124.169 187.131C124.578 186.857 125.038 186.667 125.521 186.572C126.004 186.476 126.502 186.476 126.985 186.573C127.468 186.669 127.927 186.86 128.336 187.134C128.745 187.408 129.097 187.76 129.37 188.169Z" fill="url(#paint1_linear_84730_8495)"/>
<path d="M99.6058 257.76C98.3405 257.76 97.1792 257.535 96.1218 257.084C95.0645 256.633 94.1458 255.992 93.3658 255.16C92.5858 254.311 91.9792 253.314 91.5458 252.17C91.1298 251.026 90.9218 249.769 90.9218 248.4C90.9218 247.1 91.1472 245.895 91.5978 244.786C92.0658 243.659 92.7072 242.671 93.5218 241.822C94.3365 240.973 95.2812 240.314 96.3558 239.846C97.4305 239.378 98.5918 239.144 99.8398 239.144C100.724 239.144 101.582 239.283 102.414 239.56C103.263 239.82 104.026 240.193 104.702 240.678C105.395 241.146 105.958 241.683 106.392 242.29L104.52 244.24C104.017 243.737 103.506 243.321 102.986 242.992C102.483 242.645 101.963 242.385 101.426 242.212C100.906 242.039 100.377 241.952 99.8398 241.952C98.9905 241.952 98.1932 242.117 97.4478 242.446C96.7198 242.758 96.0785 243.2 95.5238 243.772C94.9865 244.344 94.5618 245.029 94.2498 245.826C93.9378 246.606 93.7818 247.464 93.7818 248.4C93.7818 249.388 93.9292 250.289 94.2238 251.104C94.5358 251.901 94.9692 252.586 95.5238 253.158C96.0785 253.73 96.7372 254.172 97.4998 254.484C98.2798 254.779 99.1378 254.926 100.074 254.926C100.646 254.926 101.209 254.848 101.764 254.692C102.318 254.536 102.838 254.311 103.324 254.016C103.809 253.721 104.251 253.375 104.65 252.976L106.054 255.264C105.655 255.732 105.109 256.157 104.416 256.538C103.74 256.919 102.977 257.223 102.128 257.448C101.296 257.656 100.455 257.76 99.6058 257.76ZM109.244 257.5V238.26H111.922V257.5H109.244ZM121.834 257.76C120.43 257.76 119.182 257.465 118.09 256.876C117.015 256.269 116.166 255.446 115.542 254.406C114.935 253.366 114.632 252.17 114.632 250.818C114.632 249.743 114.805 248.764 115.152 247.88C115.498 246.996 115.975 246.233 116.582 245.592C117.206 244.933 117.942 244.431 118.792 244.084C119.658 243.72 120.594 243.538 121.6 243.538C122.484 243.538 123.307 243.711 124.07 244.058C124.832 244.387 125.491 244.847 126.046 245.436C126.618 246.025 127.051 246.727 127.346 247.542C127.658 248.339 127.805 249.215 127.788 250.168L127.762 251.312H116.608L116.01 249.18H125.448L125.058 249.622V248.998C125.006 248.426 124.815 247.915 124.486 247.464C124.156 247.013 123.74 246.658 123.238 246.398C122.735 246.138 122.189 246.008 121.6 246.008C120.664 246.008 119.875 246.19 119.234 246.554C118.592 246.901 118.107 247.421 117.778 248.114C117.448 248.79 117.284 249.631 117.284 250.636C117.284 251.589 117.483 252.421 117.882 253.132C118.28 253.825 118.844 254.363 119.572 254.744C120.3 255.125 121.14 255.316 122.094 255.316C122.77 255.316 123.394 255.203 123.966 254.978C124.555 254.753 125.188 254.345 125.864 253.756L127.216 255.654C126.8 256.07 126.288 256.434 125.682 256.746C125.092 257.058 124.46 257.309 123.784 257.5C123.125 257.673 122.475 257.76 121.834 257.76ZM135.95 257.76C134.824 257.76 133.792 257.448 132.856 256.824C131.938 256.2 131.201 255.351 130.646 254.276C130.092 253.201 129.814 251.988 129.814 250.636C129.814 249.267 130.092 248.053 130.646 246.996C131.218 245.921 131.981 245.081 132.934 244.474C133.905 243.867 134.988 243.564 136.184 243.564C136.895 243.564 137.545 243.668 138.134 243.876C138.724 244.084 139.235 244.379 139.668 244.76C140.119 245.124 140.483 245.549 140.76 246.034C141.055 246.519 141.237 247.039 141.306 247.594L140.708 247.386V243.85H143.412V257.5H140.708V254.25L141.332 254.068C141.228 254.536 141.012 254.995 140.682 255.446C140.37 255.879 139.963 256.269 139.46 256.616C138.975 256.963 138.429 257.24 137.822 257.448C137.233 257.656 136.609 257.76 135.95 257.76ZM136.652 255.29C137.467 255.29 138.186 255.091 138.81 254.692C139.434 254.293 139.92 253.747 140.266 253.054C140.63 252.343 140.812 251.537 140.812 250.636C140.812 249.752 140.63 248.963 140.266 248.27C139.92 247.577 139.434 247.031 138.81 246.632C138.186 246.233 137.467 246.034 136.652 246.034C135.855 246.034 135.144 246.233 134.52 246.632C133.914 247.031 133.428 247.577 133.064 248.27C132.718 248.963 132.544 249.752 132.544 250.636C132.544 251.537 132.718 252.343 133.064 253.054C133.428 253.747 133.914 254.293 134.52 254.692C135.144 255.091 135.855 255.29 136.652 255.29ZM147.151 257.5V243.85H149.829V246.658L149.361 246.97C149.535 246.363 149.873 245.809 150.375 245.306C150.878 244.786 151.476 244.37 152.169 244.058C152.863 243.729 153.573 243.564 154.301 243.564C155.341 243.564 156.208 243.772 156.901 244.188C157.595 244.587 158.115 245.202 158.461 246.034C158.808 246.866 158.981 247.915 158.981 249.18V257.5H156.303V249.362C156.303 248.582 156.199 247.941 155.991 247.438C155.783 246.918 155.463 246.545 155.029 246.32C154.596 246.077 154.059 245.973 153.417 246.008C152.897 246.008 152.421 246.095 151.987 246.268C151.554 246.424 151.173 246.649 150.843 246.944C150.531 247.239 150.28 247.585 150.089 247.984C149.916 248.365 149.829 248.781 149.829 249.232V257.5H148.503C148.278 257.5 148.053 257.5 147.827 257.5C147.602 257.5 147.377 257.5 147.151 257.5ZM163.056 257.5V243.85H165.734V257.5H163.056ZM164.356 240.834C163.784 240.834 163.342 240.687 163.03 240.392C162.718 240.097 162.562 239.681 162.562 239.144C162.562 238.641 162.718 238.234 163.03 237.922C163.36 237.61 163.802 237.454 164.356 237.454C164.928 237.454 165.37 237.601 165.682 237.896C165.994 238.191 166.15 238.607 166.15 239.144C166.15 239.647 165.986 240.054 165.656 240.366C165.344 240.678 164.911 240.834 164.356 240.834ZM169.851 257.5V243.85H172.529V246.658L172.061 246.97C172.234 246.363 172.572 245.809 173.075 245.306C173.577 244.786 174.175 244.37 174.869 244.058C175.562 243.729 176.273 243.564 177.001 243.564C178.041 243.564 178.907 243.772 179.601 244.188C180.294 244.587 180.814 245.202 181.161 246.034C181.507 246.866 181.681 247.915 181.681 249.18V257.5H179.003V249.362C179.003 248.582 178.899 247.941 178.691 247.438C178.483 246.918 178.162 246.545 177.729 246.32C177.295 246.077 176.758 245.973 176.117 246.008C175.597 246.008 175.12 246.095 174.687 246.268C174.253 246.424 173.872 246.649 173.543 246.944C173.231 247.239 172.979 247.585 172.789 247.984C172.615 248.365 172.529 248.781 172.529 249.232V257.5H171.203C170.977 257.5 170.752 257.5 170.527 257.5C170.301 257.5 170.076 257.5 169.851 257.5ZM191.423 263.48C190.453 263.48 189.482 263.324 188.511 263.012C187.558 262.717 186.787 262.327 186.197 261.842L187.185 259.762C187.532 260.022 187.939 260.247 188.407 260.438C188.875 260.646 189.369 260.802 189.889 260.906C190.409 261.027 190.921 261.088 191.423 261.088C192.377 261.088 193.174 260.932 193.815 260.62C194.457 260.308 194.942 259.849 195.271 259.242C195.601 258.635 195.765 257.881 195.765 256.98V254.354L196.051 254.536C195.965 255.073 195.679 255.593 195.193 256.096C194.725 256.581 194.136 256.98 193.425 257.292C192.715 257.604 191.987 257.76 191.241 257.76C189.941 257.76 188.78 257.457 187.757 256.85C186.752 256.226 185.955 255.385 185.365 254.328C184.776 253.253 184.481 252.031 184.481 250.662C184.481 249.293 184.767 248.079 185.339 247.022C185.929 245.947 186.726 245.107 187.731 244.5C188.754 243.876 189.898 243.564 191.163 243.564C191.683 243.564 192.186 243.633 192.671 243.772C193.157 243.893 193.607 244.075 194.023 244.318C194.439 244.543 194.812 244.795 195.141 245.072C195.471 245.349 195.739 245.644 195.947 245.956C196.155 246.268 196.285 246.563 196.337 246.84L195.765 247.048V243.85H198.443V256.668C198.443 257.76 198.279 258.722 197.949 259.554C197.637 260.403 197.178 261.114 196.571 261.686C195.965 262.275 195.228 262.717 194.361 263.012C193.495 263.324 192.515 263.48 191.423 263.48ZM191.527 255.29C192.377 255.29 193.131 255.091 193.789 254.692C194.448 254.293 194.959 253.747 195.323 253.054C195.687 252.361 195.869 251.563 195.869 250.662C195.869 249.761 195.679 248.963 195.297 248.27C194.933 247.559 194.422 247.005 193.763 246.606C193.122 246.207 192.377 246.008 191.527 246.008C190.695 246.008 189.95 246.216 189.291 246.632C188.65 247.031 188.139 247.585 187.757 248.296C187.393 248.989 187.211 249.778 187.211 250.662C187.211 251.546 187.393 252.343 187.757 253.054C188.139 253.747 188.65 254.293 189.291 254.692C189.95 255.091 190.695 255.29 191.527 255.29Z" fill="#9061F3"/>
</g>
<defs>
<filter id="filter0_d_84730_8495" x="0" y="0.5" width="290" height="308" filterUnits="userSpaceOnUse" color-interpolation-filters="sRGB">
<feFlood flood-opacity="0" result="BackgroundImageFix"/>
<feColorMatrix in="SourceAlpha" type="matrix" values="0 0 0 0 0 0 0 0 0 0 0 0 0 0 0 0 0 0 127 0" result="hardAlpha"/>
<feOffset dy="4"/>
<feGaussianBlur stdDeviation="5"/>
<feComposite in2="hardAlpha" operator="out"/>
<feColorMatrix type="matrix" values="0 0 0 0 0 0 0 0 0 0 0 0 0 0 0 0 0 0 0.5 0"/>
<feBlend mode="normal" in2="BackgroundImageFix" result="effect1_dropShadow_84730_8495"/>
<feBlend mode="normal" in="SourceGraphic" in2="effect1_dropShadow_84730_8495" result="shape"/>
</filter>
<linearGradient id="paint0_linear_84730_8495" x1="147.797" y1="51.3008" x2="147.797" y2="202.84" gradientUnits="userSpaceOnUse">
<stop stop-color="#CE75FF"/>
<stop offset="1" stop-color="#796AD0" stop-opacity="0"/>
</linearGradient>
<linearGradient id="paint1_linear_84730_8495" x1="111.25" y1="167.75" x2="111.25" y2="201.501" gradientUnits="userSpaceOnUse">
<stop stop-color="#CE75FF"/>
<stop offset="1" stop-color="#796AD0" stop-opacity="0"/>
</linearGradient>
</defs>
</svg>
