<svg width="290" height="309" viewBox="0 0 290 309" fill="none" xmlns="http://www.w3.org/2000/svg">
<g filter="url(#filter0_d_84730_8521)">
<rect x="10" y="6.5" width="270" height="288" rx="18" fill="white" shape-rendering="crispEdges"/>
<rect x="55" y="36.5" width="85" height="85" rx="12" fill="white"/>
<path d="M93.9585 43.582V114.415C76.0022 112.645 62.0835 97.4508 62.0835 78.9987C62.0835 60.5466 76.0022 45.3529 93.9585 43.582ZM101.148 43.582V75.4216H132.917C131.252 58.6341 117.9 45.2466 101.148 43.582ZM101.148 82.5758V114.415C117.936 112.751 131.252 99.3633 132.917 82.5758H101.148Z" fill="black"/>
<rect x="150" y="36.5" width="85" height="85" rx="12" fill="white"/>
<path d="M207.304 105.918L200.186 93.593C203.656 91.043 206.065 87.0763 206.561 82.543H220.833C220.541 87.2204 219.167 91.7662 216.819 95.8223C214.472 99.8785 211.214 103.334 207.304 105.918ZM196.042 64.9409V50.6693C211.271 51.5901 219.913 60.2305 220.833 75.4596H207.304C206.909 71.8665 206.779 70.5561 204.223 68C201.667 65.4439 199.635 65.3364 196.042 64.9409ZM174.792 80.7721C174.792 83.0388 175.252 85.1992 176.138 87.1471L163.813 94.2659C161.705 90.0809 160.613 85.458 160.625 80.7721C160.625 64.7284 173.163 51.6242 188.958 50.668V64.9409C180.99 65.8263 174.792 72.5555 174.792 80.7721ZM190.729 110.876C180.211 110.876 170.967 105.564 165.583 97.3471L177.908 90.2284C179.383 92.2431 181.313 93.8806 183.541 95.007C185.77 96.1334 188.233 96.7168 190.729 96.7096C192.996 96.7096 195.156 96.2492 197.104 95.3638L204.223 107.689C200.15 109.743 195.581 110.876 190.729 110.876Z" fill="black"/>
<rect x="55" y="131.5" width="85" height="85" rx="12" fill="white"/>
<path d="M90.2752 171.555C93.321 160.186 95.7293 152.749 101.042 152.749C106.354 152.749 108.763 160.186 111.809 171.555C115.208 184.34 119.104 198.79 132.917 198.79V191.707C125.125 191.707 122.292 182.995 118.644 169.749C115.492 157.92 112.198 145.665 101.042 145.665C89.8856 145.665 86.5918 157.92 83.4397 169.749C79.8981 182.995 76.9585 191.707 69.1668 191.707V138.582H62.0835V209.415H132.917V202.332H69.1668V198.79C82.9793 198.79 86.8752 184.34 90.2752 171.555Z" fill="black"/>
<rect x="150" y="131.5" width="85" height="85" rx="12" fill="white"/>
<path d="M227.031 200.562C227.031 201.267 226.751 201.943 226.253 202.441C225.755 202.939 225.079 203.219 224.375 203.219H160.625C159.921 203.219 159.245 202.939 158.747 202.441C158.249 201.943 157.969 201.267 157.969 200.562C157.969 199.858 158.249 199.182 158.747 198.684C159.245 198.186 159.921 197.906 160.625 197.906H163.281V176.656C163.281 175.952 163.561 175.276 164.059 174.778C164.557 174.28 165.233 174 165.938 174H173.906C174.611 174 175.286 174.28 175.785 174.778C176.283 175.276 176.562 175.952 176.562 176.656V197.906H181.875V160.719C181.875 160.014 182.155 159.339 182.653 158.84C183.151 158.342 183.827 158.062 184.531 158.062H195.156C195.861 158.062 196.536 158.342 197.035 158.84C197.533 159.339 197.812 160.014 197.812 160.719V197.906H203.125V144.781C203.125 144.077 203.405 143.401 203.903 142.903C204.401 142.405 205.077 142.125 205.781 142.125H219.062C219.767 142.125 220.443 142.405 220.941 142.903C221.439 143.401 221.719 144.077 221.719 144.781V197.906H224.375C225.079 197.906 225.755 198.186 226.253 198.684C226.751 199.182 227.031 199.858 227.031 200.562Z" fill="black"/>
<path d="M58.2492 257.5V239.3H65.3732C66.6732 239.3 67.8432 239.517 68.8832 239.95C69.9405 240.383 70.8418 241.007 71.5872 241.822C72.3325 242.637 72.9045 243.599 73.3032 244.708C73.7018 245.817 73.9012 247.048 73.9012 248.4C73.9012 249.752 73.7018 250.991 73.3032 252.118C72.9045 253.227 72.3325 254.189 71.5872 255.004C70.8592 255.801 69.9665 256.417 68.9092 256.85C67.8518 257.283 66.6732 257.5 65.3732 257.5H58.2492ZM61.0572 255.082L60.9792 254.796H65.2432C66.1618 254.796 66.9765 254.649 67.6872 254.354C68.4152 254.059 69.0218 253.643 69.5072 253.106C70.0098 252.551 70.3912 251.875 70.6512 251.078C70.9112 250.281 71.0412 249.388 71.0412 248.4C71.0412 247.412 70.9112 246.528 70.6512 245.748C70.3912 244.951 70.0098 244.275 69.5072 243.72C69.0045 243.165 68.3978 242.741 67.6872 242.446C66.9765 242.151 66.1618 242.004 65.2432 242.004H60.9012L61.0572 241.77V255.082ZM82.2744 257.76C81.1477 257.76 80.1164 257.448 79.1804 256.824C78.2617 256.2 77.5251 255.351 76.9704 254.276C76.4157 253.201 76.1384 251.988 76.1384 250.636C76.1384 249.267 76.4157 248.053 76.9704 246.996C77.5424 245.921 78.3051 245.081 79.2584 244.474C80.2291 243.867 81.3124 243.564 82.5084 243.564C83.2191 243.564 83.8691 243.668 84.4584 243.876C85.0477 244.084 85.5591 244.379 85.9924 244.76C86.4431 245.124 86.8071 245.549 87.0844 246.034C87.3791 246.519 87.5611 247.039 87.6304 247.594L87.0324 247.386V243.85H89.7364V257.5H87.0324V254.25L87.6564 254.068C87.5524 254.536 87.3357 254.995 87.0064 255.446C86.6944 255.879 86.2871 256.269 85.7844 256.616C85.2991 256.963 84.7531 257.24 84.1464 257.448C83.5571 257.656 82.9331 257.76 82.2744 257.76ZM82.9764 255.29C83.7911 255.29 84.5104 255.091 85.1344 254.692C85.7584 254.293 86.2437 253.747 86.5904 253.054C86.9544 252.343 87.1364 251.537 87.1364 250.636C87.1364 249.752 86.9544 248.963 86.5904 248.27C86.2437 247.577 85.7584 247.031 85.1344 246.632C84.5104 246.233 83.7911 246.034 82.9764 246.034C82.1791 246.034 81.4684 246.233 80.8444 246.632C80.2377 247.031 79.7524 247.577 79.3884 248.27C79.0417 248.963 78.8684 249.752 78.8684 250.636C78.8684 251.537 79.0417 252.343 79.3884 253.054C79.7524 253.747 80.2377 254.293 80.8444 254.692C81.4684 255.091 82.1791 255.29 82.9764 255.29ZM98.0255 257.76C96.8815 257.76 95.8502 257.561 94.9315 257.162C94.0128 256.763 93.2502 256.174 92.6435 255.394L94.4635 253.834C94.9835 254.441 95.5468 254.883 96.1535 255.16C96.7775 255.42 97.4795 255.55 98.2595 255.55C98.5715 255.55 98.8575 255.515 99.1175 255.446C99.3948 255.359 99.6288 255.238 99.8195 255.082C100.028 254.926 100.184 254.744 100.288 254.536C100.392 254.311 100.444 254.068 100.444 253.808C100.444 253.357 100.279 252.993 99.9495 252.716C99.7762 252.595 99.4988 252.465 99.1175 252.326C98.7535 252.17 98.2768 252.014 97.6875 251.858C96.6822 251.598 95.8588 251.303 95.2175 250.974C94.5762 250.645 94.0822 250.272 93.7355 249.856C93.4755 249.527 93.2848 249.171 93.1635 248.79C93.0422 248.391 92.9815 247.958 92.9815 247.49C92.9815 246.918 93.1028 246.398 93.3455 245.93C93.6055 245.445 93.9522 245.029 94.3855 244.682C94.8362 244.318 95.3562 244.041 95.9455 243.85C96.5522 243.659 97.1935 243.564 97.8695 243.564C98.5108 243.564 99.1435 243.651 99.7675 243.824C100.409 243.997 100.998 244.249 101.536 244.578C102.073 244.907 102.524 245.297 102.888 245.748L101.354 247.438C101.024 247.109 100.66 246.823 100.262 246.58C99.8802 246.32 99.4902 246.121 99.0915 245.982C98.6928 245.843 98.3288 245.774 97.9995 245.774C97.6355 245.774 97.3062 245.809 97.0115 245.878C96.7168 245.947 96.4655 246.051 96.2575 246.19C96.0668 246.329 95.9195 246.502 95.8155 246.71C95.7115 246.918 95.6595 247.152 95.6595 247.412C95.6768 247.637 95.7288 247.854 95.8155 248.062C95.9195 248.253 96.0582 248.417 96.2315 248.556C96.4222 248.695 96.7082 248.842 97.0895 248.998C97.4708 249.154 97.9562 249.301 98.5455 249.44C99.4122 249.665 100.123 249.917 100.678 250.194C101.25 250.454 101.7 250.757 102.03 251.104C102.376 251.433 102.619 251.815 102.758 252.248C102.896 252.681 102.966 253.167 102.966 253.704C102.966 254.484 102.74 255.186 102.29 255.81C101.856 256.417 101.267 256.893 100.522 257.24C99.7762 257.587 98.9442 257.76 98.0255 257.76ZM105.917 257.5V238.26H108.595V246.658L108.127 246.97C108.3 246.363 108.638 245.809 109.141 245.306C109.644 244.786 110.242 244.37 110.935 244.058C111.628 243.729 112.339 243.564 113.067 243.564C114.107 243.564 114.974 243.772 115.667 244.188C116.36 244.587 116.88 245.202 117.227 246.034C117.574 246.866 117.747 247.915 117.747 249.18V257.5H115.069V249.362C115.069 248.582 114.965 247.941 114.757 247.438C114.549 246.918 114.228 246.545 113.795 246.32C113.362 246.077 112.824 245.973 112.183 246.008C111.663 246.008 111.186 246.095 110.753 246.268C110.32 246.424 109.938 246.649 109.609 246.944C109.297 247.239 109.046 247.585 108.855 247.984C108.682 248.365 108.595 248.781 108.595 249.232V257.5H107.269C107.044 257.5 106.818 257.5 106.593 257.5C106.368 257.5 106.142 257.5 105.917 257.5ZM128.556 257.76C127.966 257.76 127.377 257.665 126.788 257.474C126.216 257.283 125.687 257.032 125.202 256.72C124.734 256.391 124.335 256.035 124.006 255.654C123.694 255.255 123.486 254.857 123.382 254.458L124.058 254.094V257.422H121.38V238.26H124.058V246.97L123.642 246.736C123.728 246.337 123.919 245.956 124.214 245.592C124.508 245.211 124.881 244.873 125.332 244.578C125.8 244.266 126.302 244.023 126.84 243.85C127.377 243.659 127.923 243.564 128.478 243.564C129.708 243.564 130.8 243.867 131.754 244.474C132.707 245.081 133.461 245.921 134.016 246.996C134.57 248.053 134.848 249.267 134.848 250.636C134.848 252.005 134.57 253.227 134.016 254.302C133.478 255.377 132.733 256.226 131.78 256.85C130.826 257.457 129.752 257.76 128.556 257.76ZM128.114 255.316C128.911 255.316 129.622 255.117 130.246 254.718C130.87 254.302 131.364 253.747 131.728 253.054C132.092 252.343 132.274 251.537 132.274 250.636C132.274 249.752 132.092 248.963 131.728 248.27C131.381 247.559 130.896 247.005 130.272 246.606C129.648 246.207 128.928 246.008 128.114 246.008C127.299 246.008 126.58 246.207 125.956 246.606C125.332 247.005 124.838 247.559 124.474 248.27C124.11 248.963 123.928 249.752 123.928 250.636C123.928 251.537 124.11 252.343 124.474 253.054C124.838 253.747 125.332 254.302 125.956 254.718C126.58 255.117 127.299 255.316 128.114 255.316ZM143.893 257.76C142.558 257.76 141.362 257.457 140.305 256.85C139.265 256.226 138.441 255.385 137.835 254.328C137.228 253.253 136.925 252.031 136.925 250.662C136.925 249.293 137.228 248.079 137.835 247.022C138.441 245.947 139.265 245.107 140.305 244.5C141.362 243.876 142.558 243.564 143.893 243.564C145.21 243.564 146.389 243.876 147.429 244.5C148.486 245.107 149.318 245.947 149.925 247.022C150.531 248.079 150.835 249.293 150.835 250.662C150.835 252.031 150.531 253.253 149.925 254.328C149.318 255.385 148.486 256.226 147.429 256.85C146.389 257.457 145.21 257.76 143.893 257.76ZM143.893 255.316C144.707 255.316 145.435 255.117 146.077 254.718C146.718 254.302 147.221 253.747 147.585 253.054C147.949 252.343 148.122 251.546 148.105 250.662C148.122 249.761 147.949 248.963 147.585 248.27C147.221 247.559 146.718 247.005 146.077 246.606C145.435 246.207 144.707 246.008 143.893 246.008C143.078 246.008 142.341 246.216 141.683 246.632C141.041 247.031 140.539 247.585 140.175 248.296C139.811 248.989 139.637 249.778 139.655 250.662C139.637 251.546 139.811 252.343 140.175 253.054C140.539 253.747 141.041 254.302 141.683 254.718C142.341 255.117 143.078 255.316 143.893 255.316ZM159.005 257.76C157.878 257.76 156.847 257.448 155.911 256.824C154.992 256.2 154.256 255.351 153.701 254.276C153.146 253.201 152.869 251.988 152.869 250.636C152.869 249.267 153.146 248.053 153.701 246.996C154.273 245.921 155.036 245.081 155.989 244.474C156.96 243.867 158.043 243.564 159.239 243.564C159.95 243.564 160.6 243.668 161.189 243.876C161.778 244.084 162.29 244.379 162.723 244.76C163.174 245.124 163.538 245.549 163.815 246.034C164.11 246.519 164.292 247.039 164.361 247.594L163.763 247.386V243.85H166.467V257.5H163.763V254.25L164.387 254.068C164.283 254.536 164.066 254.995 163.737 255.446C163.425 255.879 163.018 256.269 162.515 256.616C162.03 256.963 161.484 257.24 160.877 257.448C160.288 257.656 159.664 257.76 159.005 257.76ZM159.707 255.29C160.522 255.29 161.241 255.091 161.865 254.692C162.489 254.293 162.974 253.747 163.321 253.054C163.685 252.343 163.867 251.537 163.867 250.636C163.867 249.752 163.685 248.963 163.321 248.27C162.974 247.577 162.489 247.031 161.865 246.632C161.241 246.233 160.522 246.034 159.707 246.034C158.91 246.034 158.199 246.233 157.575 246.632C156.968 247.031 156.483 247.577 156.119 248.27C155.772 248.963 155.599 249.752 155.599 250.636C155.599 251.537 155.772 252.343 156.119 253.054C156.483 253.747 156.968 254.293 157.575 254.692C158.199 255.091 158.91 255.29 159.707 255.29ZM170.206 257.5V243.85H172.91V248.14L172.65 247.1C172.841 246.441 173.161 245.843 173.612 245.306C174.08 244.769 174.609 244.344 175.198 244.032C175.805 243.72 176.429 243.564 177.07 243.564C177.365 243.564 177.642 243.59 177.902 243.642C178.179 243.694 178.396 243.755 178.552 243.824L177.85 246.736C177.642 246.649 177.408 246.58 177.148 246.528C176.905 246.459 176.663 246.424 176.42 246.424C175.952 246.424 175.501 246.519 175.068 246.71C174.652 246.883 174.279 247.135 173.95 247.464C173.638 247.776 173.387 248.149 173.196 248.582C173.005 248.998 172.91 249.457 172.91 249.96V257.5H170.206ZM185.802 257.76C184.554 257.76 183.436 257.457 182.448 256.85C181.478 256.226 180.706 255.385 180.134 254.328C179.562 253.253 179.276 252.031 179.276 250.662C179.276 249.293 179.554 248.079 180.108 247.022C180.68 245.947 181.452 245.107 182.422 244.5C183.393 243.876 184.494 243.564 185.724 243.564C186.4 243.564 187.05 243.677 187.674 243.902C188.316 244.11 188.888 244.405 189.39 244.786C189.893 245.15 190.283 245.557 190.56 246.008C190.855 246.441 191.002 246.883 191.002 247.334L190.222 247.386V238.26H192.9V257.5H190.222V254.25H190.742C190.742 254.666 190.604 255.082 190.326 255.498C190.049 255.897 189.676 256.269 189.208 256.616C188.758 256.963 188.229 257.24 187.622 257.448C187.033 257.656 186.426 257.76 185.802 257.76ZM186.166 255.446C186.981 255.446 187.7 255.238 188.324 254.822C188.948 254.406 189.434 253.843 189.78 253.132C190.144 252.404 190.326 251.581 190.326 250.662C190.326 249.743 190.144 248.929 189.78 248.218C189.434 247.49 188.948 246.918 188.324 246.502C187.7 246.086 186.981 245.878 186.166 245.878C185.352 245.878 184.632 246.086 184.008 246.502C183.384 246.918 182.89 247.49 182.526 248.218C182.18 248.929 182.006 249.743 182.006 250.662C182.006 251.581 182.18 252.404 182.526 253.132C182.89 253.843 183.384 254.406 184.008 254.822C184.632 255.238 185.352 255.446 186.166 255.446ZM197.029 257.5V243.85H199.707V257.5H197.029ZM198.329 240.834C197.757 240.834 197.315 240.687 197.003 240.392C196.691 240.097 196.535 239.681 196.535 239.144C196.535 238.641 196.691 238.234 197.003 237.922C197.332 237.61 197.774 237.454 198.329 237.454C198.901 237.454 199.343 237.601 199.655 237.896C199.967 238.191 200.123 238.607 200.123 239.144C200.123 239.647 199.958 240.054 199.629 240.366C199.317 240.678 198.884 240.834 198.329 240.834ZM203.823 257.5V243.85H206.501V246.658L206.033 246.97C206.207 246.363 206.545 245.809 207.047 245.306C207.55 244.786 208.148 244.37 208.841 244.058C209.535 243.729 210.245 243.564 210.973 243.564C212.013 243.564 212.88 243.772 213.573 244.188C214.267 244.587 214.787 245.202 215.133 246.034C215.48 246.866 215.653 247.915 215.653 249.18V257.5H212.975V249.362C212.975 248.582 212.871 247.941 212.663 247.438C212.455 246.918 212.135 246.545 211.701 246.32C211.268 246.077 210.731 245.973 210.089 246.008C209.569 246.008 209.093 246.095 208.659 246.268C208.226 246.424 207.845 246.649 207.515 246.944C207.203 247.239 206.952 247.585 206.761 247.984C206.588 248.365 206.501 248.781 206.501 249.232V257.5H205.175C204.95 257.5 204.725 257.5 204.499 257.5C204.274 257.5 204.049 257.5 203.823 257.5ZM225.396 263.48C224.425 263.48 223.455 263.324 222.484 263.012C221.531 262.717 220.759 262.327 220.17 261.842L221.158 259.762C221.505 260.022 221.912 260.247 222.38 260.438C222.848 260.646 223.342 260.802 223.862 260.906C224.382 261.027 224.893 261.088 225.396 261.088C226.349 261.088 227.147 260.932 227.788 260.62C228.429 260.308 228.915 259.849 229.244 259.242C229.573 258.635 229.738 257.881 229.738 256.98V254.354L230.024 254.536C229.937 255.073 229.651 255.593 229.166 256.096C228.698 256.581 228.109 256.98 227.398 257.292C226.687 257.604 225.959 257.76 225.214 257.76C223.914 257.76 222.753 257.457 221.73 256.85C220.725 256.226 219.927 255.385 219.338 254.328C218.749 253.253 218.454 252.031 218.454 250.662C218.454 249.293 218.74 248.079 219.312 247.022C219.901 245.947 220.699 245.107 221.704 244.5C222.727 243.876 223.871 243.564 225.136 243.564C225.656 243.564 226.159 243.633 226.644 243.772C227.129 243.893 227.58 244.075 227.996 244.318C228.412 244.543 228.785 244.795 229.114 245.072C229.443 245.349 229.712 245.644 229.92 245.956C230.128 246.268 230.258 246.563 230.31 246.84L229.738 247.048V243.85H232.416V256.668C232.416 257.76 232.251 258.722 231.922 259.554C231.61 260.403 231.151 261.114 230.544 261.686C229.937 262.275 229.201 262.717 228.334 263.012C227.467 263.324 226.488 263.48 225.396 263.48ZM225.5 255.29C226.349 255.29 227.103 255.091 227.762 254.692C228.421 254.293 228.932 253.747 229.296 253.054C229.66 252.361 229.842 251.563 229.842 250.662C229.842 249.761 229.651 248.963 229.27 248.27C228.906 247.559 228.395 247.005 227.736 246.606C227.095 246.207 226.349 246.008 225.5 246.008C224.668 246.008 223.923 246.216 223.264 246.632C222.623 247.031 222.111 247.585 221.73 248.296C221.366 248.989 221.184 249.778 221.184 250.662C221.184 251.546 221.366 252.343 221.73 253.054C222.111 253.747 222.623 254.293 223.264 254.692C223.923 255.091 224.668 255.29 225.5 255.29Z" fill="black"/>
</g>
<defs>
<filter id="filter0_d_84730_8521" x="0" y="0.5" width="290" height="308" filterUnits="userSpaceOnUse" color-interpolation-filters="sRGB">
<feFlood flood-opacity="0" result="BackgroundImageFix"/>
<feColorMatrix in="SourceAlpha" type="matrix" values="0 0 0 0 0 0 0 0 0 0 0 0 0 0 0 0 0 0 127 0" result="hardAlpha"/>
<feOffset dy="4"/>
<feGaussianBlur stdDeviation="5"/>
<feComposite in2="hardAlpha" operator="out"/>
<feColorMatrix type="matrix" values="0 0 0 0 0 0 0 0 0 0 0 0 0 0 0 0 0 0 0.1 0"/>
<feBlend mode="normal" in2="BackgroundImageFix" result="effect1_dropShadow_84730_8521"/>
<feBlend mode="normal" in="SourceGraphic" in2="effect1_dropShadow_84730_8521" result="shape"/>
</filter>
</defs>
</svg>
