<svg width="200" height="181" viewBox="0 0 200 181" fill="none" xmlns="http://www.w3.org/2000/svg">
<path d="M192.23 0.523438H8.49652C4.27539 0.523438 0.840332 3.98534 0.840332 8.23919L0.840332 172.848C0.840332 177.102 4.2755 180.564 8.49652 180.564H192.23C196.451 180.564 199.886 177.102 199.886 172.848V8.23919C199.886 3.98522 196.451 0.523438 192.23 0.523438ZM196.823 172.848C196.823 175.401 194.762 177.477 192.23 177.477H8.49652C5.96336 177.477 3.90355 175.4 3.90355 172.848V21.7258H196.822L196.823 172.848ZM3.90504 8.23919C3.90504 5.68632 5.96615 3.61049 8.49801 3.61049H192.232C194.765 3.61049 196.825 5.68764 196.825 8.23919V18.6365H3.90653L3.90504 8.23919Z" fill="#2D5DEB"/>
<path d="M24.155 6.51172C21.6335 6.51172 19.5825 8.5786 19.5825 11.1213C19.5825 13.664 21.6334 15.7309 24.155 15.7309C26.678 15.7309 28.729 13.664 28.729 11.1213C28.729 8.5786 26.6781 6.51172 24.155 6.51172ZM24.155 13.4166C22.9001 13.4166 21.879 12.3875 21.879 11.1213C21.879 9.85513 22.9001 8.82607 24.155 8.82607C25.4114 8.82607 26.4326 9.85513 26.4326 11.1213C26.4326 12.3875 25.4114 13.4166 24.155 13.4166Z" fill="#2D5DEB"/>
<path d="M37.3923 6.51172C34.8708 6.51172 32.8198 8.5786 32.8198 11.1213C32.8198 13.664 34.8707 15.7309 37.3923 15.7309C39.9154 15.7309 41.9664 13.664 41.9664 11.1213C41.9664 8.5786 39.9154 6.51172 37.3923 6.51172ZM37.3923 13.4166C36.1374 13.4166 35.1163 12.3875 35.1163 11.1213C35.1163 9.85513 36.1374 8.82607 37.3923 8.82607C38.6488 8.82607 39.6699 9.85513 39.6699 11.1213C39.6699 12.3875 38.6488 13.4166 37.3923 13.4166Z" fill="#2D5DEB"/>
<path d="M50.6297 6.51172C48.1067 6.51172 46.0557 8.5786 46.0557 11.1213C46.0557 13.664 48.1066 15.7309 50.6297 15.7309C53.1528 15.7309 55.2037 13.664 55.2037 11.1213C55.2037 8.5786 53.1513 6.51172 50.6297 6.51172ZM50.6297 13.4166C49.3733 13.4166 48.3521 12.3875 48.3521 11.1213C48.3521 9.85513 49.3733 8.82607 50.6297 8.82607C51.8861 8.82607 52.9072 9.85513 52.9072 11.1213C52.9072 12.3875 51.8846 13.4166 50.6297 13.4166Z" fill="#2D5DEB"/>
<path d="M97.7607 9.96484H180.001V12.2791H97.7607V9.96484Z" fill="#2D5DEB"/>
<path d="M187.638 27.8047H82.5933V89.4333L187.638 89.4319V27.8047ZM184.575 86.3455H85.6541V30.8925H184.575V86.3455Z" fill="#2D5DEB"/>
<path d="M71.088 27.7891H13.0884V89.4177H71.088V27.7891ZM68.0261 86.3336H16.1544V30.8769H68.0261V86.3336Z" fill="#2D5DEB"/>
<path d="M13.1069 168.205H128.05V100.828H13.1069V168.205ZM16.1688 103.912H124.984V165.121H16.1688V103.912Z" fill="#2D5DEB"/>
<path d="M40.6087 55.2358C45.5125 55.2358 49.5024 51.2161 49.5024 46.273C49.5024 41.331 45.5136 37.3086 40.6087 37.3086C35.6892 37.3086 31.6875 41.3295 31.6875 46.273C31.686 51.2149 35.6892 55.2358 40.6087 55.2358ZM40.6087 40.3945C43.8231 40.3945 46.4406 43.0308 46.4406 46.2733C46.4406 49.5127 43.8247 52.1507 40.6087 52.1507C37.3769 52.1507 34.7492 49.5143 34.7492 46.2733C34.7478 43.0325 37.3768 40.3945 40.6087 40.3945Z" fill="#2D5DEB"/>
<path d="M25.7692 79.9192H55.4379C56.8381 79.9192 58.1497 79.2927 59.0401 78.1992C59.8884 77.157 60.2283 75.8147 59.9712 74.5178C58.1469 65.2652 50.0114 58.5508 40.628 58.5508C31.2186 58.5508 23.0616 65.2653 21.2373 74.5193C20.9817 75.8162 21.323 77.1571 22.1698 78.2007C23.0573 79.2927 24.3704 79.9192 25.7692 79.9192ZM40.6268 61.6378C48.5544 61.6378 55.4264 67.3087 56.9673 75.1207C57.0719 75.6506 56.8264 76.0503 56.671 76.242C56.3689 76.6109 55.9084 76.8334 55.4364 76.8334H25.7691C25.2985 76.8334 24.838 76.6123 24.5359 76.242C24.3805 76.0503 24.135 75.6506 24.2382 75.1207C25.7807 67.3083 32.6746 61.6378 40.6268 61.6378Z" fill="#2D5DEB"/>
<path d="M95.0165 78.1501C98.4619 78.1501 101.264 75.3396 101.264 71.885C101.264 70.4944 100.799 69.2194 100.039 68.1757L105.689 61.6823C106.509 62.079 107.403 62.3118 108.329 62.3118C110.23 62.3118 111.979 61.4218 113.137 59.9902L127.242 67.583C127.091 68.129 127.007 68.6941 127.007 69.2547C127.007 72.7093 129.809 75.5199 133.254 75.5199C136.699 75.5199 139.501 72.7094 139.501 69.2547C139.501 67.9373 139.073 66.6755 138.322 65.6127L151.439 50.5121C152.26 50.9103 153.155 51.1416 154.078 51.1416C155.939 51.1416 157.631 50.316 158.793 48.9458L167.37 53.4865C167.258 53.9564 167.184 54.4409 167.184 54.9459C167.184 58.4005 169.986 61.211 173.432 61.211C176.877 61.211 179.679 58.4005 179.679 54.9459C179.679 51.4738 176.877 48.65 173.432 48.65C171.588 48.65 169.947 49.4741 168.803 50.7579L160.17 46.1895C160.265 45.7577 160.324 45.3171 160.324 44.8779C160.324 41.4058 157.522 38.582 154.078 38.582C150.633 38.582 147.831 41.4057 147.831 44.8779C147.831 46.2627 148.286 47.5464 149.057 48.5726L135.985 63.6189C135.139 63.2031 134.211 62.9616 133.251 62.9616C131.521 62.9616 129.934 63.6803 128.768 64.9099L114.445 57.1987C114.519 56.821 114.572 56.4375 114.572 56.0467C114.572 52.5745 111.77 49.7508 108.326 49.7508C104.88 49.7508 102.078 52.5745 102.078 56.0467C102.078 57.4314 102.533 58.7137 103.304 59.7398L97.6744 66.21C96.8639 65.8221 95.9692 65.5894 95.0149 65.5894C91.5695 65.5894 88.7676 68.413 88.7676 71.8852C88.769 75.3398 91.5711 78.1501 95.0165 78.1501ZM173.43 51.736C175.186 51.736 176.616 53.1764 176.616 54.9461C176.616 56.6982 175.186 58.1255 173.43 58.1255C171.674 58.1255 170.245 56.6982 170.245 54.9461C170.246 53.1763 171.676 51.736 173.43 51.736ZM154.079 41.6665C155.835 41.6665 157.262 43.1069 157.262 44.8766C157.262 45.3465 157.149 45.8222 156.928 46.2643C156.077 48.0165 153.711 48.681 152.056 47.2846C151.316 46.7254 150.893 45.8486 150.893 44.8766C150.893 43.1069 152.322 41.6665 154.079 41.6665ZM130.502 67.6606C131.091 66.6506 132.12 66.049 133.254 66.049C134.008 66.049 134.734 66.3139 135.292 66.7897C136.033 67.4249 136.439 68.3018 136.439 69.2562C136.439 71.0083 135.01 72.4355 133.254 72.4355C131.498 72.4355 130.069 71.0083 130.069 69.2562C130.069 68.7028 130.221 68.1378 130.502 67.6606ZM108.329 52.838C110.085 52.838 111.513 54.2784 111.513 56.0482C111.513 56.4814 111.419 56.906 111.217 57.3348C110.412 59.1631 107.998 59.8863 106.306 58.4532C105.567 57.8969 105.144 57.0201 105.144 56.0482C105.144 54.2784 106.573 52.838 108.329 52.838ZM95.0184 68.675C96.7745 68.675 98.2037 70.1154 98.2037 71.8851C98.2037 73.6373 96.7745 75.0645 95.0184 75.0645C93.2623 75.0645 91.8331 73.6373 91.8331 71.8851C91.8331 70.1154 93.2624 68.675 95.0184 68.675Z" fill="#2D5DEB"/>
<path d="M78.7524 157.057H97.3634V138.301H78.7524V157.057ZM81.8143 141.388H94.3015V153.973H81.8143V141.388Z" fill="#2D5DEB"/>
<path d="M78.7524 130.725H97.3634V111.969H78.7524V130.725ZM81.8143 115.056H94.3015V127.64H81.8143V115.056Z" fill="#2D5DEB"/>
<path d="M103.613 115.105H120.039V118.191H103.613V115.105Z" fill="#2D5DEB"/>
<path d="M103.613 124.504H116.978V127.59H103.613V124.504Z" fill="#2D5DEB"/>
<path d="M103.613 141.434H120.039V144.519H103.613V141.434Z" fill="#2D5DEB"/>
<path d="M103.613 150.836H116.977V153.922H103.613V150.836Z" fill="#2D5DEB"/>
<path d="M139.942 168.205H187.638V100.836H139.942V168.205ZM165.148 134.522L184.573 105.908V163.137L165.148 134.522ZM182.212 165.12H144.377L163.296 137.253L182.212 165.12ZM163.293 131.789L144.374 103.923H182.209L163.293 131.789ZM161.438 134.522L143.004 161.675V107.365L161.438 134.522Z" fill="#2D5DEB"/>
<path d="M45.5802 112.812C33.6928 112.812 24.022 122.559 24.022 134.538C24.022 146.518 33.6928 156.264 45.5802 156.264C57.4675 156.264 67.1383 146.518 67.1383 134.538C67.1383 122.559 57.4675 112.812 45.5802 112.812ZM45.5802 153.179C35.3806 153.179 27.0841 144.818 27.0841 134.539C27.0841 124.26 35.3806 115.899 45.5802 115.899C55.7797 115.899 64.0762 124.26 64.0762 134.539C64.0762 144.816 55.7797 153.179 45.5802 153.179Z" fill="#2D5DEB"/>
</svg>
