<svg width="24" height="22" viewBox="0 0 24 22" fill="none" xmlns="http://www.w3.org/2000/svg">
<path d="M21.3333 0H2.66667C1.2 0 0 1.1 0 2.44444V19.5556C0 20.9 1.2 22 2.66667 22H21.3333C22.8 22 24 20.9 24 19.5556V2.44444C24 1.1 22.8 0 21.3333 0ZM10.6667 13.4444C10.6667 14.1167 10.0667 14.6667 9.33333 14.6667H4.66667V12.8333H8.66667V11.6111H6V10.3889H8.66667V9.16667H4.66667V7.33333H9.33333C10.0667 7.33333 10.6667 7.88333 10.6667 8.55556V13.4444ZM20 14.6667H17.6667L15.3333 11.9167V14.6667H13.3333V7.33333H15.3333V10.0833L17.6667 7.33333H20L17 11L20 14.6667Z" fill="white"/>
</svg>
