<svg width="212" height="211" viewBox="0 0 212 211" fill="none" xmlns="http://www.w3.org/2000/svg">
<path d="M151.446 99.0137C151.016 87.9433 145.989 77.662 137.304 70.0842C128.828 62.6168 117.711 58.5156 106.008 58.5156C94.2973 58.5156 83.1826 62.6168 74.7122 70.0587C66.0136 77.662 60.9854 87.9433 60.5566 99.0209C60.5356 99.5252 60.5186 100.054 60.5186 100.583C60.5186 111.432 64.9622 121.71 73.0302 129.525C73.8508 130.311 74.7671 131.129 75.7436 131.945V148.365C75.7436 153.909 80.6315 158.434 86.6392 158.434H125.364C131.367 158.434 136.261 153.909 136.261 148.365V131.959C137.168 131.213 138.071 130.413 138.995 129.528C147.043 121.684 151.486 111.398 151.486 100.586C151.486 100.065 151.466 99.5483 151.446 99.0137ZM135.958 126.832C134.896 127.845 133.86 128.74 132.799 129.58C132.325 129.946 132.061 130.502 132.061 131.059V148.362C132.061 151.764 129.052 154.545 125.361 154.545L86.6399 154.544C82.9473 154.544 79.9389 151.763 79.9389 148.36V131.058C79.9389 130.504 79.678 129.959 79.2114 129.598C78.0592 128.672 77.0053 127.751 76.0694 126.841C68.7486 119.746 64.7204 110.421 64.7204 100.58C64.7204 100.09 64.7349 99.6115 64.7558 99.14C65.1425 89.0998 69.7041 79.7741 77.5967 72.8883C85.295 66.1226 95.3818 62.3951 106.009 62.3951C116.631 62.3951 126.713 66.1229 134.413 72.9007C142.305 79.7754 146.864 89.1001 147.259 99.1741C147.276 99.6384 147.285 100.104 147.285 100.58C147.282 110.395 143.261 119.729 135.958 126.832L135.958 126.832Z" fill="#2D5DEB"/>
<path d="M131.09 162.949H80.9262C79.7688 162.949 78.8276 163.816 78.8276 164.897C78.8276 165.963 79.7688 166.835 80.9262 166.835H131.09C132.252 166.835 133.189 165.962 133.189 164.897C133.189 163.816 132.252 162.949 131.09 162.949Z" fill="#2D5DEB"/>
<path d="M131.09 172.449H80.9262C79.7688 172.449 78.8276 173.322 78.8276 174.392C78.8276 175.463 79.7688 176.332 80.9262 176.332H131.09C132.252 176.332 133.189 175.463 133.189 174.392C133.189 173.321 132.252 172.449 131.09 172.449Z" fill="#2D5DEB"/>
<path d="M92.9975 190.999H119.017C121.849 190.999 124.153 188.878 124.153 186.254H87.8613C87.8613 188.88 90.1579 190.999 92.9972 190.999H92.9975Z" fill="#2D5DEB"/>
<path d="M106.008 49.2957C107.158 49.2957 108.103 48.4253 108.103 47.3476L108.104 21.9348C108.104 20.8644 107.159 20 106.009 20C104.848 20 103.903 20.8656 103.903 21.9348V47.3501C103.902 48.4253 104.849 49.2957 106.008 49.2957Z" fill="#2D5DEB"/>
<path d="M189.407 97.1406H164.053C162.89 97.1406 161.952 98.0037 161.952 99.0681C161.952 100.151 162.889 101.016 164.053 101.016H189.407C190.569 101.016 191.5 100.151 191.5 99.0681C191.5 98.0037 190.571 97.1406 189.407 97.1406Z" fill="#2D5DEB"/>
<path d="M50.0548 99.0681C50.0548 98.0025 49.1149 97.1406 47.9562 97.1406H22.5986C21.4372 97.1406 20.5 98.0037 20.5 99.0681C20.5 100.151 21.4399 101.016 22.5986 101.016H47.9562C49.1136 101.015 50.0548 100.149 50.0548 99.0681Z" fill="#2D5DEB"/>
<path d="M149.625 136.679C148.802 135.92 147.475 135.92 146.656 136.679C145.837 137.425 145.837 138.663 146.656 139.417L163.507 155.005C163.919 155.386 164.454 155.579 164.993 155.579C165.525 155.579 166.067 155.386 166.479 155.005C167.299 154.243 167.299 153.016 166.479 152.257L149.625 136.679Z" fill="#2D5DEB"/>
<path d="M64.5479 63.4813C64.9595 63.862 65.4969 64.062 66.0331 64.062C66.5666 64.062 67.104 63.862 67.5156 63.4813C68.3336 62.72 68.3336 61.4944 67.5156 60.7283L48.5218 43.1686C47.6986 42.4073 46.3734 42.4073 45.5475 43.1686C44.7322 43.9299 44.7322 45.1555 45.5475 45.9168L64.5479 63.4813Z" fill="#2D5DEB"/>
<path d="M145.971 64.0766C146.508 64.0766 147.046 63.8838 147.456 63.5032L166.481 45.9168C167.3 45.1555 167.3 43.93 166.481 43.1686C165.658 42.4073 164.331 42.4073 163.508 43.1686L144.488 60.7612C143.667 61.5225 143.667 62.7481 144.488 63.5021C144.896 63.884 145.432 64.0766 145.971 64.0766Z" fill="#2D5DEB"/>
<path d="M62.3971 136.677L45.5466 152.257C44.7312 153.016 44.7312 154.242 45.5466 155.006C45.9582 155.386 46.4969 155.579 47.0383 155.579C47.5717 155.579 48.1079 155.386 48.5208 155.006L65.3754 139.417C66.1907 138.661 66.1907 137.425 65.3754 136.679C64.5469 135.92 63.2229 135.92 62.3971 136.677Z" fill="#2D5DEB"/>
</svg>
