<svg width="412" height="31" viewBox="0 0 412 31" fill="none" xmlns="http://www.w3.org/2000/svg">
<path fill-rule="evenodd" clip-rule="evenodd" d="M294.53 0.0993961C294.396 0.204227 288.685 0.349407 281.838 0.422185C274.991 0.494586 266.998 0.650702 264.076 0.768354C256.253 1.08322 254.408 1.09303 253.847 0.822654C253.57 0.68841 253.228 0.668425 253.087 0.778158C252.758 1.03496 247.666 1.27931 238.085 1.49802C233.885 1.59418 230.279 1.75445 230.071 1.85475C229.863 1.95506 227.757 2.147 225.39 2.28124C223.023 2.41549 221.018 2.66813 220.934 2.84273C220.85 3.01732 220.306 3.02826 219.726 2.86686C218.784 2.60516 217.539 2.57763 214.943 2.76203C214.364 2.80313 214.21 3.01958 214.433 3.48077C214.732 4.09542 214.693 4.09429 213.879 3.4638C213.161 2.90797 212.518 2.82878 210.283 3.01958C208.787 3.14742 206.53 3.23151 205.268 3.20624C203.851 3.17796 202.973 3.32352 202.973 3.58635C202.973 3.87181 202.456 3.92121 201.404 3.73681C200.54 3.58522 199.616 3.4785 199.351 3.5C199.085 3.52112 197.238 3.5724 195.245 3.61388C193.253 3.65536 191.423 3.77603 191.181 3.88123C190.646 4.11352 189.168 4.23042 183.169 4.51437C180.646 4.63391 177.929 4.79983 177.132 4.88241C173.659 5.24366 169.628 5.51253 166.264 5.60718C164.271 5.66336 161.446 5.90583 159.984 6.14566C157.268 6.59176 151.389 7.00732 148.433 6.96206C147.526 6.94811 146.606 7.15627 146.388 7.42438C146.066 7.8207 145.99 7.81919 145.984 7.41721C145.977 6.95339 144.845 6.97225 141.147 7.49678C138.369 7.89121 135.704 8.16611 133.418 8.2947C131.957 8.37728 129.566 8.53792 128.105 8.65218C126.644 8.76682 124.035 8.93349 122.309 9.02286C120.582 9.11223 119.169 9.20877 119.169 9.23705C119.169 9.29248 118.434 9.44106 116.578 9.76158C115.949 9.87018 113.776 10.067 111.747 10.1994C107.773 10.4584 106.127 10.607 106.127 10.7066C106.127 10.7413 104.823 10.848 103.229 10.9438C98.598 11.2224 96.6423 11.4049 93.8103 11.822C92.3492 12.0373 89.9582 12.3152 88.4971 12.4397C87.0359 12.5645 84.9855 12.7391 83.9402 12.8281C82.8955 12.9171 81.8294 13.1546 81.572 13.3556C81.2696 13.5917 80.7875 13.5891 80.2118 13.3485C79.6288 13.1049 79.0134 13.1037 78.4372 13.3443C77.9517 13.5472 76.3756 13.7497 74.9352 13.7942C73.4944 13.8387 71.7724 14.0344 71.1083 14.2286C70.4441 14.4232 69.1399 14.6279 68.2101 14.6841C64.2339 14.9232 60.6837 15.3719 60.1625 15.7011C59.8108 15.9236 59.493 15.9187 59.3109 15.6879C59.1221 15.45 58.469 15.4492 57.4566 15.6857C56.5963 15.8867 54.7222 16.1333 53.291 16.2336C51.8593 16.3335 50.4967 16.5081 50.262 16.6216C50.0277 16.7347 48.9163 16.8999 47.7928 16.9889C44.9289 17.2159 43.1553 17.4463 40.9193 17.8818C39.8567 18.0889 38.6071 18.1673 38.142 18.0561C37.6768 17.9448 37.2962 17.9923 37.2957 18.162C37.2947 18.3313 36.6668 18.4871 35.8993 18.5082C35.1323 18.5289 34.1 18.676 33.6064 18.8348C33.1123 18.9935 31.5796 19.1598 30.2001 19.2039C28.8211 19.248 27.3981 19.4747 27.0382 19.7077C26.6784 19.9411 25.9597 20.1406 25.4404 20.1519C22.423 20.216 19.8243 20.5045 19.3002 20.8337C18.9703 21.0415 17.9936 21.3292 17.1305 21.4733C16.2668 21.6173 15.5597 21.8492 15.5587 21.988C15.5573 22.1271 14.8511 22.2802 13.9889 22.3281C11.3357 22.4756 10.4826 22.6984 10.6367 23.2033C10.7444 23.5563 10.6131 23.5804 10.1537 23.2916C9.27219 22.7373 6.65179 23.1208 5.47563 23.9764C4.93416 24.3701 4.13959 24.6921 3.7097 24.6921C2.65237 24.6921 -0.0554597 26.8332 0.601451 27.15C0.880638 27.285 0.977727 27.7186 0.81688 28.1142C0.493738 28.9087 1.01492 29.8631 1.49263 29.3518C1.65879 29.1742 2.28382 28.8152 2.88132 28.5543C3.83963 28.1357 3.96812 28.164 3.96812 28.793C3.96812 29.1938 4.39994 29.5943 4.95397 29.7074C5.78428 29.8771 5.88765 29.7798 5.60846 29.0931C5.42588 28.6444 4.92788 28.052 4.50138 27.7767C3.82321 27.3381 3.87731 27.3019 4.93416 27.4871C5.59832 27.6032 6.29774 27.7009 6.48901 27.7035C6.67981 27.7066 6.71072 27.9634 6.55809 28.2745C6.40497 28.5856 6.52041 28.8401 6.81457 28.8401C7.10873 28.8401 7.34928 28.6757 7.34928 28.4747C7.34928 28.2741 7.69705 28.2137 8.1226 28.3412C8.54766 28.4687 9.08816 28.3359 9.32291 28.0467C9.67068 27.6179 9.75087 27.6353 9.75715 28.1398C9.76101 28.4807 10.145 28.8846 10.6097 29.0373C11.8781 29.4544 15.5143 29.3397 16.2562 28.8589C16.7474 28.5407 17.0981 28.5856 17.6831 29.0426C18.3091 29.5313 18.4588 29.5453 18.4588 29.1139C18.4588 28.8201 18.8742 28.2861 19.3823 27.9275C20.2803 27.2929 20.2943 27.3136 19.9001 28.6776C19.5963 29.7308 19.6702 30.2165 20.1967 30.6279C21.1381 31.3628 22.321 30.9533 22.3302 29.8888C22.3355 29.2998 22.4621 29.1814 22.7311 29.5128C22.9601 29.7941 23.4832 29.8895 23.9802 29.7406C24.4507 29.5996 24.9796 29.6659 25.1554 29.888C25.5177 30.3462 29.0853 29.6331 29.0853 29.1025C29.0853 28.9336 28.8906 28.8895 28.653 29.0041C28.4149 29.1191 28.0941 28.9555 27.9391 28.6406C27.7101 28.1745 27.8347 28.1425 28.6134 28.4675C29.1384 28.687 29.5683 28.7496 29.5683 28.6063C29.5683 28.4634 30.003 28.6534 30.5344 29.0286C31.4033 29.6425 31.5004 29.6482 31.5004 29.0871C31.5004 28.7439 31.8264 28.463 32.2249 28.463C32.6234 28.463 33.4219 28.0942 33.9996 27.6432C34.6806 27.1115 34.9468 27.0323 34.7574 27.4181C34.3411 28.2643 34.8719 28.5245 35.6979 27.8793C36.6166 27.1624 37.2967 27.1832 37.2967 27.9287C37.2967 28.2571 37.5686 28.4506 37.9005 28.3586C38.2328 28.2665 38.4472 27.8057 38.3777 27.3347C38.2661 26.576 38.3434 26.5376 39.0539 26.998C39.7789 27.4675 39.8345 27.4004 39.6277 26.3027C39.4452 25.3301 39.5263 25.1695 40.034 25.4987C40.416 25.7461 40.5518 26.2732 40.3745 26.8242C40.1006 27.6753 40.2001 27.7322 41.8139 27.6474C43.5576 27.5557 44.2406 27.0086 43.7803 26.0723C43.6436 25.7943 43.8484 25.3622 44.2353 25.1114C44.8183 24.734 44.9932 24.852 45.2617 25.8053C45.5081 26.6824 45.8496 26.9546 46.7021 26.9546C47.899 26.9546 48.611 26.1341 47.8976 25.5771C47.6421 25.3776 47.8763 25.0379 48.469 24.749C49.0211 24.4798 49.3293 24.4417 49.153 24.6642C48.9651 24.9014 49.2331 25.0692 49.7983 25.0692C50.3296 25.0692 50.8986 24.8995 51.0628 24.6921C51.6685 23.9266 52.2805 24.341 51.9699 25.3068C51.7284 26.0575 51.8144 26.2566 52.323 26.1262C52.6925 26.0315 53.0621 25.5126 53.1442 24.9734C53.2949 23.9862 54.4783 22.8964 54.9772 23.2859C55.125 23.4009 54.8772 23.9345 54.4271 24.4707C53.9349 25.0575 53.8228 25.4463 54.1469 25.4463C54.443 25.4463 54.6855 25.3128 54.6855 25.1495C54.6855 24.9862 55.3535 24.8128 56.1693 24.7641C57.0798 24.7102 57.5358 24.8248 57.3484 25.0613C56.8813 25.6514 57.8715 25.5187 58.526 24.9029C58.8433 24.6042 59.3916 24.4462 59.7437 24.5518C60.0958 24.657 60.5093 24.585 60.6629 24.3912C60.816 24.1977 61.4647 24.117 62.1042 24.2124C62.7438 24.3078 63.4137 24.2004 63.5934 23.9734C64.0127 23.4436 67.2441 23.4319 67.2441 23.9602C67.2441 24.1796 67.4846 24.2434 67.7788 24.1016C68.1608 23.9172 68.1459 23.7629 67.7271 23.5608C66.9176 23.1702 67.8387 22.7584 70.3098 22.4058C71.7053 22.2063 72.4298 22.2761 72.9172 22.6566C73.8605 23.393 74.6565 23.315 74.2735 22.5238C73.9808 21.9186 74.019 21.9141 74.7353 22.4669C75.6443 23.1683 77.3866 23.0107 78.6961 22.1087C79.9316 21.2576 80.961 21.1169 80.6016 21.8485C80.4446 22.1682 80.5267 22.4296 80.7837 22.4296C81.0411 22.4296 81.2517 22.241 81.2517 22.0106C81.2517 21.7357 81.8343 21.6769 82.9423 21.839C84.4102 22.054 84.6329 21.9887 84.6329 21.3428C84.6329 20.5603 86.9881 18.8487 87.4842 19.2707C87.6426 19.4057 87.5011 19.592 87.1688 19.6843C86.8369 19.7771 86.565 20.1621 86.565 20.5403C86.565 21.4717 88.2338 21.1237 88.8381 20.0663L89.2892 19.2771L90.2717 20.0441C91.1566 20.7349 91.3817 20.759 92.5322 20.2884C93.6495 19.8318 93.8103 19.8386 93.8103 20.3435C93.8103 20.6697 94.2305 20.9212 94.7764 20.9212C95.3077 20.9212 95.7424 20.7515 95.7424 20.5441C95.7424 20.3367 96.2858 20.167 96.95 20.167C97.6141 20.167 98.1575 19.9792 98.1575 19.7496C98.1575 19.5199 98.4565 19.4219 98.8222 19.5312C99.2226 19.6512 99.4622 19.4958 99.4259 19.1398C99.3892 18.7823 99.7954 18.5214 100.455 18.4784C101.457 18.4132 101.49 18.4716 100.876 19.2032C100.26 19.9377 100.297 19.9962 101.353 19.9604C101.983 19.9385 102.642 19.808 102.819 19.6704C102.996 19.5324 103.408 19.5927 103.734 19.8043C104.534 20.3224 106.979 19.4615 106.644 18.7801C106.348 18.176 106.942 18.1258 107.67 18.6937C108.047 18.9886 108.473 18.9905 109.167 18.7005C109.922 18.3853 110.197 18.4192 110.411 18.854C110.562 19.1613 111.087 19.4128 111.577 19.4128C112.836 19.4128 115.262 17.3441 114.89 16.5877C114.703 16.2076 114.786 16.0737 115.111 16.2306C115.397 16.3686 115.518 16.8177 115.38 17.2291C115.081 18.1228 115.461 19.0357 116.133 19.0357C116.398 19.0357 116.491 18.7812 116.338 18.4701C116.026 17.8362 117.237 17.6711 117.72 18.2816C117.884 18.489 118.386 18.6451 118.835 18.6289C119.338 18.6104 119.42 18.5259 119.048 18.409C118.716 18.3042 118.46 17.8509 118.478 17.4018C118.511 16.6107 118.526 16.6084 118.927 17.3388C119.156 17.7536 119.358 17.8709 119.377 17.5994C119.395 17.3279 119.628 17.2106 119.894 17.3388C120.159 17.467 120.383 17.3498 120.392 17.0783C120.401 16.7796 120.695 16.8818 121.135 17.337C121.76 17.9825 121.929 18.0093 122.323 17.5255C122.575 17.2155 122.686 16.7581 122.569 16.5096C122.448 16.249 122.639 16.1416 123.021 16.2558C123.809 16.4923 124.354 17.4561 123.972 17.9384C123.617 18.3879 124.352 18.3732 125.949 17.8992C126.797 17.6473 127.143 17.3256 126.962 16.9565C126.81 16.6484 126.897 16.3961 127.154 16.3961C127.411 16.3961 127.622 16.5552 127.622 16.7498C127.622 17.5247 129.68 16.9418 130.117 16.0428C130.488 15.2814 130.66 15.2071 131.02 15.6548C131.264 15.9587 131.341 16.5172 131.189 16.8954C130.95 17.4965 131.119 17.5526 132.529 17.3388C133.417 17.2042 134.528 17.0967 134.999 17.0994C135.469 17.1024 135.728 16.9452 135.574 16.7502C135.419 16.5556 135.614 16.3961 136.006 16.3961C136.398 16.3961 136.81 16.608 136.922 16.8675C137.08 17.2351 137.301 17.2253 137.926 16.823C138.366 16.5394 139.166 16.3969 139.703 16.5066C140.241 16.6163 140.989 16.4655 141.366 16.171C141.787 15.8425 142.165 15.7807 142.347 16.0103C142.751 16.5198 144.952 16.3399 145.583 15.7464C145.971 15.381 145.843 15.2648 145.053 15.2648C144.117 15.2648 144.072 15.1789 144.61 14.4164C145.129 13.6829 145.234 13.6573 145.387 14.2278C145.485 14.591 145.968 14.8877 146.461 14.8877C146.953 14.8877 147.644 15.1114 147.995 15.3848C148.348 15.6597 149.932 15.9225 151.543 15.9734C154.037 16.0522 154.65 15.9327 155.842 15.1332C157.112 14.281 158.894 14.1294 158.262 14.9273C158.116 15.1129 158.207 15.2648 158.467 15.2648C158.726 15.2648 159.047 15.0525 159.182 14.7935C159.376 14.4164 159.433 14.4164 159.463 14.7935C159.523 15.5303 162.747 15.3866 163.295 14.6227C163.67 14.1 163.89 14.0676 164.479 14.4499C165.059 14.8255 165.254 14.8218 165.456 14.4322C165.631 14.0928 165.828 14.0687 166.106 14.353C166.326 14.5774 167.266 14.7471 168.196 14.7301C169.625 14.7041 169.865 14.5767 169.748 13.9084C169.671 13.4737 169.957 12.8926 170.382 12.6169C171.064 12.175 171.119 12.2293 170.844 13.0838C170.666 13.6347 170.757 14.1596 171.055 14.3033C171.342 14.4417 171.577 14.3696 171.577 14.143C171.577 13.9032 172.133 13.8021 172.905 13.9013C173.636 13.9948 174.234 14.0996 174.234 14.1336C174.234 14.1675 174.86 14.2754 175.625 14.3726C176.853 14.5288 176.984 14.4549 176.745 13.7414C176.494 12.991 176.536 12.9763 177.324 13.5332C178.382 14.2806 179.305 14.307 179.305 13.5902C179.305 13.2911 179.559 12.9242 179.87 12.7742C180.251 12.5909 180.335 12.707 180.127 13.129C179.9 13.5909 180.085 13.7565 180.829 13.7565C181.631 13.7565 181.725 13.6498 181.288 13.238C180.845 12.8213 180.976 12.7195 181.953 12.7195C182.663 12.7195 183.169 12.9352 183.169 13.238C183.169 13.9326 183.962 13.8998 184.31 13.1908C184.463 12.8797 184.867 12.6388 185.207 12.655C185.692 12.6784 185.695 12.7259 185.222 12.8748C184.891 12.9797 184.619 13.2267 184.619 13.4243C184.619 13.6362 185.013 13.6181 185.585 13.3794C186.116 13.1573 186.551 13.1143 186.551 13.284C186.551 14.0106 189.212 13.6995 190.731 12.7953C192.282 11.8714 192.347 11.8639 192.347 12.606C192.347 13.5792 194.023 13.6592 194.723 12.7195C194.997 12.3533 195.222 12.2692 195.231 12.5309C195.239 12.8043 195.875 13.0023 196.746 13.0023C197.78 13.0023 198.172 12.8496 198.005 12.5109C197.692 11.8733 201.054 11.6546 201.55 12.2805C201.742 12.523 202.152 12.6003 202.46 12.4514C202.869 12.2542 202.877 12.046 202.49 11.6825C202.174 11.3842 202.142 11.0965 202.412 10.966C202.66 10.8461 202.983 11.1052 203.129 11.5411L203.395 12.3337L204.828 11.5369C206.506 10.604 207.044 10.5297 206.675 11.2809C206.528 11.5788 206.669 11.9046 206.985 12.0053C207.303 12.1063 207.139 12.2021 206.62 12.2183C206.046 12.2364 205.858 12.3797 206.137 12.5849C206.39 12.77 207.296 12.8364 208.151 12.7323C209.388 12.5815 209.684 12.3782 209.6 11.7357C209.538 11.259 209.742 10.9668 210.098 11.0226C210.43 11.0746 210.705 10.9049 210.709 10.6455C210.714 10.3314 210.873 10.3627 211.185 10.7398C211.442 11.0509 211.66 11.1357 211.668 10.9283C211.676 10.7209 211.865 10.7763 212.089 11.0512C212.312 11.3261 213.392 11.6452 214.489 11.7598C216.176 11.9366 216.637 11.8303 217.482 11.0716C218.387 10.2593 218.456 10.2469 218.214 10.9419C218.016 11.5135 218.194 11.73 218.914 11.7903C220.43 11.917 221.456 11.908 223.019 11.7545C223.816 11.6761 225.12 11.5799 225.917 11.5411C227.239 11.4762 227.291 11.4253 226.51 10.9626C225.699 10.4826 225.705 10.4445 226.63 10.2556C227.261 10.127 227.608 10.2397 227.608 10.5746C227.608 10.8729 227.906 11.0041 228.309 10.883C228.695 10.7677 229.275 10.8008 229.599 10.957C229.923 11.1135 231.075 11.2085 232.158 11.1685C233.242 11.1285 235.161 11.058 236.423 11.012C237.879 10.9588 238.717 10.756 238.717 10.4569C238.717 10.1696 239.377 9.98557 240.408 9.98557C241.337 9.98557 242.098 10.1654 242.098 10.3849C242.098 10.6044 242.325 10.6749 242.603 10.541C242.88 10.4072 243.418 10.4999 243.8 10.7469C244.28 11.0576 244.906 11.0878 245.832 10.8442C246.568 10.6508 248.009 10.5614 249.033 10.6455C250.347 10.7533 250.796 10.6711 250.555 10.3668C250.344 10.1017 250.5 9.98105 250.959 10.0546C251.369 10.1202 252.054 9.83474 252.481 9.41994C253.247 8.67632 253.254 8.67745 252.959 9.51421C252.745 10.1225 252.866 10.3627 253.388 10.3627C253.789 10.3627 254.26 10.1813 254.436 9.95993C254.611 9.7382 255.059 9.64808 255.43 9.75932C255.805 9.87169 256.106 9.7333 256.106 9.4486C256.106 8.4757 257.529 8.47307 258.344 9.44445C258.997 10.2216 259.473 10.3717 261.054 10.2989C262.135 10.2492 263.083 9.98708 263.225 9.69936C263.363 9.41805 263.801 9.28569 264.199 9.40485C264.597 9.52402 265.259 9.40636 265.67 9.14353C266.312 8.73288 266.378 8.78454 266.137 9.51421C265.983 9.98067 265.92 10.3627 265.998 10.3627C266.488 10.3627 268.883 9.19557 269.235 8.78492C269.503 8.47156 269.549 8.66086 269.36 9.29814L269.061 10.308L273.286 10.1632C275.609 10.0832 277.726 9.84982 277.99 9.64393C278.253 9.43804 278.6 8.63861 278.761 7.86746C278.921 7.09631 279.326 6.39417 279.659 6.30744C280.125 6.18601 280.149 6.387 279.764 7.17738C279.489 7.74226 279.371 8.28829 279.502 8.39048C279.633 8.49267 279.523 8.89352 279.257 9.28079C278.883 9.82682 278.941 9.98557 279.516 9.98557C279.923 9.98557 280.257 9.82644 280.257 9.63186C280.257 9.43728 280.638 9.29663 281.102 9.31963C281.567 9.34226 282.414 9.24082 282.984 9.09451C283.605 8.935 284.281 9.02211 284.674 9.31285C285.734 10.0964 287.21 9.8815 287.826 8.8543L288.39 7.91158L288.429 8.96102C288.468 10.0052 288.481 10.0093 291.246 9.82833C292.774 9.7284 295.041 9.6379 296.285 9.62734C298.168 9.6115 298.602 9.47198 298.879 8.79284C299.173 8.06845 299.261 8.04771 299.661 8.60693C300.013 9.09753 300.32 9.14956 301.053 8.84337C301.699 8.57375 301.993 8.57299 301.993 8.8411C301.993 9.05567 302.319 9.23139 302.718 9.23139C303.116 9.23139 303.442 9.39467 303.442 9.59415C303.442 10.1722 312.459 9.80457 313.416 9.18727C314.08 8.75965 314.264 8.7555 314.441 9.16465C314.598 9.52929 314.995 9.42786 315.917 8.78756C316.611 8.30564 316.883 8.2125 316.521 8.58054C315.706 9.40976 316.196 9.88715 317.197 9.23893C317.795 8.85091 317.936 8.85845 317.948 9.27966C317.958 9.62734 318.194 9.55908 318.667 9.07038C319.055 8.67066 319.516 8.4561 319.691 8.59298C319.867 8.73024 320.318 8.54811 320.693 8.18836C321.193 7.70908 321.442 7.66081 321.627 8.00811C321.766 8.26868 322.133 8.38143 322.442 8.25812C322.751 8.13519 322.486 8.36446 321.852 8.76757C321.109 9.24044 320.889 9.59227 321.234 9.75857C321.528 9.90035 322.249 9.58548 322.836 9.05831C323.97 8.04054 325.457 7.74264 325.026 8.61975C324.775 9.13033 325.514 9.98557 326.207 9.98557C326.401 9.98557 326.656 9.60358 326.774 9.13712C326.983 8.30715 326.995 8.30564 327.324 9.06811C327.629 9.77591 328.001 9.84039 331.37 9.76686C333.41 9.72236 335.134 9.65034 335.201 9.60698C335.566 9.36752 339.596 9.43389 340.573 9.69522C341.304 9.89093 341.973 9.837 342.421 9.54664C342.887 9.24459 343.233 9.22121 343.449 9.47726C344.048 10.1873 345.884 10.3125 346.534 9.68767C347.064 9.1786 347.031 9.12656 346.31 9.33736C345.786 9.49083 345.465 9.40523 345.465 9.1111C345.465 8.26755 347.282 8.47344 347.591 9.35206C347.833 10.0406 347.957 10.0825 348.356 9.60848C348.617 9.29738 348.835 9.23667 348.839 9.47386C348.85 10.1191 350.243 10.4113 351.267 9.98331C351.785 9.76649 352.282 9.74952 352.436 9.94334C352.755 10.3476 356.622 10.2405 357.531 9.80193C357.957 9.59604 358.058 9.63714 357.83 9.92486C357.609 10.2039 357.883 10.3517 358.601 10.3412C359.672 10.3253 363.095 10.6338 363.095 10.7462C363.095 10.7763 364.128 10.8536 365.39 10.9185C366.651 10.9834 367.685 10.9272 367.686 10.7937C367.687 10.6606 368.665 10.5361 369.86 10.518C371.458 10.4931 372.031 10.6293 372.031 11.0331C372.031 11.3917 372.358 11.5151 372.974 11.3895C373.493 11.2835 374.019 11.391 374.144 11.6282C374.268 11.8654 374.388 11.7504 374.408 11.3729C374.443 10.7484 374.516 10.7398 375.205 11.2786C375.921 11.8367 376.409 11.9178 380.004 12.075C380.802 12.1101 381.925 12.2549 382.498 12.3971C383.073 12.5396 383.677 12.4857 383.842 12.2779C384.032 12.0377 384.563 12.0253 385.299 12.2436C386.106 12.483 386.529 12.4502 386.693 12.135C386.823 11.8861 386.946 11.9793 386.967 12.3424C386.988 12.7055 387.168 13.0087 387.367 13.0166C388.892 13.0766 391.744 13.5231 392.439 13.8104C393.127 14.0951 393.286 14.0005 393.292 13.2983C393.298 12.6037 393.39 12.5464 393.767 13.0023C394.153 13.468 394.237 13.4737 394.243 13.0336C394.247 12.7398 394.388 12.6067 394.555 12.7376C394.723 12.8684 395.267 12.8062 395.763 12.5988C396.802 12.1644 396.833 12.2319 396.195 13.5434C395.826 14.2995 395.873 14.5107 396.408 14.5107C396.784 14.5107 397.22 14.3485 397.377 14.1502C397.697 13.7452 399.148 14.0638 399.649 14.6491C399.828 14.8587 400.561 15.0921 401.277 15.1668C401.994 15.2418 402.89 15.545 403.269 15.841C403.824 16.2743 404.142 16.2898 404.901 15.9198C405.419 15.6672 405.843 15.3467 405.843 15.2075C405.843 14.8595 406.836 15.0205 408.137 15.579C408.965 15.9342 409.224 15.9387 409.224 15.5967C409.224 15.3282 409.613 15.4228 410.193 15.8327C411.63 16.8475 411.951 16.2076 410.811 14.6008C410.043 13.517 409.917 12.9744 410.268 12.2549C410.582 11.6108 410.556 11.2748 410.185 11.1783C409.888 11.101 409.439 10.6149 409.187 10.0979C408.935 9.58133 408.312 9.07339 407.803 8.96932C407.293 8.86524 406.769 8.56281 406.638 8.29734C406.379 7.76941 397.513 5.57211 396.72 5.83909C396.616 5.87378 396.364 5.68976 396.159 5.43032C395.953 5.17126 393.755 4.66181 391.274 4.29867C388.794 3.93516 386.22 3.53884 385.556 3.41741C384.892 3.29599 383.153 3.10217 381.692 2.98715C380.231 2.87177 378.614 2.68096 378.099 2.56293C377.584 2.44452 375.954 2.29783 374.476 2.23674C372.999 2.17528 371.246 2.01351 370.582 1.877C369.918 1.74049 367.527 1.57043 365.269 1.49878C363.011 1.42713 361.163 1.34417 361.163 1.31476C361.163 1.28534 360.239 1.1956 359.11 1.11565C357.852 1.02666 357.058 1.12772 357.058 1.37622C357.058 1.65112 356.84 1.64132 356.384 1.34568C356.014 1.10547 353.949 0.88186 351.795 0.849053C349.642 0.815869 347.88 0.694444 347.88 0.579055C347.88 0.464042 344.348 0.324519 340.031 0.269087C335.714 0.214032 331.856 0.161239 331.457 0.151812C331.059 0.142384 329.32 0.195176 327.593 0.268709C325.866 0.342241 323.91 0.296614 323.246 0.167272C322.582 0.0379304 321.332 0.0552758 320.469 0.205358C319.605 0.355817 318.899 0.33847 318.899 0.166517C318.899 -0.00543598 318.301 -0.0518175 317.571 0.0631951C315.698 0.357703 298.742 0.4203 296.572 0.140876C295.583 0.0134197 294.665 -0.00505799 294.53 0.0993961ZM337.246 7.80562C337.25 7.95457 336.941 7.98285 336.56 7.86859C336.178 7.75433 335.991 7.4059 336.144 7.09442C336.37 6.634 336.498 6.62231 336.831 7.03145C337.055 7.30823 337.242 7.65629 337.246 7.80562ZM244.551 7.25167C244.571 7.40703 244.66 7.83239 244.75 8.19628C244.838 8.56017 244.739 8.77474 244.529 8.6733C243.953 8.39538 243.573 6.96885 244.076 6.96885C244.316 6.96885 244.53 7.09631 244.551 7.25167ZM300.544 7.13515C300.544 7.22678 300.327 7.40628 300.061 7.53449C299.795 7.6627 299.578 7.58766 299.578 7.36819C299.578 7.14872 299.795 6.96885 300.061 6.96885C300.327 6.96885 300.544 7.04352 300.544 7.13515ZM281.465 8.47721C281.629 8.68461 281.533 8.8543 281.252 8.8543C280.97 8.8543 280.74 8.68461 280.74 8.47721C280.74 8.26981 280.836 8.10012 280.953 8.10012C281.07 8.10012 281.3 8.26981 281.465 8.47721ZM239.2 9.0206C239.2 9.11223 238.983 9.29173 238.717 9.41994C238.451 9.54815 238.234 9.47311 238.234 9.25364C238.234 9.03417 238.451 8.8543 238.717 8.8543C238.983 8.8543 239.2 8.92897 239.2 9.0206ZM241.967 9.08206C241.807 9.20726 241.39 9.22083 241.042 9.11186C240.656 8.99156 240.771 8.90219 241.334 8.88409C241.843 8.86788 242.128 8.95687 241.967 9.08206ZM243.789 9.23139C243.953 9.43879 243.736 9.60848 243.306 9.60848C242.876 9.60848 242.659 9.43879 242.823 9.23139C242.987 9.02399 243.204 8.8543 243.306 8.8543C243.407 8.8543 243.625 9.02399 243.789 9.23139ZM248.861 9.18727C248.861 9.37054 248.371 9.61678 247.774 9.73443C246.724 9.9407 246.719 9.92939 247.624 9.40108C248.718 8.76342 248.861 8.73854 248.861 9.18727ZM231.472 9.39769C231.472 9.48932 231.254 9.66882 230.989 9.79703C230.723 9.92524 230.506 9.8502 230.506 9.63073C230.506 9.41126 230.723 9.23139 230.989 9.23139C231.254 9.23139 231.472 9.30606 231.472 9.39769ZM209.122 9.83625C208.961 9.96144 208.545 9.97502 208.196 9.86604C207.811 9.74574 207.925 9.65637 208.488 9.63828C208.997 9.62206 209.282 9.71105 209.122 9.83625ZM214.413 11.1877C214.259 11.4883 214.144 11.3989 214.121 10.9596C214.1 10.5621 214.214 10.3397 214.375 10.4649C214.535 10.5901 214.552 10.9155 214.413 11.1877ZM384.107 11.3054C384.107 12.2542 383.348 12.2119 383.247 11.2575C383.189 10.7179 383.35 10.4192 383.627 10.5527C383.891 10.6802 384.107 11.0188 384.107 11.3054ZM183.411 11.4939C183.575 11.7013 183.479 11.871 183.198 11.871C182.917 11.871 182.686 11.7013 182.686 11.4939C182.686 11.2865 182.782 11.1168 182.899 11.1168C183.017 11.1168 183.247 11.2865 183.411 11.4939ZM210.054 11.7017C210.201 12.0023 210.516 12.2481 210.753 12.2481C211.448 12.2481 211.249 11.5939 210.485 11.365C210.017 11.2247 209.874 11.3363 210.054 11.7017ZM398.559 11.7191C398.019 12.2266 398.047 12.3775 398.741 12.6803C399.899 13.1863 399.821 13.8907 398.661 13.4058C398.165 13.1984 397.587 13.1501 397.376 13.2983C397.166 13.4465 397.138 13.2572 397.313 12.8771C397.488 12.4974 397.632 11.9457 397.632 11.6516C397.632 11.3574 397.984 11.1168 398.415 11.1168C399.078 11.1168 399.1 11.2096 398.559 11.7191ZM157.416 12.6961C157.262 12.9966 157.148 12.9073 157.124 12.468C157.104 12.0705 157.218 11.848 157.378 11.9732C157.538 12.0984 157.556 12.4238 157.416 12.6961ZM389.42 12.0373C389.42 12.129 389.203 12.3085 388.937 12.4367C388.671 12.5649 388.454 12.4898 388.454 12.2704C388.454 12.0509 388.671 11.871 388.937 11.871C389.203 11.871 389.42 11.9457 389.42 12.0373ZM390.869 12.2481C390.869 12.4555 390.652 12.6252 390.386 12.6252C390.121 12.6252 389.903 12.4555 389.903 12.2481C389.903 12.0407 390.121 11.871 390.386 11.871C390.652 11.871 390.869 12.0407 390.869 12.2481ZM156.12 13.0023C156.12 13.4171 155.923 13.7565 155.683 13.7565C155.442 13.7565 155.358 13.4171 155.497 13.0023C155.636 12.5875 155.833 12.2481 155.935 12.2481C156.037 12.2481 156.12 12.5875 156.12 13.0023ZM159.018 13.0023C159.018 13.2097 158.923 13.3794 158.805 13.3794C158.688 13.3794 158.458 13.2097 158.294 13.0023C158.13 12.7949 158.226 12.6252 158.507 12.6252C158.788 12.6252 159.018 12.7949 159.018 13.0023ZM154.518 13.8274C154.364 14.1279 154.249 14.0385 154.226 13.5992C154.206 13.2018 154.32 12.9793 154.48 13.1045C154.64 13.2297 154.658 13.5551 154.518 13.8274ZM404.877 15.0133C404.877 15.2901 404.551 15.5164 404.152 15.5164C403.388 15.5164 403.21 15.183 403.75 14.7622C404.283 14.3459 404.877 14.4782 404.877 15.0133ZM89.2018 20.5694C89.0265 20.7903 88.9869 21.0524 89.1134 21.1512C89.24 21.25 89.4723 21.069 89.6298 20.7489C89.9563 20.0844 89.6781 19.9675 89.2018 20.5694ZM41.7323 25.5281C41.3859 25.7985 41.1609 25.8207 41.1609 25.5847C41.1609 25.3701 41.3058 25.0816 41.483 24.9436C41.6598 24.8052 41.9173 24.7796 42.0545 24.8871C42.1916 24.9941 42.0467 25.2826 41.7323 25.5281ZM14.5946 27.8514C14.5946 27.9294 14.2145 28.2266 13.7493 28.5113C12.9833 28.98 12.9663 28.9668 13.5667 28.3687C14.1981 27.7405 14.5946 27.541 14.5946 27.8514ZM21.7071 29.5943C21.6269 30.4246 20.8739 30.6516 20.8739 29.8458C20.8739 29.3959 21.3024 28.8401 21.6492 28.8401C21.7211 28.8401 21.7472 29.1795 21.7071 29.5943Z" fill="#2D5DEB"/>
</svg>
