<svg width="109" height="33" viewBox="0 0 109 33" fill="none" xmlns="http://www.w3.org/2000/svg">
<path fill-rule="evenodd" clip-rule="evenodd" d="M70 17.5C70 26.0604 62.8365 33 54 33C45.1634 33 38 26.0604 38 17.5C38 8.93959 45.1634 2 54 2C62.8365 2 70 8.93959 70 17.5Z" fill="white"/>
<path d="M46.1071 27H45.3337V24.8182H46.1135C46.333 24.8182 46.5219 24.8619 46.6803 24.9492C46.8386 25.0359 46.9604 25.1605 47.0457 25.3232C47.1316 25.4858 47.1746 25.6804 47.1746 25.907C47.1746 26.1342 47.1316 26.3295 47.0457 26.4929C46.9604 26.6562 46.8379 26.7816 46.6781 26.869C46.519 26.9563 46.3287 27 46.1071 27ZM45.795 26.6048H46.0879C46.2243 26.6048 46.339 26.5806 46.432 26.5323C46.5258 26.4833 46.5961 26.4077 46.643 26.3054C46.6906 26.2024 46.7144 26.0696 46.7144 25.907C46.7144 25.7457 46.6906 25.614 46.643 25.5117C46.5961 25.4094 46.5261 25.3342 46.4331 25.2859C46.3401 25.2376 46.2254 25.2134 46.089 25.2134H45.795V26.6048ZM47.9744 27.0309C47.87 27.0309 47.7769 27.0128 47.6953 26.9766C47.6136 26.9396 47.549 26.8853 47.5014 26.8136C47.4545 26.7411 47.4311 26.6509 47.4311 26.543C47.4311 26.4521 47.4478 26.3757 47.4811 26.3139C47.5145 26.2521 47.56 26.2024 47.6175 26.1648C47.675 26.1271 47.7404 26.0987 47.8135 26.0795C47.8874 26.0604 47.9648 26.0469 48.0458 26.0391C48.1409 26.0291 48.2176 26.0199 48.2759 26.0114C48.3341 26.0021 48.3764 25.9886 48.4027 25.9709C48.4289 25.9531 48.4421 25.9268 48.4421 25.892V25.8857C48.4421 25.8182 48.4208 25.766 48.3782 25.729C48.3362 25.6921 48.2766 25.6737 48.1992 25.6737C48.1175 25.6737 48.0525 25.6918 48.0042 25.728C47.9559 25.7635 47.924 25.8082 47.9083 25.8622L47.4886 25.8281C47.5099 25.7287 47.5518 25.6428 47.6143 25.5703C47.6768 25.4972 47.7574 25.4411 47.8561 25.402C47.9556 25.3622 48.0706 25.3423 48.2013 25.3423C48.2922 25.3423 48.3792 25.353 48.4623 25.3743C48.5461 25.3956 48.6203 25.4286 48.685 25.4734C48.7503 25.5181 48.8018 25.5756 48.8394 25.646C48.8771 25.7156 48.8959 25.799 48.8959 25.8963V27H48.4655V26.7731H48.4527C48.4264 26.8242 48.3913 26.8693 48.3473 26.9084C48.3032 26.9467 48.2503 26.9769 48.1885 26.9989C48.1267 27.0202 48.0554 27.0309 47.9744 27.0309ZM48.1044 26.7177C48.1711 26.7177 48.2301 26.7045 48.2812 26.6783C48.3323 26.6513 48.3725 26.6151 48.4016 26.5696C48.4307 26.5241 48.4453 26.4727 48.4453 26.4151V26.2415C48.4311 26.2507 48.4115 26.2592 48.3867 26.267C48.3625 26.2741 48.3352 26.2809 48.3046 26.2873C48.2741 26.293 48.2436 26.2983 48.213 26.3033C48.1825 26.3075 48.1548 26.3114 48.1299 26.315C48.0767 26.3228 48.0301 26.3352 47.9904 26.3523C47.9506 26.3693 47.9197 26.3924 47.8977 26.4215C47.8757 26.4499 47.8647 26.4854 47.8647 26.5281C47.8647 26.5898 47.887 26.6371 47.9318 26.6697C47.9772 26.7017 48.0348 26.7177 48.1044 26.7177ZM50.1184 25.3636V25.7045H49.1329V25.3636H50.1184ZM49.3567 24.9716H49.8105V26.4972C49.8105 26.5391 49.8169 26.5717 49.8297 26.5952C49.8425 26.6179 49.8602 26.6339 49.8829 26.6431C49.9064 26.6523 49.9334 26.657 49.9639 26.657C49.9852 26.657 50.0065 26.6552 50.0278 26.6516C50.0491 26.6474 50.0655 26.6442 50.0768 26.642L50.1482 26.9798C50.1255 26.9869 50.0935 26.995 50.0523 27.0043C50.0111 27.0142 49.9611 27.0202 49.9021 27.0224C49.7927 27.0266 49.6969 27.0121 49.6145 26.9787C49.5328 26.9453 49.4692 26.8935 49.4238 26.8232C49.3783 26.7528 49.356 26.6641 49.3567 26.5568V24.9716ZM50.8806 27.0309C50.7762 27.0309 50.6832 27.0128 50.6015 26.9766C50.5198 26.9396 50.4552 26.8853 50.4076 26.8136C50.3608 26.7411 50.3373 26.6509 50.3373 26.543C50.3373 26.4521 50.354 26.3757 50.3874 26.3139C50.4208 26.2521 50.4662 26.2024 50.5237 26.1648C50.5813 26.1271 50.6466 26.0987 50.7198 26.0795C50.7936 26.0604 50.871 26.0469 50.952 26.0391C51.0472 26.0291 51.1239 26.0199 51.1821 26.0114C51.2404 26.0021 51.2826 25.9886 51.3089 25.9709C51.3352 25.9531 51.3483 25.9268 51.3483 25.892V25.8857C51.3483 25.8182 51.327 25.766 51.2844 25.729C51.2425 25.6921 51.1828 25.6737 51.1054 25.6737C51.0237 25.6737 50.9588 25.6918 50.9105 25.728C50.8622 25.7635 50.8302 25.8082 50.8146 25.8622L50.3948 25.8281C50.4161 25.7287 50.4581 25.6428 50.5206 25.5703C50.5831 25.4972 50.6637 25.4411 50.7624 25.402C50.8618 25.3622 50.9769 25.3423 51.1076 25.3423C51.1985 25.3423 51.2855 25.353 51.3686 25.3743C51.4524 25.3956 51.5266 25.4286 51.5912 25.4734C51.6566 25.5181 51.7081 25.5756 51.7457 25.646C51.7833 25.7156 51.8022 25.799 51.8022 25.8963V27H51.3718V26.7731H51.359C51.3327 26.8242 51.2975 26.8693 51.2535 26.9084C51.2095 26.9467 51.1566 26.9769 51.0948 26.9989C51.033 27.0202 50.9616 27.0309 50.8806 27.0309ZM51.0106 26.7177C51.0774 26.7177 51.1363 26.7045 51.1875 26.6783C51.2386 26.6513 51.2787 26.6151 51.3078 26.5696C51.337 26.5241 51.3515 26.4727 51.3515 26.4151V26.2415C51.3373 26.2507 51.3178 26.2592 51.2929 26.267C51.2688 26.2741 51.2414 26.2809 51.2109 26.2873C51.1804 26.293 51.1498 26.2983 51.1193 26.3033C51.0887 26.3075 51.061 26.3114 51.0362 26.315C50.9829 26.3228 50.9364 26.3352 50.8966 26.3523C50.8568 26.3693 50.8259 26.3924 50.8039 26.4215C50.7819 26.4499 50.7709 26.4854 50.7709 26.5281C50.7709 26.5898 50.7933 26.6371 50.838 26.6697C50.8835 26.7017 50.941 26.7177 51.0106 26.7177ZM54.0407 25.4457C54.0322 25.3597 53.9956 25.293 53.931 25.2454C53.8663 25.1978 53.7786 25.174 53.6678 25.174C53.5926 25.174 53.529 25.1847 53.4771 25.206C53.4253 25.2266 53.3855 25.2553 53.3578 25.2923C53.3308 25.3292 53.3173 25.3711 53.3173 25.418C53.3159 25.457 53.3241 25.4911 53.3418 25.5202C53.3603 25.5494 53.3855 25.5746 53.4175 25.5959C53.4494 25.6165 53.4864 25.6346 53.5283 25.6502C53.5702 25.6651 53.6149 25.6779 53.6625 25.6886L53.8585 25.7354C53.9537 25.7567 54.0411 25.7852 54.1206 25.8207C54.2002 25.8562 54.269 25.8999 54.3273 25.9517C54.3855 26.0036 54.4306 26.0646 54.4626 26.1349C54.4953 26.2053 54.5119 26.2859 54.5127 26.3768C54.5119 26.5103 54.4778 26.6261 54.4104 26.7241C54.3436 26.8214 54.247 26.897 54.1206 26.951C53.9949 27.0043 53.8433 27.0309 53.6657 27.0309C53.4896 27.0309 53.3362 27.0039 53.2055 26.9499C53.0755 26.896 52.9739 26.8161 52.9008 26.7102C52.8283 26.6037 52.7903 26.4719 52.7868 26.315H53.2332C53.2381 26.3881 53.2591 26.4492 53.296 26.4982C53.3337 26.5465 53.3837 26.5831 53.4462 26.608C53.5095 26.6321 53.5808 26.6442 53.6604 26.6442C53.7385 26.6442 53.8063 26.6328 53.8639 26.6101C53.9221 26.5874 53.9672 26.5558 53.9992 26.5153C54.0311 26.4748 54.0471 26.4283 54.0471 26.3757C54.0471 26.3267 54.0325 26.2855 54.0034 26.2521C53.975 26.2187 53.9331 26.1903 53.8777 26.1669C53.823 26.1435 53.7559 26.1222 53.6764 26.103L53.4388 26.0433C53.2548 25.9986 53.1096 25.9286 53.0031 25.8335C52.8965 25.7383 52.8436 25.6101 52.8443 25.4489C52.8436 25.3168 52.8788 25.2013 52.9498 25.1026C53.0215 25.0039 53.1199 24.9268 53.2449 24.8714C53.3699 24.8161 53.5119 24.7884 53.671 24.7884C53.833 24.7884 53.9743 24.8161 54.095 24.8714C54.2165 24.9268 54.3109 25.0039 54.3784 25.1026C54.4459 25.2013 54.4807 25.3157 54.4828 25.4457H54.0407ZM54.8144 27.6136V25.3636H55.2619V25.6385H55.2821C55.302 25.5945 55.3307 25.5497 55.3684 25.5043C55.4067 25.4581 55.4565 25.4197 55.5175 25.3892C55.5793 25.358 55.656 25.3423 55.7476 25.3423C55.867 25.3423 55.9771 25.3736 56.0779 25.4361C56.1788 25.4979 56.2594 25.5913 56.3197 25.7163C56.3801 25.8406 56.4103 25.9964 56.4103 26.1839C56.4103 26.3665 56.3808 26.5206 56.3219 26.6463C56.2636 26.7713 56.1841 26.8661 56.0832 26.9308C55.9831 26.9947 55.8709 27.0266 55.7466 27.0266C55.6585 27.0266 55.5836 27.0121 55.5218 26.983C55.4607 26.9538 55.4106 26.9173 55.3716 26.8732C55.3325 26.8285 55.3027 26.7834 55.2821 26.7379H55.2682V27.6136H54.8144ZM55.2587 26.1818C55.2587 26.2791 55.2722 26.364 55.2991 26.4364C55.3261 26.5089 55.3652 26.5653 55.4163 26.6058C55.4675 26.6456 55.5296 26.6655 55.6028 26.6655C55.6766 26.6655 55.7391 26.6452 55.7903 26.6048C55.8414 26.5636 55.8801 26.5067 55.9064 26.4343C55.9334 26.3612 55.9469 26.277 55.9469 26.1818C55.9469 26.0874 55.9337 26.0043 55.9074 25.9325C55.8812 25.8608 55.8425 25.8047 55.7913 25.7642C55.7402 25.7237 55.6773 25.7035 55.6028 25.7035C55.5289 25.7035 55.4664 25.723 55.4153 25.7621C55.3648 25.8011 55.3261 25.8565 55.2991 25.9283C55.2722 26 55.2587 26.0845 55.2587 26.1818ZM57.1795 27.0309C57.0751 27.0309 56.982 27.0128 56.9003 26.9766C56.8187 26.9396 56.754 26.8853 56.7065 26.8136C56.6596 26.7411 56.6361 26.6509 56.6361 26.543C56.6361 26.4521 56.6528 26.3757 56.6862 26.3139C56.7196 26.2521 56.765 26.2024 56.8226 26.1648C56.8801 26.1271 56.9454 26.0987 57.0186 26.0795C57.0925 26.0604 57.1699 26.0469 57.2508 26.0391C57.346 26.0291 57.4227 26.0199 57.481 26.0114C57.5392 26.0021 57.5815 25.9886 57.6077 25.9709C57.634 25.9531 57.6472 25.9268 57.6472 25.892V25.8857C57.6472 25.8182 57.6258 25.766 57.5832 25.729C57.5413 25.6921 57.4817 25.6737 57.4043 25.6737C57.3226 25.6737 57.2576 25.6918 57.2093 25.728C57.161 25.7635 57.129 25.8082 57.1134 25.8622L56.6937 25.8281C56.715 25.7287 56.7569 25.6428 56.8194 25.5703C56.8819 25.4972 56.9625 25.4411 57.0612 25.402C57.1606 25.3622 57.2757 25.3423 57.4064 25.3423C57.4973 25.3423 57.5843 25.353 57.6674 25.3743C57.7512 25.3956 57.8254 25.4286 57.89 25.4734C57.9554 25.5181 58.0069 25.5756 58.0445 25.646C58.0822 25.7156 58.101 25.799 58.101 25.8963V27H57.6706V26.7731H57.6578C57.6315 26.8242 57.5964 26.8693 57.5523 26.9084C57.5083 26.9467 57.4554 26.9769 57.3936 26.9989C57.3318 27.0202 57.2604 27.0309 57.1795 27.0309ZM57.3094 26.7177C57.3762 26.7177 57.4351 26.7045 57.4863 26.6783C57.5374 26.6513 57.5775 26.6151 57.6067 26.5696C57.6358 26.5241 57.6503 26.4727 57.6503 26.4151V26.2415C57.6361 26.2507 57.6166 26.2592 57.5918 26.267C57.5676 26.2741 57.5403 26.2809 57.5097 26.2873C57.4792 26.293 57.4486 26.2983 57.4181 26.3033C57.3876 26.3075 57.3599 26.3114 57.335 26.315C57.2817 26.3228 57.2352 26.3352 57.1954 26.3523C57.1557 26.3693 57.1248 26.3924 57.1028 26.4215C57.0807 26.4499 57.0697 26.4854 57.0697 26.5281C57.0697 26.5898 57.0921 26.6371 57.1369 26.6697C57.1823 26.7017 57.2398 26.7177 57.3094 26.7177ZM58.4531 27V25.3636H58.8931V25.6491H58.9101C58.9399 25.5476 58.99 25.4709 59.0603 25.419C59.1306 25.3665 59.2116 25.3402 59.3032 25.3402C59.3259 25.3402 59.3505 25.3416 59.3767 25.3445C59.403 25.3473 59.4261 25.3512 59.446 25.3562V25.7589C59.4247 25.7525 59.3952 25.7468 59.3576 25.7418C59.3199 25.7369 59.2855 25.7344 59.2542 25.7344C59.1875 25.7344 59.1278 25.7489 59.0752 25.7781C59.0234 25.8065 58.9822 25.8462 58.9517 25.8974C58.9218 25.9485 58.9069 26.0075 58.9069 26.0742V27H58.4531ZM60.0918 26.5291L60.0929 25.9847H60.159L60.6831 25.3636H61.2041L60.4999 26.1861H60.3923L60.0918 26.5291ZM59.6806 27V24.8182H60.1345V27H59.6806ZM60.7033 27L60.2218 26.2873L60.5244 25.9666L61.235 27H60.7033ZM61.8805 24.8182V27H61.4267V24.8182H61.8805ZM62.9898 27.032C62.8215 27.032 62.6766 26.9979 62.5552 26.9297C62.4344 26.8608 62.3414 26.7635 62.2761 26.6378C62.2107 26.5114 62.178 26.3619 62.178 26.1893C62.178 26.021 62.2107 25.8732 62.2761 25.7461C62.3414 25.619 62.4334 25.5199 62.552 25.4489C62.6713 25.3778 62.8112 25.3423 62.9717 25.3423C63.0797 25.3423 63.1802 25.3597 63.2732 25.3945C63.367 25.4286 63.4486 25.4801 63.5182 25.549C63.5886 25.6179 63.6432 25.7045 63.6823 25.8089C63.7214 25.9126 63.7409 26.0341 63.7409 26.1733V26.2979H62.3592V26.0167H63.3137C63.3137 25.9513 63.2995 25.8935 63.2711 25.843C63.2427 25.7926 63.2033 25.7532 63.1528 25.7248C63.1031 25.6957 63.0452 25.6811 62.9792 25.6811C62.9103 25.6811 62.8492 25.6971 62.7959 25.729C62.7434 25.7603 62.7022 25.8026 62.6724 25.8558C62.6425 25.9084 62.6273 25.967 62.6266 26.0316V26.299C62.6266 26.38 62.6415 26.4499 62.6713 26.5089C62.7018 26.5678 62.7448 26.6133 62.8002 26.6452C62.8556 26.6772 62.9213 26.6932 62.9973 26.6932C63.0477 26.6932 63.0939 26.6861 63.1358 26.6719C63.1777 26.6577 63.2136 26.6364 63.2434 26.608C63.2732 26.5795 63.2959 26.5447 63.3116 26.5036L63.7313 26.5312C63.71 26.6321 63.6663 26.7202 63.6003 26.7955C63.5349 26.87 63.4504 26.9283 63.3467 26.9702C63.2437 27.0114 63.1248 27.032 62.9898 27.032Z" fill="#7F4AD5"/>
<path fill-rule="evenodd" clip-rule="evenodd" d="M51.25 8C53.0449 8 54.5 9.45507 54.5 11.25V8H57.75C59.5449 8 61 9.45507 61 11.25C61 13.0449 59.5449 14.5 57.75 14.5C59.5449 14.5 61 15.9551 61 17.75C61 18.6412 60.6412 19.4487 60.0603 20.0359L60.0481 20.0481L60.0373 20.0588C59.45 20.6406 58.642 21 57.75 21C56.8641 21 56.0609 20.6455 55.4747 20.0707C55.4671 20.0632 55.4595 20.0556 55.4519 20.0481C55.4448 20.041 55.4377 20.0338 55.4306 20.0267C54.855 19.4403 54.5 18.6366 54.5 17.75C54.5 19.5449 53.0449 21 51.25 21C49.4551 21 48 19.5449 48 17.75V14.5H51.25C49.4551 14.5 48 13.0449 48 11.25C48 9.45507 49.4551 8 51.25 8ZM53.85 11.25C53.85 12.6859 52.6859 13.85 51.25 13.85V11.5208V8.65C52.6859 8.65 53.85 9.81406 53.85 11.25ZM60.35 17.75C60.35 16.3141 59.1859 15.15 57.75 15.15C56.3141 15.15 55.15 16.3141 55.15 17.75H60.35ZM48.65 15.15V17.75C48.65 19.1859 49.8141 20.35 51.25 20.35C52.6859 20.35 53.85 19.1859 53.85 17.75V15.15H48.65ZM55.15 13.85V8.65H57.75C59.1859 8.65 60.35 9.81406 60.35 11.25C60.35 12.6859 59.1859 13.85 57.75 13.85H55.15Z" fill="#7F4AD4"/>
</svg>
