<svg width="70" height="33" viewBox="0 0 70 33" fill="none" xmlns="http://www.w3.org/2000/svg">
<path fill-rule="evenodd" clip-rule="evenodd" d="M43 25C43 29.4183 39.4183 33 35 33C30.5817 33 27 29.4183 27 25C27 20.5817 30.5817 17 35 17C39.4183 17 43 20.5817 43 25Z" fill="white"/>
<path d="M29.9047 29H29.3891V27.5455H29.909C30.0553 27.5455 30.1813 27.5746 30.2868 27.6328C30.3924 27.6906 30.4736 27.7737 30.5305 27.8821C30.5877 27.9905 30.6164 28.1203 30.6164 28.2713C30.6164 28.4228 30.5877 28.553 30.5305 28.6619C30.4736 28.7708 30.392 28.8544 30.2854 28.9126C30.1794 28.9709 30.0525 29 29.9047 29ZM29.6966 28.7365H29.892C29.9829 28.7365 30.0593 28.7204 30.1214 28.6882C30.1839 28.6555 30.2307 28.6051 30.262 28.5369C30.2937 28.4683 30.3096 28.3797 30.3096 28.2713C30.3096 28.1638 30.2937 28.076 30.262 28.0078C30.2307 27.9396 30.1841 27.8894 30.1221 27.8572C30.06 27.825 29.9836 27.8089 29.8927 27.8089H29.6966V28.7365ZM31.1496 29.0206C31.08 29.0206 31.018 29.0085 30.9635 28.9844C30.9091 28.9598 30.866 28.9235 30.8343 28.8757C30.803 28.8274 30.7874 28.7673 30.7874 28.6953C30.7874 28.6347 30.7985 28.5838 30.8208 28.5426C30.843 28.5014 30.8733 28.4683 30.9117 28.4432C30.95 28.4181 30.9936 28.3991 31.0423 28.3864C31.0916 28.3736 31.1432 28.3646 31.1972 28.3594C31.2606 28.3527 31.3118 28.3466 31.3506 28.3409C31.3894 28.3348 31.4176 28.3258 31.4351 28.3139C31.4526 28.3021 31.4614 28.2846 31.4614 28.2614V28.2571C31.4614 28.2121 31.4472 28.1773 31.4188 28.1527C31.3908 28.1281 31.3511 28.1158 31.2994 28.1158C31.245 28.1158 31.2017 28.1278 31.1695 28.152C31.1373 28.1757 31.116 28.2055 31.1056 28.2415L30.8257 28.2188C30.8399 28.1525 30.8679 28.0952 30.9095 28.0469C30.9512 27.9981 31.0049 27.9607 31.0708 27.9347C31.137 27.9081 31.2137 27.8949 31.3009 27.8949C31.3615 27.8949 31.4195 27.902 31.4749 27.9162C31.5307 27.9304 31.5802 27.9524 31.6233 27.9822C31.6669 28.0121 31.7012 28.0504 31.7263 28.0973C31.7514 28.1437 31.7639 28.1993 31.7639 28.2642V29H31.477V28.8487H31.4685C31.451 28.8828 31.4275 28.9129 31.3982 28.9389C31.3688 28.9645 31.3335 28.9846 31.2923 28.9993C31.2512 29.0135 31.2036 29.0206 31.1496 29.0206ZM31.2362 28.8118C31.2807 28.8118 31.32 28.803 31.3541 28.7855C31.3882 28.7675 31.415 28.7434 31.4344 28.7131C31.4538 28.6828 31.4635 28.6484 31.4635 28.6101V28.4943C31.454 28.5005 31.441 28.5062 31.4244 28.5114C31.4084 28.5161 31.3901 28.5206 31.3698 28.5249C31.3494 28.5286 31.329 28.5322 31.3087 28.5355C31.2883 28.5384 31.2699 28.541 31.2533 28.5433C31.2178 28.5485 31.1868 28.5568 31.1602 28.5682C31.1337 28.5795 31.1131 28.5949 31.0985 28.6143C31.0838 28.6333 31.0764 28.657 31.0764 28.6854C31.0764 28.7266 31.0914 28.758 31.1212 28.7798C31.1515 28.8011 31.1898 28.8118 31.2362 28.8118ZM32.5789 27.9091V28.1364H31.922V27.9091H32.5789ZM32.0711 27.6477H32.3737V28.6648C32.3737 28.6927 32.3779 28.7145 32.3865 28.7301C32.395 28.7453 32.4068 28.7559 32.422 28.7621C32.4376 28.7682 32.4556 28.7713 32.4759 28.7713C32.4901 28.7713 32.5044 28.7701 32.5186 28.7678C32.5328 28.7649 32.5436 28.7628 32.5512 28.7614L32.5988 28.9865C32.5837 28.9912 32.5624 28.9967 32.5349 29.0028C32.5074 29.0095 32.474 29.0135 32.4347 29.0149C32.3618 29.0178 32.2979 29.008 32.243 28.9858C32.1885 28.9635 32.1462 28.929 32.1159 28.8821C32.0856 28.8352 32.0706 28.776 32.0711 28.7045V27.6477ZM33.0871 29.0206C33.0175 29.0206 32.9555 29.0085 32.901 28.9844C32.8466 28.9598 32.8035 28.9235 32.7718 28.8757C32.7405 28.8274 32.7249 28.7673 32.7249 28.6953C32.7249 28.6347 32.736 28.5838 32.7583 28.5426C32.7805 28.5014 32.8108 28.4683 32.8492 28.4432C32.8875 28.4181 32.9311 28.3991 32.9798 28.3864C33.0291 28.3736 33.0807 28.3646 33.1347 28.3594C33.1981 28.3527 33.2493 28.3466 33.2881 28.3409C33.3269 28.3348 33.3551 28.3258 33.3726 28.3139C33.3901 28.3021 33.3989 28.2846 33.3989 28.2614V28.2571C33.3989 28.2121 33.3847 28.1773 33.3563 28.1527C33.3283 28.1281 33.2886 28.1158 33.2369 28.1158C33.1825 28.1158 33.1392 28.1278 33.107 28.152C33.0748 28.1757 33.0535 28.2055 33.0431 28.2415L32.7632 28.2188C32.7774 28.1525 32.8054 28.0952 32.847 28.0469C32.8887 27.9981 32.9424 27.9607 33.0083 27.9347C33.0745 27.9081 33.1512 27.8949 33.2384 27.8949C33.299 27.8949 33.357 27.902 33.4124 27.9162C33.4682 27.9304 33.5177 27.9524 33.5608 27.9822C33.6044 28.0121 33.6387 28.0504 33.6638 28.0973C33.6889 28.1437 33.7014 28.1993 33.7014 28.2642V29H33.4145V28.8487H33.406C33.3885 28.8828 33.365 28.9129 33.3357 28.9389C33.3063 28.9645 33.271 28.9846 33.2298 28.9993C33.1887 29.0135 33.1411 29.0206 33.0871 29.0206ZM33.1737 28.8118C33.2182 28.8118 33.2575 28.803 33.2916 28.7855C33.3257 28.7675 33.3525 28.7434 33.3719 28.7131C33.3913 28.6828 33.401 28.6484 33.401 28.6101V28.4943C33.3915 28.5005 33.3785 28.5062 33.3619 28.5114C33.3459 28.5161 33.3276 28.5206 33.3073 28.5249C33.2869 28.5286 33.2665 28.5322 33.2462 28.5355C33.2258 28.5384 33.2074 28.541 33.1908 28.5433C33.1553 28.5485 33.1243 28.5568 33.0977 28.5682C33.0712 28.5795 33.0506 28.5949 33.036 28.6143C33.0213 28.6333 33.0139 28.657 33.0139 28.6854C33.0139 28.7266 33.0289 28.758 33.0587 28.7798C33.089 28.8011 33.1273 28.8118 33.1737 28.8118ZM35.1938 27.9638C35.1881 27.9065 35.1637 27.862 35.1206 27.8303C35.0776 27.7985 35.0191 27.7827 34.9452 27.7827C34.895 27.7827 34.8527 27.7898 34.8181 27.804C34.7835 27.8177 34.757 27.8369 34.7385 27.8615C34.7206 27.8861 34.7116 27.9141 34.7116 27.9453C34.7106 27.9714 34.7161 27.9941 34.7279 28.0135C34.7402 28.0329 34.757 28.0497 34.7783 28.0639C34.7996 28.0777 34.8242 28.0897 34.8522 28.1001C34.8801 28.1101 34.9099 28.1186 34.9417 28.1257L35.0724 28.157C35.1358 28.1712 35.194 28.1901 35.2471 28.2138C35.3001 28.2375 35.346 28.2666 35.3849 28.3011C35.4237 28.3357 35.4537 28.3764 35.4751 28.4233C35.4968 28.4702 35.508 28.5239 35.5084 28.5845C35.508 28.6735 35.4852 28.7507 35.4403 28.8161C35.3957 28.8809 35.3314 28.9313 35.2471 28.9673C35.1633 29.0028 35.0622 29.0206 34.9438 29.0206C34.8264 29.0206 34.7241 29.0026 34.637 28.9666C34.5503 28.9306 34.4826 28.8774 34.4339 28.8068C34.3856 28.7358 34.3602 28.648 34.3579 28.5433H34.6555C34.6588 28.5921 34.6727 28.6328 34.6974 28.6655C34.7224 28.6977 34.7558 28.7221 34.7975 28.7386C34.8396 28.7547 34.8872 28.7628 34.9403 28.7628C34.9923 28.7628 35.0376 28.7552 35.0759 28.7401C35.1147 28.7249 35.1448 28.7038 35.1661 28.6768C35.1874 28.6499 35.1981 28.6188 35.1981 28.5838C35.1981 28.5511 35.1884 28.5237 35.1689 28.5014C35.15 28.4792 35.1221 28.4602 35.0851 28.4446C35.0487 28.429 35.0039 28.4148 34.9509 28.402L34.7925 28.3622C34.6699 28.3324 34.5731 28.2857 34.502 28.2223C34.431 28.1589 34.3957 28.0734 34.3962 27.9659C34.3957 27.8778 34.4192 27.8009 34.4665 27.7351C34.5144 27.6693 34.5799 27.6179 34.6633 27.581C34.7466 27.544 34.8413 27.5256 34.9474 27.5256C35.0553 27.5256 35.1495 27.544 35.23 27.581C35.311 27.6179 35.374 27.6693 35.4189 27.7351C35.4639 27.8009 35.4871 27.8771 35.4885 27.9638H35.1938ZM35.7096 29.4091V27.9091H36.0079V28.0923H36.0214C36.0347 28.063 36.0538 28.0331 36.0789 28.0028C36.1045 27.9721 36.1376 27.9465 36.1784 27.9261C36.2195 27.9053 36.2707 27.8949 36.3318 27.8949C36.4113 27.8949 36.4847 27.9157 36.5519 27.9574C36.6192 27.9986 36.6729 28.0608 36.7132 28.1442C36.7534 28.227 36.7735 28.331 36.7735 28.456C36.7735 28.5777 36.7539 28.6804 36.7146 28.7642C36.6758 28.8475 36.6227 28.9107 36.5555 28.9538C36.4887 28.9964 36.4139 29.0178 36.3311 29.0178C36.2723 29.0178 36.2224 29.008 36.1812 28.9886C36.1405 28.9692 36.1071 28.9448 36.0811 28.9155C36.055 28.8857 36.0351 28.8556 36.0214 28.8253H36.0122V29.4091H35.7096ZM36.0058 28.4545C36.0058 28.5194 36.0148 28.576 36.0328 28.6243C36.0508 28.6726 36.0768 28.7102 36.1109 28.7372C36.145 28.7637 36.1864 28.777 36.2352 28.777C36.2844 28.777 36.3261 28.7635 36.3602 28.7365C36.3943 28.709 36.4201 28.6712 36.4376 28.6229C36.4556 28.5741 36.4646 28.518 36.4646 28.4545C36.4646 28.3916 36.4558 28.3362 36.4383 28.2884C36.4208 28.2405 36.395 28.2031 36.3609 28.1761C36.3268 28.1491 36.2849 28.1357 36.2352 28.1357C36.1859 28.1357 36.1443 28.1487 36.1102 28.1747C36.0766 28.2008 36.0508 28.2377 36.0328 28.2855C36.0148 28.3333 36.0058 28.3897 36.0058 28.4545ZM37.2863 29.0206C37.2167 29.0206 37.1547 29.0085 37.1002 28.9844C37.0458 28.9598 37.0027 28.9235 36.971 28.8757C36.9397 28.8274 36.9241 28.7673 36.9241 28.6953C36.9241 28.6347 36.9352 28.5838 36.9575 28.5426C36.9797 28.5014 37.01 28.4683 37.0484 28.4432C37.0867 28.4181 37.1303 28.3991 37.1791 28.3864C37.2283 28.3736 37.2799 28.3646 37.3339 28.3594C37.3973 28.3527 37.4485 28.3466 37.4873 28.3409C37.5261 28.3348 37.5543 28.3258 37.5718 28.3139C37.5893 28.3021 37.5981 28.2846 37.5981 28.2614V28.2571C37.5981 28.2121 37.5839 28.1773 37.5555 28.1527C37.5276 28.1281 37.4878 28.1158 37.4362 28.1158C37.3817 28.1158 37.3384 28.1278 37.3062 28.152C37.274 28.1757 37.2527 28.2055 37.2423 28.2415L36.9624 28.2188C36.9767 28.1525 37.0046 28.0952 37.0463 28.0469C37.0879 27.9981 37.1417 27.9607 37.2075 27.9347C37.2738 27.9081 37.3505 27.8949 37.4376 27.8949C37.4982 27.8949 37.5562 27.902 37.6116 27.9162C37.6675 27.9304 37.7169 27.9524 37.76 27.9822C37.8036 28.0121 37.8379 28.0504 37.863 28.0973C37.8881 28.1437 37.9007 28.1993 37.9007 28.2642V29H37.6137V28.8487H37.6052C37.5877 28.8828 37.5642 28.9129 37.5349 28.9389C37.5055 28.9645 37.4703 28.9846 37.4291 28.9993C37.3879 29.0135 37.3403 29.0206 37.2863 29.0206ZM37.373 28.8118C37.4175 28.8118 37.4568 28.803 37.4909 28.7855C37.5249 28.7675 37.5517 28.7434 37.5711 28.7131C37.5905 28.6828 37.6002 28.6484 37.6002 28.6101V28.4943C37.5908 28.5005 37.5777 28.5062 37.5612 28.5114C37.5451 28.5161 37.5268 28.5206 37.5065 28.5249C37.4861 28.5286 37.4658 28.5322 37.4454 28.5355C37.425 28.5384 37.4066 28.541 37.39 28.5433C37.3545 28.5485 37.3235 28.5568 37.297 28.5682C37.2704 28.5795 37.2499 28.5949 37.2352 28.6143C37.2205 28.6333 37.2132 28.657 37.2132 28.6854C37.2132 28.7266 37.2281 28.758 37.2579 28.7798C37.2882 28.8011 37.3266 28.8118 37.373 28.8118ZM38.1354 29V27.9091H38.4287V28.0994H38.4401C38.46 28.0317 38.4933 27.9806 38.5402 27.946C38.5871 27.911 38.6411 27.8935 38.7021 27.8935C38.7173 27.8935 38.7336 27.8944 38.7512 27.8963C38.7687 27.8982 38.7841 27.9008 38.7973 27.9041V28.1726C38.7831 28.1683 38.7635 28.1645 38.7384 28.1612C38.7133 28.1579 38.6903 28.1562 38.6695 28.1562C38.625 28.1562 38.5852 28.166 38.5502 28.1854C38.5156 28.2043 38.4881 28.2308 38.4678 28.2649C38.4479 28.299 38.4379 28.3383 38.4379 28.3828V29H38.1354ZM39.2279 28.6861L39.2286 28.3232H39.2726L39.6221 27.9091H39.9694L39.4999 28.4574H39.4282L39.2279 28.6861ZM38.9537 29V27.5455H39.2563V29H38.9537ZM39.6356 29L39.3145 28.5249L39.5162 28.3111L39.99 29H39.6356ZM40.4204 27.5455V29H40.1178V27.5455H40.4204ZM41.1599 29.0213C41.0477 29.0213 40.9511 28.9986 40.8701 28.9531C40.7896 28.9072 40.7276 28.8423 40.684 28.7585C40.6405 28.6742 40.6187 28.5746 40.6187 28.4595C40.6187 28.3473 40.6405 28.2488 40.684 28.1641C40.7276 28.0793 40.7889 28.0133 40.868 27.9659C40.9475 27.9186 41.0408 27.8949 41.1478 27.8949C41.2198 27.8949 41.2868 27.9065 41.3488 27.9297C41.4113 27.9524 41.4658 27.9867 41.5122 28.0327C41.559 28.0786 41.5955 28.1364 41.6215 28.206C41.6476 28.2751 41.6606 28.3561 41.6606 28.4489V28.532H40.7394V28.3445H41.3758C41.3758 28.3009 41.3663 28.2623 41.3474 28.2287C41.3285 28.1951 41.3022 28.1688 41.2686 28.1499C41.2354 28.1304 41.1968 28.1207 41.1528 28.1207C41.1069 28.1207 41.0661 28.1314 41.0306 28.1527C40.9956 28.1735 40.9681 28.2017 40.9482 28.2372C40.9284 28.2723 40.9182 28.3113 40.9177 28.3544V28.5327C40.9177 28.5866 40.9276 28.6333 40.9475 28.6726C40.9679 28.7119 40.9965 28.7422 41.0335 28.7635C41.0704 28.7848 41.1142 28.7955 41.1649 28.7955C41.1985 28.7955 41.2293 28.7907 41.2572 28.7812C41.2851 28.7718 41.309 28.7576 41.3289 28.7386C41.3488 28.7197 41.364 28.6965 41.3744 28.669L41.6542 28.6875C41.64 28.7547 41.6109 28.8134 41.5669 28.8636C41.5233 28.9134 41.4669 28.9522 41.3978 28.9801C41.3292 29.0076 41.2499 29.0213 41.1599 29.0213Z" fill="#7F4AD5"/>
<path fill-rule="evenodd" clip-rule="evenodd" d="M33 19C34.1046 19 35 19.8954 35 21V19H37C38.1046 19 39 19.8954 39 21C39 22.1046 38.1046 23 37 23C38.1046 23 39 23.8954 39 25C39 25.5485 38.7792 26.0454 38.4217 26.4067L38.4142 26.4142L38.4076 26.4208C38.0462 26.7789 37.5489 27 37 27C36.4548 27 35.9606 26.7819 35.5998 26.4281C35.5951 26.4235 35.5904 26.4189 35.5858 26.4142C35.5814 26.4098 35.577 26.4054 35.5727 26.401C35.2185 26.0402 35 25.5456 35 25C35 26.1046 34.1046 27 33 27C31.8954 27 31 26.1046 31 25V23H33C31.8954 23 31 22.1046 31 21C31 19.8954 31.8954 19 33 19ZM34.6 21C34.6 21.8837 33.8837 22.6 33 22.6V21.1667V19.4C33.8837 19.4 34.6 20.1163 34.6 21ZM38.6 25C38.6 24.1163 37.8837 23.4 37 23.4C36.1163 23.4 35.4 24.1163 35.4 25H38.6ZM31.4 23.4V25C31.4 25.8837 32.1163 26.6 33 26.6C33.8837 26.6 34.6 25.8837 34.6 25V23.4H31.4ZM35.4 22.6V19.4H37C37.8837 19.4 38.6 20.1163 38.6 21C38.6 21.8837 37.8837 22.6 37 22.6H35.4Z" fill="#7F4AD4"/>
</svg>
