<svg width="24" height="24" viewBox="0 0 24 24" fill="none" xmlns="http://www.w3.org/2000/svg">
<path d="M12.075 15.475C11.5917 15.4917 11.1293 15.4127 10.688 15.238C10.2467 15.0633 9.859 14.809 9.525 14.475C9.19167 14.1417 8.93733 13.7667 8.762 13.35C8.58667 12.9333 8.49933 12.4917 8.5 12.025C8.5 11.8583 8.50833 11.6957 8.525 11.537C8.54167 11.3783 8.575 11.2243 8.625 11.075C8.69167 10.875 8.68733 10.675 8.612 10.475C8.53667 10.275 8.40767 10.1333 8.225 10.05C8.025 9.96667 7.829 9.96667 7.637 10.05C7.445 10.1333 7.316 10.275 7.25 10.475C7.16667 10.725 7.104 10.975 7.062 11.225C7.02 11.475 6.99933 11.7333 7 12C7 12.6667 7.12933 13.3043 7.388 13.913C7.64667 14.5217 8.009 15.059 8.475 15.525C8.925 15.9917 9.45433 16.35 10.063 16.6C10.6717 16.85 11.3007 16.9833 11.95 17L11.525 17.425C11.375 17.575 11.3 17.75 11.3 17.95C11.3 18.15 11.375 18.325 11.525 18.475C11.675 18.625 11.85 18.7 12.05 18.7C12.25 18.7 12.425 18.625 12.575 18.475L14.175 16.875C14.375 16.675 14.475 16.4417 14.475 16.175C14.475 15.9083 14.375 15.675 14.175 15.475L12.575 13.875C12.425 13.725 12.25 13.65 12.05 13.65C11.85 13.65 11.675 13.725 11.525 13.875C11.375 14.025 11.3 14.2 11.3 14.4C11.3 14.6 11.375 14.775 11.525 14.925L12.075 15.475ZM11.9 8.5C12.3833 8.5 12.85 8.58767 13.3 8.763C13.75 8.93833 14.1417 9.19233 14.475 9.525C14.8083 9.85833 15.0627 10.2333 15.238 10.65C15.4133 11.0667 15.5007 11.5083 15.5 11.975C15.5 12.1417 15.4917 12.304 15.475 12.462C15.4583 12.62 15.425 12.7743 15.375 12.925C15.3083 13.125 15.3127 13.329 15.388 13.537C15.4633 13.745 15.5923 13.891 15.775 13.975C15.975 14.0583 16.171 14.0583 16.363 13.975C16.555 13.8917 16.684 13.75 16.75 13.55C16.8333 13.3 16.896 13.0457 16.938 12.787C16.98 12.5283 17.0007 12.266 17 12C17 11.3333 16.879 10.6957 16.637 10.087C16.395 9.47833 16.0327 8.93267 15.55 8.45C15.0833 7.98333 14.5457 7.62933 13.937 7.388C13.3283 7.14667 12.6993 7.02567 12.05 7.025L12.5 6.575C12.6333 6.425 12.7 6.25 12.7 6.05C12.7 5.85 12.625 5.675 12.475 5.525C12.325 5.375 12.15 5.3 11.95 5.3C11.75 5.3 11.575 5.375 11.425 5.525L9.825 7.125C9.625 7.325 9.525 7.55833 9.525 7.825C9.525 8.09167 9.625 8.325 9.825 8.525L11.425 10.125C11.575 10.275 11.75 10.35 11.95 10.35C12.15 10.35 12.325 10.275 12.475 10.125C12.625 9.975 12.7 9.8 12.7 9.6C12.7 9.4 12.625 9.225 12.475 9.075L11.9 8.5ZM12 22C10.6167 22 9.31667 21.7373 8.1 21.212C6.88333 20.6867 5.825 19.9743 4.925 19.075C4.025 18.175 3.31267 17.1167 2.788 15.9C2.26333 14.6833 2.00067 13.3833 2 12C2 10.6167 2.26267 9.31667 2.788 8.1C3.31333 6.88333 4.02567 5.825 4.925 4.925C5.825 4.025 6.88333 3.31267 8.1 2.788C9.31667 2.26333 10.6167 2.00067 12 2C13.3833 2 14.6833 2.26267 15.9 2.788C17.1167 3.31333 18.175 4.02567 19.075 4.925C19.975 5.825 20.6877 6.88333 21.213 8.1C21.7383 9.31667 22.0007 10.6167 22 12C22 13.3833 21.7373 14.6833 21.212 15.9C20.6867 17.1167 19.9743 18.175 19.075 19.075C18.175 19.975 17.1167 20.6877 15.9 21.213C14.6833 21.7383 13.3833 22.0007 12 22Z" fill="white"/>
</svg>
