<svg width="633" height="636" viewBox="0 0 633 636" fill="none" xmlns="http://www.w3.org/2000/svg">
<g clip-path="url(#clip0_85381_20936)">
<path d="M491.598 384.379C491.598 511.645 443.134 566.094 284.884 566.094C164.273 566.094 109.508 386.282 62.0335 276.392C39.2466 201.529 79.1245 64.6048 260.795 64.6043C665.564 43.6382 491.598 257.112 491.598 384.379Z" fill="#903CE4" fill-opacity="0.13"/>
<path d="M172.568 168.323C161.065 168.323 150.033 163.515 141.899 154.957C133.765 146.399 129.195 134.792 129.195 122.689C129.195 110.586 133.765 98.9788 141.899 90.4207C150.033 81.8626 161.065 77.0547 172.568 77.0547C184.072 77.0547 195.104 81.8626 203.238 90.4207C211.372 98.9788 215.942 110.586 215.942 122.689C215.942 134.792 211.372 146.399 203.238 154.957C195.104 163.515 184.072 168.323 172.568 168.323Z" fill="#9B82DB"/>
<path d="M161.871 112.527H152.896V143.043H161.871V112.527Z" fill="white"/>
<path d="M157.339 108.53C158.4 108.541 159.44 108.219 160.328 107.607C161.215 106.994 161.909 106.118 162.322 105.089C162.735 104.061 162.849 102.926 162.648 101.83C162.447 100.733 161.941 99.7243 161.194 98.931C160.447 98.1376 159.493 97.5957 158.453 97.3739C157.413 97.1522 156.333 97.2606 155.352 97.6855C154.37 98.1103 153.531 98.8324 152.94 99.7601C152.35 100.688 152.034 101.779 152.034 102.896C152.031 104.382 152.587 105.809 153.581 106.865C154.575 107.921 155.926 108.52 157.339 108.53Z" fill="white"/>
<path d="M176.228 127.019C176.228 122.73 178.102 120.173 181.697 120.173C184.989 120.173 186.584 122.624 186.584 127.019V143.003H195.509V123.716C195.509 115.537 191.116 111.595 184.963 111.595C183.218 111.571 181.497 112.022 179.967 112.904C178.436 113.786 177.148 115.07 176.228 116.63V112.527H167.606V143.03H176.228V127.019Z" fill="white"/>
<path d="M230.69 31.8203L236.628 43.2356L247.49 49.496L236.628 55.743L230.69 67.1583L224.753 55.743L213.891 49.496L224.753 43.2356L230.69 31.8203Z" fill="#9B82DB"/>
<path d="M440.403 336.02L444.86 344.598L453 349.273L444.86 353.962L440.403 362.54L435.947 353.962L427.807 349.273L435.947 344.598L440.403 336.02Z" fill="#9B82DB"/>
<path d="M453.001 293.719L455.014 297.582L458.685 299.699L455.014 301.817L453.001 305.68L451 301.817L447.316 299.699L451 297.582L453.001 293.719Z" fill="#9B82DB"/>
<path d="M188.267 36.1094L190.28 39.9855L193.952 42.0901L190.28 44.2079L188.267 48.0707L186.267 44.2079L182.583 42.0901L186.267 39.9855L188.267 36.1094Z" fill="#9B82DB"/>
<path d="M87.5188 395.284C89.8548 394.158 91.8261 392.337 93.1895 390.046C94.5529 387.754 95.2487 385.093 95.1908 382.39C95.1908 374.758 89.5571 368.631 82.7587 368.684C75.9602 368.737 70.5038 374.984 70.5671 382.617C70.5487 385.342 71.2991 388.011 72.7234 390.288C74.1477 392.564 76.1818 394.344 78.5682 395.404C59.6542 398.667 60.7682 420.326 60.7682 420.326L105.572 419.926C105.572 419.926 106.344 398.015 87.5188 395.284Z" fill="#9B82DB"/>
<path d="M479.358 532.716C479.043 531.008 478.16 529.473 476.868 528.385C475.576 527.298 473.959 526.729 472.305 526.781C470.652 526.832 469.069 527.5 467.84 528.665C466.612 529.83 465.816 531.417 465.597 533.142C465.367 531.42 464.563 529.839 463.328 528.682C462.094 527.526 460.509 526.868 458.856 526.826C457.203 526.784 455.59 527.362 454.304 528.455C453.018 529.549 452.143 531.087 451.835 532.796C451.504 535.321 452.112 537.884 453.532 539.949C454.938 541.985 456.589 543.821 458.444 545.41C460.976 547.768 463.267 549.966 465.774 552.31C468.306 549.939 470.37 547.715 472.851 545.344C474.698 543.738 476.337 541.884 477.725 539.829C479.111 537.764 479.695 535.219 479.358 532.716Z" fill="#9B82DB"/>
<path d="M508.54 251.95L513.338 250.951L520.934 233.396L519.035 223.312C519.035 223.312 526.365 221.288 527.986 234.674C529.606 248.061 529.91 244.504 529.91 244.504C529.91 244.504 545.672 241.281 547.254 242.44C548.406 243.292 551.939 259.676 553.787 268.574C554.298 270.706 554.116 272.958 553.27 274.969C552.423 276.98 550.96 278.635 549.115 279.669C548.59 279.942 548.032 280.139 547.457 280.255C543.532 281.081 522.821 281.907 522.821 281.907L514.528 283.639L508.54 251.95Z" fill="#9B82DB"/>
<path d="M494.271 252.039L503.729 285.978L511.958 284.26L505.577 250.414L494.271 252.039Z" fill="#9B82DB"/>
<path d="M460.101 238.63C447.832 244.904 433.696 245.795 420.803 241.107C407.909 236.418 397.313 226.534 391.345 213.628C385.381 200.719 384.534 185.847 388.99 172.281C393.446 158.715 402.841 147.567 415.108 141.287C421.182 138.178 427.78 136.359 434.523 135.933C441.266 135.507 448.023 136.483 454.408 138.805C460.792 141.126 466.68 144.748 471.734 149.464C476.788 154.18 480.91 159.897 483.864 166.289C486.819 172.68 488.548 179.622 488.953 186.716C489.357 193.811 488.43 200.92 486.223 207.637C484.017 214.355 480.574 220.55 476.092 225.867C471.61 231.185 466.176 235.522 460.101 238.63Z" fill="#BA68C8"/>
<path d="M426.16 202.052C426.349 202.047 426.534 201.998 426.702 201.909C426.871 201.819 427.018 201.691 427.133 201.534C427.248 201.377 427.329 201.195 427.369 201.001C427.408 200.807 427.407 200.606 427.363 200.413C427.237 199.761 426.895 198.109 426.768 197.43C426.591 196.484 426.376 196.231 425.502 195.805C423.234 194.707 421.43 192.767 420.438 190.357C416.564 181.965 419.058 171.402 428.629 166.514C437.099 162.172 444.277 165.182 447.619 172.508C452.037 182.085 451.746 192.221 445.771 195.285C445.026 195.717 444.195 195.958 443.345 195.99C442.495 196.022 441.65 195.843 440.878 195.469C440.106 195.094 439.428 194.534 438.899 193.834C438.37 193.133 438.005 192.312 437.833 191.436C436.845 186.747 436.567 181.272 435.174 178.235C433.908 175.571 431.478 173.96 428.616 175.425C425.236 177.157 424.223 182.218 426.502 187.133C427.315 188.951 428.484 190.567 429.933 191.875C429.933 191.875 433.604 209.031 434.237 212.042C435.503 218.022 439.58 224.03 439.972 224.709C440.029 224.784 440.104 224.842 440.189 224.874C440.275 224.906 440.368 224.912 440.457 224.891C440.545 224.87 440.627 224.823 440.691 224.756C440.756 224.688 440.801 224.603 440.821 224.509C440.935 223.923 442.542 216.65 441.492 210.736C441.201 209.058 439.491 200.467 439.491 200.467C441.606 202.105 445.707 202.411 449.113 200.666C459.241 195.472 461.646 182.218 455.62 169.191C451.075 159.348 438.896 154.233 426.857 160.4C411.855 168.072 409.525 183.244 413.88 192.674C416.514 198.389 420.881 202.465 426.16 202.052Z" fill="white"/>
<path d="M511.464 391.292C507.11 389.545 503.126 386.912 499.74 383.544C496.354 380.176 493.633 376.138 491.732 371.662C489.83 367.186 488.786 362.359 488.66 357.458C488.533 352.558 489.326 347.678 490.993 343.1C492.652 338.52 495.153 334.328 498.353 330.765C501.553 327.203 505.389 324.339 509.642 322.337C513.895 320.335 518.481 319.235 523.139 319.1C527.796 318.965 532.433 319.797 536.784 321.548C541.138 323.295 545.122 325.928 548.508 329.297C551.894 332.665 554.615 336.703 556.517 341.179C558.418 345.655 559.462 350.481 559.589 355.382C559.715 360.283 558.922 365.162 557.255 369.74C555.596 374.321 553.095 378.512 549.895 382.075C546.695 385.638 542.859 388.502 538.606 390.504C534.353 392.505 529.767 393.605 525.11 393.74C520.452 393.876 515.815 393.044 511.464 391.292Z" fill="#BA68C8"/>
<path fill-rule="evenodd" clip-rule="evenodd" d="M543.924 362.757C545.506 357.861 545.234 352.511 543.163 347.821C541.093 343.13 537.384 339.46 532.807 337.573C528.231 335.686 523.139 335.728 518.591 337.689C514.043 339.651 510.389 343.381 508.388 348.105C508.274 348.371 508.172 348.651 508.071 348.918C506.832 352.311 506.508 355.999 507.134 359.574L500.285 368.271L511.375 368.937C513.513 371.597 516.27 373.626 519.378 374.826C522.485 376.027 525.835 376.357 529.1 375.785C532.365 375.213 535.433 373.758 538.003 371.563C540.573 369.368 542.557 366.508 543.76 363.263C543.823 363.098 543.878 362.929 543.924 362.757ZM520.225 371.721C517.29 370.549 514.749 368.492 512.92 365.807L506.451 365.421L510.438 360.359C509.545 356.949 509.709 353.328 510.907 350.023C511.097 349.517 511.312 349.011 511.54 348.531C513.343 344.772 516.416 341.857 520.155 340.356C523.894 338.855 528.031 338.877 531.756 340.416C535.481 341.956 538.525 344.903 540.294 348.68C542.062 352.458 542.427 356.794 541.316 360.839C541.202 361.265 541.076 361.678 540.924 362.091C539.39 366.254 536.349 369.606 532.468 371.412C528.587 373.218 524.184 373.329 520.225 371.721Z" fill="white"/>
<path fill-rule="evenodd" clip-rule="evenodd" d="M532.732 363.105C532.365 362.705 530.631 360.734 530.276 360.441C529.922 360.148 529.669 359.935 529.213 360.281C528.757 360.627 527.529 361.307 527.175 361.506C526.82 361.706 526.542 361.64 526.187 361.24C525.091 360.185 524.179 358.936 523.49 357.55C522.876 356.248 522.449 354.856 522.224 353.421C522.149 352.862 522.452 352.702 522.756 352.569C523.06 352.436 523.389 352.209 523.706 352.036L523.946 351.876C524.112 351.741 524.269 351.594 524.415 351.436C524.522 351.337 524.604 351.21 524.65 351.067C524.697 350.925 524.707 350.772 524.681 350.624C524.681 350.358 524.592 347.747 524.554 346.695C524.516 345.642 524.098 345.642 523.845 345.536C523.592 345.429 523.313 345.269 523.022 345.163C522.798 345.078 522.56 345.042 522.323 345.058C522.085 345.074 521.854 345.142 521.642 345.256C520.973 345.551 520.369 345.989 519.867 346.541C519.366 347.093 518.979 347.749 518.73 348.466C518.546 348.993 518.431 349.545 518.388 350.104C518.316 351.386 518.458 352.671 518.806 353.901C518.92 354.287 519.996 360.174 523.769 363.797C527.542 367.42 527.782 366.808 528.618 367.048C529.281 367.184 529.964 367.166 530.62 366.996C531.276 366.826 531.889 366.507 532.416 366.062C532.954 365.5 533.32 364.78 533.467 363.997C533.327 363.744 533.087 363.504 532.732 363.105Z" fill="white"/>
<path d="M88.1511 224.098C80.9758 224.098 74.0944 221.099 69.0207 215.76C63.947 210.422 61.0967 203.182 61.0967 195.633C61.0967 188.083 63.947 180.843 69.0207 175.505C74.0944 170.167 80.9758 167.168 88.1511 167.168C91.7039 167.168 95.222 167.904 98.5044 169.335C101.787 170.765 104.769 172.862 107.281 175.505C109.794 178.148 111.787 181.286 113.146 184.74C114.506 188.193 115.206 191.895 115.206 195.633C115.206 199.371 114.506 203.072 113.146 206.526C111.787 209.979 109.794 213.117 107.281 215.76C104.769 218.404 101.787 220.5 98.5044 221.931C95.222 223.361 91.7039 224.098 88.1511 224.098Z" fill="#BA68C8"/>
<path d="M73.7441 205.131C76.3424 206.875 79.3458 207.835 82.427 207.907C85.5082 207.979 88.549 207.16 91.2182 205.538C93.8873 203.917 96.0823 201.556 97.564 198.713C99.0457 195.87 99.7573 192.653 99.6212 189.414C100.765 188.54 101.755 187.463 102.546 186.23C101.462 186.731 100.315 187.063 99.1401 187.216C100.378 186.455 101.313 185.248 101.773 183.819C100.602 184.552 99.3158 185.062 97.9754 185.324C97.0875 184.303 95.9015 183.621 94.6046 183.387C93.3077 183.153 91.9735 183.379 90.8126 184.031C89.6518 184.683 88.7302 185.723 88.1933 186.987C87.6564 188.251 87.5347 189.667 87.8474 191.012C85.4951 190.885 83.1945 190.239 81.0944 189.117C78.9942 187.995 77.1414 186.422 75.6558 184.499C74.903 185.871 74.6739 187.492 75.0147 189.036C75.3555 190.579 76.2409 191.928 77.4915 192.81C76.5507 192.785 75.6297 192.52 74.8076 192.038C74.7919 193.488 75.2574 194.899 76.124 196.027C76.9906 197.155 78.2039 197.93 79.5551 198.218C78.6841 198.468 77.7703 198.504 76.8838 198.325C77.2629 199.559 77.9983 200.638 78.9877 201.411C79.9771 202.185 81.1712 202.615 82.4036 202.64C79.9375 204.63 76.8291 205.524 73.7441 205.131Z" fill="white"/>
<path d="M136.728 542.939C124.713 545.941 112.057 543.801 101.54 536.99C91.024 530.179 83.508 519.254 80.6442 506.615C79.2244 500.349 78.9922 493.851 79.9611 487.49C80.93 481.13 83.0808 475.033 86.2906 469.548C89.5005 464.063 93.7063 459.297 98.6678 455.523C103.629 451.749 109.249 449.042 115.206 447.554C121.158 446.062 127.331 445.817 133.373 446.835C139.414 447.853 145.206 450.113 150.418 453.486C155.629 456.859 160.158 461.279 163.746 466.494C167.334 471.708 169.91 477.616 171.328 483.878C172.747 490.146 172.978 496.648 172.006 503.01C171.035 509.373 168.881 515.471 165.667 520.957C162.454 526.442 158.244 531.207 153.278 534.979C148.312 538.751 142.688 541.456 136.728 542.939Z" fill="#455A64"/>
<path d="M121.118 473.821C127.752 472.156 128.549 471.983 131.246 471.45C132.824 471.078 134.451 470.992 136.057 471.197C137.232 471.347 138.361 471.77 139.361 472.436C140.37 473.081 141.234 473.949 141.893 474.98C142.789 476.397 143.448 477.965 143.843 479.616C144.59 482.346 144.805 483.172 146.375 490.152C147.944 497.131 148.109 497.971 148.615 500.808C148.976 502.467 149.058 504.18 148.856 505.869C148.727 507.109 148.323 508.3 147.679 509.346C147.074 510.41 146.252 511.32 145.273 512.01C143.921 512.952 142.427 513.645 140.855 514.061C138.323 514.847 137.487 515.073 130.853 516.725C124.22 518.377 123.422 518.563 120.725 519.096C119.144 519.475 117.512 519.561 115.902 519.349C114.726 519.204 113.596 518.78 112.598 518.11C111.598 517.446 110.758 516.548 110.142 515.486C109.238 514.072 108.574 512.504 108.179 510.851C107.445 508.12 107.23 507.308 105.647 500.328C104.065 493.349 103.9 492.509 103.394 489.672C103.046 488.006 102.965 486.291 103.153 484.597C103.309 483.365 103.71 482.182 104.329 481.124C104.949 480.066 105.773 479.157 106.749 478.457C108.094 477.508 109.584 476.81 111.154 476.392C113.686 475.62 114.535 475.393 121.169 473.728M120.105 469.013C113.357 470.705 112.509 470.944 109.888 471.743C107.838 472.279 105.89 473.18 104.128 474.407C102.634 475.495 101.37 476.897 100.418 478.525C99.4655 480.153 98.845 481.971 98.5957 483.865C98.3298 486.085 98.424 488.337 98.8743 490.525C99.3933 493.335 99.5579 494.241 101.166 501.341C102.774 508.44 103.001 509.333 103.698 512.076C104.204 514.235 105.061 516.285 106.23 518.137C107.26 519.768 108.622 521.138 110.218 522.146C111.753 523.163 113.482 523.813 115.282 524.051C117.392 524.332 119.533 524.233 121.612 523.758C124.283 523.225 125.144 523.039 131.892 521.347C138.639 519.656 139.488 519.416 142.096 518.683C144.143 518.138 146.09 517.238 147.856 516.019C149.366 514.948 150.636 513.543 151.578 511.903C152.539 510.284 153.161 508.468 153.401 506.575C153.663 504.354 153.564 502.102 153.11 499.915C152.603 497.091 152.426 496.199 150.818 489.099C149.21 482 148.983 481.107 148.286 478.35C147.766 476.197 146.911 474.149 145.754 472.29C144.735 470.705 143.4 469.373 141.842 468.387C140.309 467.363 138.58 466.708 136.778 466.469C134.668 466.187 132.527 466.287 130.448 466.762C127.764 467.308 126.916 467.481 120.168 469.173" fill="white"/>
<path d="M122.928 481.826C120.405 482.459 118.117 483.864 116.353 485.865C114.589 487.866 113.428 490.372 113.018 493.067C112.607 495.762 112.966 498.524 114.047 501.004C115.129 503.485 116.885 505.572 119.094 507.002C121.303 508.433 123.866 509.142 126.458 509.04C129.05 508.938 131.555 508.03 133.657 506.43C135.758 504.83 137.362 502.611 138.264 500.052C139.167 497.494 139.328 494.711 138.728 492.056C137.92 488.497 135.802 485.42 132.839 483.502C129.877 481.584 126.313 480.981 122.928 481.826ZM127.992 503.977C126.353 504.385 124.636 504.272 123.057 503.652C121.479 503.033 120.111 501.936 119.125 500.499C118.139 499.062 117.581 497.349 117.52 495.578C117.458 493.807 117.898 492.057 118.782 490.548C119.666 489.04 120.955 487.841 122.486 487.103C124.017 486.365 125.722 486.121 127.385 486.402C129.048 486.683 130.595 487.477 131.83 488.682C133.064 489.888 133.932 491.451 134.322 493.175C134.582 494.322 134.624 495.511 134.447 496.675C134.269 497.839 133.875 498.954 133.287 499.957C132.699 500.961 131.929 501.832 131.02 502.522C130.112 503.212 129.083 503.706 127.992 503.977Z" fill="white"/>
<path d="M139.057 477.231C139.195 477.851 139.156 478.501 138.944 479.097C138.732 479.694 138.357 480.211 137.866 480.583C137.375 480.956 136.79 481.167 136.185 481.19C135.58 481.213 134.982 481.047 134.467 480.712C133.951 480.378 133.542 479.891 133.29 479.312C133.037 478.733 132.954 478.088 133.049 477.459C133.145 476.83 133.415 476.245 133.827 475.778C134.238 475.311 134.772 474.982 135.36 474.834C135.753 474.733 136.16 474.715 136.559 474.781C136.958 474.848 137.341 474.997 137.685 475.22C138.029 475.443 138.327 475.735 138.563 476.081C138.798 476.426 138.966 476.817 139.057 477.231Z" fill="white"/>
<path d="M451.721 494.464C448.867 494.466 446.04 493.876 443.403 492.728C440.766 491.58 438.369 489.897 436.351 487.774C434.332 485.652 432.731 483.131 431.638 480.357C430.546 477.583 429.983 474.61 429.983 471.607C429.983 468.604 430.546 465.631 431.638 462.857C432.731 460.083 434.332 457.563 436.351 455.44C438.369 453.317 440.766 451.634 443.403 450.486C446.04 449.338 448.867 448.748 451.721 448.75C454.577 448.745 457.406 449.332 460.046 450.478C462.686 451.625 465.085 453.308 467.107 455.431C469.128 457.554 470.732 460.075 471.826 462.851C472.92 465.627 473.483 468.602 473.483 471.607C473.483 474.612 472.92 477.588 471.826 480.363C470.732 483.139 469.128 485.661 467.107 487.784C465.085 489.907 462.686 491.59 460.046 492.736C457.406 493.882 454.577 494.47 451.721 494.464Z" fill="#455A64"/>
<path d="M449.67 485.423H454.962V471.531H458.646L459.051 466.869H454.962V464.205C454.962 463.112 455.177 462.673 456.228 462.673H459.102V457.824H455.43C451.493 457.824 449.721 459.649 449.721 463.152V466.882H446.897V471.531H449.645L449.67 485.423Z" fill="white"/>
<path d="M476.814 61.0586L478.245 63.8158L480.852 65.321L478.245 66.8262L476.814 69.5701L475.383 66.8262L472.775 65.321L475.383 63.8158L476.814 61.0586Z" fill="#BA68C8"/>
<path d="M506.704 129.219L508.135 131.976L510.743 133.481L508.135 134.986L506.704 137.73L505.274 134.986L502.653 133.481L505.274 131.976L506.704 129.219Z" fill="#BA68C8"/>
<path d="M65.7055 316.391L67.1361 319.148L69.7567 320.653L67.1361 322.145L65.7055 324.902L64.275 322.145L61.667 320.653L64.275 319.148L65.7055 316.391Z" fill="#BA68C8"/>
<path d="M437.606 78L440.91 84.3536L446.949 87.8302L440.91 91.2934L437.606 97.647L434.314 91.2934L428.275 87.8302L434.314 84.3536L437.606 78Z" fill="#BA68C8"/>
<path d="M92.4945 273.191L95.7861 279.518L101.812 282.982L95.7861 286.458L92.4945 292.785L89.2029 286.458L83.1768 282.982L89.2029 279.518L92.4945 273.191Z" fill="#BA68C8"/>
<path d="M514.831 418.992L518.123 425.333L524.137 428.796L518.123 432.259L514.831 438.599L511.54 432.259L505.514 428.796L511.54 425.333L514.831 418.992Z" fill="#BA68C8"/>
<path d="M280.189 87.0875C280.189 87.0875 273.191 80.8846 272.226 67.6444C271.477 57.3963 280.192 64.5977 280.192 64.5977C280.192 64.5977 279.723 57.2107 284.882 58.2965C290.041 59.3822 292.455 67.2719 292.455 67.2719" fill="#0C0C0C"/>
<path d="M311.747 61C311.747 61 337.406 65.611 325.716 100.836H318.756" fill="#0C0C0C"/>
<path d="M328.701 555.355C328.701 555.355 325.648 571.559 310.832 572.465C296.015 573.371 299.227 585.456 299.227 585.456H355.848V556.486L328.701 555.355Z" fill="#7D4EF1"/>
<path d="M359.688 259.734C359.688 259.734 359.51 254.862 359.548 265.913C359.688 307.133 358.347 565.701 358.347 565.701L321.142 565.381L298.604 258.059L359.688 259.734Z" fill="#262626"/>
<path d="M265.168 555.355C265.168 555.355 262.115 571.559 247.299 572.465C232.482 573.371 235.695 585.456 235.695 585.456H292.316V556.486L265.168 555.355Z" fill="#7D4EF1"/>
<path d="M257.972 262.933C257.972 262.933 253.324 403.814 253.808 410.7L258.178 564.63L294.769 565.322L300.669 405.13C300.669 405.13 304.537 360.942 314.962 319.909C320.296 298.849 323.506 277.285 324.542 255.555L257.972 262.933Z" fill="#262626"/>
<path d="M306.245 362.82L303.195 315.035C303.195 315.035 300.061 334.901 300.061 352.023C300.061 360.393 301.743 393.53 301.743 393.53L306.245 362.82Z" fill="#0A0A0A"/>
<path d="M282.848 137.458C282.962 137.442 284.226 158.917 308.586 157.045C325.451 155.751 331.464 137.427 331.85 137.427C330.032 137.032 327.785 136.431 326.892 136.225C324.946 135.762 323.183 134.704 321.839 133.19C320.494 131.677 319.631 129.78 319.365 127.752C318.872 124.705 319.709 109.135 319.451 106.055L293.564 111.972C293.926 118.476 296.457 133.556 287.584 136.224C286.107 136.666 284.517 137.072 282.848 137.458Z" fill="#E98862"/>
<path opacity="0.52" d="M293.201 130.061C293.607 128.723 293.868 127.343 293.98 125.946C294.265 122.76 294.208 119.551 293.811 116.377C299.073 115.649 304.029 113.425 308.118 109.957C308.599 111.775 311.243 119.72 310.511 121.447C309.127 124.713 302.625 130.061 293.201 130.061Z" fill="#0C0C0C"/>
<path d="M297.796 124.874C308.048 124.637 320.675 118.88 321.778 104.728L322.773 91.9568C323.876 77.8033 317.511 65.7368 304.498 64.6746C291.486 63.611 280.866 74.2899 279.763 88.4434L279.322 94.0972C279.204 96.041 279.215 97.9908 279.356 99.9331C279.694 105.07 280.22 112.882 283.251 118.347C286.113 123.507 291.247 125.025 297.796 124.874Z" fill="#E98862"/>
<path opacity="0.52" d="M293.915 111.602C291.806 111.555 289.737 111.001 287.875 109.985C287.797 109.944 287.738 109.874 287.711 109.789C287.684 109.704 287.692 109.611 287.731 109.531C287.771 109.452 287.84 109.391 287.923 109.364C288.006 109.336 288.096 109.343 288.174 109.384C292.192 111.474 295.965 111.467 299.084 109.364C299.147 109.32 299.212 109.278 299.28 109.241C299.358 109.202 299.449 109.196 299.531 109.225C299.614 109.255 299.682 109.316 299.72 109.397C299.759 109.477 299.764 109.57 299.736 109.654C299.707 109.739 299.647 109.809 299.569 109.848C299.543 109.862 299.501 109.89 299.447 109.928C297.807 111.037 295.881 111.62 293.915 111.602Z" fill="#0C0C0C"/>
<path opacity="0.52" d="M293.805 114.799C293.424 114.797 293.043 114.762 292.667 114.693C292.625 114.685 292.584 114.669 292.547 114.645C292.511 114.622 292.479 114.591 292.454 114.555C292.429 114.518 292.412 114.477 292.402 114.434C292.393 114.391 292.392 114.346 292.399 114.302C292.407 114.259 292.423 114.217 292.446 114.18C292.469 114.142 292.499 114.11 292.535 114.085C292.57 114.059 292.61 114.041 292.652 114.031C292.695 114.022 292.738 114.021 292.781 114.028C295.04 114.433 296.197 113.439 296.245 113.396C296.311 113.337 296.397 113.307 296.484 113.313C296.571 113.319 296.653 113.36 296.71 113.428C296.768 113.495 296.797 113.583 296.791 113.672C296.785 113.761 296.745 113.845 296.679 113.904C295.851 114.533 294.836 114.85 293.805 114.799Z" fill="#0C0C0C"/>
<path d="M283.623 97.1214C284.511 97.1214 285.23 96.3842 285.23 95.4748C285.23 94.5653 284.511 93.8281 283.623 93.8281C282.735 93.8281 282.015 94.5653 282.015 95.4748C282.015 96.3842 282.735 97.1214 283.623 97.1214Z" fill="#0C0C0C"/>
<path d="M299.875 97.2269C300.764 97.2269 301.483 96.4896 301.483 95.5802C301.483 94.6708 300.764 93.9336 299.875 93.9336C298.987 93.9336 298.268 94.6708 298.268 95.5802C298.268 96.4896 298.987 97.2269 299.875 97.2269Z" fill="#0C0C0C"/>
<path d="M320.634 108.974C324.588 109.297 328.132 105.227 328.447 101.177C328.762 97.1268 325.731 94.632 321.776 94.3086L319.527 96.8561L317.233 108.697L320.634 108.974Z" fill="#E98862"/>
<path d="M252.582 184.733C253.349 193.965 257.081 251.561 257.819 262.932H359.493C360.068 252.676 362.647 207.83 364.825 187.775C366.904 168.637 370.983 159.056 367.993 153.398C363.107 144.151 349.756 138.808 340.652 137.545C335.094 136.775 326.732 136.223 326.732 136.223C326.732 136.223 326.024 150.889 309.144 151.705C286.165 152.813 287.699 136.223 287.585 136.223C283.862 136.223 262.596 138.636 257.393 141.794C243.216 150.392 250.953 165.17 252.582 184.733Z" fill="#7D4EF1"/>
<path d="M317.123 102.19C317.123 102.19 317.097 82.0541 311.243 80.4089C307.345 79.3134 297.382 84.3973 288.619 82.0541C284.784 81.0286 281.032 81.7605 280.534 83.6135C280.337 84.3475 278.616 73.49 285.23 65.7935C290.496 59.666 306.461 58.9293 313.535 61.5426C333.116 68.7779 322.534 95.2465 322.534 95.2465L321.192 102.096L317.123 102.19Z" fill="#0C0C0C"/>
<g opacity="0.52">
<path d="M291.835 106.706H291.809C290.535 106.605 288.408 106.29 288.48 105.314C288.542 104.505 291.362 95.9424 291.684 94.9688C291.712 94.8851 291.771 94.816 291.848 94.7768C291.925 94.7376 292.015 94.7314 292.096 94.7597C292.178 94.788 292.246 94.8484 292.284 94.9276C292.322 95.0068 292.328 95.0984 292.301 95.1821C291.048 98.9746 289.171 104.815 289.129 105.365C289.238 105.606 290.539 105.936 291.859 106.041C291.942 106.049 292.019 106.089 292.074 106.153C292.13 106.217 292.159 106.3 292.155 106.386C292.152 106.471 292.117 106.552 292.058 106.612C291.998 106.672 291.918 106.706 291.835 106.707V106.706Z" fill="#0C0C0C"/>
</g>
<path d="M288.141 88.3446C287.113 87.9092 285.99 87.7597 284.887 87.9111C284.326 87.9834 283.779 88.1423 283.265 88.3827C282.739 88.625 282.244 88.934 281.793 89.3022L281.757 89.3299C281.641 89.4222 281.494 89.4642 281.348 89.447C281.202 89.4297 281.068 89.3546 280.975 89.2376C280.883 89.1206 280.838 88.9712 280.852 88.8212C280.866 88.6712 280.936 88.5327 281.048 88.4353C281.548 87.9595 282.104 87.5502 282.704 87.2173C283.313 86.8767 283.967 86.6314 284.647 86.4895C285.327 86.3402 286.025 86.2871 286.719 86.3317C287.434 86.37 288.14 86.5127 288.815 86.7554C289.025 86.8331 289.197 86.9926 289.293 87.1992C289.388 87.4058 289.401 87.6429 289.326 87.8586C289.252 88.0743 289.098 88.2514 288.897 88.3511C288.696 88.4508 288.465 88.4651 288.253 88.391C288.233 88.3834 288.213 88.3757 288.194 88.3667L288.141 88.3446Z" fill="#0C0C0C"/>
<path d="M297.582 86.8945C298.922 86.4219 300.363 86.3302 301.75 86.6293C302.43 86.771 303.085 87.0163 303.693 87.357C304.293 87.69 304.849 88.0995 305.349 88.5757C305.459 88.6735 305.528 88.8115 305.541 88.9604C305.554 89.1094 305.51 89.2577 305.418 89.3739C305.326 89.4902 305.194 89.5653 305.049 89.5835C304.904 89.6016 304.758 89.5613 304.642 89.471L304.604 89.442C304.153 89.0734 303.659 88.7645 303.132 88.5224C302.618 88.2818 302.071 88.1225 301.51 88.0501C300.407 87.8987 299.284 88.0482 298.256 88.4836L298.209 88.5051C298.003 88.5994 297.769 88.6061 297.559 88.5239C297.348 88.4416 297.178 88.2771 297.086 88.0664C296.994 87.8558 296.987 87.6163 297.068 87.4007C297.148 87.185 297.309 87.0109 297.514 86.9166C297.537 86.9104 297.559 86.9014 297.582 86.8945Z" fill="#0C0C0C"/>
<path d="M298.954 66.8289C300.144 62.4748 298.767 58.274 295.879 57.4461C292.99 56.6183 289.684 59.4769 288.494 63.831C287.304 68.1851 288.681 72.3859 291.57 73.2138C294.458 74.0416 297.764 71.183 298.954 66.8289Z" fill="#0C0C0C"/>
<path d="M230.263 255.078C227.255 255.073 224.3 254.263 221.692 252.728C219.085 251.192 216.914 248.985 215.397 246.325C213.88 243.666 213.068 240.645 213.043 237.565C213.017 234.485 213.779 231.451 215.252 228.765L256.349 153.905C257.453 151.873 258.938 150.084 260.719 148.641C262.5 147.199 264.542 146.13 266.727 145.498C268.912 144.865 271.198 144.681 273.453 144.956C275.707 145.23 277.887 145.958 279.867 147.098C281.846 148.238 283.586 149.766 284.987 151.597C286.388 153.427 287.422 155.523 288.029 157.763C288.637 160.004 288.807 162.345 288.528 164.653C288.25 166.961 287.529 169.19 286.408 171.212L245.311 246.072C243.81 248.807 241.625 251.083 238.98 252.666C236.335 254.249 233.326 255.082 230.263 255.078Z" fill="#7D4EF1"/>
<path d="M259.304 227.496L258.689 214.73" stroke="#0C0C0C" stroke-width="0.75" stroke-linecap="round" stroke-linejoin="round"/>
<path d="M309.134 193.665L298.5 180.918C298.271 180.644 297.991 180.42 297.675 180.261C297.359 180.102 297.015 180.01 296.664 179.992C296.312 179.973 295.961 180.028 295.631 180.153C295.301 180.279 294.999 180.471 294.744 180.72C294.267 181.218 293.993 181.884 293.976 182.581C293.96 183.279 294.203 183.957 294.656 184.478L296.929 187.202L308.297 196.045L309.134 193.665Z" fill="#E98862"/>
<path d="M288.657 197.023L255.08 199.166C253.732 199.252 252.401 198.823 251.344 197.963C250.286 197.103 249.578 195.872 249.355 194.508L241.059 143.763C240.933 142.991 240.967 142.2 241.158 141.442C241.349 140.684 241.694 139.975 242.17 139.362C242.645 138.749 243.241 138.244 243.919 137.882C244.597 137.52 245.342 137.307 246.105 137.259L279.682 135.116C281.03 135.03 282.361 135.459 283.419 136.319C284.476 137.18 285.184 138.411 285.407 139.775L293.701 190.519C293.827 191.291 293.793 192.082 293.602 192.84C293.411 193.598 293.067 194.306 292.591 194.92C292.116 195.533 291.52 196.037 290.842 196.399C290.164 196.762 289.42 196.974 288.657 197.023Z" fill="#292A2E"/>
<path d="M296.928 187.204L285.907 181.979C284.69 181.376 282.822 181.433 282.252 182.874C281.998 183.414 281.93 184.026 282.059 184.61C282.188 185.195 282.506 185.717 282.962 186.092C282.953 186.103 282.945 186.115 282.939 186.128C282.936 186.138 282.934 186.148 282.932 186.158L281.057 185.228C280.712 185.057 280.333 184.967 279.95 184.963C279.566 184.96 279.186 185.044 278.838 185.209C278.49 185.375 278.182 185.617 277.937 185.919C277.691 186.221 277.514 186.575 277.418 186.955C277.277 187.565 277.346 188.205 277.614 188.769C277.881 189.332 278.331 189.783 278.886 190.046L279.684 190.442C279.684 190.472 279.688 190.502 279.698 190.53C279.104 190.391 278.482 190.472 277.941 190.756C277.399 191.041 276.973 191.512 276.737 192.087C276.496 192.739 276.505 193.462 276.763 194.107C277.022 194.753 277.51 195.274 278.129 195.566L280.09 196.535C280.053 196.542 280.017 196.557 279.987 196.58C279.956 196.604 279.931 196.634 279.914 196.669C279.895 196.714 279.89 196.763 279.9 196.811C279.348 196.837 278.819 197.043 278.389 197.398C277.96 197.754 277.654 198.242 277.515 198.789C277.374 199.399 277.443 200.039 277.711 200.603C277.978 201.166 278.427 201.618 278.983 201.881L295.7 210.172C298.039 211.332 300.663 211.75 303.235 211.372C305.808 210.995 308.211 209.839 310.138 208.054L316.342 202.307L296.928 187.204Z" fill="#E98862"/>
<g opacity="0.2">
<path d="M293.845 191.323C293.818 191.381 293.769 191.425 293.71 191.446C293.652 191.467 293.587 191.464 293.53 191.437L283.05 186.451C283.021 186.438 282.996 186.418 282.975 186.395C282.954 186.371 282.937 186.343 282.926 186.313C282.916 186.283 282.911 186.251 282.912 186.218C282.914 186.186 282.921 186.155 282.935 186.126C282.948 186.096 282.967 186.07 282.99 186.049C283.013 186.027 283.04 186.01 283.07 185.999C283.099 185.988 283.131 185.983 283.162 185.985C283.194 185.986 283.224 185.994 283.253 186.007L293.733 190.99C293.791 191.017 293.835 191.067 293.857 191.128C293.879 191.189 293.876 191.256 293.849 191.315L293.845 191.323Z" fill="#0C0C0C"/>
</g>
<g opacity="0.2">
<path d="M291.827 196.114C291.799 196.171 291.751 196.215 291.692 196.237C291.633 196.258 291.569 196.255 291.512 196.228L279.82 190.668C279.763 190.64 279.718 190.59 279.696 190.53C279.674 190.469 279.677 190.401 279.704 190.342C279.732 190.285 279.781 190.241 279.84 190.219C279.899 190.197 279.964 190.198 280.021 190.223L291.713 195.783C291.771 195.811 291.815 195.861 291.837 195.922C291.859 195.983 291.856 196.05 291.83 196.109L291.827 196.114Z" fill="#0C0C0C"/>
</g>
<g opacity="0.2">
<path d="M289.671 201.32C289.644 201.377 289.595 201.421 289.537 201.443C289.478 201.464 289.413 201.461 289.356 201.434L280.029 196.998C280.001 196.985 279.975 196.965 279.954 196.942C279.933 196.918 279.917 196.89 279.906 196.86C279.895 196.83 279.89 196.797 279.892 196.765C279.893 196.733 279.901 196.702 279.914 196.672C279.927 196.643 279.946 196.617 279.969 196.595C279.993 196.574 280.02 196.557 280.049 196.546C280.079 196.535 280.11 196.53 280.142 196.531C280.173 196.533 280.204 196.541 280.232 196.554L289.559 200.989C289.616 201.017 289.661 201.067 289.682 201.128C289.704 201.189 289.701 201.256 289.675 201.315L289.671 201.32Z" fill="#0C0C0C"/>
</g>
<path d="M292.453 215.084L364.975 251.515C368.045 252.963 371.453 253.492 374.805 253.042C378.156 252.591 381.315 251.179 383.917 248.969C386.519 246.758 388.457 243.84 389.508 240.549C390.559 237.259 390.68 233.732 389.857 230.374L370.492 159.074C369.336 154.352 366.395 150.294 362.316 147.792C358.238 145.291 353.356 144.551 348.745 145.735C339.144 148.202 333.988 158.173 336.397 168.006L351.591 206.558L305.12 186.605L292.453 215.084Z" fill="#7D4EF1"/>
<path d="M364.002 249.517C363.98 249.513 363.958 249.505 363.938 249.495L296.147 215.306C296.091 215.278 296.048 215.229 296.027 215.169C296.006 215.109 296.008 215.043 296.034 214.985L308.7 186.505C308.725 186.447 308.772 186.401 308.83 186.378C308.888 186.354 308.953 186.355 309.01 186.38L354.346 205.443L345.373 177.769C345.365 177.738 345.362 177.705 345.366 177.673C345.369 177.641 345.379 177.611 345.394 177.583C345.41 177.554 345.43 177.53 345.455 177.51C345.479 177.49 345.508 177.475 345.538 177.466C345.568 177.458 345.6 177.455 345.631 177.459C345.662 177.462 345.692 177.472 345.72 177.488C345.747 177.504 345.771 177.525 345.791 177.55C345.81 177.575 345.824 177.604 345.833 177.635L354.941 205.8C354.953 205.844 354.953 205.892 354.94 205.936C354.928 205.98 354.903 206.02 354.869 206.051C354.835 206.081 354.794 206.101 354.749 206.109C354.705 206.116 354.659 206.111 354.618 206.093L309.038 186.924L296.566 214.968L364.146 249.053C364.198 249.079 364.239 249.123 364.261 249.177C364.284 249.231 364.287 249.292 364.269 249.348C364.251 249.404 364.215 249.451 364.166 249.482C364.117 249.513 364.058 249.524 364.002 249.515V249.517Z" fill="#0C0C0C"/>
<path d="M362.842 209.849C362.822 209.846 362.803 209.84 362.785 209.832L354.614 206.093C354.585 206.08 354.56 206.061 354.538 206.038C354.517 206.014 354.5 205.987 354.488 205.957C354.477 205.927 354.472 205.895 354.473 205.863C354.474 205.831 354.481 205.799 354.493 205.77C354.506 205.741 354.525 205.714 354.547 205.692C354.57 205.67 354.597 205.653 354.626 205.641C354.655 205.63 354.687 205.624 354.718 205.625C354.749 205.626 354.78 205.633 354.809 205.646L362.98 209.385C363.032 209.41 363.074 209.453 363.098 209.507C363.122 209.56 363.126 209.621 363.11 209.678C363.093 209.734 363.057 209.783 363.009 209.814C362.96 209.846 362.902 209.858 362.845 209.849H362.842Z" fill="#0C0C0C"/>
<path d="M270.469 159.895C270.121 159.448 269.641 159.128 269.101 158.984C268.56 158.84 267.989 158.878 267.472 159.094C267.469 159.061 267.457 159.03 267.439 159.002C267.421 158.975 267.396 158.953 267.368 158.937C267.339 158.922 267.307 158.914 267.275 158.914C267.243 158.914 267.211 158.922 267.182 158.938L268.592 157.193C269.026 156.677 269.257 156.015 269.241 155.335C269.225 154.655 268.963 154.005 268.505 153.511C268.061 153.061 267.473 152.791 266.85 152.75C266.227 152.709 265.61 152.9 265.113 153.289C265.113 153.262 265.089 153.243 265.079 153.219L265.655 152.506C266.051 152.033 266.277 151.436 266.294 150.814C266.312 150.192 266.121 149.583 265.752 149.088C265.512 148.779 265.207 148.528 264.861 148.355C264.514 148.182 264.134 148.09 263.748 148.086C263.363 148.082 262.981 148.166 262.631 148.333C262.281 148.499 261.972 148.743 261.726 149.047L260.394 150.695C260.386 150.687 260.388 150.674 260.379 150.666C260.37 150.659 260.352 150.66 260.34 150.653C260.605 150.116 260.684 149.504 260.565 148.916C260.446 148.327 260.135 147.798 259.683 147.414C258.579 146.346 256.857 147.09 255.996 148.156L247.857 158.048L248.09 157.601L249.055 154.144C249.25 153.493 249.202 152.792 248.921 152.175C248.64 151.559 248.146 151.071 247.533 150.807C247.198 150.675 246.839 150.615 246.479 150.633C246.12 150.65 245.768 150.744 245.446 150.909C245.124 151.073 244.839 151.304 244.609 151.587C244.379 151.871 244.21 152.2 244.111 152.554L239.612 168.674L238.52 172.588C237.996 174.466 238.208 176.479 239.11 178.199C240.012 179.919 241.534 181.212 243.351 181.801L244.54 182.187C247.017 182.991 249.672 183.019 252.165 182.267C254.658 181.515 256.874 180.018 258.531 177.968L270.372 163.312C270.768 162.84 270.994 162.243 271.012 161.621C271.029 160.999 270.838 160.389 270.469 159.895Z" fill="#E98862"/>
<g opacity="0.2">
<path d="M252.566 160.033C252.614 160.074 252.676 160.093 252.738 160.087C252.8 160.082 252.858 160.051 252.898 160.003L260.404 151.012C260.426 150.987 260.443 150.959 260.455 150.928C260.466 150.897 260.471 150.863 260.469 150.83C260.467 150.797 260.459 150.764 260.445 150.735C260.43 150.705 260.41 150.678 260.386 150.657C260.361 150.635 260.332 150.619 260.301 150.609C260.27 150.599 260.238 150.596 260.205 150.599C260.173 150.602 260.142 150.612 260.114 150.629C260.085 150.645 260.06 150.667 260.041 150.693L252.535 159.684C252.515 159.709 252.499 159.737 252.489 159.768C252.48 159.799 252.476 159.831 252.478 159.863C252.481 159.895 252.489 159.927 252.504 159.955C252.518 159.984 252.538 160.01 252.562 160.031L252.566 160.033Z" fill="#0C0C0C"/>
</g>
<g opacity="0.2">
<path d="M256.349 163.533C256.397 163.573 256.459 163.593 256.521 163.587C256.583 163.581 256.641 163.551 256.681 163.502L265.059 153.468C265.079 153.444 265.095 153.415 265.105 153.385C265.114 153.354 265.118 153.322 265.116 153.29C265.113 153.257 265.105 153.226 265.09 153.197C265.076 153.169 265.056 153.143 265.032 153.122C264.983 153.082 264.921 153.062 264.858 153.067C264.795 153.072 264.737 153.101 264.694 153.149L256.317 163.183C256.297 163.208 256.281 163.236 256.272 163.267C256.262 163.297 256.258 163.33 256.26 163.362C256.263 163.394 256.272 163.425 256.286 163.454C256.3 163.483 256.32 163.509 256.344 163.529L256.349 163.533Z" fill="#0C0C0C"/>
</g>
<g opacity="0.2">
<path d="M260.421 167.347C260.469 167.387 260.531 167.406 260.593 167.401C260.655 167.395 260.713 167.365 260.754 167.316L267.436 159.312C267.458 159.288 267.476 159.26 267.487 159.228C267.498 159.197 267.503 159.164 267.501 159.131C267.5 159.098 267.491 159.065 267.477 159.035C267.463 159.006 267.443 158.979 267.418 158.957C267.393 158.936 267.365 158.92 267.334 158.91C267.303 158.9 267.27 158.896 267.238 158.9C267.206 158.903 267.174 158.913 267.146 158.929C267.118 158.946 267.093 158.967 267.073 158.994L260.39 166.998C260.369 167.023 260.354 167.051 260.344 167.082C260.334 167.113 260.33 167.145 260.333 167.177C260.335 167.209 260.344 167.241 260.358 167.27C260.373 167.298 260.393 167.324 260.417 167.345L260.421 167.347Z" fill="#0C0C0C"/>
</g>
<path d="M261.317 177.46L247.974 238.909C247.215 243.715 244.624 248.016 240.769 250.865C236.915 253.714 232.112 254.878 227.42 254.102C222.727 253.325 218.527 250.671 215.745 246.723C212.963 242.776 211.826 237.858 212.584 233.052L230.904 167.402" fill="#7D4EF1"/>
<path d="M252.81 227.496L260.333 199.191" stroke="#0C0C0C" stroke-width="0.75" stroke-linecap="round" stroke-linejoin="round"/>
</g>
<defs>
<clipPath id="clip0_85381_20936">
<rect width="633" height="666" fill="white"/>
</clipPath>
</defs>
</svg>
