<svg width="290" height="309" viewBox="0 0 290 309" fill="none" xmlns="http://www.w3.org/2000/svg">
<g filter="url(#filter0_d_84730_8511)">
<rect x="10" y="6.5" width="270" height="288" rx="18" fill="white" shape-rendering="crispEdges"/>
<g clip-path="url(#clip0_84730_8511)">
<path d="M190 141.5C195.87 141.5 201.61 143.222 206.511 146.452C211.411 149.683 215.257 154.28 217.571 159.674C219.884 165.068 220.565 171.023 219.528 176.8C218.491 182.577 215.782 187.923 211.737 192.176C207.692 196.429 202.488 199.402 196.77 200.726C191.051 202.051 185.07 201.669 179.567 199.627C174.064 197.586 169.28 193.976 165.809 189.243C162.338 184.51 160.331 178.862 160.037 173L160 171.5L160.037 170C160.422 162.313 163.747 155.068 169.324 149.763C174.901 144.458 182.303 141.5 190 141.5ZM180.303 53.6975C181.594 54.9889 182.37 56.7072 182.484 58.5299C182.599 60.3526 182.044 62.1545 180.925 63.5975L180.303 64.3025L170.605 74H197.5C203.239 73.9997 208.761 76.1924 212.937 80.1296C217.113 84.0668 219.626 89.4508 219.963 95.18L220 96.5V119C219.998 120.912 219.266 122.75 217.954 124.14C216.641 125.53 214.848 126.367 212.94 126.479C211.031 126.591 209.152 125.97 207.686 124.743C206.22 123.516 205.278 121.776 205.053 119.877L205 119V96.5C205 94.663 204.325 92.89 203.105 91.5172C201.884 90.1444 200.202 89.2674 198.378 89.0525L197.5 89H170.613L180.303 98.6975C181.648 100.047 182.429 101.858 182.487 103.763C182.545 105.667 181.876 107.523 180.616 108.952C179.355 110.381 177.598 111.277 175.701 111.458C173.805 111.639 171.91 111.091 170.403 109.925L169.698 109.302L147.198 86.8025C146.341 85.9658 145.703 84.9327 145.337 83.7929C144.971 82.6531 144.888 81.4412 145.097 80.2625L145.368 79.1675L145.667 78.3875C146.103 77.4425 146.717 76.5875 147.505 75.8825L169.698 53.6975C171.104 52.2915 173.011 51.5016 175 51.5016C176.989 51.5016 178.896 52.2915 180.303 53.6975ZM77.5 126.5C79.337 126.5 81.11 127.175 82.4828 128.395C83.8556 129.616 84.7326 131.298 84.9475 133.123L85 134V156.5C85.0002 158.337 85.6747 160.11 86.8954 161.483C88.1161 162.856 89.7981 163.733 91.6225 163.948L92.5 164H119.388L109.698 154.302C108.406 153.011 107.63 151.293 107.516 149.47C107.401 147.647 107.956 145.846 109.075 144.403L109.698 143.698C110.989 142.406 112.707 141.63 114.53 141.516C116.353 141.401 118.154 141.956 119.597 143.075L120.302 143.698L142.802 166.197C143.659 167.034 144.297 168.067 144.663 169.207C145.029 170.347 145.112 171.559 144.903 172.738L144.632 173.833L144.333 174.613C143.898 175.564 143.272 176.417 142.495 177.118L120.302 199.303C118.953 200.648 117.142 201.429 115.237 201.487C113.333 201.545 111.477 200.876 110.048 199.616C108.619 198.355 107.723 196.598 107.542 194.701C107.361 192.805 107.909 190.91 109.075 189.402L109.698 188.697L119.38 179H92.5C86.7609 179 81.2386 176.808 77.063 172.87C72.8874 168.933 70.3742 163.549 70.0375 157.82L70 156.5V134C70 132.011 70.7902 130.103 72.1967 128.697C73.6032 127.29 75.5109 126.5 77.5 126.5ZM100 51.5C105.87 51.5 111.61 53.2218 116.511 56.4522C121.411 59.6826 125.257 64.2796 127.571 69.6738C129.884 75.0681 130.565 81.0226 129.528 86.7998C128.491 92.577 125.782 97.9232 121.737 102.176C117.692 106.429 112.488 109.402 106.77 110.726C101.051 112.051 95.0703 111.669 89.5671 109.627C84.0639 107.586 79.2804 103.976 75.809 99.2426C72.3377 94.5096 70.331 88.8622 70.0375 83L70 81.5L70.0375 80C70.4223 72.3128 73.747 65.0676 79.3239 59.7629C84.9008 54.4583 92.3032 51.5 100 51.5Z" fill="#9061F3"/>
<path d="M190 141.5C195.87 141.5 201.61 143.222 206.511 146.452C211.411 149.683 215.257 154.28 217.571 159.674C219.884 165.068 220.565 171.023 219.528 176.8C218.491 182.577 215.782 187.923 211.737 192.176C207.692 196.429 202.488 199.402 196.77 200.726C191.051 202.051 185.07 201.669 179.567 199.627C174.064 197.586 169.28 193.976 165.809 189.243C162.338 184.51 160.331 178.862 160.037 173L160 171.5L160.037 170C160.422 162.313 163.747 155.068 169.324 149.763C174.901 144.458 182.303 141.5 190 141.5ZM180.303 53.6975C181.594 54.9889 182.37 56.7072 182.484 58.5299C182.599 60.3526 182.044 62.1545 180.925 63.5975L180.303 64.3025L170.605 74H197.5C203.239 73.9997 208.761 76.1924 212.937 80.1296C217.113 84.0668 219.626 89.4508 219.963 95.18L220 96.5V119C219.998 120.912 219.266 122.75 217.954 124.14C216.641 125.53 214.848 126.367 212.94 126.479C211.031 126.591 209.152 125.97 207.686 124.743C206.22 123.516 205.278 121.776 205.053 119.877L205 119V96.5C205 94.663 204.325 92.89 203.105 91.5172C201.884 90.1444 200.202 89.2674 198.378 89.0525L197.5 89H170.613L180.303 98.6975C181.648 100.047 182.429 101.858 182.487 103.763C182.545 105.667 181.876 107.523 180.616 108.952C179.355 110.381 177.598 111.277 175.701 111.458C173.805 111.639 171.91 111.091 170.403 109.925L169.698 109.302L147.198 86.8025C146.341 85.9658 145.703 84.9327 145.337 83.7929C144.971 82.6531 144.888 81.4412 145.097 80.2625L145.368 79.1675L145.667 78.3875C146.103 77.4425 146.717 76.5875 147.505 75.8825L169.698 53.6975C171.104 52.2915 173.011 51.5016 175 51.5016C176.989 51.5016 178.896 52.2915 180.303 53.6975ZM77.5 126.5C79.337 126.5 81.11 127.175 82.4828 128.395C83.8556 129.616 84.7326 131.298 84.9475 133.123L85 134V156.5C85.0002 158.337 85.6747 160.11 86.8954 161.483C88.1161 162.856 89.7981 163.733 91.6225 163.948L92.5 164H119.388L109.698 154.302C108.406 153.011 107.63 151.293 107.516 149.47C107.401 147.647 107.956 145.846 109.075 144.403L109.698 143.698C110.989 142.406 112.707 141.63 114.53 141.516C116.353 141.401 118.154 141.956 119.597 143.075L120.302 143.698L142.802 166.197C143.659 167.034 144.297 168.067 144.663 169.207C145.029 170.347 145.112 171.559 144.903 172.738L144.632 173.833L144.333 174.613C143.898 175.564 143.272 176.417 142.495 177.118L120.302 199.303C118.953 200.648 117.142 201.429 115.237 201.487C113.333 201.545 111.477 200.876 110.048 199.616C108.619 198.355 107.723 196.598 107.542 194.701C107.361 192.805 107.909 190.91 109.075 189.402L109.698 188.697L119.38 179H92.5C86.7609 179 81.2386 176.808 77.063 172.87C72.8874 168.933 70.3742 163.549 70.0375 157.82L70 156.5V134C70 132.011 70.7902 130.103 72.1967 128.697C73.6032 127.29 75.5109 126.5 77.5 126.5ZM100 51.5C105.87 51.5 111.61 53.2218 116.511 56.4522C121.411 59.6826 125.257 64.2796 127.571 69.6738C129.884 75.0681 130.565 81.0226 129.528 86.7998C128.491 92.577 125.782 97.9232 121.737 102.176C117.692 106.429 112.488 109.402 106.77 110.726C101.051 112.051 95.0703 111.669 89.5671 109.627C84.0639 107.586 79.2804 103.976 75.809 99.2426C72.3377 94.5096 70.331 88.8622 70.0375 83L70 81.5L70.0375 80C70.4223 72.3128 73.747 65.0676 79.3239 59.7629C84.9008 54.4583 92.3032 51.5 100 51.5Z" fill="url(#paint0_linear_84730_8511)"/>
</g>
<path d="M67.3058 257.5V242.004H62.2098V239.3H75.3658V242.004H70.1138V257.5H67.3058ZM76.6034 257.5V243.85H79.3074V248.14L79.0474 247.1C79.2381 246.441 79.5588 245.843 80.0094 245.306C80.4774 244.769 81.0061 244.344 81.5954 244.032C82.2021 243.72 82.8261 243.564 83.4674 243.564C83.7621 243.564 84.0394 243.59 84.2994 243.642C84.5768 243.694 84.7934 243.755 84.9494 243.824L84.2474 246.736C84.0394 246.649 83.8054 246.58 83.5454 246.528C83.3028 246.459 83.0601 246.424 82.8174 246.424C82.3494 246.424 81.8988 246.519 81.4654 246.71C81.0494 246.883 80.6768 247.135 80.3474 247.464C80.0354 247.776 79.7841 248.149 79.5934 248.582C79.4028 248.998 79.3074 249.457 79.3074 249.96V257.5H76.6034ZM91.7578 257.76C90.6311 257.76 89.5998 257.448 88.6638 256.824C87.7451 256.2 87.0085 255.351 86.4538 254.276C85.8991 253.201 85.6218 251.988 85.6218 250.636C85.6218 249.267 85.8991 248.053 86.4538 246.996C87.0258 245.921 87.7885 245.081 88.7418 244.474C89.7125 243.867 90.7958 243.564 91.9918 243.564C92.7025 243.564 93.3525 243.668 93.9418 243.876C94.5311 244.084 95.0425 244.379 95.4758 244.76C95.9265 245.124 96.2905 245.549 96.5678 246.034C96.8625 246.519 97.0445 247.039 97.1138 247.594L96.5158 247.386V243.85H99.2198V257.5H96.5158V254.25L97.1398 254.068C97.0358 254.536 96.8191 254.995 96.4898 255.446C96.1778 255.879 95.7705 256.269 95.2678 256.616C94.7825 256.963 94.2365 257.24 93.6298 257.448C93.0405 257.656 92.4165 257.76 91.7578 257.76ZM92.4598 255.29C93.2745 255.29 93.9938 255.091 94.6178 254.692C95.2418 254.293 95.7271 253.747 96.0738 253.054C96.4378 252.343 96.6198 251.537 96.6198 250.636C96.6198 249.752 96.4378 248.963 96.0738 248.27C95.7271 247.577 95.2418 247.031 94.6178 246.632C93.9938 246.233 93.2745 246.034 92.4598 246.034C91.6625 246.034 90.9518 246.233 90.3278 246.632C89.7211 247.031 89.2358 247.577 88.8718 248.27C88.5251 248.963 88.3518 249.752 88.3518 250.636C88.3518 251.537 88.5251 252.343 88.8718 253.054C89.2358 253.747 89.7211 254.293 90.3278 254.692C90.9518 255.091 91.6625 255.29 92.4598 255.29ZM102.959 257.5V243.85H105.637V246.658L105.169 246.97C105.342 246.363 105.68 245.809 106.183 245.306C106.686 244.786 107.284 244.37 107.977 244.058C108.67 243.729 109.381 243.564 110.109 243.564C111.149 243.564 112.016 243.772 112.709 244.188C113.402 244.587 113.922 245.202 114.269 246.034C114.616 246.866 114.789 247.915 114.789 249.18V257.5H112.111V249.362C112.111 248.582 112.007 247.941 111.799 247.438C111.591 246.918 111.27 246.545 110.837 246.32C110.404 246.077 109.866 245.973 109.225 246.008C108.705 246.008 108.228 246.095 107.795 246.268C107.362 246.424 106.98 246.649 106.651 246.944C106.339 247.239 106.088 247.585 105.897 247.984C105.724 248.365 105.637 248.781 105.637 249.232V257.5H104.311C104.086 257.5 103.86 257.5 103.635 257.5C103.41 257.5 103.184 257.5 102.959 257.5ZM122.972 257.76C121.828 257.76 120.796 257.561 119.878 257.162C118.959 256.763 118.196 256.174 117.59 255.394L119.41 253.834C119.93 254.441 120.493 254.883 121.1 255.16C121.724 255.42 122.426 255.55 123.206 255.55C123.518 255.55 123.804 255.515 124.064 255.446C124.341 255.359 124.575 255.238 124.766 255.082C124.974 254.926 125.13 254.744 125.234 254.536C125.338 254.311 125.39 254.068 125.39 253.808C125.39 253.357 125.225 252.993 124.896 252.716C124.722 252.595 124.445 252.465 124.064 252.326C123.7 252.17 123.223 252.014 122.634 251.858C121.628 251.598 120.805 251.303 120.164 250.974C119.522 250.645 119.028 250.272 118.682 249.856C118.422 249.527 118.231 249.171 118.11 248.79C117.988 248.391 117.928 247.958 117.928 247.49C117.928 246.918 118.049 246.398 118.292 245.93C118.552 245.445 118.898 245.029 119.332 244.682C119.782 244.318 120.302 244.041 120.892 243.85C121.498 243.659 122.14 243.564 122.816 243.564C123.457 243.564 124.09 243.651 124.714 243.824C125.355 243.997 125.944 244.249 126.482 244.578C127.019 244.907 127.47 245.297 127.834 245.748L126.3 247.438C125.97 247.109 125.606 246.823 125.208 246.58C124.826 246.32 124.436 246.121 124.038 245.982C123.639 245.843 123.275 245.774 122.946 245.774C122.582 245.774 122.252 245.809 121.958 245.878C121.663 245.947 121.412 246.051 121.204 246.19C121.013 246.329 120.866 246.502 120.762 246.71C120.658 246.918 120.606 247.152 120.606 247.412C120.623 247.637 120.675 247.854 120.762 248.062C120.866 248.253 121.004 248.417 121.178 248.556C121.368 248.695 121.654 248.842 122.036 248.998C122.417 249.154 122.902 249.301 123.492 249.44C124.358 249.665 125.069 249.917 125.624 250.194C126.196 250.454 126.646 250.757 126.976 251.104C127.322 251.433 127.565 251.815 127.704 252.248C127.842 252.681 127.912 253.167 127.912 253.704C127.912 254.484 127.686 255.186 127.236 255.81C126.802 256.417 126.213 256.893 125.468 257.24C124.722 257.587 123.89 257.76 122.972 257.76ZM132.345 257.5V242.316C132.345 241.536 132.519 240.843 132.865 240.236C133.212 239.629 133.689 239.153 134.295 238.806C134.902 238.459 135.604 238.286 136.401 238.286C136.956 238.286 137.476 238.39 137.961 238.598C138.447 238.806 138.837 239.083 139.131 239.43L138.221 241.484C137.996 241.276 137.745 241.111 137.467 240.99C137.207 240.851 136.956 240.782 136.713 240.782C136.349 240.782 136.037 240.843 135.777 240.964C135.535 241.068 135.353 241.241 135.231 241.484C135.11 241.709 135.049 241.987 135.049 242.316V257.5H133.697C133.472 257.5 133.247 257.5 133.021 257.5C132.796 257.5 132.571 257.5 132.345 257.5ZM130.161 246.554V244.084H138.273V246.554H130.161ZM146.698 257.76C145.364 257.76 144.168 257.457 143.11 256.85C142.07 256.226 141.247 255.385 140.64 254.328C140.034 253.253 139.73 252.031 139.73 250.662C139.73 249.293 140.034 248.079 140.64 247.022C141.247 245.947 142.07 245.107 143.11 244.5C144.168 243.876 145.364 243.564 146.698 243.564C148.016 243.564 149.194 243.876 150.234 244.5C151.292 245.107 152.124 245.947 152.73 247.022C153.337 248.079 153.64 249.293 153.64 250.662C153.64 252.031 153.337 253.253 152.73 254.328C152.124 255.385 151.292 256.226 150.234 256.85C149.194 257.457 148.016 257.76 146.698 257.76ZM146.698 255.316C147.513 255.316 148.241 255.117 148.882 254.718C149.524 254.302 150.026 253.747 150.39 253.054C150.754 252.343 150.928 251.546 150.91 250.662C150.928 249.761 150.754 248.963 150.39 248.27C150.026 247.559 149.524 247.005 148.882 246.606C148.241 246.207 147.513 246.008 146.698 246.008C145.884 246.008 145.147 246.216 144.488 246.632C143.847 247.031 143.344 247.585 142.98 248.296C142.616 248.989 142.443 249.778 142.46 250.662C142.443 251.546 142.616 252.343 142.98 253.054C143.344 253.747 143.847 254.302 144.488 254.718C145.147 255.117 145.884 255.316 146.698 255.316ZM156.559 257.5V243.85H159.263V248.14L159.003 247.1C159.193 246.441 159.514 245.843 159.965 245.306C160.433 244.769 160.961 244.344 161.551 244.032C162.157 243.72 162.781 243.564 163.423 243.564C163.717 243.564 163.995 243.59 164.255 243.642C164.532 243.694 164.749 243.755 164.905 243.824L164.203 246.736C163.995 246.649 163.761 246.58 163.501 246.528C163.258 246.459 163.015 246.424 162.773 246.424C162.305 246.424 161.854 246.519 161.421 246.71C161.005 246.883 160.632 247.135 160.303 247.464C159.991 247.776 159.739 248.149 159.549 248.582C159.358 248.998 159.263 249.457 159.263 249.96V257.5H156.559ZM166.993 257.5V243.85H169.697V246.762L169.203 247.074C169.342 246.623 169.558 246.19 169.853 245.774C170.165 245.358 170.538 244.994 170.971 244.682C171.422 244.353 171.898 244.093 172.401 243.902C172.921 243.711 173.45 243.616 173.987 243.616C174.767 243.616 175.452 243.746 176.041 244.006C176.63 244.266 177.116 244.656 177.497 245.176C177.878 245.696 178.156 246.346 178.329 247.126L177.913 247.022L178.095 246.58C178.286 246.181 178.546 245.809 178.875 245.462C179.222 245.098 179.612 244.777 180.045 244.5C180.478 244.223 180.938 244.006 181.423 243.85C181.908 243.694 182.385 243.616 182.853 243.616C183.876 243.616 184.716 243.824 185.375 244.24C186.051 244.656 186.554 245.289 186.883 246.138C187.23 246.987 187.403 248.045 187.403 249.31V257.5H184.699V249.466C184.699 248.686 184.595 248.053 184.387 247.568C184.196 247.065 183.902 246.693 183.503 246.45C183.104 246.207 182.593 246.086 181.969 246.086C181.484 246.086 181.024 246.173 180.591 246.346C180.175 246.502 179.811 246.727 179.499 247.022C179.187 247.317 178.944 247.663 178.771 248.062C178.598 248.443 178.511 248.868 178.511 249.336V257.5H175.807V249.414C175.807 248.703 175.703 248.105 175.495 247.62C175.287 247.117 174.984 246.736 174.585 246.476C174.186 246.216 173.701 246.086 173.129 246.086C172.644 246.086 172.193 246.173 171.777 246.346C171.361 246.502 170.997 246.727 170.685 247.022C170.373 247.299 170.13 247.637 169.957 248.036C169.784 248.417 169.697 248.833 169.697 249.284V257.5H166.993ZM191.43 257.5V243.85H194.108V257.5H191.43ZM192.73 240.834C192.158 240.834 191.716 240.687 191.404 240.392C191.092 240.097 190.936 239.681 190.936 239.144C190.936 238.641 191.092 238.234 191.404 237.922C191.734 237.61 192.176 237.454 192.73 237.454C193.302 237.454 193.744 237.601 194.056 237.896C194.368 238.191 194.524 238.607 194.524 239.144C194.524 239.647 194.36 240.054 194.03 240.366C193.718 240.678 193.285 240.834 192.73 240.834ZM198.225 257.5V243.85H200.903V246.658L200.435 246.97C200.608 246.363 200.946 245.809 201.449 245.306C201.951 244.786 202.549 244.37 203.243 244.058C203.936 243.729 204.647 243.564 205.375 243.564C206.415 243.564 207.281 243.772 207.975 244.188C208.668 244.587 209.188 245.202 209.535 246.034C209.881 246.866 210.055 247.915 210.055 249.18V257.5H207.377V249.362C207.377 248.582 207.273 247.941 207.065 247.438C206.857 246.918 206.536 246.545 206.103 246.32C205.669 246.077 205.132 245.973 204.491 246.008C203.971 246.008 203.494 246.095 203.061 246.268C202.627 246.424 202.246 246.649 201.917 246.944C201.605 247.239 201.353 247.585 201.163 247.984C200.989 248.365 200.903 248.781 200.903 249.232V257.5H199.577C199.351 257.5 199.126 257.5 198.901 257.5C198.675 257.5 198.45 257.5 198.225 257.5ZM219.797 263.48C218.827 263.48 217.856 263.324 216.885 263.012C215.932 262.717 215.161 262.327 214.571 261.842L215.559 259.762C215.906 260.022 216.313 260.247 216.781 260.438C217.249 260.646 217.743 260.802 218.263 260.906C218.783 261.027 219.295 261.088 219.797 261.088C220.751 261.088 221.548 260.932 222.189 260.62C222.831 260.308 223.316 259.849 223.645 259.242C223.975 258.635 224.139 257.881 224.139 256.98V254.354L224.425 254.536C224.339 255.073 224.053 255.593 223.567 256.096C223.099 256.581 222.51 256.98 221.799 257.292C221.089 257.604 220.361 257.76 219.615 257.76C218.315 257.76 217.154 257.457 216.131 256.85C215.126 256.226 214.329 255.385 213.739 254.328C213.15 253.253 212.855 252.031 212.855 250.662C212.855 249.293 213.141 248.079 213.713 247.022C214.303 245.947 215.1 245.107 216.105 244.5C217.128 243.876 218.272 243.564 219.537 243.564C220.057 243.564 220.56 243.633 221.045 243.772C221.531 243.893 221.981 244.075 222.397 244.318C222.813 244.543 223.186 244.795 223.515 245.072C223.845 245.349 224.113 245.644 224.321 245.956C224.529 246.268 224.659 246.563 224.711 246.84L224.139 247.048V243.85H226.817V256.668C226.817 257.76 226.653 258.722 226.323 259.554C226.011 260.403 225.552 261.114 224.945 261.686C224.339 262.275 223.602 262.717 222.735 263.012C221.869 263.324 220.889 263.48 219.797 263.48ZM219.901 255.29C220.751 255.29 221.505 255.091 222.163 254.692C222.822 254.293 223.333 253.747 223.697 253.054C224.061 252.361 224.243 251.563 224.243 250.662C224.243 249.761 224.053 248.963 223.671 248.27C223.307 247.559 222.796 247.005 222.137 246.606C221.496 246.207 220.751 246.008 219.901 246.008C219.069 246.008 218.324 246.216 217.665 246.632C217.024 247.031 216.513 247.585 216.131 248.296C215.767 248.989 215.585 249.778 215.585 250.662C215.585 251.546 215.767 252.343 216.131 253.054C216.513 253.747 217.024 254.293 217.665 254.692C218.324 255.091 219.069 255.29 219.901 255.29Z" fill="#9061F3"/>
</g>
<defs>
<filter id="filter0_d_84730_8511" x="0" y="0.5" width="290" height="308" filterUnits="userSpaceOnUse" color-interpolation-filters="sRGB">
<feFlood flood-opacity="0" result="BackgroundImageFix"/>
<feColorMatrix in="SourceAlpha" type="matrix" values="0 0 0 0 0 0 0 0 0 0 0 0 0 0 0 0 0 0 127 0" result="hardAlpha"/>
<feOffset dy="4"/>
<feGaussianBlur stdDeviation="5"/>
<feComposite in2="hardAlpha" operator="out"/>
<feColorMatrix type="matrix" values="0 0 0 0 0 0 0 0 0 0 0 0 0 0 0 0 0 0 0.5 0"/>
<feBlend mode="normal" in2="BackgroundImageFix" result="effect1_dropShadow_84730_8511"/>
<feBlend mode="normal" in="SourceGraphic" in2="effect1_dropShadow_84730_8511" result="shape"/>
</filter>
<linearGradient id="paint0_linear_84730_8511" x1="145" y1="51.5" x2="145" y2="201.5" gradientUnits="userSpaceOnUse">
<stop stop-color="#CE75FF"/>
<stop offset="1" stop-opacity="0"/>
</linearGradient>
<clipPath id="clip0_84730_8511">
<rect width="180" height="180" fill="white" transform="translate(55 36.5)"/>
</clipPath>
</defs>
</svg>
