<svg width="385" height="265" viewBox="0 0 385 265" fill="none" xmlns="http://www.w3.org/2000/svg">
<path d="M0 5C0 2.23857 2.23858 0 5 0H380C382.761 0 385 2.23858 385 5V260C385 262.761 382.761 265 380 265H5C2.23858 265 0 262.761 0 260V5Z" fill="#F8F8FF"/>
<path d="M3.08606 264.621C1.86386 264.114 0.886233 263.136 0.379405 261.914L0.841267 261.722C0.621529 261.193 0.5 260.611 0.5 260V257.548H0V252.644H0.5V247.74H0V242.836H0.5V237.933H0V233.029H0.5V228.125H0V223.221H0.5V218.317H0V213.413H0.5V208.51H0V203.606H0.5V198.702H0V193.798H0.5V188.894H0V183.99H0.5V179.086H0V174.183H0.5V169.279H0V164.375H0.5V159.471H0V154.567H0.5V149.663H0V144.76H0.5V139.856H0V134.952H0.5V130.048H0V125.144H0.5V120.24H0V115.337H0.5V110.433H0V105.529H0.5V100.625H0V95.7212H0.5V90.8173H0V85.9135H0.5V81.0096H0V76.1058H0.5V71.2019H0V66.2981H0.5V61.3942H0V56.4904H0.5V51.5865H0V46.6827H0.5V41.7788H0V36.875H0.5V31.9712H0V27.0673H0.5V22.1635H0V17.2596H0.5V12.3558H0V7.45192H0.5V5C0.5 4.38891 0.621529 3.80748 0.841266 3.27758L0.379403 3.08606C0.88623 1.86386 1.86386 0.886228 3.08606 0.379402L3.27759 0.841265C3.80748 0.621528 4.38892 0.5 5 0.5H7.53384V0H12.6014V0.5H17.669V0H22.7366V0.5H27.8041V0H32.8717V0.5H37.9392V0H43.0068V0.5H48.0744V0H53.1419V0.5H58.2095V0H63.2771V0.5H68.3446V0H73.4122V0.5H78.4798V0H83.5473V0.5H88.6149V0H93.6825V0.5H98.75V0H103.818V0.5H108.885V0H113.953V0.5H119.02V0H124.088V0.5H129.155V0H134.223V0.5H139.291V0H144.358V0.5H149.426V0H154.493V0.5H159.561V0H164.628V0.5H169.696V0H174.764V0.5H179.831V0H184.899V0.5H189.966V0H195.034V0.5H200.101V0H205.169V0.5H210.236V0H215.304V0.5H220.372V0H225.439V0.5H230.507V0H235.574V0.5H240.642V0H245.709V0.5H250.777V0H255.845V0.5H260.912V0H265.98V0.5H271.047V0H276.115V0.5H281.182V0H286.25V0.5H291.318V0H296.385V0.5H301.453V0H306.52V0.5H311.588V0H316.655V0.5H321.723V0H326.791V0.5H331.858V0H336.926V0.5H341.993V0H347.061V0.5H352.128V0H357.196V0.5H362.263V0H367.331V0.5H372.399V0H377.466V0.5H380C380.611 0.5 381.193 0.621528 381.722 0.841263L381.914 0.3794C383.136 0.886225 384.114 1.86385 384.621 3.08606L384.159 3.27759C384.378 3.80748 384.5 4.38892 384.5 5V7.45208H385V12.3559H384.5V17.2598H385V22.1636H384.5V27.0674H385V31.9713H384.5V36.8751H385V41.779H384.5V46.6828H385V51.5866H384.5V56.4905H385V61.3943H384.5V66.2982H385V71.202H384.5V76.1058H385V81.0097H384.5V85.9135H385V90.8173H384.5V95.7212H385V100.625H384.5V105.529H385V110.433H384.5V115.337H385V120.24H384.5V125.144H385V130.048H384.5V134.952H385V139.856H384.5V144.76H385V149.663H384.5V154.567H385V159.471H384.5V164.375H385V169.279H384.5V174.183H385V179.087H384.5V183.99H385V188.894H384.5V193.798H385V198.702H384.5V203.606H385V208.51H384.5V213.413H385V218.317H384.5V223.221H385V228.125H384.5V233.029H385V237.933H384.5V242.837H385V247.74H384.5V252.644H385V257.548H384.5V260C384.5 260.611 384.378 261.193 384.159 261.722L384.621 261.914C384.114 263.136 383.136 264.114 381.914 264.621L381.722 264.159C381.193 264.378 380.611 264.5 380 264.5H377.466V265H372.399V264.5H367.331V265H362.263V264.5H357.196V265H352.128V264.5H347.061V265H341.993V264.5H336.926V265H331.858V264.5H326.79V265H321.723V264.5H316.655V265H311.588V264.5H306.52V265H301.453V264.5H296.385V265H291.318V264.5H286.25V265H281.182V264.5H276.115V265H271.047V264.5H265.98V265H260.912V264.5H255.845V265H250.777V264.5H245.709V265H240.642V264.5H235.574V265H230.507V264.5H225.439V265H220.372V264.5H215.304V265H210.236V264.5H205.169V265H200.101V264.5H195.034V265H189.966V264.5H184.899V265H179.831V264.5H174.763V265H169.696V264.5H164.628V265H159.561V264.5H154.493V265H149.426V264.5H144.358V265H139.291V264.5H134.223V265H129.155V264.5H124.088V265H119.02V264.5H113.953V265H108.885V264.5H103.818V265H98.75V264.5H93.6824V265H88.6149V264.5H83.5473V265H78.4797V264.5H73.4122V265H68.3446V264.5H63.277V265H58.2095V264.5H53.1419V265H48.0743V264.5H43.0068V265H37.9392V264.5H32.8716V265H27.8041V264.5H22.7365V265H17.6689V264.5H12.6014V265H7.53378V264.5H5C4.38892 264.5 3.80748 264.378 3.27759 264.159L3.08606 264.621Z" stroke="#2D5DEB" stroke-opacity="0.3" stroke-dasharray="5 5"/>
</svg>
