<svg width="406" height="274" viewBox="0 0 406 274" fill="none" xmlns="http://www.w3.org/2000/svg">
<path d="M13 5C13 2.23857 15.2386 0 18 0H393C395.761 0 398 2.23858 398 5V260C398 262.761 395.761 265 393 265H18C15.2386 265 13 262.761 13 260V5Z" fill="#F8F8FF"/>
<path d="M18 264.5C17.3889 264.5 16.8075 264.378 16.2776 264.159L16.0861 264.621C14.8639 264.114 13.8862 263.136 13.3794 261.914L13.8413 261.722C13.6215 261.193 13.5 260.611 13.5 260V257.548H13V252.644H13.5V247.74H13V242.837H13.5V237.933H13V233.029H13.5V228.125H13V223.221H13.5V218.317H13V213.413H13.5V208.51H13V203.606H13.5V198.702H13V193.798H13.5V188.894H13V183.99H13.5V179.087H13V174.183H13.5V169.279H13V164.375H13.5V159.471H13V154.567H13.5V149.663H13V144.76H13.5V139.856H13V134.952H13.5V130.048H13V125.144H13.5V120.24H13V115.337H13.5V110.433H13V105.529H13.5V100.625H13V95.7212H13.5V90.8173H13V85.9135H13.5V81.0097H13V76.1058H13.5V71.202H13V66.2982H13.5V61.3943H13V56.4905H13.5V51.5866H13V46.6828H13.5V41.779H13V36.8751H13.5V31.9713H13V27.0674H13.5V22.1636H13V17.2598H13.5V12.3559H13V7.45208H13.5V5C13.5 4.38891 13.6215 3.80747 13.8413 3.27758L13.3794 3.08606C13.8862 1.86386 14.8639 0.886228 16.0861 0.379402L16.2776 0.841265C16.8075 0.621528 17.3889 0.5 18 0.5H20.5338V0H25.6014V0.5H30.6689V0H35.7365V0.5H40.8041V0H45.8716V0.5H50.9392V0H56.0068V0.5H61.0743V0H66.1419V0.5H71.2095V0H76.277V0.5H81.3446V0H86.4122V0.5H91.4797V0H96.5473V0.5H101.615V0H106.682V0.5H111.75V0H116.818V0.5H121.885V0H126.953V0.5H132.02V0H137.088V0.5H142.155V0H147.223V0.5H152.291V0H157.358V0.5H162.426V0H167.493V0.5H172.561V0H177.628V0.5H182.696V0H187.763V0.5H192.831V0H197.899V0.5H202.966V0H208.034V0.5H213.101V0H218.169V0.5H223.236V0H228.304V0.5H233.372V0H238.439V0.5H243.507V0H248.574V0.5H253.642V0H258.709V0.5H263.777V0H268.845V0.5H273.912V0H278.98V0.5H284.047V0H289.115V0.5H294.182V0H299.25V0.5H304.318V0H309.385V0.5H314.453V0H319.52V0.5H324.588V0H329.655V0.5H334.723V0H339.79V0.5H344.858V0H349.926V0.5H354.993V0H360.061V0.5H365.128V0H370.196V0.5H375.263V0H380.331V0.5H385.399V0H390.466V0.5H393C393.611 0.5 394.193 0.621529 394.722 0.841266L394.914 0.3794C396.136 0.886227 397.114 1.86386 397.621 3.08606L397.159 3.27759C397.378 3.80748 397.5 4.38892 397.5 5V7.45192H398V12.3558H397.5V17.2596H398V22.1635H397.5V27.0673H398V31.9712H397.5V36.875H398V41.7788H397.5V46.6827H398V51.5865H397.5V56.4904H398V61.3942H397.5V66.2981H398V71.2019H397.5V76.1058H398V81.0096H397.5V85.9135H398V90.8173H397.5V95.7212H398V100.625H397.5V105.529H398V110.433H397.5V115.337H398V120.24H397.5V125.144H398V130.048H397.5V134.952H398V139.856H397.5V144.76H398V149.663H397.5V154.567H398V159.471H397.5V164.375H398V169.279H397.5V174.183H398V179.086H397.5V183.99H398V188.894H397.5V193.798H398V198.702H397.5V203.606H398V208.51H397.5V213.413H398V218.317H397.5V223.221H398V228.125H397.5V233.029H398V237.933H397.5V242.836H398V247.74H397.5V252.644H398V257.548H397.5V260C397.5 260.611 397.378 261.193 397.159 261.722L397.621 261.914C397.114 263.136 396.136 264.114 394.914 264.621L394.722 264.159C394.193 264.378 393.611 264.5 393 264.5H390.466V265H385.399V264.5H380.331V265H375.263V264.5H370.196V265H365.128V264.5H360.061V265H354.993V264.5H349.926V265H344.858V264.5H339.791V265H334.723V264.5H329.655V265H324.588V264.5H319.52V265H314.453V264.5H309.385V265H304.318V264.5H299.25V265H294.182V264.5H289.115V265H284.047V264.5H278.98V265H273.912V264.5H268.845V265H263.777V264.5H258.709V265H253.642V264.5H248.574V265H243.507V264.5H238.439V265H233.372V264.5H228.304V265H223.236V264.5H218.169V265H213.101V264.5H208.034V265H202.966V264.5H197.899V265H192.831V264.5H187.764V265H182.696V264.5H177.628V265H172.561V264.5H167.493V265H162.426V264.5H157.358V265H152.291V264.5H147.223V265H142.155V264.5H137.088V265H132.02V264.5H126.953V265H121.885V264.5H116.818V265H111.75V264.5H106.682V265H101.615V264.5H96.5473V265H91.4798V264.5H86.4122V265H81.3446V264.5H76.2771V265H71.2095V264.5H66.1419V265H61.0744V264.5H56.0068V265H50.9392V264.5H45.8717V265H40.8041V264.5H35.7366V265H30.669V264.5H25.6014V265H20.5338V264.5H18Z" stroke="#2D5DEB" stroke-opacity="0.3" stroke-dasharray="5 5"/>
<path d="M101.396 167.895V156.615H105.492C106.783 156.615 107.871 156.839 108.756 157.287C109.652 157.724 110.33 158.364 110.788 159.207C111.247 160.039 111.476 161.052 111.476 162.247C111.476 163.431 111.247 164.444 110.788 165.287C110.33 166.129 109.652 166.775 108.756 167.223C107.871 167.671 106.783 167.895 105.492 167.895H101.396ZM103.46 166.183H105.364C106.73 166.183 107.743 165.857 108.404 165.207C109.066 164.556 109.396 163.569 109.396 162.247C109.396 160.913 109.066 159.927 108.404 159.287C107.743 158.636 106.73 158.311 105.364 158.311H103.46V166.183ZM113.408 167.895V161.879C113.408 161.537 113.397 161.191 113.376 160.839C113.365 160.487 113.339 160.145 113.296 159.815H115.232L115.456 162.023H115.136C115.243 161.489 115.419 161.047 115.664 160.695C115.92 160.343 116.229 160.081 116.592 159.911C116.955 159.74 117.349 159.655 117.776 159.655C117.968 159.655 118.123 159.665 118.24 159.687C118.357 159.697 118.475 159.724 118.592 159.767L118.576 161.527C118.373 161.441 118.197 161.388 118.048 161.367C117.909 161.345 117.733 161.335 117.52 161.335C117.061 161.335 116.672 161.431 116.352 161.623C116.043 161.815 115.808 162.081 115.648 162.423C115.499 162.764 115.424 163.153 115.424 163.591V167.895H113.408ZM122.747 168.055C122.043 168.055 121.424 167.889 120.891 167.559C120.358 167.217 119.942 166.732 119.643 166.103C119.344 165.473 119.195 164.721 119.195 163.847C119.195 162.972 119.344 162.225 119.643 161.607C119.942 160.977 120.358 160.497 120.891 160.167C121.424 159.825 122.043 159.655 122.747 159.655C123.43 159.655 124.027 159.825 124.539 160.167C125.062 160.497 125.408 160.945 125.579 161.511H125.403L125.579 159.815H127.499C127.467 160.145 127.435 160.481 127.403 160.823C127.382 161.164 127.371 161.5 127.371 161.831V167.895H125.387L125.371 166.231H125.563C125.392 166.785 125.046 167.228 124.523 167.559C124 167.889 123.408 168.055 122.747 168.055ZM123.307 166.519C123.936 166.519 124.443 166.3 124.827 165.863C125.211 165.415 125.403 164.743 125.403 163.847C125.403 162.951 125.211 162.284 124.827 161.847C124.443 161.409 123.936 161.191 123.307 161.191C122.678 161.191 122.171 161.409 121.787 161.847C121.403 162.284 121.211 162.951 121.211 163.847C121.211 164.743 121.398 165.415 121.771 165.863C122.155 166.3 122.667 166.519 123.307 166.519ZM133.293 171.479C132.546 171.479 131.869 171.399 131.261 171.239C130.664 171.079 130.13 170.833 129.661 170.503L130.093 169.063C130.402 169.265 130.722 169.431 131.053 169.559C131.384 169.687 131.725 169.783 132.077 169.847C132.429 169.911 132.786 169.943 133.149 169.943C133.896 169.943 134.45 169.756 134.813 169.383C135.186 169.02 135.373 168.497 135.373 167.815V165.879H135.533C135.362 166.433 135.016 166.876 134.493 167.207C133.981 167.537 133.389 167.703 132.717 167.703C131.992 167.703 131.357 167.543 130.813 167.223C130.28 166.892 129.864 166.423 129.565 165.815C129.266 165.207 129.117 164.492 129.117 163.671C129.117 162.849 129.266 162.14 129.565 161.543C129.864 160.935 130.28 160.471 130.813 160.151C131.357 159.82 131.992 159.655 132.717 159.655C133.4 159.655 133.992 159.82 134.493 160.151C135.005 160.471 135.346 160.908 135.517 161.463L135.373 161.367L135.533 159.815H137.469C137.426 160.145 137.394 160.481 137.373 160.823C137.352 161.164 137.341 161.5 137.341 161.831V167.575C137.341 168.844 136.994 169.809 136.301 170.471C135.618 171.143 134.616 171.479 133.293 171.479ZM133.261 166.167C133.901 166.167 134.408 165.953 134.781 165.527C135.165 165.089 135.357 164.471 135.357 163.671C135.357 162.871 135.165 162.257 134.781 161.831C134.408 161.404 133.901 161.191 133.261 161.191C132.61 161.191 132.093 161.404 131.709 161.831C131.325 162.257 131.133 162.871 131.133 163.671C131.133 164.471 131.325 165.089 131.709 165.527C132.093 165.953 132.61 166.167 133.261 166.167ZM153.333 168.055C152.842 167.884 152.373 167.655 151.925 167.367C151.477 167.068 151.071 166.753 150.709 166.423L151.141 166.439C150.65 166.94 150.079 167.335 149.429 167.623C148.778 167.911 148.085 168.055 147.349 168.055C146.527 168.055 145.818 167.927 145.221 167.671C144.623 167.415 144.165 167.063 143.845 166.615C143.525 166.156 143.365 165.623 143.365 165.015C143.365 164.289 143.578 163.671 144.005 163.159C144.431 162.647 145.018 162.167 145.765 161.719L146.309 161.415L146.005 161.783C145.546 161.324 145.205 160.881 144.981 160.455C144.757 160.028 144.645 159.585 144.645 159.127C144.645 158.593 144.773 158.129 145.029 157.735C145.295 157.329 145.663 157.015 146.133 156.791C146.613 156.567 147.173 156.455 147.813 156.455C148.645 156.455 149.322 156.679 149.845 157.127C150.367 157.564 150.629 158.161 150.629 158.919C150.629 159.324 150.549 159.703 150.389 160.055C150.229 160.407 149.967 160.743 149.605 161.063C149.253 161.383 148.789 161.703 148.213 162.023L148.261 161.623L151.061 164.519H150.645C150.922 164.081 151.135 163.569 151.285 162.983C151.434 162.396 151.525 161.777 151.557 161.127H153.237C153.205 162.001 153.066 162.828 152.821 163.607C152.575 164.385 152.245 165.073 151.829 165.671L151.813 165.191C152.101 165.489 152.431 165.761 152.805 166.007C153.178 166.252 153.583 166.455 154.021 166.615L153.333 168.055ZM147.461 166.503C147.994 166.503 148.469 166.401 148.885 166.199C149.311 165.996 149.69 165.697 150.021 165.303L149.973 165.783L146.613 162.375L147.429 162.391L146.965 162.647C146.602 162.871 146.298 163.095 146.053 163.319C145.818 163.543 145.642 163.783 145.525 164.039C145.407 164.284 145.349 164.567 145.349 164.887C145.349 165.388 145.53 165.783 145.893 166.071C146.255 166.359 146.778 166.503 147.461 166.503ZM147.813 157.815C147.407 157.815 147.082 157.932 146.837 158.167C146.591 158.401 146.469 158.711 146.469 159.095C146.469 159.297 146.506 159.489 146.581 159.671C146.655 159.852 146.778 160.049 146.949 160.263C147.119 160.465 147.343 160.716 147.621 161.015L147.141 161.047C147.802 160.684 148.282 160.353 148.581 160.055C148.89 159.745 149.045 159.393 149.045 158.999C149.045 158.625 148.933 158.337 148.709 158.135C148.485 157.921 148.186 157.815 147.813 157.815ZM162.435 168.055C161.731 168.055 161.107 167.889 160.563 167.559C160.03 167.217 159.614 166.732 159.315 166.103C159.016 165.473 158.867 164.721 158.867 163.847C158.867 162.972 159.016 162.225 159.315 161.607C159.614 160.977 160.03 160.497 160.563 160.167C161.107 159.825 161.731 159.655 162.435 159.655C163.107 159.655 163.699 159.82 164.211 160.151C164.734 160.471 165.08 160.908 165.251 161.463H165.043V156.119H167.043V167.895H165.075V166.183H165.267C165.096 166.759 164.75 167.217 164.227 167.559C163.715 167.889 163.118 168.055 162.435 168.055ZM162.995 166.519C163.624 166.519 164.131 166.3 164.515 165.863C164.899 165.415 165.091 164.743 165.091 163.847C165.091 162.951 164.899 162.284 164.515 161.847C164.131 161.409 163.624 161.191 162.995 161.191C162.366 161.191 161.854 161.409 161.459 161.847C161.075 162.284 160.883 162.951 160.883 163.847C160.883 164.743 161.075 165.415 161.459 165.863C161.854 166.3 162.366 166.519 162.995 166.519ZM169.205 167.895V161.879C169.205 161.537 169.194 161.191 169.173 160.839C169.162 160.487 169.135 160.145 169.093 159.815H171.029L171.253 162.023H170.933C171.039 161.489 171.215 161.047 171.461 160.695C171.717 160.343 172.026 160.081 172.389 159.911C172.751 159.74 173.146 159.655 173.573 159.655C173.765 159.655 173.919 159.665 174.037 159.687C174.154 159.697 174.271 159.724 174.389 159.767L174.373 161.527C174.17 161.441 173.994 161.388 173.845 161.367C173.706 161.345 173.53 161.335 173.317 161.335C172.858 161.335 172.469 161.431 172.149 161.623C171.839 161.815 171.605 162.081 171.445 162.423C171.295 162.764 171.221 163.153 171.221 163.591V167.895H169.205ZM179.025 168.055C178.193 168.055 177.473 167.884 176.865 167.543C176.257 167.201 175.782 166.716 175.441 166.087C175.11 165.457 174.945 164.711 174.945 163.847C174.945 162.983 175.11 162.241 175.441 161.623C175.782 160.993 176.257 160.508 176.865 160.167C177.473 159.825 178.193 159.655 179.025 159.655C179.857 159.655 180.577 159.825 181.185 160.167C181.804 160.508 182.278 160.993 182.609 161.623C182.95 162.241 183.121 162.983 183.121 163.847C183.121 164.711 182.95 165.457 182.609 166.087C182.278 166.716 181.804 167.201 181.185 167.543C180.577 167.884 179.857 168.055 179.025 168.055ZM179.025 166.519C179.654 166.519 180.156 166.3 180.529 165.863C180.902 165.415 181.089 164.743 181.089 163.847C181.089 162.951 180.902 162.284 180.529 161.847C180.156 161.409 179.654 161.191 179.025 161.191C178.396 161.191 177.894 161.409 177.521 161.847C177.148 162.284 176.961 162.951 176.961 163.847C176.961 164.743 177.148 165.415 177.521 165.863C177.894 166.3 178.396 166.519 179.025 166.519ZM184.846 171.351V161.831C184.846 161.5 184.835 161.164 184.814 160.823C184.792 160.481 184.76 160.145 184.718 159.815H186.654L186.83 161.511H186.654C186.814 160.945 187.15 160.497 187.662 160.167C188.184 159.825 188.787 159.655 189.47 159.655C190.184 159.655 190.808 159.825 191.342 160.167C191.875 160.497 192.291 160.977 192.59 161.607C192.888 162.225 193.038 162.972 193.038 163.847C193.038 164.721 192.888 165.473 192.59 166.103C192.291 166.732 191.875 167.217 191.342 167.559C190.808 167.889 190.184 168.055 189.47 168.055C188.798 168.055 188.206 167.889 187.694 167.559C187.182 167.228 186.84 166.785 186.67 166.231H186.846V171.351H184.846ZM188.91 166.519C189.55 166.519 190.062 166.3 190.446 165.863C190.83 165.415 191.022 164.743 191.022 163.847C191.022 162.951 190.83 162.284 190.446 161.847C190.062 161.409 189.55 161.191 188.91 161.191C188.28 161.191 187.774 161.409 187.39 161.847C187.006 162.284 186.814 162.951 186.814 163.847C186.814 164.743 187.006 165.415 187.39 165.863C187.774 166.3 188.28 166.519 188.91 166.519ZM199.702 167.895V161.319H198.15V159.815H200.262L199.702 160.327V159.095C199.702 158.092 199.953 157.335 200.454 156.823C200.966 156.311 201.708 156.055 202.678 156.055C202.913 156.055 203.158 156.071 203.414 156.103C203.681 156.135 203.91 156.193 204.102 156.279V157.847C203.964 157.793 203.798 157.751 203.606 157.719C203.414 157.687 203.228 157.671 203.046 157.671C202.63 157.671 202.3 157.793 202.054 158.039C201.809 158.273 201.686 158.657 201.686 159.191V160.167L201.398 159.815H207.014V167.895H205.014V161.319H201.702V167.895H199.702ZM204.902 158.295V156.343H207.126V158.295H204.902ZM209.19 167.895V156.119H211.19V167.895H209.19ZM217.265 168.055C215.911 168.055 214.849 167.681 214.081 166.935C213.313 166.188 212.929 165.164 212.929 163.863C212.929 163.02 213.095 162.284 213.425 161.655C213.756 161.025 214.215 160.535 214.801 160.183C215.399 159.831 216.092 159.655 216.881 159.655C217.66 159.655 218.311 159.82 218.833 160.151C219.356 160.481 219.751 160.945 220.017 161.543C220.295 162.14 220.433 162.839 220.433 163.639V164.167H214.545V163.111H219.009L218.737 163.335C218.737 162.588 218.577 162.017 218.257 161.623C217.948 161.228 217.495 161.031 216.897 161.031C216.236 161.031 215.724 161.265 215.361 161.735C215.009 162.204 214.833 162.86 214.833 163.703V163.911C214.833 164.785 215.047 165.441 215.473 165.879C215.911 166.305 216.524 166.519 217.313 166.519C217.772 166.519 218.199 166.46 218.593 166.343C218.999 166.215 219.383 166.012 219.745 165.735L220.337 167.079C219.953 167.388 219.495 167.628 218.961 167.799C218.428 167.969 217.863 168.055 217.265 168.055ZM225.007 168.055C224.314 168.055 223.674 167.975 223.087 167.815C222.511 167.644 222.026 167.409 221.631 167.111L222.191 165.767C222.596 166.044 223.044 166.257 223.535 166.407C224.026 166.556 224.522 166.631 225.023 166.631C225.556 166.631 225.951 166.54 226.207 166.359C226.474 166.177 226.607 165.932 226.607 165.623C226.607 165.377 226.522 165.185 226.351 165.047C226.191 164.897 225.93 164.785 225.567 164.711L223.967 164.407C223.284 164.257 222.762 164.001 222.399 163.639C222.047 163.276 221.871 162.801 221.871 162.215C221.871 161.713 222.004 161.271 222.271 160.887C222.548 160.503 222.938 160.204 223.439 159.991C223.951 159.767 224.548 159.655 225.231 159.655C225.828 159.655 226.388 159.735 226.911 159.895C227.444 160.055 227.892 160.295 228.255 160.615L227.679 161.911C227.348 161.644 226.97 161.436 226.543 161.287C226.116 161.137 225.7 161.063 225.295 161.063C224.74 161.063 224.335 161.164 224.079 161.367C223.823 161.559 223.695 161.809 223.695 162.119C223.695 162.353 223.77 162.551 223.919 162.711C224.079 162.86 224.324 162.972 224.655 163.047L226.255 163.351C226.97 163.489 227.508 163.735 227.871 164.087C228.244 164.428 228.431 164.897 228.431 165.495C228.431 166.028 228.287 166.487 227.999 166.871C227.711 167.255 227.311 167.548 226.799 167.751C226.287 167.953 225.69 168.055 225.007 168.055ZM238.181 168.055C237.349 168.055 236.629 167.884 236.021 167.543C235.413 167.201 234.939 166.716 234.597 166.087C234.267 165.457 234.101 164.711 234.101 163.847C234.101 162.983 234.267 162.241 234.597 161.623C234.939 160.993 235.413 160.508 236.021 160.167C236.629 159.825 237.349 159.655 238.181 159.655C239.013 159.655 239.733 159.825 240.341 160.167C240.96 160.508 241.435 160.993 241.765 161.623C242.107 162.241 242.277 162.983 242.277 163.847C242.277 164.711 242.107 165.457 241.765 166.087C241.435 166.716 240.96 167.201 240.341 167.543C239.733 167.884 239.013 168.055 238.181 168.055ZM238.181 166.519C238.811 166.519 239.312 166.3 239.685 165.863C240.059 165.415 240.245 164.743 240.245 163.847C240.245 162.951 240.059 162.284 239.685 161.847C239.312 161.409 238.811 161.191 238.181 161.191C237.552 161.191 237.051 161.409 236.677 161.847C236.304 162.284 236.117 162.951 236.117 163.847C236.117 164.743 236.304 165.415 236.677 165.863C237.051 166.3 237.552 166.519 238.181 166.519ZM243.986 167.895V161.879C243.986 161.537 243.975 161.191 243.954 160.839C243.943 160.487 243.917 160.145 243.874 159.815H245.81L246.034 162.023H245.714C245.821 161.489 245.997 161.047 246.242 160.695C246.498 160.343 246.807 160.081 247.17 159.911C247.533 159.74 247.927 159.655 248.354 159.655C248.546 159.655 248.701 159.665 248.818 159.687C248.935 159.697 249.053 159.724 249.17 159.767L249.154 161.527C248.951 161.441 248.775 161.388 248.626 161.367C248.487 161.345 248.311 161.335 248.098 161.335C247.639 161.335 247.25 161.431 246.93 161.623C246.621 161.815 246.386 162.081 246.226 162.423C246.077 162.764 246.002 163.153 246.002 163.591V167.895H243.986Z" fill="#0F0F0F"/>
<path d="M254.834 167.895V156.615H259.778C261.005 156.615 261.949 156.876 262.61 157.399C263.271 157.911 263.602 158.625 263.602 159.543C263.602 160.225 263.399 160.801 262.994 161.271C262.589 161.74 262.029 162.055 261.314 162.215V161.975C262.135 162.092 262.77 162.391 263.218 162.871C263.677 163.34 263.906 163.964 263.906 164.743C263.906 165.745 263.559 166.524 262.866 167.079C262.173 167.623 261.207 167.895 259.97 167.895H254.834ZM256.818 166.327H259.73C260.423 166.327 260.962 166.199 261.346 165.943C261.73 165.676 261.922 165.244 261.922 164.647C261.922 164.039 261.73 163.607 261.346 163.351C260.962 163.084 260.423 162.951 259.73 162.951H256.818V166.327ZM256.818 161.399H259.426C260.162 161.399 260.706 161.265 261.058 160.999C261.421 160.721 261.602 160.316 261.602 159.783C261.602 159.249 261.421 158.849 261.058 158.583C260.706 158.305 260.162 158.167 259.426 158.167H256.818V161.399ZM265.705 167.895V161.879C265.705 161.537 265.694 161.191 265.673 160.839C265.662 160.487 265.635 160.145 265.593 159.815H267.529L267.753 162.023H267.433C267.539 161.489 267.715 161.047 267.961 160.695C268.217 160.343 268.526 160.081 268.889 159.911C269.251 159.74 269.646 159.655 270.073 159.655C270.265 159.655 270.419 159.665 270.537 159.687C270.654 159.697 270.771 159.724 270.889 159.767L270.873 161.527C270.67 161.441 270.494 161.388 270.345 161.367C270.206 161.345 270.03 161.335 269.817 161.335C269.358 161.335 268.969 161.431 268.649 161.623C268.339 161.815 268.105 162.081 267.945 162.423C267.795 162.764 267.721 163.153 267.721 163.591V167.895H265.705ZM275.525 168.055C274.693 168.055 273.973 167.884 273.365 167.543C272.757 167.201 272.282 166.716 271.941 166.087C271.61 165.457 271.445 164.711 271.445 163.847C271.445 162.983 271.61 162.241 271.941 161.623C272.282 160.993 272.757 160.508 273.365 160.167C273.973 159.825 274.693 159.655 275.525 159.655C276.357 159.655 277.077 159.825 277.685 160.167C278.304 160.508 278.778 160.993 279.109 161.623C279.45 162.241 279.621 162.983 279.621 163.847C279.621 164.711 279.45 165.457 279.109 166.087C278.778 166.716 278.304 167.201 277.685 167.543C277.077 167.884 276.357 168.055 275.525 168.055ZM275.525 166.519C276.154 166.519 276.656 166.3 277.029 165.863C277.402 165.415 277.589 164.743 277.589 163.847C277.589 162.951 277.402 162.284 277.029 161.847C276.656 161.409 276.154 161.191 275.525 161.191C274.896 161.191 274.394 161.409 274.021 161.847C273.648 162.284 273.461 162.951 273.461 163.847C273.461 164.743 273.648 165.415 274.021 165.863C274.394 166.3 274.896 166.519 275.525 166.519ZM283.43 167.895L280.278 159.815H282.342L284.614 166.103H284.198L286.502 159.815H287.926L290.214 166.103H289.846L292.102 159.815H294.054L290.902 167.895H289.142L286.726 161.463H287.574L285.206 167.895H283.43ZM298.038 168.055C297.345 168.055 296.705 167.975 296.118 167.815C295.542 167.644 295.057 167.409 294.662 167.111L295.222 165.767C295.628 166.044 296.076 166.257 296.566 166.407C297.057 166.556 297.553 166.631 298.054 166.631C298.588 166.631 298.982 166.54 299.238 166.359C299.505 166.177 299.638 165.932 299.638 165.623C299.638 165.377 299.553 165.185 299.382 165.047C299.222 164.897 298.961 164.785 298.598 164.711L296.998 164.407C296.316 164.257 295.793 164.001 295.43 163.639C295.078 163.276 294.902 162.801 294.902 162.215C294.902 161.713 295.036 161.271 295.302 160.887C295.58 160.503 295.969 160.204 296.47 159.991C296.982 159.767 297.58 159.655 298.262 159.655C298.86 159.655 299.42 159.735 299.942 159.895C300.476 160.055 300.924 160.295 301.286 160.615L300.71 161.911C300.38 161.644 300.001 161.436 299.574 161.287C299.148 161.137 298.732 161.063 298.326 161.063C297.772 161.063 297.366 161.164 297.11 161.367C296.854 161.559 296.726 161.809 296.726 162.119C296.726 162.353 296.801 162.551 296.95 162.711C297.11 162.86 297.356 162.972 297.686 163.047L299.286 163.351C300.001 163.489 300.54 163.735 300.902 164.087C301.276 164.428 301.462 164.897 301.462 165.495C301.462 166.028 301.318 166.487 301.03 166.871C300.742 167.255 300.342 167.548 299.83 167.751C299.318 167.953 298.721 168.055 298.038 168.055ZM307.078 168.055C305.723 168.055 304.662 167.681 303.894 166.935C303.126 166.188 302.742 165.164 302.742 163.863C302.742 163.02 302.907 162.284 303.238 161.655C303.569 161.025 304.027 160.535 304.614 160.183C305.211 159.831 305.905 159.655 306.694 159.655C307.473 159.655 308.123 159.82 308.646 160.151C309.169 160.481 309.563 160.945 309.83 161.543C310.107 162.14 310.246 162.839 310.246 163.639V164.167H304.358V163.111H308.822L308.55 163.335C308.55 162.588 308.39 162.017 308.07 161.623C307.761 161.228 307.307 161.031 306.71 161.031C306.049 161.031 305.537 161.265 305.174 161.735C304.822 162.204 304.646 162.86 304.646 163.703V163.911C304.646 164.785 304.859 165.441 305.286 165.879C305.723 166.305 306.337 166.519 307.126 166.519C307.585 166.519 308.011 166.46 308.406 166.343C308.811 166.215 309.195 166.012 309.558 165.735L310.15 167.079C309.766 167.388 309.307 167.628 308.774 167.799C308.241 167.969 307.675 168.055 307.078 168.055Z" fill="#7D4EF1"/>
<path d="M253.586 169.607H310.854V170.311H253.586V169.607Z" fill="#7D4EF1"/>
<path d="M142.711 190.641C142.675 190.701 142.635 190.747 142.591 190.779C142.551 190.807 142.501 190.821 142.441 190.821C142.373 190.821 142.293 190.787 142.201 190.719C142.109 190.651 141.993 190.577 141.853 190.497C141.717 190.413 141.551 190.337 141.355 190.269C141.163 190.201 140.929 190.167 140.653 190.167C140.393 190.167 140.163 190.203 139.963 190.275C139.767 190.343 139.601 190.437 139.465 190.557C139.333 190.677 139.233 190.819 139.165 190.983C139.097 191.143 139.063 191.317 139.063 191.505C139.063 191.745 139.121 191.945 139.237 192.105C139.357 192.261 139.513 192.395 139.705 192.507C139.901 192.619 140.121 192.717 140.365 192.801C140.613 192.881 140.865 192.965 141.121 193.053C141.381 193.141 141.633 193.241 141.877 193.353C142.125 193.461 142.345 193.599 142.537 193.767C142.733 193.935 142.889 194.141 143.005 194.385C143.125 194.629 143.185 194.929 143.185 195.285C143.185 195.661 143.121 196.015 142.993 196.347C142.865 196.675 142.677 196.961 142.429 197.205C142.185 197.449 141.883 197.641 141.523 197.781C141.167 197.921 140.761 197.991 140.305 197.991C139.745 197.991 139.237 197.891 138.781 197.691C138.325 197.487 137.935 197.213 137.611 196.869L137.947 196.317C137.979 196.273 138.017 196.237 138.061 196.209C138.109 196.177 138.161 196.161 138.217 196.161C138.269 196.161 138.327 196.183 138.391 196.227C138.459 196.267 138.535 196.319 138.619 196.383C138.703 196.447 138.799 196.517 138.907 196.593C139.015 196.669 139.137 196.739 139.273 196.803C139.413 196.867 139.571 196.921 139.747 196.965C139.923 197.005 140.121 197.025 140.341 197.025C140.617 197.025 140.863 196.987 141.079 196.911C141.295 196.835 141.477 196.729 141.625 196.593C141.777 196.453 141.893 196.287 141.973 196.095C142.053 195.903 142.093 195.689 142.093 195.453C142.093 195.193 142.033 194.981 141.913 194.817C141.797 194.649 141.643 194.509 141.451 194.397C141.259 194.285 141.039 194.191 140.791 194.115C140.543 194.035 140.291 193.955 140.035 193.875C139.779 193.791 139.527 193.695 139.279 193.587C139.031 193.479 138.811 193.339 138.619 193.167C138.427 192.995 138.271 192.781 138.151 192.525C138.035 192.265 137.977 191.945 137.977 191.565C137.977 191.261 138.035 190.967 138.151 190.683C138.271 190.399 138.443 190.147 138.667 189.927C138.895 189.707 139.173 189.531 139.501 189.399C139.833 189.267 140.213 189.201 140.641 189.201C141.121 189.201 141.557 189.277 141.949 189.429C142.345 189.581 142.693 189.801 142.993 190.089L142.711 190.641ZM149.457 191.817V197.895H148.821C148.669 197.895 148.573 197.821 148.533 197.673L148.449 197.019C148.185 197.311 147.889 197.547 147.561 197.727C147.233 197.903 146.857 197.991 146.433 197.991C146.101 197.991 145.807 197.937 145.551 197.829C145.299 197.717 145.087 197.561 144.915 197.361C144.743 197.161 144.613 196.919 144.525 196.635C144.441 196.351 144.399 196.037 144.399 195.693V191.817H145.467V195.693C145.467 196.153 145.571 196.509 145.779 196.761C145.991 197.013 146.313 197.139 146.745 197.139C147.061 197.139 147.355 197.065 147.627 196.917C147.903 196.765 148.157 196.557 148.389 196.293V191.817H149.457ZM152.225 196.431C152.421 196.695 152.635 196.881 152.867 196.989C153.099 197.097 153.359 197.151 153.647 197.151C154.215 197.151 154.651 196.949 154.955 196.545C155.259 196.141 155.411 195.565 155.411 194.817C155.411 194.421 155.375 194.081 155.303 193.797C155.235 193.513 155.135 193.281 155.003 193.101C154.871 192.917 154.709 192.783 154.517 192.699C154.325 192.615 154.107 192.573 153.863 192.573C153.515 192.573 153.209 192.653 152.945 192.813C152.685 192.973 152.445 193.199 152.225 193.491V196.431ZM152.171 192.759C152.427 192.443 152.723 192.189 153.059 191.997C153.395 191.805 153.779 191.709 154.211 191.709C154.563 191.709 154.881 191.777 155.165 191.913C155.449 192.045 155.691 192.243 155.891 192.507C156.091 192.767 156.245 193.091 156.353 193.479C156.461 193.867 156.515 194.313 156.515 194.817C156.515 195.265 156.455 195.683 156.335 196.071C156.215 196.455 156.041 196.789 155.813 197.073C155.589 197.353 155.313 197.575 154.985 197.739C154.661 197.899 154.295 197.979 153.887 197.979C153.515 197.979 153.195 197.917 152.927 197.793C152.663 197.665 152.429 197.489 152.225 197.265V199.953H151.151V191.817H151.793C151.945 191.817 152.039 191.891 152.075 192.039L152.171 192.759ZM158.951 196.431C159.147 196.695 159.361 196.881 159.593 196.989C159.825 197.097 160.085 197.151 160.373 197.151C160.941 197.151 161.377 196.949 161.681 196.545C161.985 196.141 162.137 195.565 162.137 194.817C162.137 194.421 162.101 194.081 162.029 193.797C161.961 193.513 161.861 193.281 161.729 193.101C161.597 192.917 161.435 192.783 161.243 192.699C161.051 192.615 160.833 192.573 160.589 192.573C160.241 192.573 159.935 192.653 159.671 192.813C159.411 192.973 159.171 193.199 158.951 193.491V196.431ZM158.897 192.759C159.153 192.443 159.449 192.189 159.785 191.997C160.121 191.805 160.505 191.709 160.937 191.709C161.289 191.709 161.607 191.777 161.891 191.913C162.175 192.045 162.417 192.243 162.617 192.507C162.817 192.767 162.971 193.091 163.079 193.479C163.187 193.867 163.241 194.313 163.241 194.817C163.241 195.265 163.181 195.683 163.061 196.071C162.941 196.455 162.767 196.789 162.539 197.073C162.315 197.353 162.039 197.575 161.711 197.739C161.387 197.899 161.021 197.979 160.613 197.979C160.241 197.979 159.921 197.917 159.653 197.793C159.389 197.665 159.155 197.489 158.951 197.265V199.953H157.877V191.817H158.519C158.671 191.817 158.765 191.891 158.801 192.039L158.897 192.759ZM167.166 191.721C167.61 191.721 168.01 191.795 168.366 191.943C168.722 192.091 169.026 192.301 169.278 192.573C169.53 192.845 169.722 193.175 169.854 193.563C169.99 193.947 170.058 194.377 170.058 194.853C170.058 195.333 169.99 195.765 169.854 196.149C169.722 196.533 169.53 196.861 169.278 197.133C169.026 197.405 168.722 197.615 168.366 197.763C168.01 197.907 167.61 197.979 167.166 197.979C166.718 197.979 166.314 197.907 165.954 197.763C165.598 197.615 165.294 197.405 165.042 197.133C164.79 196.861 164.596 196.533 164.46 196.149C164.328 195.765 164.262 195.333 164.262 194.853C164.262 194.377 164.328 193.947 164.46 193.563C164.596 193.175 164.79 192.845 165.042 192.573C165.294 192.301 165.598 192.091 165.954 191.943C166.314 191.795 166.718 191.721 167.166 191.721ZM167.166 197.145C167.766 197.145 168.214 196.945 168.51 196.545C168.806 196.141 168.954 195.579 168.954 194.859C168.954 194.135 168.806 193.571 168.51 193.167C168.214 192.763 167.766 192.561 167.166 192.561C166.862 192.561 166.596 192.613 166.368 192.717C166.144 192.821 165.956 192.971 165.804 193.167C165.656 193.363 165.544 193.605 165.468 193.893C165.396 194.177 165.36 194.499 165.36 194.859C165.36 195.579 165.508 196.141 165.804 196.545C166.104 196.945 166.558 197.145 167.166 197.145ZM172.426 193.035C172.618 192.619 172.854 192.295 173.134 192.063C173.414 191.827 173.756 191.709 174.16 191.709C174.288 191.709 174.41 191.723 174.526 191.751C174.646 191.779 174.752 191.823 174.844 191.883L174.766 192.681C174.742 192.781 174.682 192.831 174.586 192.831C174.53 192.831 174.448 192.819 174.34 192.795C174.232 192.771 174.11 192.759 173.974 192.759C173.782 192.759 173.61 192.787 173.458 192.843C173.31 192.899 173.176 192.983 173.056 193.095C172.94 193.203 172.834 193.339 172.738 193.503C172.646 193.663 172.562 193.847 172.486 194.055V197.895H171.412V191.817H172.024C172.14 191.817 172.22 191.839 172.264 191.883C172.308 191.927 172.338 192.003 172.354 192.111L172.426 193.035ZM177.65 197.991C177.17 197.991 176.8 197.857 176.54 197.589C176.284 197.321 176.156 196.935 176.156 196.431V192.711H175.424C175.36 192.711 175.306 192.693 175.262 192.657C175.218 192.617 175.196 192.557 175.196 192.477V192.051L176.192 191.925L176.438 190.047C176.45 189.987 176.476 189.939 176.516 189.903C176.56 189.863 176.616 189.843 176.684 189.843H177.224V191.937H178.982V192.711H177.224V196.359C177.224 196.615 177.286 196.805 177.41 196.929C177.534 197.053 177.694 197.115 177.89 197.115C178.002 197.115 178.098 197.101 178.178 197.073C178.262 197.041 178.334 197.007 178.394 196.971C178.454 196.935 178.504 196.903 178.544 196.875C178.588 196.843 178.626 196.827 178.658 196.827C178.714 196.827 178.764 196.861 178.808 196.929L179.12 197.439C178.936 197.611 178.714 197.747 178.454 197.847C178.194 197.943 177.926 197.991 177.65 197.991ZM184.117 194.193C184.117 193.945 184.081 193.719 184.009 193.515C183.941 193.307 183.839 193.129 183.703 192.981C183.571 192.829 183.409 192.713 183.217 192.633C183.025 192.549 182.807 192.507 182.563 192.507C182.051 192.507 181.645 192.657 181.345 192.957C181.049 193.253 180.865 193.665 180.793 194.193H184.117ZM184.981 197.043C184.849 197.203 184.691 197.343 184.507 197.463C184.323 197.579 184.125 197.675 183.913 197.751C183.705 197.827 183.489 197.883 183.265 197.919C183.041 197.959 182.819 197.979 182.599 197.979C182.179 197.979 181.791 197.909 181.435 197.769C181.083 197.625 180.777 197.417 180.517 197.145C180.261 196.869 180.061 196.529 179.917 196.125C179.773 195.721 179.701 195.257 179.701 194.733C179.701 194.309 179.765 193.913 179.893 193.545C180.025 193.177 180.213 192.859 180.457 192.591C180.701 192.319 180.999 192.107 181.351 191.955C181.703 191.799 182.099 191.721 182.539 191.721C182.903 191.721 183.239 191.783 183.547 191.907C183.859 192.027 184.127 192.203 184.351 192.435C184.579 192.663 184.757 192.947 184.885 193.287C185.013 193.623 185.077 194.007 185.077 194.439C185.077 194.607 185.059 194.719 185.023 194.775C184.987 194.831 184.919 194.859 184.819 194.859H180.757C180.769 195.243 180.821 195.577 180.913 195.861C181.009 196.145 181.141 196.383 181.309 196.575C181.477 196.763 181.677 196.905 181.909 197.001C182.141 197.093 182.401 197.139 182.689 197.139C182.957 197.139 183.187 197.109 183.379 197.049C183.575 196.985 183.743 196.917 183.883 196.845C184.023 196.773 184.139 196.707 184.231 196.647C184.327 196.583 184.409 196.551 184.477 196.551C184.565 196.551 184.633 196.585 184.681 196.653L184.981 197.043ZM190.349 193.263C190.149 192.995 189.933 192.809 189.701 192.705C189.469 192.597 189.209 192.543 188.921 192.543C188.357 192.543 187.923 192.745 187.619 193.149C187.315 193.553 187.163 194.129 187.163 194.877C187.163 195.273 187.197 195.613 187.265 195.897C187.333 196.177 187.433 196.409 187.565 196.593C187.697 196.773 187.859 196.905 188.051 196.989C188.243 197.073 188.461 197.115 188.705 197.115C189.057 197.115 189.363 197.035 189.623 196.875C189.887 196.715 190.129 196.489 190.349 196.197V193.263ZM191.417 189.057V197.895H190.781C190.629 197.895 190.533 197.821 190.493 197.673L190.397 196.935C190.137 197.247 189.841 197.499 189.509 197.691C189.177 197.883 188.793 197.979 188.357 197.979C188.009 197.979 187.693 197.913 187.409 197.781C187.125 197.645 186.883 197.447 186.683 197.187C186.483 196.927 186.329 196.603 186.221 196.215C186.113 195.827 186.059 195.381 186.059 194.877C186.059 194.429 186.119 194.013 186.239 193.629C186.359 193.241 186.531 192.905 186.755 192.621C186.979 192.337 187.253 192.115 187.577 191.955C187.905 191.791 188.273 191.709 188.681 191.709C189.053 191.709 189.371 191.773 189.635 191.901C189.903 192.025 190.141 192.199 190.349 192.423V189.057H191.417ZM196.57 197.895V192.729L195.898 192.651C195.814 192.631 195.744 192.601 195.688 192.561C195.636 192.517 195.61 192.455 195.61 192.375V191.937H196.57V191.349C196.57 191.001 196.618 190.693 196.714 190.425C196.814 190.153 196.954 189.925 197.134 189.741C197.318 189.553 197.538 189.411 197.794 189.315C198.05 189.219 198.338 189.171 198.658 189.171C198.93 189.171 199.18 189.211 199.408 189.291L199.384 189.825C199.376 189.921 199.322 189.973 199.222 189.981C199.126 189.989 198.996 189.993 198.832 189.993C198.648 189.993 198.48 190.017 198.328 190.065C198.18 190.113 198.052 190.191 197.944 190.299C197.836 190.407 197.752 190.549 197.692 190.725C197.636 190.901 197.608 191.119 197.608 191.379V191.937H199.36V192.711H197.644V197.895H196.57ZM202.744 191.721C203.188 191.721 203.588 191.795 203.944 191.943C204.3 192.091 204.604 192.301 204.856 192.573C205.108 192.845 205.3 193.175 205.432 193.563C205.568 193.947 205.636 194.377 205.636 194.853C205.636 195.333 205.568 195.765 205.432 196.149C205.3 196.533 205.108 196.861 204.856 197.133C204.604 197.405 204.3 197.615 203.944 197.763C203.588 197.907 203.188 197.979 202.744 197.979C202.296 197.979 201.892 197.907 201.532 197.763C201.176 197.615 200.872 197.405 200.62 197.133C200.368 196.861 200.174 196.533 200.038 196.149C199.906 195.765 199.84 195.333 199.84 194.853C199.84 194.377 199.906 193.947 200.038 193.563C200.174 193.175 200.368 192.845 200.62 192.573C200.872 192.301 201.176 192.091 201.532 191.943C201.892 191.795 202.296 191.721 202.744 191.721ZM202.744 197.145C203.344 197.145 203.792 196.945 204.088 196.545C204.384 196.141 204.532 195.579 204.532 194.859C204.532 194.135 204.384 193.571 204.088 193.167C203.792 192.763 203.344 192.561 202.744 192.561C202.44 192.561 202.174 192.613 201.946 192.717C201.722 192.821 201.534 192.971 201.382 193.167C201.234 193.363 201.122 193.605 201.046 193.893C200.974 194.177 200.938 194.499 200.938 194.859C200.938 195.579 201.086 196.141 201.382 196.545C201.682 196.945 202.136 197.145 202.744 197.145ZM208.005 193.035C208.197 192.619 208.433 192.295 208.713 192.063C208.993 191.827 209.335 191.709 209.739 191.709C209.867 191.709 209.989 191.723 210.105 191.751C210.225 191.779 210.331 191.823 210.423 191.883L210.345 192.681C210.321 192.781 210.261 192.831 210.165 192.831C210.109 192.831 210.027 192.819 209.919 192.795C209.811 192.771 209.689 192.759 209.553 192.759C209.361 192.759 209.189 192.787 209.037 192.843C208.889 192.899 208.755 192.983 208.635 193.095C208.519 193.203 208.413 193.339 208.317 193.503C208.225 193.663 208.141 193.847 208.065 194.055V197.895H206.991V191.817H207.603C207.719 191.817 207.799 191.839 207.843 191.883C207.887 191.927 207.917 192.003 207.933 192.111L208.005 193.035ZM211.362 197.895V191.817H212.004C212.156 191.817 212.25 191.891 212.286 192.039L212.364 192.663C212.588 192.387 212.84 192.161 213.12 191.985C213.4 191.809 213.724 191.721 214.092 191.721C214.5 191.721 214.83 191.835 215.082 192.063C215.338 192.291 215.522 192.599 215.634 192.987C215.722 192.767 215.834 192.577 215.97 192.417C216.11 192.257 216.266 192.125 216.438 192.021C216.61 191.917 216.792 191.841 216.984 191.793C217.18 191.745 217.378 191.721 217.578 191.721C217.898 191.721 218.182 191.773 218.43 191.877C218.682 191.977 218.894 192.125 219.066 192.321C219.242 192.517 219.376 192.759 219.468 193.047C219.56 193.331 219.606 193.657 219.606 194.025V197.895H218.532V194.025C218.532 193.549 218.428 193.189 218.22 192.945C218.012 192.697 217.712 192.573 217.32 192.573C217.144 192.573 216.976 192.605 216.816 192.669C216.66 192.729 216.522 192.819 216.402 192.939C216.282 193.059 216.186 193.211 216.114 193.395C216.046 193.575 216.012 193.785 216.012 194.025V197.895H214.938V194.025C214.938 193.537 214.84 193.173 214.644 192.933C214.448 192.693 214.162 192.573 213.786 192.573C213.522 192.573 213.278 192.645 213.054 192.789C212.83 192.929 212.624 193.121 212.436 193.365V197.895H211.362ZM224.523 195.159C224.031 195.175 223.611 195.215 223.263 195.279C222.919 195.339 222.637 195.419 222.417 195.519C222.201 195.619 222.043 195.737 221.943 195.873C221.847 196.009 221.799 196.161 221.799 196.329C221.799 196.489 221.825 196.627 221.877 196.743C221.929 196.859 221.999 196.955 222.087 197.031C222.179 197.103 222.285 197.157 222.405 197.193C222.529 197.225 222.661 197.241 222.801 197.241C222.989 197.241 223.161 197.223 223.317 197.187C223.473 197.147 223.619 197.091 223.755 197.019C223.895 196.947 224.027 196.861 224.151 196.761C224.279 196.661 224.403 196.547 224.523 196.419V195.159ZM221.073 192.675C221.409 192.351 221.771 192.109 222.159 191.949C222.547 191.789 222.977 191.709 223.449 191.709C223.789 191.709 224.091 191.765 224.355 191.877C224.619 191.989 224.841 192.145 225.021 192.345C225.201 192.545 225.337 192.787 225.429 193.071C225.521 193.355 225.567 193.667 225.567 194.007V197.895H225.093C224.989 197.895 224.909 197.879 224.853 197.847C224.797 197.811 224.753 197.743 224.721 197.643L224.601 197.067C224.441 197.215 224.285 197.347 224.133 197.463C223.981 197.575 223.821 197.671 223.653 197.751C223.485 197.827 223.305 197.885 223.113 197.925C222.925 197.969 222.715 197.991 222.483 197.991C222.247 197.991 222.025 197.959 221.817 197.895C221.609 197.827 221.427 197.727 221.271 197.595C221.119 197.463 220.997 197.297 220.905 197.097C220.817 196.893 220.773 196.653 220.773 196.377C220.773 196.137 220.839 195.907 220.971 195.687C221.103 195.463 221.317 195.265 221.613 195.093C221.909 194.921 222.295 194.781 222.771 194.673C223.247 194.561 223.831 194.497 224.523 194.481V194.007C224.523 193.535 224.421 193.179 224.217 192.939C224.013 192.695 223.715 192.573 223.323 192.573C223.059 192.573 222.837 192.607 222.657 192.675C222.481 192.739 222.327 192.813 222.195 192.897C222.067 192.977 221.955 193.051 221.859 193.119C221.767 193.183 221.675 193.215 221.583 193.215C221.511 193.215 221.449 193.197 221.397 193.161C221.345 193.121 221.301 193.073 221.265 193.017L221.073 192.675ZM229.06 197.991C228.58 197.991 228.21 197.857 227.95 197.589C227.694 197.321 227.566 196.935 227.566 196.431V192.711H226.834C226.77 192.711 226.716 192.693 226.672 192.657C226.628 192.617 226.606 192.557 226.606 192.477V192.051L227.602 191.925L227.848 190.047C227.86 189.987 227.886 189.939 227.926 189.903C227.97 189.863 228.026 189.843 228.094 189.843H228.634V191.937H230.392V192.711H228.634V196.359C228.634 196.615 228.696 196.805 228.82 196.929C228.944 197.053 229.104 197.115 229.3 197.115C229.412 197.115 229.508 197.101 229.588 197.073C229.672 197.041 229.744 197.007 229.804 196.971C229.864 196.935 229.914 196.903 229.954 196.875C229.998 196.843 230.036 196.827 230.068 196.827C230.124 196.827 230.174 196.861 230.218 196.929L230.53 197.439C230.346 197.611 230.124 197.747 229.864 197.847C229.604 197.943 229.336 197.991 229.06 197.991ZM235.527 194.193C235.527 193.945 235.491 193.719 235.419 193.515C235.351 193.307 235.249 193.129 235.113 192.981C234.981 192.829 234.819 192.713 234.627 192.633C234.435 192.549 234.217 192.507 233.973 192.507C233.461 192.507 233.055 192.657 232.755 192.957C232.459 193.253 232.275 193.665 232.203 194.193H235.527ZM236.391 197.043C236.259 197.203 236.101 197.343 235.917 197.463C235.733 197.579 235.535 197.675 235.323 197.751C235.115 197.827 234.899 197.883 234.675 197.919C234.451 197.959 234.229 197.979 234.009 197.979C233.589 197.979 233.201 197.909 232.845 197.769C232.493 197.625 232.187 197.417 231.927 197.145C231.671 196.869 231.471 196.529 231.327 196.125C231.183 195.721 231.111 195.257 231.111 194.733C231.111 194.309 231.175 193.913 231.303 193.545C231.435 193.177 231.623 192.859 231.867 192.591C232.111 192.319 232.409 192.107 232.761 191.955C233.113 191.799 233.509 191.721 233.949 191.721C234.313 191.721 234.649 191.783 234.957 191.907C235.269 192.027 235.537 192.203 235.761 192.435C235.989 192.663 236.167 192.947 236.295 193.287C236.423 193.623 236.487 194.007 236.487 194.439C236.487 194.607 236.469 194.719 236.433 194.775C236.397 194.831 236.329 194.859 236.229 194.859H232.167C232.179 195.243 232.231 195.577 232.323 195.861C232.419 196.145 232.551 196.383 232.719 196.575C232.887 196.763 233.087 196.905 233.319 197.001C233.551 197.093 233.811 197.139 234.099 197.139C234.367 197.139 234.597 197.109 234.789 197.049C234.985 196.985 235.153 196.917 235.293 196.845C235.433 196.773 235.549 196.707 235.641 196.647C235.737 196.583 235.819 196.551 235.887 196.551C235.975 196.551 236.043 196.585 236.091 196.653L236.391 197.043ZM241.339 192.819C241.291 192.907 241.217 192.951 241.117 192.951C241.057 192.951 240.989 192.929 240.913 192.885C240.837 192.841 240.743 192.793 240.631 192.741C240.523 192.685 240.393 192.635 240.241 192.591C240.089 192.543 239.909 192.519 239.701 192.519C239.521 192.519 239.359 192.543 239.215 192.591C239.071 192.635 238.947 192.697 238.843 192.777C238.743 192.857 238.665 192.951 238.609 193.059C238.557 193.163 238.531 193.277 238.531 193.401C238.531 193.557 238.575 193.687 238.663 193.791C238.755 193.895 238.875 193.985 239.023 194.061C239.171 194.137 239.339 194.205 239.527 194.265C239.715 194.321 239.907 194.383 240.103 194.451C240.303 194.515 240.497 194.587 240.685 194.667C240.873 194.747 241.041 194.847 241.189 194.967C241.337 195.087 241.455 195.235 241.543 195.411C241.635 195.583 241.681 195.791 241.681 196.035C241.681 196.315 241.631 196.575 241.531 196.815C241.431 197.051 241.283 197.257 241.087 197.433C240.891 197.605 240.651 197.741 240.367 197.841C240.083 197.941 239.755 197.991 239.383 197.991C238.959 197.991 238.575 197.923 238.231 197.787C237.887 197.647 237.595 197.469 237.355 197.253L237.607 196.845C237.639 196.793 237.677 196.753 237.721 196.725C237.765 196.697 237.821 196.683 237.889 196.683C237.961 196.683 238.037 196.711 238.117 196.767C238.197 196.823 238.293 196.885 238.405 196.953C238.521 197.021 238.661 197.083 238.825 197.139C238.989 197.195 239.193 197.223 239.437 197.223C239.645 197.223 239.827 197.197 239.983 197.145C240.139 197.089 240.269 197.015 240.373 196.923C240.477 196.831 240.553 196.725 240.601 196.605C240.653 196.485 240.679 196.357 240.679 196.221C240.679 196.053 240.633 195.915 240.541 195.807C240.453 195.695 240.335 195.601 240.187 195.525C240.039 195.445 239.869 195.377 239.677 195.321C239.489 195.261 239.295 195.199 239.095 195.135C238.899 195.071 238.705 194.999 238.513 194.919C238.325 194.835 238.157 194.731 238.009 194.607C237.861 194.483 237.741 194.331 237.649 194.151C237.561 193.967 237.517 193.745 237.517 193.485C237.517 193.253 237.565 193.031 237.661 192.819C237.757 192.603 237.897 192.415 238.081 192.255C238.265 192.091 238.491 191.961 238.759 191.865C239.027 191.769 239.333 191.721 239.677 191.721C240.077 191.721 240.435 191.785 240.751 191.913C241.071 192.037 241.347 192.209 241.579 192.429L241.339 192.819ZM242.895 197.235C242.895 197.131 242.913 197.033 242.949 196.941C242.989 196.849 243.041 196.769 243.105 196.701C243.173 196.633 243.253 196.579 243.345 196.539C243.437 196.499 243.535 196.479 243.639 196.479C243.743 196.479 243.841 196.499 243.933 196.539C244.025 196.579 244.105 196.633 244.173 196.701C244.241 196.769 244.295 196.849 244.335 196.941C244.375 197.033 244.395 197.131 244.395 197.235C244.395 197.343 244.375 197.443 244.335 197.535C244.295 197.623 244.241 197.701 244.173 197.769C244.105 197.837 244.025 197.889 243.933 197.925C243.841 197.965 243.743 197.985 243.639 197.985C243.535 197.985 243.437 197.965 243.345 197.925C243.253 197.889 243.173 197.837 243.105 197.769C243.041 197.701 242.989 197.623 242.949 197.535C242.913 197.443 242.895 197.343 242.895 197.235ZM242.895 192.735C242.895 192.631 242.913 192.533 242.949 192.441C242.989 192.349 243.041 192.269 243.105 192.201C243.173 192.133 243.253 192.079 243.345 192.039C243.437 191.999 243.535 191.979 243.639 191.979C243.743 191.979 243.841 191.999 243.933 192.039C244.025 192.079 244.105 192.133 244.173 192.201C244.241 192.269 244.295 192.349 244.335 192.441C244.375 192.533 244.395 192.631 244.395 192.735C244.395 192.843 244.375 192.943 244.335 193.035C244.295 193.123 244.241 193.201 244.173 193.269C244.105 193.337 244.025 193.391 243.933 193.431C243.841 193.467 243.743 193.485 243.639 193.485C243.535 193.485 243.437 193.467 243.345 193.431C243.253 193.391 243.173 193.337 243.105 193.269C243.041 193.201 242.989 193.123 242.949 193.035C242.913 192.943 242.895 192.843 242.895 192.735ZM258.419 196.119C258.483 196.119 258.539 196.145 258.587 196.197L259.049 196.695C258.697 197.103 258.269 197.421 257.765 197.649C257.265 197.877 256.659 197.991 255.947 197.991C255.331 197.991 254.771 197.885 254.267 197.673C253.763 197.457 253.333 197.157 252.977 196.773C252.621 196.385 252.345 195.921 252.149 195.381C251.953 194.841 251.855 194.247 251.855 193.599C251.855 192.951 251.957 192.357 252.161 191.817C252.365 191.277 252.651 190.813 253.019 190.425C253.391 190.037 253.835 189.737 254.351 189.525C254.867 189.309 255.437 189.201 256.061 189.201C256.673 189.201 257.213 189.299 257.681 189.495C258.149 189.691 258.561 189.957 258.917 190.293L258.533 190.827C258.509 190.867 258.477 190.901 258.437 190.929C258.401 190.953 258.351 190.965 258.287 190.965C258.215 190.965 258.127 190.927 258.023 190.851C257.919 190.771 257.783 190.683 257.615 190.587C257.447 190.491 257.237 190.405 256.985 190.329C256.733 190.249 256.423 190.209 256.055 190.209C255.611 190.209 255.205 190.287 254.837 190.443C254.469 190.595 254.151 190.817 253.883 191.109C253.619 191.401 253.413 191.757 253.265 192.177C253.117 192.597 253.043 193.071 253.043 193.599C253.043 194.135 253.119 194.613 253.271 195.033C253.427 195.453 253.637 195.809 253.901 196.101C254.169 196.389 254.483 196.609 254.843 196.761C255.207 196.913 255.599 196.989 256.019 196.989C256.275 196.989 256.505 196.975 256.709 196.947C256.917 196.915 257.107 196.867 257.279 196.803C257.455 196.739 257.617 196.659 257.765 196.563C257.917 196.463 258.067 196.345 258.215 196.209C258.283 196.149 258.351 196.119 258.419 196.119ZM264.797 190.641C264.761 190.701 264.721 190.747 264.677 190.779C264.637 190.807 264.587 190.821 264.527 190.821C264.459 190.821 264.379 190.787 264.287 190.719C264.195 190.651 264.079 190.577 263.939 190.497C263.803 190.413 263.637 190.337 263.441 190.269C263.249 190.201 263.015 190.167 262.739 190.167C262.479 190.167 262.249 190.203 262.049 190.275C261.853 190.343 261.687 190.437 261.551 190.557C261.419 190.677 261.319 190.819 261.251 190.983C261.183 191.143 261.149 191.317 261.149 191.505C261.149 191.745 261.207 191.945 261.323 192.105C261.443 192.261 261.599 192.395 261.791 192.507C261.987 192.619 262.207 192.717 262.451 192.801C262.699 192.881 262.951 192.965 263.207 193.053C263.467 193.141 263.719 193.241 263.963 193.353C264.211 193.461 264.431 193.599 264.623 193.767C264.819 193.935 264.975 194.141 265.091 194.385C265.211 194.629 265.271 194.929 265.271 195.285C265.271 195.661 265.207 196.015 265.079 196.347C264.951 196.675 264.763 196.961 264.515 197.205C264.271 197.449 263.969 197.641 263.609 197.781C263.253 197.921 262.847 197.991 262.391 197.991C261.831 197.991 261.323 197.891 260.867 197.691C260.411 197.487 260.021 197.213 259.697 196.869L260.033 196.317C260.065 196.273 260.103 196.237 260.147 196.209C260.195 196.177 260.247 196.161 260.303 196.161C260.355 196.161 260.413 196.183 260.477 196.227C260.545 196.267 260.621 196.319 260.705 196.383C260.789 196.447 260.885 196.517 260.993 196.593C261.101 196.669 261.223 196.739 261.359 196.803C261.499 196.867 261.657 196.921 261.833 196.965C262.009 197.005 262.207 197.025 262.427 197.025C262.703 197.025 262.949 196.987 263.165 196.911C263.381 196.835 263.563 196.729 263.711 196.593C263.863 196.453 263.979 196.287 264.059 196.095C264.139 195.903 264.179 195.689 264.179 195.453C264.179 195.193 264.119 194.981 263.999 194.817C263.883 194.649 263.729 194.509 263.537 194.397C263.345 194.285 263.125 194.191 262.877 194.115C262.629 194.035 262.377 193.955 262.121 193.875C261.865 193.791 261.613 193.695 261.365 193.587C261.117 193.479 260.897 193.339 260.705 193.167C260.513 192.995 260.357 192.781 260.237 192.525C260.121 192.265 260.063 191.945 260.063 191.565C260.063 191.261 260.121 190.967 260.237 190.683C260.357 190.399 260.529 190.147 260.753 189.927C260.981 189.707 261.259 189.531 261.587 189.399C261.919 189.267 262.299 189.201 262.727 189.201C263.207 189.201 263.643 189.277 264.035 189.429C264.431 189.581 264.779 189.801 265.079 190.089L264.797 190.641ZM273.752 189.297L270.248 197.895H269.204L265.7 189.297H266.63C266.734 189.297 266.818 189.323 266.882 189.375C266.946 189.427 266.994 189.493 267.026 189.573L269.45 195.639C269.502 195.775 269.552 195.923 269.6 196.083C269.652 196.243 269.698 196.411 269.738 196.587C269.778 196.411 269.82 196.243 269.864 196.083C269.908 195.923 269.956 195.775 270.008 195.639L272.426 189.573C272.45 189.505 272.496 189.443 272.564 189.387C272.636 189.327 272.722 189.297 272.822 189.297H273.752Z" fill="#676767"/>
<path d="M207.526 81.5931L207.443 81.5717C206.967 81.4484 206.661 80.9971 206.817 80.541C206.817 80.541 206.817 80.5409 206.817 80.5409L206.959 80.5896L207.526 81.5931ZM207.526 81.5931L207.529 81.59M207.526 81.5931L207.529 81.59M207.529 81.59C207.977 81.6658 208.444 81.4382 208.586 81.0217L207.529 81.59Z" fill="#7D4EF1" stroke="#F9FFF9" stroke-width="0.3"/>
<path d="M228.939 107.029H224.292C223.864 107.029 223.517 106.728 223.517 106.356C223.517 105.985 223.864 105.683 224.292 105.683H228.939C235.345 105.683 240.557 101.155 240.557 95.589C240.557 90.0233 235.345 85.4948 228.939 85.4948H228.827C228.603 85.4948 228.389 85.4102 228.242 85.2627C228.095 85.1151 228.028 84.9195 228.06 84.7262C228.13 84.3071 228.165 83.886 228.165 83.476C228.165 78.6524 223.647 74.7276 218.096 74.7276C215.936 74.7276 213.876 75.3141 212.139 76.4239C211.757 76.6676 211.215 76.5595 210.994 76.1946C206.074 68.0549 193.224 66.9618 186.562 74.0427C183.755 77.0258 182.653 80.9062 183.536 84.6883C183.634 85.106 183.266 85.4954 182.777 85.4954H182.467C176.061 85.4954 170.849 90.0238 170.849 95.5896C170.849 101.155 176.061 105.684 182.467 105.684H187.114C187.542 105.684 187.889 105.985 187.889 106.357C187.889 106.728 187.542 107.03 187.114 107.03H182.467C175.207 107.03 169.3 101.897 169.3 95.5895C169.3 89.4585 174.88 84.4383 181.859 84.1614C181.203 80.2376 182.457 76.2797 185.362 73.1909C192.495 65.6092 206.165 66.459 211.943 74.9132C213.787 73.9091 215.896 73.3823 218.095 73.3823C224.822 73.3823 230.151 78.3564 229.685 84.1677C236.6 84.5046 242.106 89.4984 242.106 95.589C242.106 101.897 236.199 107.029 228.939 107.029L228.939 107.029Z" fill="#7D4EF1"/>
<path d="M186.086 105.972C186.086 115.351 194.86 122.946 205.6 122.946C216.339 122.946 225.113 115.351 225.113 105.972C225.113 96.5936 216.339 88.9984 205.6 88.9984C194.86 88.9984 186.086 96.5937 186.086 105.972ZM187.936 105.972C187.936 97.54 195.839 90.6446 205.6 90.6446C215.36 90.6446 223.264 97.5399 223.264 105.972C223.264 114.405 215.36 121.3 205.6 121.3C195.84 121.3 187.936 114.405 187.936 105.972Z" fill="#7D4EF1" stroke="#F9FFF9" stroke-width="0.3"/>
<path d="M205.239 112.752C205.239 113.126 205.58 113.394 205.956 113.394C206.331 113.394 206.673 113.126 206.673 112.752V99.9419C206.673 99.5679 206.331 99.2992 205.956 99.2992C205.58 99.2992 205.239 99.5679 205.239 99.9419V112.752Z" fill="#7D4EF1" stroke="#7D4EF1" stroke-width="0.3"/>
<path d="M209.992 104.345C210.133 104.467 210.314 104.526 210.491 104.526L201.918 104.345L205.955 100.837L209.992 104.345ZM200.919 104.345C201.197 104.586 201.64 104.587 201.918 104.345L205.554 99.5936L205.456 99.4804L205.456 99.4804L200.919 103.422C200.629 103.674 200.629 104.093 200.919 104.345ZM210.491 104.526C210.668 104.526 210.85 104.468 210.991 104.345L210.491 104.526Z" fill="#7D4EF1" stroke="#7D4EF1" stroke-width="0.3"/>
</svg>
