<svg width="445" height="265" viewBox="0 0 445 265" fill="none" xmlns="http://www.w3.org/2000/svg">
<g clip-path="url(#clip0_84575_5541)">
<rect width="445" height="265" rx="4" fill="#F8F8FF"/>
<rect x="0.5" y="0.5" width="444" height="264" rx="3.5" stroke="#2D5DEB" stroke-opacity="0.3" stroke-dasharray="5 5"/>
<path d="M118.396 164V152.72H122.492C123.783 152.72 124.871 152.944 125.756 153.392C126.652 153.829 127.33 154.469 127.788 155.312C128.247 156.144 128.476 157.157 128.476 158.352C128.476 159.536 128.247 160.549 127.788 161.392C127.33 162.235 126.652 162.88 125.756 163.328C124.871 163.776 123.783 164 122.492 164H118.396ZM120.46 162.288H122.364C123.73 162.288 124.743 161.963 125.404 161.312C126.066 160.661 126.396 159.675 126.396 158.352C126.396 157.019 126.066 156.032 125.404 155.392C124.743 154.741 123.73 154.416 122.364 154.416H120.46V162.288ZM130.408 164V157.984C130.408 157.643 130.397 157.296 130.376 156.944C130.365 156.592 130.339 156.251 130.296 155.92H132.232L132.456 158.128H132.136C132.243 157.595 132.419 157.152 132.664 156.8C132.92 156.448 133.229 156.187 133.592 156.016C133.955 155.845 134.349 155.76 134.776 155.76C134.968 155.76 135.123 155.771 135.24 155.792C135.357 155.803 135.475 155.829 135.592 155.872L135.576 157.632C135.373 157.547 135.197 157.493 135.048 157.472C134.909 157.451 134.733 157.44 134.52 157.44C134.061 157.44 133.672 157.536 133.352 157.728C133.043 157.92 132.808 158.187 132.648 158.528C132.499 158.869 132.424 159.259 132.424 159.696V164H130.408ZM139.747 164.16C139.043 164.16 138.424 163.995 137.891 163.664C137.358 163.323 136.942 162.837 136.643 162.208C136.344 161.579 136.195 160.827 136.195 159.952C136.195 159.077 136.344 158.331 136.643 157.712C136.942 157.083 137.358 156.603 137.891 156.272C138.424 155.931 139.043 155.76 139.747 155.76C140.43 155.76 141.027 155.931 141.539 156.272C142.062 156.603 142.408 157.051 142.579 157.616H142.403L142.579 155.92H144.499C144.467 156.251 144.435 156.587 144.403 156.928C144.382 157.269 144.371 157.605 144.371 157.936V164H142.387L142.371 162.336H142.563C142.392 162.891 142.046 163.333 141.523 163.664C141 163.995 140.408 164.16 139.747 164.16ZM140.307 162.624C140.936 162.624 141.443 162.405 141.827 161.968C142.211 161.52 142.403 160.848 142.403 159.952C142.403 159.056 142.211 158.389 141.827 157.952C141.443 157.515 140.936 157.296 140.307 157.296C139.678 157.296 139.171 157.515 138.787 157.952C138.403 158.389 138.211 159.056 138.211 159.952C138.211 160.848 138.398 161.52 138.771 161.968C139.155 162.405 139.667 162.624 140.307 162.624ZM150.293 167.584C149.546 167.584 148.869 167.504 148.261 167.344C147.664 167.184 147.13 166.939 146.661 166.608L147.093 165.168C147.402 165.371 147.722 165.536 148.053 165.664C148.384 165.792 148.725 165.888 149.077 165.952C149.429 166.016 149.786 166.048 150.149 166.048C150.896 166.048 151.45 165.861 151.813 165.488C152.186 165.125 152.373 164.603 152.373 163.92V161.984H152.533C152.362 162.539 152.016 162.981 151.493 163.312C150.981 163.643 150.389 163.808 149.717 163.808C148.992 163.808 148.357 163.648 147.813 163.328C147.28 162.997 146.864 162.528 146.565 161.92C146.266 161.312 146.117 160.597 146.117 159.776C146.117 158.955 146.266 158.245 146.565 157.648C146.864 157.04 147.28 156.576 147.813 156.256C148.357 155.925 148.992 155.76 149.717 155.76C150.4 155.76 150.992 155.925 151.493 156.256C152.005 156.576 152.346 157.013 152.517 157.568L152.373 157.472L152.533 155.92H154.469C154.426 156.251 154.394 156.587 154.373 156.928C154.352 157.269 154.341 157.605 154.341 157.936V163.68C154.341 164.949 153.994 165.915 153.301 166.576C152.618 167.248 151.616 167.584 150.293 167.584ZM150.261 162.272C150.901 162.272 151.408 162.059 151.781 161.632C152.165 161.195 152.357 160.576 152.357 159.776C152.357 158.976 152.165 158.363 151.781 157.936C151.408 157.509 150.901 157.296 150.261 157.296C149.61 157.296 149.093 157.509 148.709 157.936C148.325 158.363 148.133 158.976 148.133 159.776C148.133 160.576 148.325 161.195 148.709 161.632C149.093 162.059 149.61 162.272 150.261 162.272ZM170.333 164.16C169.842 163.989 169.373 163.76 168.925 163.472C168.477 163.173 168.071 162.859 167.709 162.528L168.141 162.544C167.65 163.045 167.079 163.44 166.429 163.728C165.778 164.016 165.085 164.16 164.349 164.16C163.527 164.16 162.818 164.032 162.221 163.776C161.623 163.52 161.165 163.168 160.845 162.72C160.525 162.261 160.365 161.728 160.365 161.12C160.365 160.395 160.578 159.776 161.005 159.264C161.431 158.752 162.018 158.272 162.765 157.824L163.309 157.52L163.005 157.888C162.546 157.429 162.205 156.987 161.981 156.56C161.757 156.133 161.645 155.691 161.645 155.232C161.645 154.699 161.773 154.235 162.029 153.84C162.295 153.435 162.663 153.12 163.133 152.896C163.613 152.672 164.173 152.56 164.813 152.56C165.645 152.56 166.322 152.784 166.845 153.232C167.367 153.669 167.629 154.267 167.629 155.024C167.629 155.429 167.549 155.808 167.389 156.16C167.229 156.512 166.967 156.848 166.605 157.168C166.253 157.488 165.789 157.808 165.213 158.128L165.261 157.728L168.061 160.624H167.645C167.922 160.187 168.135 159.675 168.285 159.088C168.434 158.501 168.525 157.883 168.557 157.232H170.237C170.205 158.107 170.066 158.933 169.821 159.712C169.575 160.491 169.245 161.179 168.829 161.776L168.813 161.296C169.101 161.595 169.431 161.867 169.805 162.112C170.178 162.357 170.583 162.56 171.021 162.72L170.333 164.16ZM164.461 162.608C164.994 162.608 165.469 162.507 165.885 162.304C166.311 162.101 166.69 161.803 167.021 161.408L166.973 161.888L163.613 158.48L164.429 158.496L163.965 158.752C163.602 158.976 163.298 159.2 163.053 159.424C162.818 159.648 162.642 159.888 162.525 160.144C162.407 160.389 162.349 160.672 162.349 160.992C162.349 161.493 162.53 161.888 162.893 162.176C163.255 162.464 163.778 162.608 164.461 162.608ZM164.813 153.92C164.407 153.92 164.082 154.037 163.837 154.272C163.591 154.507 163.469 154.816 163.469 155.2C163.469 155.403 163.506 155.595 163.581 155.776C163.655 155.957 163.778 156.155 163.949 156.368C164.119 156.571 164.343 156.821 164.621 157.12L164.141 157.152C164.802 156.789 165.282 156.459 165.581 156.16C165.89 155.851 166.045 155.499 166.045 155.104C166.045 154.731 165.933 154.443 165.709 154.24C165.485 154.027 165.186 153.92 164.813 153.92ZM179.435 164.16C178.731 164.16 178.107 163.995 177.563 163.664C177.03 163.323 176.614 162.837 176.315 162.208C176.016 161.579 175.867 160.827 175.867 159.952C175.867 159.077 176.016 158.331 176.315 157.712C176.614 157.083 177.03 156.603 177.563 156.272C178.107 155.931 178.731 155.76 179.435 155.76C180.107 155.76 180.699 155.925 181.211 156.256C181.734 156.576 182.08 157.013 182.251 157.568H182.043V152.224H184.043V164H182.075V162.288H182.267C182.096 162.864 181.75 163.323 181.227 163.664C180.715 163.995 180.118 164.16 179.435 164.16ZM179.995 162.624C180.624 162.624 181.131 162.405 181.515 161.968C181.899 161.52 182.091 160.848 182.091 159.952C182.091 159.056 181.899 158.389 181.515 157.952C181.131 157.515 180.624 157.296 179.995 157.296C179.366 157.296 178.854 157.515 178.459 157.952C178.075 158.389 177.883 159.056 177.883 159.952C177.883 160.848 178.075 161.52 178.459 161.968C178.854 162.405 179.366 162.624 179.995 162.624ZM186.205 164V157.984C186.205 157.643 186.194 157.296 186.173 156.944C186.162 156.592 186.135 156.251 186.093 155.92H188.029L188.253 158.128H187.933C188.039 157.595 188.215 157.152 188.461 156.8C188.717 156.448 189.026 156.187 189.389 156.016C189.751 155.845 190.146 155.76 190.573 155.76C190.765 155.76 190.919 155.771 191.037 155.792C191.154 155.803 191.271 155.829 191.389 155.872L191.373 157.632C191.17 157.547 190.994 157.493 190.845 157.472C190.706 157.451 190.53 157.44 190.317 157.44C189.858 157.44 189.469 157.536 189.149 157.728C188.839 157.92 188.605 158.187 188.445 158.528C188.295 158.869 188.221 159.259 188.221 159.696V164H186.205ZM196.025 164.16C195.193 164.16 194.473 163.989 193.865 163.648C193.257 163.307 192.782 162.821 192.441 162.192C192.11 161.563 191.945 160.816 191.945 159.952C191.945 159.088 192.11 158.347 192.441 157.728C192.782 157.099 193.257 156.613 193.865 156.272C194.473 155.931 195.193 155.76 196.025 155.76C196.857 155.76 197.577 155.931 198.185 156.272C198.804 156.613 199.278 157.099 199.609 157.728C199.95 158.347 200.121 159.088 200.121 159.952C200.121 160.816 199.95 161.563 199.609 162.192C199.278 162.821 198.804 163.307 198.185 163.648C197.577 163.989 196.857 164.16 196.025 164.16ZM196.025 162.624C196.654 162.624 197.156 162.405 197.529 161.968C197.902 161.52 198.089 160.848 198.089 159.952C198.089 159.056 197.902 158.389 197.529 157.952C197.156 157.515 196.654 157.296 196.025 157.296C195.396 157.296 194.894 157.515 194.521 157.952C194.148 158.389 193.961 159.056 193.961 159.952C193.961 160.848 194.148 161.52 194.521 161.968C194.894 162.405 195.396 162.624 196.025 162.624ZM201.846 167.456V157.936C201.846 157.605 201.835 157.269 201.814 156.928C201.792 156.587 201.76 156.251 201.718 155.92H203.654L203.83 157.616H203.654C203.814 157.051 204.15 156.603 204.662 156.272C205.184 155.931 205.787 155.76 206.47 155.76C207.184 155.76 207.808 155.931 208.342 156.272C208.875 156.603 209.291 157.083 209.59 157.712C209.888 158.331 210.038 159.077 210.038 159.952C210.038 160.827 209.888 161.579 209.59 162.208C209.291 162.837 208.875 163.323 208.342 163.664C207.808 163.995 207.184 164.16 206.47 164.16C205.798 164.16 205.206 163.995 204.694 163.664C204.182 163.333 203.84 162.891 203.67 162.336H203.846V167.456H201.846ZM205.91 162.624C206.55 162.624 207.062 162.405 207.446 161.968C207.83 161.52 208.022 160.848 208.022 159.952C208.022 159.056 207.83 158.389 207.446 157.952C207.062 157.515 206.55 157.296 205.91 157.296C205.28 157.296 204.774 157.515 204.39 157.952C204.006 158.389 203.814 159.056 203.814 159.952C203.814 160.848 204.006 161.52 204.39 161.968C204.774 162.405 205.28 162.624 205.91 162.624ZM216.702 164V157.424H215.15V155.92H217.262L216.702 156.432V155.2C216.702 154.197 216.953 153.44 217.454 152.928C217.966 152.416 218.708 152.16 219.678 152.16C219.913 152.16 220.158 152.176 220.414 152.208C220.681 152.24 220.91 152.299 221.102 152.384V153.952C220.964 153.899 220.798 153.856 220.606 153.824C220.414 153.792 220.228 153.776 220.046 153.776C219.63 153.776 219.3 153.899 219.054 154.144C218.809 154.379 218.686 154.763 218.686 155.296V156.272L218.398 155.92H224.014V164H222.014V157.424H218.702V164H216.702ZM221.902 154.4V152.448H224.126V154.4H221.902ZM226.19 164V152.224H228.19V164H226.19ZM234.265 164.16C232.911 164.16 231.849 163.787 231.081 163.04C230.313 162.293 229.929 161.269 229.929 159.968C229.929 159.125 230.095 158.389 230.425 157.76C230.756 157.131 231.215 156.64 231.801 156.288C232.399 155.936 233.092 155.76 233.881 155.76C234.66 155.76 235.311 155.925 235.833 156.256C236.356 156.587 236.751 157.051 237.017 157.648C237.295 158.245 237.433 158.944 237.433 159.744V160.272H231.545V159.216H236.009L235.737 159.44C235.737 158.693 235.577 158.123 235.257 157.728C234.948 157.333 234.495 157.136 233.897 157.136C233.236 157.136 232.724 157.371 232.361 157.84C232.009 158.309 231.833 158.965 231.833 159.808V160.016C231.833 160.891 232.047 161.547 232.473 161.984C232.911 162.411 233.524 162.624 234.313 162.624C234.772 162.624 235.199 162.565 235.593 162.448C235.999 162.32 236.383 162.117 236.745 161.84L237.337 163.184C236.953 163.493 236.495 163.733 235.961 163.904C235.428 164.075 234.863 164.16 234.265 164.16ZM242.007 164.16C241.314 164.16 240.674 164.08 240.087 163.92C239.511 163.749 239.026 163.515 238.631 163.216L239.191 161.872C239.596 162.149 240.044 162.363 240.535 162.512C241.026 162.661 241.522 162.736 242.023 162.736C242.556 162.736 242.951 162.645 243.207 162.464C243.474 162.283 243.607 162.037 243.607 161.728C243.607 161.483 243.522 161.291 243.351 161.152C243.191 161.003 242.93 160.891 242.567 160.816L240.967 160.512C240.284 160.363 239.762 160.107 239.399 159.744C239.047 159.381 238.871 158.907 238.871 158.32C238.871 157.819 239.004 157.376 239.271 156.992C239.548 156.608 239.938 156.309 240.439 156.096C240.951 155.872 241.548 155.76 242.231 155.76C242.828 155.76 243.388 155.84 243.911 156C244.444 156.16 244.892 156.4 245.255 156.72L244.679 158.016C244.348 157.749 243.97 157.541 243.543 157.392C243.116 157.243 242.7 157.168 242.295 157.168C241.74 157.168 241.335 157.269 241.079 157.472C240.823 157.664 240.695 157.915 240.695 158.224C240.695 158.459 240.77 158.656 240.919 158.816C241.079 158.965 241.324 159.077 241.655 159.152L243.255 159.456C243.97 159.595 244.508 159.84 244.871 160.192C245.244 160.533 245.431 161.003 245.431 161.6C245.431 162.133 245.287 162.592 244.999 162.976C244.711 163.36 244.311 163.653 243.799 163.856C243.287 164.059 242.69 164.16 242.007 164.16ZM255.181 164.16C254.349 164.16 253.629 163.989 253.021 163.648C252.413 163.307 251.939 162.821 251.597 162.192C251.267 161.563 251.101 160.816 251.101 159.952C251.101 159.088 251.267 158.347 251.597 157.728C251.939 157.099 252.413 156.613 253.021 156.272C253.629 155.931 254.349 155.76 255.181 155.76C256.013 155.76 256.733 155.931 257.341 156.272C257.96 156.613 258.435 157.099 258.765 157.728C259.107 158.347 259.277 159.088 259.277 159.952C259.277 160.816 259.107 161.563 258.765 162.192C258.435 162.821 257.96 163.307 257.341 163.648C256.733 163.989 256.013 164.16 255.181 164.16ZM255.181 162.624C255.811 162.624 256.312 162.405 256.685 161.968C257.059 161.52 257.245 160.848 257.245 159.952C257.245 159.056 257.059 158.389 256.685 157.952C256.312 157.515 255.811 157.296 255.181 157.296C254.552 157.296 254.051 157.515 253.677 157.952C253.304 158.389 253.117 159.056 253.117 159.952C253.117 160.848 253.304 161.52 253.677 161.968C254.051 162.405 254.552 162.624 255.181 162.624ZM260.986 164V157.984C260.986 157.643 260.975 157.296 260.954 156.944C260.943 156.592 260.917 156.251 260.874 155.92H262.81L263.034 158.128H262.714C262.821 157.595 262.997 157.152 263.242 156.8C263.498 156.448 263.807 156.187 264.17 156.016C264.533 155.845 264.927 155.76 265.354 155.76C265.546 155.76 265.701 155.771 265.818 155.792C265.935 155.803 266.053 155.829 266.17 155.872L266.154 157.632C265.951 157.547 265.775 157.493 265.626 157.472C265.487 157.451 265.311 157.44 265.098 157.44C264.639 157.44 264.25 157.536 263.93 157.728C263.621 157.92 263.386 158.187 263.226 158.528C263.077 158.869 263.002 159.259 263.002 159.696V164H260.986Z" fill="#0F0F0F"/>
<path d="M271.834 164V152.72H276.778C278.005 152.72 278.949 152.981 279.61 153.504C280.271 154.016 280.602 154.731 280.602 155.648C280.602 156.331 280.399 156.907 279.994 157.376C279.589 157.845 279.029 158.16 278.314 158.32V158.08C279.135 158.197 279.77 158.496 280.218 158.976C280.677 159.445 280.906 160.069 280.906 160.848C280.906 161.851 280.559 162.629 279.866 163.184C279.173 163.728 278.207 164 276.97 164H271.834ZM273.818 162.432H276.73C277.423 162.432 277.962 162.304 278.346 162.048C278.73 161.781 278.922 161.349 278.922 160.752C278.922 160.144 278.73 159.712 278.346 159.456C277.962 159.189 277.423 159.056 276.73 159.056H273.818V162.432ZM273.818 157.504H276.426C277.162 157.504 277.706 157.371 278.058 157.104C278.421 156.827 278.602 156.421 278.602 155.888C278.602 155.355 278.421 154.955 278.058 154.688C277.706 154.411 277.162 154.272 276.426 154.272H273.818V157.504ZM282.705 164V157.984C282.705 157.643 282.694 157.296 282.673 156.944C282.662 156.592 282.635 156.251 282.593 155.92H284.529L284.753 158.128H284.433C284.539 157.595 284.715 157.152 284.961 156.8C285.217 156.448 285.526 156.187 285.889 156.016C286.251 155.845 286.646 155.76 287.073 155.76C287.265 155.76 287.419 155.771 287.537 155.792C287.654 155.803 287.771 155.829 287.889 155.872L287.873 157.632C287.67 157.547 287.494 157.493 287.345 157.472C287.206 157.451 287.03 157.44 286.817 157.44C286.358 157.44 285.969 157.536 285.649 157.728C285.339 157.92 285.105 158.187 284.945 158.528C284.795 158.869 284.721 159.259 284.721 159.696V164H282.705ZM292.525 164.16C291.693 164.16 290.973 163.989 290.365 163.648C289.757 163.307 289.282 162.821 288.941 162.192C288.61 161.563 288.445 160.816 288.445 159.952C288.445 159.088 288.61 158.347 288.941 157.728C289.282 157.099 289.757 156.613 290.365 156.272C290.973 155.931 291.693 155.76 292.525 155.76C293.357 155.76 294.077 155.931 294.685 156.272C295.304 156.613 295.778 157.099 296.109 157.728C296.45 158.347 296.621 159.088 296.621 159.952C296.621 160.816 296.45 161.563 296.109 162.192C295.778 162.821 295.304 163.307 294.685 163.648C294.077 163.989 293.357 164.16 292.525 164.16ZM292.525 162.624C293.154 162.624 293.656 162.405 294.029 161.968C294.402 161.52 294.589 160.848 294.589 159.952C294.589 159.056 294.402 158.389 294.029 157.952C293.656 157.515 293.154 157.296 292.525 157.296C291.896 157.296 291.394 157.515 291.021 157.952C290.648 158.389 290.461 159.056 290.461 159.952C290.461 160.848 290.648 161.52 291.021 161.968C291.394 162.405 291.896 162.624 292.525 162.624ZM300.43 164L297.278 155.92H299.342L301.614 162.208H301.198L303.502 155.92H304.926L307.214 162.208H306.846L309.102 155.92H311.054L307.902 164H306.142L303.726 157.568H304.574L302.206 164H300.43ZM315.038 164.16C314.345 164.16 313.705 164.08 313.118 163.92C312.542 163.749 312.057 163.515 311.662 163.216L312.222 161.872C312.628 162.149 313.076 162.363 313.566 162.512C314.057 162.661 314.553 162.736 315.054 162.736C315.588 162.736 315.982 162.645 316.238 162.464C316.505 162.283 316.638 162.037 316.638 161.728C316.638 161.483 316.553 161.291 316.382 161.152C316.222 161.003 315.961 160.891 315.598 160.816L313.998 160.512C313.316 160.363 312.793 160.107 312.43 159.744C312.078 159.381 311.902 158.907 311.902 158.32C311.902 157.819 312.036 157.376 312.302 156.992C312.58 156.608 312.969 156.309 313.47 156.096C313.982 155.872 314.58 155.76 315.262 155.76C315.86 155.76 316.42 155.84 316.942 156C317.476 156.16 317.924 156.4 318.286 156.72L317.71 158.016C317.38 157.749 317.001 157.541 316.574 157.392C316.148 157.243 315.732 157.168 315.326 157.168C314.772 157.168 314.366 157.269 314.11 157.472C313.854 157.664 313.726 157.915 313.726 158.224C313.726 158.459 313.801 158.656 313.95 158.816C314.11 158.965 314.356 159.077 314.686 159.152L316.286 159.456C317.001 159.595 317.54 159.84 317.902 160.192C318.276 160.533 318.462 161.003 318.462 161.6C318.462 162.133 318.318 162.592 318.03 162.976C317.742 163.36 317.342 163.653 316.83 163.856C316.318 164.059 315.721 164.16 315.038 164.16ZM324.078 164.16C322.723 164.16 321.662 163.787 320.894 163.04C320.126 162.293 319.742 161.269 319.742 159.968C319.742 159.125 319.907 158.389 320.238 157.76C320.569 157.131 321.027 156.64 321.614 156.288C322.211 155.936 322.905 155.76 323.694 155.76C324.473 155.76 325.123 155.925 325.646 156.256C326.169 156.587 326.563 157.051 326.83 157.648C327.107 158.245 327.246 158.944 327.246 159.744V160.272H321.358V159.216H325.822L325.55 159.44C325.55 158.693 325.39 158.123 325.07 157.728C324.761 157.333 324.307 157.136 323.71 157.136C323.049 157.136 322.537 157.371 322.174 157.84C321.822 158.309 321.646 158.965 321.646 159.808V160.016C321.646 160.891 321.859 161.547 322.286 161.984C322.723 162.411 323.337 162.624 324.126 162.624C324.585 162.624 325.011 162.565 325.406 162.448C325.811 162.32 326.195 162.117 326.558 161.84L327.15 163.184C326.766 163.493 326.307 163.733 325.774 163.904C325.241 164.075 324.675 164.16 324.078 164.16Z" fill="#2D5DEB"/>
<path d="M270.586 165.712H327.854V166.416H270.586V165.712Z" fill="#2D5DEB"/>
<path d="M159.711 186.746C159.675 186.806 159.635 186.852 159.591 186.884C159.551 186.912 159.501 186.926 159.441 186.926C159.373 186.926 159.293 186.892 159.201 186.824C159.109 186.756 158.993 186.682 158.853 186.602C158.717 186.518 158.551 186.442 158.355 186.374C158.163 186.306 157.929 186.272 157.653 186.272C157.393 186.272 157.163 186.308 156.963 186.38C156.767 186.448 156.601 186.542 156.465 186.662C156.333 186.782 156.233 186.924 156.165 187.088C156.097 187.248 156.063 187.422 156.063 187.61C156.063 187.85 156.121 188.05 156.237 188.21C156.357 188.366 156.513 188.5 156.705 188.612C156.901 188.724 157.121 188.822 157.365 188.906C157.613 188.986 157.865 189.07 158.121 189.158C158.381 189.246 158.633 189.346 158.877 189.458C159.125 189.566 159.345 189.704 159.537 189.872C159.733 190.04 159.889 190.246 160.005 190.49C160.125 190.734 160.185 191.034 160.185 191.39C160.185 191.766 160.121 192.12 159.993 192.452C159.865 192.78 159.677 193.066 159.429 193.31C159.185 193.554 158.883 193.746 158.523 193.886C158.167 194.026 157.761 194.096 157.305 194.096C156.745 194.096 156.237 193.996 155.781 193.796C155.325 193.592 154.935 193.318 154.611 192.974L154.947 192.422C154.979 192.378 155.017 192.342 155.061 192.314C155.109 192.282 155.161 192.266 155.217 192.266C155.269 192.266 155.327 192.288 155.391 192.332C155.459 192.372 155.535 192.424 155.619 192.488C155.703 192.552 155.799 192.622 155.907 192.698C156.015 192.774 156.137 192.844 156.273 192.908C156.413 192.972 156.571 193.026 156.747 193.07C156.923 193.11 157.121 193.13 157.341 193.13C157.617 193.13 157.863 193.092 158.079 193.016C158.295 192.94 158.477 192.834 158.625 192.698C158.777 192.558 158.893 192.392 158.973 192.2C159.053 192.008 159.093 191.794 159.093 191.558C159.093 191.298 159.033 191.086 158.913 190.922C158.797 190.754 158.643 190.614 158.451 190.502C158.259 190.39 158.039 190.296 157.791 190.22C157.543 190.14 157.291 190.06 157.035 189.98C156.779 189.896 156.527 189.8 156.279 189.692C156.031 189.584 155.811 189.444 155.619 189.272C155.427 189.1 155.271 188.886 155.151 188.63C155.035 188.37 154.977 188.05 154.977 187.67C154.977 187.366 155.035 187.072 155.151 186.788C155.271 186.504 155.443 186.252 155.667 186.032C155.895 185.812 156.173 185.636 156.501 185.504C156.833 185.372 157.213 185.306 157.641 185.306C158.121 185.306 158.557 185.382 158.949 185.534C159.345 185.686 159.693 185.906 159.993 186.194L159.711 186.746ZM166.457 187.922V194H165.821C165.669 194 165.573 193.926 165.533 193.778L165.449 193.124C165.185 193.416 164.889 193.652 164.561 193.832C164.233 194.008 163.857 194.096 163.433 194.096C163.101 194.096 162.807 194.042 162.551 193.934C162.299 193.822 162.087 193.666 161.915 193.466C161.743 193.266 161.613 193.024 161.525 192.74C161.441 192.456 161.399 192.142 161.399 191.798V187.922H162.467V191.798C162.467 192.258 162.571 192.614 162.779 192.866C162.991 193.118 163.313 193.244 163.745 193.244C164.061 193.244 164.355 193.17 164.627 193.022C164.903 192.87 165.157 192.662 165.389 192.398V187.922H166.457ZM169.225 192.536C169.421 192.8 169.635 192.986 169.867 193.094C170.099 193.202 170.359 193.256 170.647 193.256C171.215 193.256 171.651 193.054 171.955 192.65C172.259 192.246 172.411 191.67 172.411 190.922C172.411 190.526 172.375 190.186 172.303 189.902C172.235 189.618 172.135 189.386 172.003 189.206C171.871 189.022 171.709 188.888 171.517 188.804C171.325 188.72 171.107 188.678 170.863 188.678C170.515 188.678 170.209 188.758 169.945 188.918C169.685 189.078 169.445 189.304 169.225 189.596V192.536ZM169.171 188.864C169.427 188.548 169.723 188.294 170.059 188.102C170.395 187.91 170.779 187.814 171.211 187.814C171.563 187.814 171.881 187.882 172.165 188.018C172.449 188.15 172.691 188.348 172.891 188.612C173.091 188.872 173.245 189.196 173.353 189.584C173.461 189.972 173.515 190.418 173.515 190.922C173.515 191.37 173.455 191.788 173.335 192.176C173.215 192.56 173.041 192.894 172.813 193.178C172.589 193.458 172.313 193.68 171.985 193.844C171.661 194.004 171.295 194.084 170.887 194.084C170.515 194.084 170.195 194.022 169.927 193.898C169.663 193.77 169.429 193.594 169.225 193.37V196.058H168.151V187.922H168.793C168.945 187.922 169.039 187.996 169.075 188.144L169.171 188.864ZM175.951 192.536C176.147 192.8 176.361 192.986 176.593 193.094C176.825 193.202 177.085 193.256 177.373 193.256C177.941 193.256 178.377 193.054 178.681 192.65C178.985 192.246 179.137 191.67 179.137 190.922C179.137 190.526 179.101 190.186 179.029 189.902C178.961 189.618 178.861 189.386 178.729 189.206C178.597 189.022 178.435 188.888 178.243 188.804C178.051 188.72 177.833 188.678 177.589 188.678C177.241 188.678 176.935 188.758 176.671 188.918C176.411 189.078 176.171 189.304 175.951 189.596V192.536ZM175.897 188.864C176.153 188.548 176.449 188.294 176.785 188.102C177.121 187.91 177.505 187.814 177.937 187.814C178.289 187.814 178.607 187.882 178.891 188.018C179.175 188.15 179.417 188.348 179.617 188.612C179.817 188.872 179.971 189.196 180.079 189.584C180.187 189.972 180.241 190.418 180.241 190.922C180.241 191.37 180.181 191.788 180.061 192.176C179.941 192.56 179.767 192.894 179.539 193.178C179.315 193.458 179.039 193.68 178.711 193.844C178.387 194.004 178.021 194.084 177.613 194.084C177.241 194.084 176.921 194.022 176.653 193.898C176.389 193.77 176.155 193.594 175.951 193.37V196.058H174.877V187.922H175.519C175.671 187.922 175.765 187.996 175.801 188.144L175.897 188.864ZM184.166 187.826C184.61 187.826 185.01 187.9 185.366 188.048C185.722 188.196 186.026 188.406 186.278 188.678C186.53 188.95 186.722 189.28 186.854 189.668C186.99 190.052 187.058 190.482 187.058 190.958C187.058 191.438 186.99 191.87 186.854 192.254C186.722 192.638 186.53 192.966 186.278 193.238C186.026 193.51 185.722 193.72 185.366 193.868C185.01 194.012 184.61 194.084 184.166 194.084C183.718 194.084 183.314 194.012 182.954 193.868C182.598 193.72 182.294 193.51 182.042 193.238C181.79 192.966 181.596 192.638 181.46 192.254C181.328 191.87 181.262 191.438 181.262 190.958C181.262 190.482 181.328 190.052 181.46 189.668C181.596 189.28 181.79 188.95 182.042 188.678C182.294 188.406 182.598 188.196 182.954 188.048C183.314 187.9 183.718 187.826 184.166 187.826ZM184.166 193.25C184.766 193.25 185.214 193.05 185.51 192.65C185.806 192.246 185.954 191.684 185.954 190.964C185.954 190.24 185.806 189.676 185.51 189.272C185.214 188.868 184.766 188.666 184.166 188.666C183.862 188.666 183.596 188.718 183.368 188.822C183.144 188.926 182.956 189.076 182.804 189.272C182.656 189.468 182.544 189.71 182.468 189.998C182.396 190.282 182.36 190.604 182.36 190.964C182.36 191.684 182.508 192.246 182.804 192.65C183.104 193.05 183.558 193.25 184.166 193.25ZM189.426 189.14C189.618 188.724 189.854 188.4 190.134 188.168C190.414 187.932 190.756 187.814 191.16 187.814C191.288 187.814 191.41 187.828 191.526 187.856C191.646 187.884 191.752 187.928 191.844 187.988L191.766 188.786C191.742 188.886 191.682 188.936 191.586 188.936C191.53 188.936 191.448 188.924 191.34 188.9C191.232 188.876 191.11 188.864 190.974 188.864C190.782 188.864 190.61 188.892 190.458 188.948C190.31 189.004 190.176 189.088 190.056 189.2C189.94 189.308 189.834 189.444 189.738 189.608C189.646 189.768 189.562 189.952 189.486 190.16V194H188.412V187.922H189.024C189.14 187.922 189.22 187.944 189.264 187.988C189.308 188.032 189.338 188.108 189.354 188.216L189.426 189.14ZM194.65 194.096C194.17 194.096 193.8 193.962 193.54 193.694C193.284 193.426 193.156 193.04 193.156 192.536V188.816H192.424C192.36 188.816 192.306 188.798 192.262 188.762C192.218 188.722 192.196 188.662 192.196 188.582V188.156L193.192 188.03L193.438 186.152C193.45 186.092 193.476 186.044 193.516 186.008C193.56 185.968 193.616 185.948 193.684 185.948H194.224V188.042H195.982V188.816H194.224V192.464C194.224 192.72 194.286 192.91 194.41 193.034C194.534 193.158 194.694 193.22 194.89 193.22C195.002 193.22 195.098 193.206 195.178 193.178C195.262 193.146 195.334 193.112 195.394 193.076C195.454 193.04 195.504 193.008 195.544 192.98C195.588 192.948 195.626 192.932 195.658 192.932C195.714 192.932 195.764 192.966 195.808 193.034L196.12 193.544C195.936 193.716 195.714 193.852 195.454 193.952C195.194 194.048 194.926 194.096 194.65 194.096ZM201.117 190.298C201.117 190.05 201.081 189.824 201.009 189.62C200.941 189.412 200.839 189.234 200.703 189.086C200.571 188.934 200.409 188.818 200.217 188.738C200.025 188.654 199.807 188.612 199.563 188.612C199.051 188.612 198.645 188.762 198.345 189.062C198.049 189.358 197.865 189.77 197.793 190.298H201.117ZM201.981 193.148C201.849 193.308 201.691 193.448 201.507 193.568C201.323 193.684 201.125 193.78 200.913 193.856C200.705 193.932 200.489 193.988 200.265 194.024C200.041 194.064 199.819 194.084 199.599 194.084C199.179 194.084 198.791 194.014 198.435 193.874C198.083 193.73 197.777 193.522 197.517 193.25C197.261 192.974 197.061 192.634 196.917 192.23C196.773 191.826 196.701 191.362 196.701 190.838C196.701 190.414 196.765 190.018 196.893 189.65C197.025 189.282 197.213 188.964 197.457 188.696C197.701 188.424 197.999 188.212 198.351 188.06C198.703 187.904 199.099 187.826 199.539 187.826C199.903 187.826 200.239 187.888 200.547 188.012C200.859 188.132 201.127 188.308 201.351 188.54C201.579 188.768 201.757 189.052 201.885 189.392C202.013 189.728 202.077 190.112 202.077 190.544C202.077 190.712 202.059 190.824 202.023 190.88C201.987 190.936 201.919 190.964 201.819 190.964H197.757C197.769 191.348 197.821 191.682 197.913 191.966C198.009 192.25 198.141 192.488 198.309 192.68C198.477 192.868 198.677 193.01 198.909 193.106C199.141 193.198 199.401 193.244 199.689 193.244C199.957 193.244 200.187 193.214 200.379 193.154C200.575 193.09 200.743 193.022 200.883 192.95C201.023 192.878 201.139 192.812 201.231 192.752C201.327 192.688 201.409 192.656 201.477 192.656C201.565 192.656 201.633 192.69 201.681 192.758L201.981 193.148ZM207.349 189.368C207.149 189.1 206.933 188.914 206.701 188.81C206.469 188.702 206.209 188.648 205.921 188.648C205.357 188.648 204.923 188.85 204.619 189.254C204.315 189.658 204.163 190.234 204.163 190.982C204.163 191.378 204.197 191.718 204.265 192.002C204.333 192.282 204.433 192.514 204.565 192.698C204.697 192.878 204.859 193.01 205.051 193.094C205.243 193.178 205.461 193.22 205.705 193.22C206.057 193.22 206.363 193.14 206.623 192.98C206.887 192.82 207.129 192.594 207.349 192.302V189.368ZM208.417 185.162V194H207.781C207.629 194 207.533 193.926 207.493 193.778L207.397 193.04C207.137 193.352 206.841 193.604 206.509 193.796C206.177 193.988 205.793 194.084 205.357 194.084C205.009 194.084 204.693 194.018 204.409 193.886C204.125 193.75 203.883 193.552 203.683 193.292C203.483 193.032 203.329 192.708 203.221 192.32C203.113 191.932 203.059 191.486 203.059 190.982C203.059 190.534 203.119 190.118 203.239 189.734C203.359 189.346 203.531 189.01 203.755 188.726C203.979 188.442 204.253 188.22 204.577 188.06C204.905 187.896 205.273 187.814 205.681 187.814C206.053 187.814 206.371 187.878 206.635 188.006C206.903 188.13 207.141 188.304 207.349 188.528V185.162H208.417ZM213.57 194V188.834L212.898 188.756C212.814 188.736 212.744 188.706 212.688 188.666C212.636 188.622 212.61 188.56 212.61 188.48V188.042H213.57V187.454C213.57 187.106 213.618 186.798 213.714 186.53C213.814 186.258 213.954 186.03 214.134 185.846C214.318 185.658 214.538 185.516 214.794 185.42C215.05 185.324 215.338 185.276 215.658 185.276C215.93 185.276 216.18 185.316 216.408 185.396L216.384 185.93C216.376 186.026 216.322 186.078 216.222 186.086C216.126 186.094 215.996 186.098 215.832 186.098C215.648 186.098 215.48 186.122 215.328 186.17C215.18 186.218 215.052 186.296 214.944 186.404C214.836 186.512 214.752 186.654 214.692 186.83C214.636 187.006 214.608 187.224 214.608 187.484V188.042H216.36V188.816H214.644V194H213.57ZM219.744 187.826C220.188 187.826 220.588 187.9 220.944 188.048C221.3 188.196 221.604 188.406 221.856 188.678C222.108 188.95 222.3 189.28 222.432 189.668C222.568 190.052 222.636 190.482 222.636 190.958C222.636 191.438 222.568 191.87 222.432 192.254C222.3 192.638 222.108 192.966 221.856 193.238C221.604 193.51 221.3 193.72 220.944 193.868C220.588 194.012 220.188 194.084 219.744 194.084C219.296 194.084 218.892 194.012 218.532 193.868C218.176 193.72 217.872 193.51 217.62 193.238C217.368 192.966 217.174 192.638 217.038 192.254C216.906 191.87 216.84 191.438 216.84 190.958C216.84 190.482 216.906 190.052 217.038 189.668C217.174 189.28 217.368 188.95 217.62 188.678C217.872 188.406 218.176 188.196 218.532 188.048C218.892 187.9 219.296 187.826 219.744 187.826ZM219.744 193.25C220.344 193.25 220.792 193.05 221.088 192.65C221.384 192.246 221.532 191.684 221.532 190.964C221.532 190.24 221.384 189.676 221.088 189.272C220.792 188.868 220.344 188.666 219.744 188.666C219.44 188.666 219.174 188.718 218.946 188.822C218.722 188.926 218.534 189.076 218.382 189.272C218.234 189.468 218.122 189.71 218.046 189.998C217.974 190.282 217.938 190.604 217.938 190.964C217.938 191.684 218.086 192.246 218.382 192.65C218.682 193.05 219.136 193.25 219.744 193.25ZM225.005 189.14C225.197 188.724 225.433 188.4 225.713 188.168C225.993 187.932 226.335 187.814 226.739 187.814C226.867 187.814 226.989 187.828 227.105 187.856C227.225 187.884 227.331 187.928 227.423 187.988L227.345 188.786C227.321 188.886 227.261 188.936 227.165 188.936C227.109 188.936 227.027 188.924 226.919 188.9C226.811 188.876 226.689 188.864 226.553 188.864C226.361 188.864 226.189 188.892 226.037 188.948C225.889 189.004 225.755 189.088 225.635 189.2C225.519 189.308 225.413 189.444 225.317 189.608C225.225 189.768 225.141 189.952 225.065 190.16V194H223.991V187.922H224.603C224.719 187.922 224.799 187.944 224.843 187.988C224.887 188.032 224.917 188.108 224.933 188.216L225.005 189.14ZM228.362 194V187.922H229.004C229.156 187.922 229.25 187.996 229.286 188.144L229.364 188.768C229.588 188.492 229.84 188.266 230.12 188.09C230.4 187.914 230.724 187.826 231.092 187.826C231.5 187.826 231.83 187.94 232.082 188.168C232.338 188.396 232.522 188.704 232.634 189.092C232.722 188.872 232.834 188.682 232.97 188.522C233.11 188.362 233.266 188.23 233.438 188.126C233.61 188.022 233.792 187.946 233.984 187.898C234.18 187.85 234.378 187.826 234.578 187.826C234.898 187.826 235.182 187.878 235.43 187.982C235.682 188.082 235.894 188.23 236.066 188.426C236.242 188.622 236.376 188.864 236.468 189.152C236.56 189.436 236.606 189.762 236.606 190.13V194H235.532V190.13C235.532 189.654 235.428 189.294 235.22 189.05C235.012 188.802 234.712 188.678 234.32 188.678C234.144 188.678 233.976 188.71 233.816 188.774C233.66 188.834 233.522 188.924 233.402 189.044C233.282 189.164 233.186 189.316 233.114 189.5C233.046 189.68 233.012 189.89 233.012 190.13V194H231.938V190.13C231.938 189.642 231.84 189.278 231.644 189.038C231.448 188.798 231.162 188.678 230.786 188.678C230.522 188.678 230.278 188.75 230.054 188.894C229.83 189.034 229.624 189.226 229.436 189.47V194H228.362ZM241.523 191.264C241.031 191.28 240.611 191.32 240.263 191.384C239.919 191.444 239.637 191.524 239.417 191.624C239.201 191.724 239.043 191.842 238.943 191.978C238.847 192.114 238.799 192.266 238.799 192.434C238.799 192.594 238.825 192.732 238.877 192.848C238.929 192.964 238.999 193.06 239.087 193.136C239.179 193.208 239.285 193.262 239.405 193.298C239.529 193.33 239.661 193.346 239.801 193.346C239.989 193.346 240.161 193.328 240.317 193.292C240.473 193.252 240.619 193.196 240.755 193.124C240.895 193.052 241.027 192.966 241.151 192.866C241.279 192.766 241.403 192.652 241.523 192.524V191.264ZM238.073 188.78C238.409 188.456 238.771 188.214 239.159 188.054C239.547 187.894 239.977 187.814 240.449 187.814C240.789 187.814 241.091 187.87 241.355 187.982C241.619 188.094 241.841 188.25 242.021 188.45C242.201 188.65 242.337 188.892 242.429 189.176C242.521 189.46 242.567 189.772 242.567 190.112V194H242.093C241.989 194 241.909 193.984 241.853 193.952C241.797 193.916 241.753 193.848 241.721 193.748L241.601 193.172C241.441 193.32 241.285 193.452 241.133 193.568C240.981 193.68 240.821 193.776 240.653 193.856C240.485 193.932 240.305 193.99 240.113 194.03C239.925 194.074 239.715 194.096 239.483 194.096C239.247 194.096 239.025 194.064 238.817 194C238.609 193.932 238.427 193.832 238.271 193.7C238.119 193.568 237.997 193.402 237.905 193.202C237.817 192.998 237.773 192.758 237.773 192.482C237.773 192.242 237.839 192.012 237.971 191.792C238.103 191.568 238.317 191.37 238.613 191.198C238.909 191.026 239.295 190.886 239.771 190.778C240.247 190.666 240.831 190.602 241.523 190.586V190.112C241.523 189.64 241.421 189.284 241.217 189.044C241.013 188.8 240.715 188.678 240.323 188.678C240.059 188.678 239.837 188.712 239.657 188.78C239.481 188.844 239.327 188.918 239.195 189.002C239.067 189.082 238.955 189.156 238.859 189.224C238.767 189.288 238.675 189.32 238.583 189.32C238.511 189.32 238.449 189.302 238.397 189.266C238.345 189.226 238.301 189.178 238.265 189.122L238.073 188.78ZM246.06 194.096C245.58 194.096 245.21 193.962 244.95 193.694C244.694 193.426 244.566 193.04 244.566 192.536V188.816H243.834C243.77 188.816 243.716 188.798 243.672 188.762C243.628 188.722 243.606 188.662 243.606 188.582V188.156L244.602 188.03L244.848 186.152C244.86 186.092 244.886 186.044 244.926 186.008C244.97 185.968 245.026 185.948 245.094 185.948H245.634V188.042H247.392V188.816H245.634V192.464C245.634 192.72 245.696 192.91 245.82 193.034C245.944 193.158 246.104 193.22 246.3 193.22C246.412 193.22 246.508 193.206 246.588 193.178C246.672 193.146 246.744 193.112 246.804 193.076C246.864 193.04 246.914 193.008 246.954 192.98C246.998 192.948 247.036 192.932 247.068 192.932C247.124 192.932 247.174 192.966 247.218 193.034L247.53 193.544C247.346 193.716 247.124 193.852 246.864 193.952C246.604 194.048 246.336 194.096 246.06 194.096ZM252.527 190.298C252.527 190.05 252.491 189.824 252.419 189.62C252.351 189.412 252.249 189.234 252.113 189.086C251.981 188.934 251.819 188.818 251.627 188.738C251.435 188.654 251.217 188.612 250.973 188.612C250.461 188.612 250.055 188.762 249.755 189.062C249.459 189.358 249.275 189.77 249.203 190.298H252.527ZM253.391 193.148C253.259 193.308 253.101 193.448 252.917 193.568C252.733 193.684 252.535 193.78 252.323 193.856C252.115 193.932 251.899 193.988 251.675 194.024C251.451 194.064 251.229 194.084 251.009 194.084C250.589 194.084 250.201 194.014 249.845 193.874C249.493 193.73 249.187 193.522 248.927 193.25C248.671 192.974 248.471 192.634 248.327 192.23C248.183 191.826 248.111 191.362 248.111 190.838C248.111 190.414 248.175 190.018 248.303 189.65C248.435 189.282 248.623 188.964 248.867 188.696C249.111 188.424 249.409 188.212 249.761 188.06C250.113 187.904 250.509 187.826 250.949 187.826C251.313 187.826 251.649 187.888 251.957 188.012C252.269 188.132 252.537 188.308 252.761 188.54C252.989 188.768 253.167 189.052 253.295 189.392C253.423 189.728 253.487 190.112 253.487 190.544C253.487 190.712 253.469 190.824 253.433 190.88C253.397 190.936 253.329 190.964 253.229 190.964H249.167C249.179 191.348 249.231 191.682 249.323 191.966C249.419 192.25 249.551 192.488 249.719 192.68C249.887 192.868 250.087 193.01 250.319 193.106C250.551 193.198 250.811 193.244 251.099 193.244C251.367 193.244 251.597 193.214 251.789 193.154C251.985 193.09 252.153 193.022 252.293 192.95C252.433 192.878 252.549 192.812 252.641 192.752C252.737 192.688 252.819 192.656 252.887 192.656C252.975 192.656 253.043 192.69 253.091 192.758L253.391 193.148ZM258.339 188.924C258.291 189.012 258.217 189.056 258.117 189.056C258.057 189.056 257.989 189.034 257.913 188.99C257.837 188.946 257.743 188.898 257.631 188.846C257.523 188.79 257.393 188.74 257.241 188.696C257.089 188.648 256.909 188.624 256.701 188.624C256.521 188.624 256.359 188.648 256.215 188.696C256.071 188.74 255.947 188.802 255.843 188.882C255.743 188.962 255.665 189.056 255.609 189.164C255.557 189.268 255.531 189.382 255.531 189.506C255.531 189.662 255.575 189.792 255.663 189.896C255.755 190 255.875 190.09 256.023 190.166C256.171 190.242 256.339 190.31 256.527 190.37C256.715 190.426 256.907 190.488 257.103 190.556C257.303 190.62 257.497 190.692 257.685 190.772C257.873 190.852 258.041 190.952 258.189 191.072C258.337 191.192 258.455 191.34 258.543 191.516C258.635 191.688 258.681 191.896 258.681 192.14C258.681 192.42 258.631 192.68 258.531 192.92C258.431 193.156 258.283 193.362 258.087 193.538C257.891 193.71 257.651 193.846 257.367 193.946C257.083 194.046 256.755 194.096 256.383 194.096C255.959 194.096 255.575 194.028 255.231 193.892C254.887 193.752 254.595 193.574 254.355 193.358L254.607 192.95C254.639 192.898 254.677 192.858 254.721 192.83C254.765 192.802 254.821 192.788 254.889 192.788C254.961 192.788 255.037 192.816 255.117 192.872C255.197 192.928 255.293 192.99 255.405 193.058C255.521 193.126 255.661 193.188 255.825 193.244C255.989 193.3 256.193 193.328 256.437 193.328C256.645 193.328 256.827 193.302 256.983 193.25C257.139 193.194 257.269 193.12 257.373 193.028C257.477 192.936 257.553 192.83 257.601 192.71C257.653 192.59 257.679 192.462 257.679 192.326C257.679 192.158 257.633 192.02 257.541 191.912C257.453 191.8 257.335 191.706 257.187 191.63C257.039 191.55 256.869 191.482 256.677 191.426C256.489 191.366 256.295 191.304 256.095 191.24C255.899 191.176 255.705 191.104 255.513 191.024C255.325 190.94 255.157 190.836 255.009 190.712C254.861 190.588 254.741 190.436 254.649 190.256C254.561 190.072 254.517 189.85 254.517 189.59C254.517 189.358 254.565 189.136 254.661 188.924C254.757 188.708 254.897 188.52 255.081 188.36C255.265 188.196 255.491 188.066 255.759 187.97C256.027 187.874 256.333 187.826 256.677 187.826C257.077 187.826 257.435 187.89 257.751 188.018C258.071 188.142 258.347 188.314 258.579 188.534L258.339 188.924ZM259.895 193.34C259.895 193.236 259.913 193.138 259.949 193.046C259.989 192.954 260.041 192.874 260.105 192.806C260.173 192.738 260.253 192.684 260.345 192.644C260.437 192.604 260.535 192.584 260.639 192.584C260.743 192.584 260.841 192.604 260.933 192.644C261.025 192.684 261.105 192.738 261.173 192.806C261.241 192.874 261.295 192.954 261.335 193.046C261.375 193.138 261.395 193.236 261.395 193.34C261.395 193.448 261.375 193.548 261.335 193.64C261.295 193.728 261.241 193.806 261.173 193.874C261.105 193.942 261.025 193.994 260.933 194.03C260.841 194.07 260.743 194.09 260.639 194.09C260.535 194.09 260.437 194.07 260.345 194.03C260.253 193.994 260.173 193.942 260.105 193.874C260.041 193.806 259.989 193.728 259.949 193.64C259.913 193.548 259.895 193.448 259.895 193.34ZM259.895 188.84C259.895 188.736 259.913 188.638 259.949 188.546C259.989 188.454 260.041 188.374 260.105 188.306C260.173 188.238 260.253 188.184 260.345 188.144C260.437 188.104 260.535 188.084 260.639 188.084C260.743 188.084 260.841 188.104 260.933 188.144C261.025 188.184 261.105 188.238 261.173 188.306C261.241 188.374 261.295 188.454 261.335 188.546C261.375 188.638 261.395 188.736 261.395 188.84C261.395 188.948 261.375 189.048 261.335 189.14C261.295 189.228 261.241 189.306 261.173 189.374C261.105 189.442 261.025 189.496 260.933 189.536C260.841 189.572 260.743 189.59 260.639 189.59C260.535 189.59 260.437 189.572 260.345 189.536C260.253 189.496 260.173 189.442 260.105 189.374C260.041 189.306 259.989 189.228 259.949 189.14C259.913 189.048 259.895 188.948 259.895 188.84ZM275.419 192.224C275.483 192.224 275.539 192.25 275.587 192.302L276.049 192.8C275.697 193.208 275.269 193.526 274.765 193.754C274.265 193.982 273.659 194.096 272.947 194.096C272.331 194.096 271.771 193.99 271.267 193.778C270.763 193.562 270.333 193.262 269.977 192.878C269.621 192.49 269.345 192.026 269.149 191.486C268.953 190.946 268.855 190.352 268.855 189.704C268.855 189.056 268.957 188.462 269.161 187.922C269.365 187.382 269.651 186.918 270.019 186.53C270.391 186.142 270.835 185.842 271.351 185.63C271.867 185.414 272.437 185.306 273.061 185.306C273.673 185.306 274.213 185.404 274.681 185.6C275.149 185.796 275.561 186.062 275.917 186.398L275.533 186.932C275.509 186.972 275.477 187.006 275.437 187.034C275.401 187.058 275.351 187.07 275.287 187.07C275.215 187.07 275.127 187.032 275.023 186.956C274.919 186.876 274.783 186.788 274.615 186.692C274.447 186.596 274.237 186.51 273.985 186.434C273.733 186.354 273.423 186.314 273.055 186.314C272.611 186.314 272.205 186.392 271.837 186.548C271.469 186.7 271.151 186.922 270.883 187.214C270.619 187.506 270.413 187.862 270.265 188.282C270.117 188.702 270.043 189.176 270.043 189.704C270.043 190.24 270.119 190.718 270.271 191.138C270.427 191.558 270.637 191.914 270.901 192.206C271.169 192.494 271.483 192.714 271.843 192.866C272.207 193.018 272.599 193.094 273.019 193.094C273.275 193.094 273.505 193.08 273.709 193.052C273.917 193.02 274.107 192.972 274.279 192.908C274.455 192.844 274.617 192.764 274.765 192.668C274.917 192.568 275.067 192.45 275.215 192.314C275.283 192.254 275.351 192.224 275.419 192.224ZM281.797 186.746C281.761 186.806 281.721 186.852 281.677 186.884C281.637 186.912 281.587 186.926 281.527 186.926C281.459 186.926 281.379 186.892 281.287 186.824C281.195 186.756 281.079 186.682 280.939 186.602C280.803 186.518 280.637 186.442 280.441 186.374C280.249 186.306 280.015 186.272 279.739 186.272C279.479 186.272 279.249 186.308 279.049 186.38C278.853 186.448 278.687 186.542 278.551 186.662C278.419 186.782 278.319 186.924 278.251 187.088C278.183 187.248 278.149 187.422 278.149 187.61C278.149 187.85 278.207 188.05 278.323 188.21C278.443 188.366 278.599 188.5 278.791 188.612C278.987 188.724 279.207 188.822 279.451 188.906C279.699 188.986 279.951 189.07 280.207 189.158C280.467 189.246 280.719 189.346 280.963 189.458C281.211 189.566 281.431 189.704 281.623 189.872C281.819 190.04 281.975 190.246 282.091 190.49C282.211 190.734 282.271 191.034 282.271 191.39C282.271 191.766 282.207 192.12 282.079 192.452C281.951 192.78 281.763 193.066 281.515 193.31C281.271 193.554 280.969 193.746 280.609 193.886C280.253 194.026 279.847 194.096 279.391 194.096C278.831 194.096 278.323 193.996 277.867 193.796C277.411 193.592 277.021 193.318 276.697 192.974L277.033 192.422C277.065 192.378 277.103 192.342 277.147 192.314C277.195 192.282 277.247 192.266 277.303 192.266C277.355 192.266 277.413 192.288 277.477 192.332C277.545 192.372 277.621 192.424 277.705 192.488C277.789 192.552 277.885 192.622 277.993 192.698C278.101 192.774 278.223 192.844 278.359 192.908C278.499 192.972 278.657 193.026 278.833 193.07C279.009 193.11 279.207 193.13 279.427 193.13C279.703 193.13 279.949 193.092 280.165 193.016C280.381 192.94 280.563 192.834 280.711 192.698C280.863 192.558 280.979 192.392 281.059 192.2C281.139 192.008 281.179 191.794 281.179 191.558C281.179 191.298 281.119 191.086 280.999 190.922C280.883 190.754 280.729 190.614 280.537 190.502C280.345 190.39 280.125 190.296 279.877 190.22C279.629 190.14 279.377 190.06 279.121 189.98C278.865 189.896 278.613 189.8 278.365 189.692C278.117 189.584 277.897 189.444 277.705 189.272C277.513 189.1 277.357 188.886 277.237 188.63C277.121 188.37 277.063 188.05 277.063 187.67C277.063 187.366 277.121 187.072 277.237 186.788C277.357 186.504 277.529 186.252 277.753 186.032C277.981 185.812 278.259 185.636 278.587 185.504C278.919 185.372 279.299 185.306 279.727 185.306C280.207 185.306 280.643 185.382 281.035 185.534C281.431 185.686 281.779 185.906 282.079 186.194L281.797 186.746ZM290.752 185.402L287.248 194H286.204L282.7 185.402H283.63C283.734 185.402 283.818 185.428 283.882 185.48C283.946 185.532 283.994 185.598 284.026 185.678L286.45 191.744C286.502 191.88 286.552 192.028 286.6 192.188C286.652 192.348 286.698 192.516 286.738 192.692C286.778 192.516 286.82 192.348 286.864 192.188C286.908 192.028 286.956 191.88 287.008 191.744L289.426 185.678C289.45 185.61 289.496 185.548 289.564 185.492C289.636 185.432 289.722 185.402 289.822 185.402H290.752Z" fill="#676767"/>
<path d="M224.028 75.7458L224.12 75.7733L224.124 75.7688C224.562 75.8481 224.996 75.586 225.125 75.1519C226.296 71.2152 229.987 68.465 234.1 68.465C234.587 68.465 234.982 68.0702 234.982 67.5833C234.982 67.0964 234.587 66.7016 234.1 66.7016C229.046 66.7016 224.799 70.0666 223.435 74.6493C223.296 75.1162 223.562 75.6067 224.028 75.7458Z" fill="#2D5DEB" stroke="#F9FFF9" stroke-width="0.3"/>
<path d="M244.344 103.438H239.953C239.549 103.438 239.222 103.111 239.222 102.707C239.222 102.303 239.549 101.975 239.953 101.975H244.344C250.396 101.975 255.32 97.0509 255.32 90.999C255.32 84.9471 250.396 80.023 244.344 80.023H244.238C244.026 80.023 243.824 79.9311 243.685 79.7706C243.546 79.6101 243.483 79.3974 243.514 79.1873C243.579 78.7315 243.612 78.2737 243.612 77.8279C243.612 72.5829 239.344 68.3153 234.099 68.3153C232.059 68.3153 230.113 68.953 228.472 70.1598C228.111 70.4248 227.599 70.3072 227.39 69.9105C222.742 61.0597 210.602 59.8711 204.308 67.5705C201.657 70.8142 200.615 75.0336 201.45 79.146C201.542 79.6002 201.194 80.0236 200.733 80.0236H200.439C194.388 80.0236 189.464 84.9477 189.464 90.9996C189.464 97.0514 194.388 101.976 200.439 101.976H204.83C205.234 101.976 205.562 102.303 205.562 102.707C205.562 103.111 205.234 103.439 204.83 103.439H200.439C193.581 103.439 188 97.8585 188 90.9995C188 84.3329 193.272 78.8742 199.865 78.5731C199.246 74.3066 200.43 70.0029 203.175 66.6444C209.914 58.4004 222.828 59.3244 228.287 68.5171C230.029 67.4252 232.022 66.8524 234.099 66.8524C240.454 66.8524 245.489 72.261 245.049 78.58C251.581 78.9463 256.783 84.3763 256.783 90.999C256.783 97.8585 251.202 103.438 244.343 103.438L244.344 103.438Z" fill="#2D5DEB"/>
<path d="M203.85 102.293C203.85 112.463 212.124 120.737 222.293 120.737C232.463 120.737 240.737 112.463 240.737 102.293C240.737 92.1235 232.463 83.85 222.293 83.85C212.124 83.85 203.85 92.1237 203.85 102.293ZM205.614 102.293C205.614 93.0966 213.096 85.6138 222.293 85.6138C231.49 85.6138 238.973 93.0964 238.973 102.293C238.973 111.49 231.49 118.973 222.293 118.973C213.097 118.973 205.614 111.491 205.614 102.293Z" fill="#2D5DEB" stroke="#F9FFF9" stroke-width="0.3"/>
<path d="M221.942 109.66C221.942 110.038 222.249 110.345 222.628 110.345C223.007 110.345 223.314 110.039 223.314 109.66V95.731C223.314 95.3524 223.007 95.0453 222.628 95.0453C222.249 95.0453 221.942 95.3524 221.942 95.731V109.66Z" fill="#2D5DEB" stroke="#2D5DEB" stroke-width="0.3"/>
<path d="M222.628 96.7009L218.827 100.502L222.628 96.7009ZM222.628 96.7009L226.429 100.502C226.563 100.635 226.739 100.702 226.914 100.702L222.628 96.7009ZM217.858 100.502C218.125 100.769 218.56 100.77 218.827 100.502L226.914 100.702C227.089 100.702 227.265 100.636 227.399 100.502C227.666 100.234 227.666 99.7997 227.399 99.5319L223.113 95.2462C222.845 94.9784 222.411 94.9783 222.143 95.2462C222.143 95.2463 222.143 95.2463 222.143 95.2463L217.858 99.5319C217.59 99.7998 217.59 100.234 217.858 100.502Z" fill="#2D5DEB" stroke="#2D5DEB" stroke-width="0.3"/>
</g>
<defs>
<clipPath id="clip0_84575_5541">
<rect width="445" height="265" fill="white"/>
</clipPath>
</defs>
</svg>
