<svg width="406" height="274" viewBox="0 0 406 274" fill="none" xmlns="http://www.w3.org/2000/svg">
<path d="M13 5C13 2.23857 15.2386 0 18 0H393C395.761 0 398 2.23858 398 5V260C398 262.761 395.761 265 393 265H18C15.2386 265 13 262.761 13 260V5Z" fill="#F8F8FF"/>
<path d="M18 264.5C17.3889 264.5 16.8075 264.378 16.2776 264.159L16.0861 264.621C14.8639 264.114 13.8862 263.136 13.3794 261.914L13.8413 261.722C13.6215 261.193 13.5 260.611 13.5 260V257.548H13V252.644H13.5V247.74H13V242.837H13.5V237.933H13V233.029H13.5V228.125H13V223.221H13.5V218.317H13V213.413H13.5V208.51H13V203.606H13.5V198.702H13V193.798H13.5V188.894H13V183.99H13.5V179.087H13V174.183H13.5V169.279H13V164.375H13.5V159.471H13V154.567H13.5V149.663H13V144.76H13.5V139.856H13V134.952H13.5V130.048H13V125.144H13.5V120.24H13V115.337H13.5V110.433H13V105.529H13.5V100.625H13V95.7212H13.5V90.8173H13V85.9135H13.5V81.0097H13V76.1058H13.5V71.202H13V66.2982H13.5V61.3943H13V56.4905H13.5V51.5866H13V46.6828H13.5V41.779H13V36.8751H13.5V31.9713H13V27.0674H13.5V22.1636H13V17.2598H13.5V12.3559H13V7.45208H13.5V5C13.5 4.38891 13.6215 3.80747 13.8413 3.27758L13.3794 3.08606C13.8862 1.86386 14.8639 0.886228 16.0861 0.379402L16.2776 0.841265C16.8075 0.621528 17.3889 0.5 18 0.5H20.5338V0H25.6014V0.5H30.6689V0H35.7365V0.5H40.8041V0H45.8716V0.5H50.9392V0H56.0068V0.5H61.0743V0H66.1419V0.5H71.2095V0H76.277V0.5H81.3446V0H86.4122V0.5H91.4797V0H96.5473V0.5H101.615V0H106.682V0.5H111.75V0H116.818V0.5H121.885V0H126.953V0.5H132.02V0H137.088V0.5H142.155V0H147.223V0.5H152.291V0H157.358V0.5H162.426V0H167.493V0.5H172.561V0H177.628V0.5H182.696V0H187.763V0.5H192.831V0H197.899V0.5H202.966V0H208.034V0.5H213.101V0H218.169V0.5H223.236V0H228.304V0.5H233.372V0H238.439V0.5H243.507V0H248.574V0.5H253.642V0H258.709V0.5H263.777V0H268.845V0.5H273.912V0H278.98V0.5H284.047V0H289.115V0.5H294.182V0H299.25V0.5H304.318V0H309.385V0.5H314.453V0H319.52V0.5H324.588V0H329.655V0.5H334.723V0H339.79V0.5H344.858V0H349.926V0.5H354.993V0H360.061V0.5H365.128V0H370.196V0.5H375.263V0H380.331V0.5H385.399V0H390.466V0.5H393C393.611 0.5 394.193 0.621529 394.722 0.841266L394.914 0.3794C396.136 0.886227 397.114 1.86386 397.621 3.08606L397.159 3.27759C397.378 3.80748 397.5 4.38892 397.5 5V7.45192H398V12.3558H397.5V17.2596H398V22.1635H397.5V27.0673H398V31.9712H397.5V36.875H398V41.7788H397.5V46.6827H398V51.5865H397.5V56.4904H398V61.3942H397.5V66.2981H398V71.2019H397.5V76.1058H398V81.0096H397.5V85.9135H398V90.8173H397.5V95.7212H398V100.625H397.5V105.529H398V110.433H397.5V115.337H398V120.24H397.5V125.144H398V130.048H397.5V134.952H398V139.856H397.5V144.76H398V149.663H397.5V154.567H398V159.471H397.5V164.375H398V169.279H397.5V174.183H398V179.086H397.5V183.99H398V188.894H397.5V193.798H398V198.702H397.5V203.606H398V208.51H397.5V213.413H398V218.317H397.5V223.221H398V228.125H397.5V233.029H398V237.933H397.5V242.836H398V247.74H397.5V252.644H398V257.548H397.5V260C397.5 260.611 397.378 261.193 397.159 261.722L397.621 261.914C397.114 263.136 396.136 264.114 394.914 264.621L394.722 264.159C394.193 264.378 393.611 264.5 393 264.5H390.466V265H385.399V264.5H380.331V265H375.263V264.5H370.196V265H365.128V264.5H360.061V265H354.993V264.5H349.926V265H344.858V264.5H339.791V265H334.723V264.5H329.655V265H324.588V264.5H319.52V265H314.453V264.5H309.385V265H304.318V264.5H299.25V265H294.182V264.5H289.115V265H284.047V264.5H278.98V265H273.912V264.5H268.845V265H263.777V264.5H258.709V265H253.642V264.5H248.574V265H243.507V264.5H238.439V265H233.372V264.5H228.304V265H223.236V264.5H218.169V265H213.101V264.5H208.034V265H202.966V264.5H197.899V265H192.831V264.5H187.764V265H182.696V264.5H177.628V265H172.561V264.5H167.493V265H162.426V264.5H157.358V265H152.291V264.5H147.223V265H142.155V264.5H137.088V265H132.02V264.5H126.953V265H121.885V264.5H116.818V265H111.75V264.5H106.682V265H101.615V264.5H96.5473V265H91.4798V264.5H86.4122V265H81.3446V264.5H76.2771V265H71.2095V264.5H66.1419V265H61.0744V264.5H56.0068V265H50.9392V264.5H45.8717V265H40.8041V264.5H35.7366V265H30.669V264.5H25.6014V265H20.5338V264.5H18Z" stroke="#2D5DEB" stroke-opacity="0.3" stroke-dasharray="5 5"/>
<path d="M111.709 167.895V156.615H113.773V167.895H111.709ZM116.096 167.895V161.831C116.096 161.5 116.085 161.164 116.064 160.823C116.042 160.481 116.01 160.145 115.968 159.815H117.904L118.064 161.415H117.872C118.096 160.86 118.437 160.428 118.896 160.119C119.365 159.809 119.92 159.655 120.56 159.655C121.2 159.655 121.728 159.809 122.144 160.119C122.57 160.417 122.869 160.887 123.04 161.527H122.784C123.008 160.951 123.376 160.497 123.888 160.167C124.4 159.825 124.986 159.655 125.648 159.655C126.554 159.655 127.232 159.921 127.68 160.455C128.128 160.988 128.352 161.82 128.352 162.951V167.895H126.352V163.031C126.352 162.391 126.245 161.932 126.032 161.655C125.818 161.367 125.477 161.223 125.008 161.223C124.453 161.223 124.016 161.42 123.696 161.815C123.376 162.199 123.216 162.721 123.216 163.383V167.895H121.216V163.031C121.216 162.391 121.109 161.932 120.896 161.655C120.682 161.367 120.341 161.223 119.872 161.223C119.317 161.223 118.88 161.42 118.56 161.815C118.25 162.199 118.096 162.721 118.096 163.383V167.895H116.096ZM130.486 171.351V161.831C130.486 161.5 130.476 161.164 130.454 160.823C130.433 160.481 130.401 160.145 130.358 159.815H132.294L132.47 161.511H132.294C132.454 160.945 132.79 160.497 133.302 160.167C133.825 159.825 134.428 159.655 135.11 159.655C135.825 159.655 136.449 159.825 136.982 160.167C137.516 160.497 137.932 160.977 138.23 161.607C138.529 162.225 138.678 162.972 138.678 163.847C138.678 164.721 138.529 165.473 138.23 166.103C137.932 166.732 137.516 167.217 136.982 167.559C136.449 167.889 135.825 168.055 135.11 168.055C134.438 168.055 133.846 167.889 133.334 167.559C132.822 167.228 132.481 166.785 132.31 166.231H132.486V171.351H130.486ZM134.55 166.519C135.19 166.519 135.702 166.3 136.086 165.863C136.47 165.415 136.662 164.743 136.662 163.847C136.662 162.951 136.47 162.284 136.086 161.847C135.702 161.409 135.19 161.191 134.55 161.191C133.921 161.191 133.414 161.409 133.03 161.847C132.646 162.284 132.454 162.951 132.454 163.847C132.454 164.743 132.646 165.415 133.03 165.863C133.414 166.3 133.921 166.519 134.55 166.519ZM144.056 168.055C143.224 168.055 142.504 167.884 141.896 167.543C141.288 167.201 140.814 166.716 140.472 166.087C140.142 165.457 139.976 164.711 139.976 163.847C139.976 162.983 140.142 162.241 140.472 161.623C140.814 160.993 141.288 160.508 141.896 160.167C142.504 159.825 143.224 159.655 144.056 159.655C144.888 159.655 145.608 159.825 146.216 160.167C146.835 160.508 147.31 160.993 147.64 161.623C147.982 162.241 148.152 162.983 148.152 163.847C148.152 164.711 147.982 165.457 147.64 166.087C147.31 166.716 146.835 167.201 146.216 167.543C145.608 167.884 144.888 168.055 144.056 168.055ZM144.056 166.519C144.686 166.519 145.187 166.3 145.56 165.863C145.934 165.415 146.12 164.743 146.12 163.847C146.12 162.951 145.934 162.284 145.56 161.847C145.187 161.409 144.686 161.191 144.056 161.191C143.427 161.191 142.926 161.409 142.552 161.847C142.179 162.284 141.992 162.951 141.992 163.847C141.992 164.743 142.179 165.415 142.552 165.863C142.926 166.3 143.427 166.519 144.056 166.519ZM149.861 167.895V161.879C149.861 161.537 149.85 161.191 149.829 160.839C149.818 160.487 149.792 160.145 149.749 159.815H151.685L151.909 162.023H151.589C151.696 161.489 151.872 161.047 152.117 160.695C152.373 160.343 152.682 160.081 153.045 159.911C153.408 159.74 153.802 159.655 154.229 159.655C154.421 159.655 154.576 159.665 154.693 159.687C154.81 159.697 154.928 159.724 155.045 159.767L155.029 161.527C154.826 161.441 154.65 161.388 154.501 161.367C154.362 161.345 154.186 161.335 153.973 161.335C153.514 161.335 153.125 161.431 152.805 161.623C152.496 161.815 152.261 162.081 152.101 162.423C151.952 162.764 151.877 163.153 151.877 163.591V167.895H149.861ZM160.067 168.055C159.107 168.055 158.382 167.804 157.891 167.303C157.401 166.801 157.155 166.049 157.155 165.047V161.319H155.603V159.815H157.155V157.751L159.155 157.239V159.815H161.315V161.319H159.155V164.919C159.155 165.473 159.262 165.863 159.475 166.087C159.689 166.311 159.982 166.423 160.355 166.423C160.558 166.423 160.729 166.407 160.867 166.375C161.017 166.343 161.161 166.3 161.299 166.247V167.831C161.118 167.905 160.915 167.959 160.691 167.991C160.478 168.033 160.27 168.055 160.067 168.055ZM166.905 171.527L166.441 169.943C166.942 169.836 167.363 169.713 167.705 169.575C168.046 169.436 168.329 169.255 168.553 169.031C168.777 168.807 168.963 168.519 169.113 168.167L169.513 167.223L169.465 168.007L165.945 159.815H168.073L170.601 166.119H170.137L172.681 159.815H174.697L171.017 168.343C170.771 168.919 170.505 169.393 170.217 169.767C169.929 170.151 169.619 170.455 169.289 170.679C168.958 170.913 168.595 171.095 168.201 171.223C167.806 171.351 167.374 171.452 166.905 171.527ZM179.244 168.055C178.412 168.055 177.692 167.884 177.084 167.543C176.476 167.201 176.001 166.716 175.66 166.087C175.329 165.457 175.164 164.711 175.164 163.847C175.164 162.983 175.329 162.241 175.66 161.623C176.001 160.993 176.476 160.508 177.084 160.167C177.692 159.825 178.412 159.655 179.244 159.655C180.076 159.655 180.796 159.825 181.404 160.167C182.022 160.508 182.497 160.993 182.828 161.623C183.169 162.241 183.34 162.983 183.34 163.847C183.34 164.711 183.169 165.457 182.828 166.087C182.497 166.716 182.022 167.201 181.404 167.543C180.796 167.884 180.076 168.055 179.244 168.055ZM179.244 166.519C179.873 166.519 180.374 166.3 180.748 165.863C181.121 165.415 181.308 164.743 181.308 163.847C181.308 162.951 181.121 162.284 180.748 161.847C180.374 161.409 179.873 161.191 179.244 161.191C178.614 161.191 178.113 161.409 177.74 161.847C177.366 162.284 177.18 162.951 177.18 163.847C177.18 164.743 177.366 165.415 177.74 165.863C178.113 166.3 178.614 166.519 179.244 166.519ZM187.977 168.055C186.985 168.055 186.243 167.783 185.753 167.239C185.262 166.695 185.017 165.863 185.017 164.743V159.815H187.017V164.727C187.017 165.324 187.139 165.767 187.385 166.055C187.63 166.332 188.003 166.471 188.505 166.471C189.07 166.471 189.529 166.279 189.881 165.895C190.243 165.511 190.425 165.004 190.425 164.375V159.815H192.425V167.895H190.473V166.247H190.697C190.462 166.823 190.105 167.271 189.625 167.591C189.155 167.9 188.606 168.055 187.977 168.055ZM194.58 167.895V161.879C194.58 161.537 194.569 161.191 194.548 160.839C194.537 160.487 194.51 160.145 194.468 159.815H196.404L196.628 162.023H196.308C196.414 161.489 196.59 161.047 196.836 160.695C197.092 160.343 197.401 160.081 197.764 159.911C198.126 159.74 198.521 159.655 198.948 159.655C199.14 159.655 199.294 159.665 199.412 159.687C199.529 159.697 199.646 159.724 199.764 159.767L199.748 161.527C199.545 161.441 199.369 161.388 199.22 161.367C199.081 161.345 198.905 161.335 198.692 161.335C198.233 161.335 197.844 161.431 197.524 161.623C197.214 161.815 196.98 162.081 196.82 162.423C196.67 162.764 196.596 163.153 196.596 163.591V167.895H194.58ZM268.299 167.895V156.119H270.299V161.431H270.075C270.32 160.855 270.699 160.417 271.211 160.119C271.723 159.809 272.31 159.655 272.971 159.655C273.931 159.655 274.646 159.927 275.115 160.471C275.584 161.004 275.819 161.82 275.819 162.919V167.895H273.819V163.015C273.819 162.385 273.696 161.932 273.451 161.655C273.216 161.367 272.838 161.223 272.315 161.223C271.707 161.223 271.216 161.415 270.843 161.799C270.48 162.172 270.299 162.673 270.299 163.303V167.895H268.299ZM281.844 168.055C280.489 168.055 279.428 167.681 278.66 166.935C277.892 166.188 277.508 165.164 277.508 163.863C277.508 163.02 277.673 162.284 278.004 161.655C278.334 161.025 278.793 160.535 279.38 160.183C279.977 159.831 280.67 159.655 281.46 159.655C282.238 159.655 282.889 159.82 283.412 160.151C283.934 160.481 284.329 160.945 284.596 161.543C284.873 162.14 285.012 162.839 285.012 163.639V164.167H279.124V163.111H283.588L283.316 163.335C283.316 162.588 283.156 162.017 282.836 161.623C282.526 161.228 282.073 161.031 281.476 161.031C280.814 161.031 280.302 161.265 279.94 161.735C279.588 162.204 279.412 162.86 279.412 163.703V163.911C279.412 164.785 279.625 165.441 280.052 165.879C280.489 166.305 281.102 166.519 281.892 166.519C282.35 166.519 282.777 166.46 283.172 166.343C283.577 166.215 283.961 166.012 284.324 165.735L284.916 167.079C284.532 167.388 284.073 167.628 283.54 167.799C283.006 167.969 282.441 168.055 281.844 168.055ZM286.689 167.895V161.879C286.689 161.537 286.679 161.191 286.657 160.839C286.647 160.487 286.62 160.145 286.577 159.815H288.513L288.737 162.023H288.417C288.524 161.489 288.7 161.047 288.945 160.695C289.201 160.343 289.511 160.081 289.873 159.911C290.236 159.74 290.631 159.655 291.057 159.655C291.249 159.655 291.404 159.665 291.521 159.687C291.639 159.697 291.756 159.724 291.873 159.767L291.857 161.527C291.655 161.441 291.479 161.388 291.329 161.367C291.191 161.345 291.015 161.335 290.801 161.335C290.343 161.335 289.953 161.431 289.633 161.623C289.324 161.815 289.089 162.081 288.929 162.423C288.78 162.764 288.705 163.153 288.705 163.591V167.895H286.689ZM296.765 168.055C295.411 168.055 294.349 167.681 293.581 166.935C292.813 166.188 292.429 165.164 292.429 163.863C292.429 163.02 292.595 162.284 292.925 161.655C293.256 161.025 293.715 160.535 294.301 160.183C294.899 159.831 295.592 159.655 296.381 159.655C297.16 159.655 297.811 159.82 298.333 160.151C298.856 160.481 299.251 160.945 299.517 161.543C299.795 162.14 299.933 162.839 299.933 163.639V164.167H294.045V163.111H298.509L298.237 163.335C298.237 162.588 298.077 162.017 297.757 161.623C297.448 161.228 296.995 161.031 296.397 161.031C295.736 161.031 295.224 161.265 294.861 161.735C294.509 162.204 294.333 162.86 294.333 163.703V163.911C294.333 164.785 294.547 165.441 294.973 165.879C295.411 166.305 296.024 166.519 296.813 166.519C297.272 166.519 297.699 166.46 298.093 166.343C298.499 166.215 298.883 166.012 299.245 165.735L299.837 167.079C299.453 167.388 298.995 167.628 298.461 167.799C297.928 167.969 297.363 168.055 296.765 168.055Z" fill="#0F0F0F"/>
<path d="M208.404 168.055C207.7 168.055 207.076 167.889 206.532 167.559C205.998 167.217 205.582 166.732 205.284 166.103C204.985 165.473 204.836 164.721 204.836 163.847C204.836 162.972 204.985 162.225 205.284 161.607C205.582 160.977 205.998 160.497 206.532 160.167C207.076 159.825 207.7 159.655 208.404 159.655C209.076 159.655 209.668 159.82 210.18 160.151C210.702 160.471 211.049 160.908 211.22 161.463H211.012V156.119H213.012V167.895H211.044V166.183H211.236C211.065 166.759 210.718 167.217 210.196 167.559C209.684 167.889 209.086 168.055 208.404 168.055ZM208.964 166.519C209.593 166.519 210.1 166.3 210.484 165.863C210.868 165.415 211.06 164.743 211.06 163.847C211.06 162.951 210.868 162.284 210.484 161.847C210.1 161.409 209.593 161.191 208.964 161.191C208.334 161.191 207.822 161.409 207.428 161.847C207.044 162.284 206.852 162.951 206.852 163.847C206.852 164.743 207.044 165.415 207.428 165.863C207.822 166.3 208.334 166.519 208.964 166.519ZM218.31 168.055C217.606 168.055 216.987 167.889 216.454 167.559C215.92 167.217 215.504 166.732 215.206 166.103C214.907 165.473 214.758 164.721 214.758 163.847C214.758 162.972 214.907 162.225 215.206 161.607C215.504 160.977 215.92 160.497 216.454 160.167C216.987 159.825 217.606 159.655 218.31 159.655C218.992 159.655 219.59 159.825 220.102 160.167C220.624 160.497 220.971 160.945 221.142 161.511H220.966L221.142 159.815H223.062C223.03 160.145 222.998 160.481 222.966 160.823C222.944 161.164 222.934 161.5 222.934 161.831V167.895H220.95L220.934 166.231H221.126C220.955 166.785 220.608 167.228 220.086 167.559C219.563 167.889 218.971 168.055 218.31 168.055ZM218.87 166.519C219.499 166.519 220.006 166.3 220.39 165.863C220.774 165.415 220.966 164.743 220.966 163.847C220.966 162.951 220.774 162.284 220.39 161.847C220.006 161.409 219.499 161.191 218.87 161.191C218.24 161.191 217.734 161.409 217.35 161.847C216.966 162.284 216.774 162.951 216.774 163.847C216.774 164.743 216.96 165.415 217.334 165.863C217.718 166.3 218.23 166.519 218.87 166.519ZM228.567 168.055C227.607 168.055 226.882 167.804 226.391 167.303C225.901 166.801 225.655 166.049 225.655 165.047V161.319H224.103V159.815H225.655V157.751L227.655 157.239V159.815H229.815V161.319H227.655V164.919C227.655 165.473 227.762 165.863 227.975 166.087C228.189 166.311 228.482 166.423 228.855 166.423C229.058 166.423 229.229 166.407 229.367 166.375C229.517 166.343 229.661 166.3 229.799 166.247V167.831C229.618 167.905 229.415 167.959 229.191 167.991C228.978 168.033 228.77 168.055 228.567 168.055ZM234.294 168.055C233.59 168.055 232.971 167.889 232.438 167.559C231.905 167.217 231.489 166.732 231.19 166.103C230.891 165.473 230.742 164.721 230.742 163.847C230.742 162.972 230.891 162.225 231.19 161.607C231.489 160.977 231.905 160.497 232.438 160.167C232.971 159.825 233.59 159.655 234.294 159.655C234.977 159.655 235.574 159.825 236.086 160.167C236.609 160.497 236.955 160.945 237.126 161.511H236.95L237.126 159.815H239.046C239.014 160.145 238.982 160.481 238.95 160.823C238.929 161.164 238.918 161.5 238.918 161.831V167.895H236.934L236.918 166.231H237.11C236.939 166.785 236.593 167.228 236.07 167.559C235.547 167.889 234.955 168.055 234.294 168.055ZM234.854 166.519C235.483 166.519 235.99 166.3 236.374 165.863C236.758 165.415 236.95 164.743 236.95 163.847C236.95 162.951 236.758 162.284 236.374 161.847C235.99 161.409 235.483 161.191 234.854 161.191C234.225 161.191 233.718 161.409 233.334 161.847C232.95 162.284 232.758 162.951 232.758 163.847C232.758 164.743 232.945 165.415 233.318 165.863C233.702 166.3 234.214 166.519 234.854 166.519ZM243.976 168.055C243.282 168.055 242.642 167.975 242.056 167.815C241.48 167.644 240.994 167.409 240.6 167.111L241.16 165.767C241.565 166.044 242.013 166.257 242.504 166.407C242.994 166.556 243.49 166.631 243.992 166.631C244.525 166.631 244.92 166.54 245.176 166.359C245.442 166.177 245.576 165.932 245.576 165.623C245.576 165.377 245.49 165.185 245.32 165.047C245.16 164.897 244.898 164.785 244.536 164.711L242.936 164.407C242.253 164.257 241.73 164.001 241.368 163.639C241.016 163.276 240.84 162.801 240.84 162.215C240.84 161.713 240.973 161.271 241.24 160.887C241.517 160.503 241.906 160.204 242.408 159.991C242.92 159.767 243.517 159.655 244.2 159.655C244.797 159.655 245.357 159.735 245.88 159.895C246.413 160.055 246.861 160.295 247.224 160.615L246.648 161.911C246.317 161.644 245.938 161.436 245.512 161.287C245.085 161.137 244.669 161.063 244.264 161.063C243.709 161.063 243.304 161.164 243.048 161.367C242.792 161.559 242.664 161.809 242.664 162.119C242.664 162.353 242.738 162.551 242.888 162.711C243.048 162.86 243.293 162.972 243.624 163.047L245.224 163.351C245.938 163.489 246.477 163.735 246.84 164.087C247.213 164.428 247.4 164.897 247.4 165.495C247.4 166.028 247.256 166.487 246.968 166.871C246.68 167.255 246.28 167.548 245.768 167.751C245.256 167.953 244.658 168.055 243.976 168.055ZM253.015 168.055C251.661 168.055 250.599 167.681 249.831 166.935C249.063 166.188 248.679 165.164 248.679 163.863C248.679 163.02 248.845 162.284 249.175 161.655C249.506 161.025 249.965 160.535 250.551 160.183C251.149 159.831 251.842 159.655 252.631 159.655C253.41 159.655 254.061 159.82 254.583 160.151C255.106 160.481 255.501 160.945 255.767 161.543C256.045 162.14 256.183 162.839 256.183 163.639V164.167H250.295V163.111H254.759L254.487 163.335C254.487 162.588 254.327 162.017 254.007 161.623C253.698 161.228 253.245 161.031 252.647 161.031C251.986 161.031 251.474 161.265 251.111 161.735C250.759 162.204 250.583 162.86 250.583 163.703V163.911C250.583 164.785 250.797 165.441 251.223 165.879C251.661 166.305 252.274 166.519 253.063 166.519C253.522 166.519 253.949 166.46 254.343 166.343C254.749 166.215 255.133 166.012 255.495 165.735L256.087 167.079C255.703 167.388 255.245 167.628 254.711 167.799C254.178 167.969 253.613 168.055 253.015 168.055ZM261.302 168.055C260.342 168.055 259.616 167.804 259.126 167.303C258.635 166.801 258.39 166.049 258.39 165.047V161.319H256.838V159.815H258.39V157.751L260.39 157.239V159.815H262.55V161.319H260.39V164.919C260.39 165.473 260.496 165.863 260.71 166.087C260.923 166.311 261.216 166.423 261.59 166.423C261.792 166.423 261.963 166.407 262.102 166.375C262.251 166.343 262.395 166.3 262.534 166.247V167.831C262.352 167.905 262.15 167.959 261.926 167.991C261.712 168.033 261.504 168.055 261.302 168.055Z" fill="#7D4EF1"/>
<path d="M142.711 190.641C142.675 190.701 142.635 190.747 142.591 190.779C142.551 190.807 142.501 190.821 142.441 190.821C142.373 190.821 142.293 190.787 142.201 190.719C142.109 190.651 141.993 190.577 141.853 190.497C141.717 190.413 141.551 190.337 141.355 190.269C141.163 190.201 140.929 190.167 140.653 190.167C140.393 190.167 140.163 190.203 139.963 190.275C139.767 190.343 139.601 190.437 139.465 190.557C139.333 190.677 139.233 190.819 139.165 190.983C139.097 191.143 139.063 191.317 139.063 191.505C139.063 191.745 139.121 191.945 139.237 192.105C139.357 192.261 139.513 192.395 139.705 192.507C139.901 192.619 140.121 192.717 140.365 192.801C140.613 192.881 140.865 192.965 141.121 193.053C141.381 193.141 141.633 193.241 141.877 193.353C142.125 193.461 142.345 193.599 142.537 193.767C142.733 193.935 142.889 194.141 143.005 194.385C143.125 194.629 143.185 194.929 143.185 195.285C143.185 195.661 143.121 196.015 142.993 196.347C142.865 196.675 142.677 196.961 142.429 197.205C142.185 197.449 141.883 197.641 141.523 197.781C141.167 197.921 140.761 197.991 140.305 197.991C139.745 197.991 139.237 197.891 138.781 197.691C138.325 197.487 137.935 197.213 137.611 196.869L137.947 196.317C137.979 196.273 138.017 196.237 138.061 196.209C138.109 196.177 138.161 196.161 138.217 196.161C138.269 196.161 138.327 196.183 138.391 196.227C138.459 196.267 138.535 196.319 138.619 196.383C138.703 196.447 138.799 196.517 138.907 196.593C139.015 196.669 139.137 196.739 139.273 196.803C139.413 196.867 139.571 196.921 139.747 196.965C139.923 197.005 140.121 197.025 140.341 197.025C140.617 197.025 140.863 196.987 141.079 196.911C141.295 196.835 141.477 196.729 141.625 196.593C141.777 196.453 141.893 196.287 141.973 196.095C142.053 195.903 142.093 195.689 142.093 195.453C142.093 195.193 142.033 194.981 141.913 194.817C141.797 194.649 141.643 194.509 141.451 194.397C141.259 194.285 141.039 194.191 140.791 194.115C140.543 194.035 140.291 193.955 140.035 193.875C139.779 193.791 139.527 193.695 139.279 193.587C139.031 193.479 138.811 193.339 138.619 193.167C138.427 192.995 138.271 192.781 138.151 192.525C138.035 192.265 137.977 191.945 137.977 191.565C137.977 191.261 138.035 190.967 138.151 190.683C138.271 190.399 138.443 190.147 138.667 189.927C138.895 189.707 139.173 189.531 139.501 189.399C139.833 189.267 140.213 189.201 140.641 189.201C141.121 189.201 141.557 189.277 141.949 189.429C142.345 189.581 142.693 189.801 142.993 190.089L142.711 190.641ZM149.457 191.817V197.895H148.821C148.669 197.895 148.573 197.821 148.533 197.673L148.449 197.019C148.185 197.311 147.889 197.547 147.561 197.727C147.233 197.903 146.857 197.991 146.433 197.991C146.101 197.991 145.807 197.937 145.551 197.829C145.299 197.717 145.087 197.561 144.915 197.361C144.743 197.161 144.613 196.919 144.525 196.635C144.441 196.351 144.399 196.037 144.399 195.693V191.817H145.467V195.693C145.467 196.153 145.571 196.509 145.779 196.761C145.991 197.013 146.313 197.139 146.745 197.139C147.061 197.139 147.355 197.065 147.627 196.917C147.903 196.765 148.157 196.557 148.389 196.293V191.817H149.457ZM152.225 196.431C152.421 196.695 152.635 196.881 152.867 196.989C153.099 197.097 153.359 197.151 153.647 197.151C154.215 197.151 154.651 196.949 154.955 196.545C155.259 196.141 155.411 195.565 155.411 194.817C155.411 194.421 155.375 194.081 155.303 193.797C155.235 193.513 155.135 193.281 155.003 193.101C154.871 192.917 154.709 192.783 154.517 192.699C154.325 192.615 154.107 192.573 153.863 192.573C153.515 192.573 153.209 192.653 152.945 192.813C152.685 192.973 152.445 193.199 152.225 193.491V196.431ZM152.171 192.759C152.427 192.443 152.723 192.189 153.059 191.997C153.395 191.805 153.779 191.709 154.211 191.709C154.563 191.709 154.881 191.777 155.165 191.913C155.449 192.045 155.691 192.243 155.891 192.507C156.091 192.767 156.245 193.091 156.353 193.479C156.461 193.867 156.515 194.313 156.515 194.817C156.515 195.265 156.455 195.683 156.335 196.071C156.215 196.455 156.041 196.789 155.813 197.073C155.589 197.353 155.313 197.575 154.985 197.739C154.661 197.899 154.295 197.979 153.887 197.979C153.515 197.979 153.195 197.917 152.927 197.793C152.663 197.665 152.429 197.489 152.225 197.265V199.953H151.151V191.817H151.793C151.945 191.817 152.039 191.891 152.075 192.039L152.171 192.759ZM158.951 196.431C159.147 196.695 159.361 196.881 159.593 196.989C159.825 197.097 160.085 197.151 160.373 197.151C160.941 197.151 161.377 196.949 161.681 196.545C161.985 196.141 162.137 195.565 162.137 194.817C162.137 194.421 162.101 194.081 162.029 193.797C161.961 193.513 161.861 193.281 161.729 193.101C161.597 192.917 161.435 192.783 161.243 192.699C161.051 192.615 160.833 192.573 160.589 192.573C160.241 192.573 159.935 192.653 159.671 192.813C159.411 192.973 159.171 193.199 158.951 193.491V196.431ZM158.897 192.759C159.153 192.443 159.449 192.189 159.785 191.997C160.121 191.805 160.505 191.709 160.937 191.709C161.289 191.709 161.607 191.777 161.891 191.913C162.175 192.045 162.417 192.243 162.617 192.507C162.817 192.767 162.971 193.091 163.079 193.479C163.187 193.867 163.241 194.313 163.241 194.817C163.241 195.265 163.181 195.683 163.061 196.071C162.941 196.455 162.767 196.789 162.539 197.073C162.315 197.353 162.039 197.575 161.711 197.739C161.387 197.899 161.021 197.979 160.613 197.979C160.241 197.979 159.921 197.917 159.653 197.793C159.389 197.665 159.155 197.489 158.951 197.265V199.953H157.877V191.817H158.519C158.671 191.817 158.765 191.891 158.801 192.039L158.897 192.759ZM167.166 191.721C167.61 191.721 168.01 191.795 168.366 191.943C168.722 192.091 169.026 192.301 169.278 192.573C169.53 192.845 169.722 193.175 169.854 193.563C169.99 193.947 170.058 194.377 170.058 194.853C170.058 195.333 169.99 195.765 169.854 196.149C169.722 196.533 169.53 196.861 169.278 197.133C169.026 197.405 168.722 197.615 168.366 197.763C168.01 197.907 167.61 197.979 167.166 197.979C166.718 197.979 166.314 197.907 165.954 197.763C165.598 197.615 165.294 197.405 165.042 197.133C164.79 196.861 164.596 196.533 164.46 196.149C164.328 195.765 164.262 195.333 164.262 194.853C164.262 194.377 164.328 193.947 164.46 193.563C164.596 193.175 164.79 192.845 165.042 192.573C165.294 192.301 165.598 192.091 165.954 191.943C166.314 191.795 166.718 191.721 167.166 191.721ZM167.166 197.145C167.766 197.145 168.214 196.945 168.51 196.545C168.806 196.141 168.954 195.579 168.954 194.859C168.954 194.135 168.806 193.571 168.51 193.167C168.214 192.763 167.766 192.561 167.166 192.561C166.862 192.561 166.596 192.613 166.368 192.717C166.144 192.821 165.956 192.971 165.804 193.167C165.656 193.363 165.544 193.605 165.468 193.893C165.396 194.177 165.36 194.499 165.36 194.859C165.36 195.579 165.508 196.141 165.804 196.545C166.104 196.945 166.558 197.145 167.166 197.145ZM172.426 193.035C172.618 192.619 172.854 192.295 173.134 192.063C173.414 191.827 173.756 191.709 174.16 191.709C174.288 191.709 174.41 191.723 174.526 191.751C174.646 191.779 174.752 191.823 174.844 191.883L174.766 192.681C174.742 192.781 174.682 192.831 174.586 192.831C174.53 192.831 174.448 192.819 174.34 192.795C174.232 192.771 174.11 192.759 173.974 192.759C173.782 192.759 173.61 192.787 173.458 192.843C173.31 192.899 173.176 192.983 173.056 193.095C172.94 193.203 172.834 193.339 172.738 193.503C172.646 193.663 172.562 193.847 172.486 194.055V197.895H171.412V191.817H172.024C172.14 191.817 172.22 191.839 172.264 191.883C172.308 191.927 172.338 192.003 172.354 192.111L172.426 193.035ZM177.65 197.991C177.17 197.991 176.8 197.857 176.54 197.589C176.284 197.321 176.156 196.935 176.156 196.431V192.711H175.424C175.36 192.711 175.306 192.693 175.262 192.657C175.218 192.617 175.196 192.557 175.196 192.477V192.051L176.192 191.925L176.438 190.047C176.45 189.987 176.476 189.939 176.516 189.903C176.56 189.863 176.616 189.843 176.684 189.843H177.224V191.937H178.982V192.711H177.224V196.359C177.224 196.615 177.286 196.805 177.41 196.929C177.534 197.053 177.694 197.115 177.89 197.115C178.002 197.115 178.098 197.101 178.178 197.073C178.262 197.041 178.334 197.007 178.394 196.971C178.454 196.935 178.504 196.903 178.544 196.875C178.588 196.843 178.626 196.827 178.658 196.827C178.714 196.827 178.764 196.861 178.808 196.929L179.12 197.439C178.936 197.611 178.714 197.747 178.454 197.847C178.194 197.943 177.926 197.991 177.65 197.991ZM184.117 194.193C184.117 193.945 184.081 193.719 184.009 193.515C183.941 193.307 183.839 193.129 183.703 192.981C183.571 192.829 183.409 192.713 183.217 192.633C183.025 192.549 182.807 192.507 182.563 192.507C182.051 192.507 181.645 192.657 181.345 192.957C181.049 193.253 180.865 193.665 180.793 194.193H184.117ZM184.981 197.043C184.849 197.203 184.691 197.343 184.507 197.463C184.323 197.579 184.125 197.675 183.913 197.751C183.705 197.827 183.489 197.883 183.265 197.919C183.041 197.959 182.819 197.979 182.599 197.979C182.179 197.979 181.791 197.909 181.435 197.769C181.083 197.625 180.777 197.417 180.517 197.145C180.261 196.869 180.061 196.529 179.917 196.125C179.773 195.721 179.701 195.257 179.701 194.733C179.701 194.309 179.765 193.913 179.893 193.545C180.025 193.177 180.213 192.859 180.457 192.591C180.701 192.319 180.999 192.107 181.351 191.955C181.703 191.799 182.099 191.721 182.539 191.721C182.903 191.721 183.239 191.783 183.547 191.907C183.859 192.027 184.127 192.203 184.351 192.435C184.579 192.663 184.757 192.947 184.885 193.287C185.013 193.623 185.077 194.007 185.077 194.439C185.077 194.607 185.059 194.719 185.023 194.775C184.987 194.831 184.919 194.859 184.819 194.859H180.757C180.769 195.243 180.821 195.577 180.913 195.861C181.009 196.145 181.141 196.383 181.309 196.575C181.477 196.763 181.677 196.905 181.909 197.001C182.141 197.093 182.401 197.139 182.689 197.139C182.957 197.139 183.187 197.109 183.379 197.049C183.575 196.985 183.743 196.917 183.883 196.845C184.023 196.773 184.139 196.707 184.231 196.647C184.327 196.583 184.409 196.551 184.477 196.551C184.565 196.551 184.633 196.585 184.681 196.653L184.981 197.043ZM190.349 193.263C190.149 192.995 189.933 192.809 189.701 192.705C189.469 192.597 189.209 192.543 188.921 192.543C188.357 192.543 187.923 192.745 187.619 193.149C187.315 193.553 187.163 194.129 187.163 194.877C187.163 195.273 187.197 195.613 187.265 195.897C187.333 196.177 187.433 196.409 187.565 196.593C187.697 196.773 187.859 196.905 188.051 196.989C188.243 197.073 188.461 197.115 188.705 197.115C189.057 197.115 189.363 197.035 189.623 196.875C189.887 196.715 190.129 196.489 190.349 196.197V193.263ZM191.417 189.057V197.895H190.781C190.629 197.895 190.533 197.821 190.493 197.673L190.397 196.935C190.137 197.247 189.841 197.499 189.509 197.691C189.177 197.883 188.793 197.979 188.357 197.979C188.009 197.979 187.693 197.913 187.409 197.781C187.125 197.645 186.883 197.447 186.683 197.187C186.483 196.927 186.329 196.603 186.221 196.215C186.113 195.827 186.059 195.381 186.059 194.877C186.059 194.429 186.119 194.013 186.239 193.629C186.359 193.241 186.531 192.905 186.755 192.621C186.979 192.337 187.253 192.115 187.577 191.955C187.905 191.791 188.273 191.709 188.681 191.709C189.053 191.709 189.371 191.773 189.635 191.901C189.903 192.025 190.141 192.199 190.349 192.423V189.057H191.417ZM196.57 197.895V192.729L195.898 192.651C195.814 192.631 195.744 192.601 195.688 192.561C195.636 192.517 195.61 192.455 195.61 192.375V191.937H196.57V191.349C196.57 191.001 196.618 190.693 196.714 190.425C196.814 190.153 196.954 189.925 197.134 189.741C197.318 189.553 197.538 189.411 197.794 189.315C198.05 189.219 198.338 189.171 198.658 189.171C198.93 189.171 199.18 189.211 199.408 189.291L199.384 189.825C199.376 189.921 199.322 189.973 199.222 189.981C199.126 189.989 198.996 189.993 198.832 189.993C198.648 189.993 198.48 190.017 198.328 190.065C198.18 190.113 198.052 190.191 197.944 190.299C197.836 190.407 197.752 190.549 197.692 190.725C197.636 190.901 197.608 191.119 197.608 191.379V191.937H199.36V192.711H197.644V197.895H196.57ZM202.744 191.721C203.188 191.721 203.588 191.795 203.944 191.943C204.3 192.091 204.604 192.301 204.856 192.573C205.108 192.845 205.3 193.175 205.432 193.563C205.568 193.947 205.636 194.377 205.636 194.853C205.636 195.333 205.568 195.765 205.432 196.149C205.3 196.533 205.108 196.861 204.856 197.133C204.604 197.405 204.3 197.615 203.944 197.763C203.588 197.907 203.188 197.979 202.744 197.979C202.296 197.979 201.892 197.907 201.532 197.763C201.176 197.615 200.872 197.405 200.62 197.133C200.368 196.861 200.174 196.533 200.038 196.149C199.906 195.765 199.84 195.333 199.84 194.853C199.84 194.377 199.906 193.947 200.038 193.563C200.174 193.175 200.368 192.845 200.62 192.573C200.872 192.301 201.176 192.091 201.532 191.943C201.892 191.795 202.296 191.721 202.744 191.721ZM202.744 197.145C203.344 197.145 203.792 196.945 204.088 196.545C204.384 196.141 204.532 195.579 204.532 194.859C204.532 194.135 204.384 193.571 204.088 193.167C203.792 192.763 203.344 192.561 202.744 192.561C202.44 192.561 202.174 192.613 201.946 192.717C201.722 192.821 201.534 192.971 201.382 193.167C201.234 193.363 201.122 193.605 201.046 193.893C200.974 194.177 200.938 194.499 200.938 194.859C200.938 195.579 201.086 196.141 201.382 196.545C201.682 196.945 202.136 197.145 202.744 197.145ZM208.005 193.035C208.197 192.619 208.433 192.295 208.713 192.063C208.993 191.827 209.335 191.709 209.739 191.709C209.867 191.709 209.989 191.723 210.105 191.751C210.225 191.779 210.331 191.823 210.423 191.883L210.345 192.681C210.321 192.781 210.261 192.831 210.165 192.831C210.109 192.831 210.027 192.819 209.919 192.795C209.811 192.771 209.689 192.759 209.553 192.759C209.361 192.759 209.189 192.787 209.037 192.843C208.889 192.899 208.755 192.983 208.635 193.095C208.519 193.203 208.413 193.339 208.317 193.503C208.225 193.663 208.141 193.847 208.065 194.055V197.895H206.991V191.817H207.603C207.719 191.817 207.799 191.839 207.843 191.883C207.887 191.927 207.917 192.003 207.933 192.111L208.005 193.035ZM211.362 197.895V191.817H212.004C212.156 191.817 212.25 191.891 212.286 192.039L212.364 192.663C212.588 192.387 212.84 192.161 213.12 191.985C213.4 191.809 213.724 191.721 214.092 191.721C214.5 191.721 214.83 191.835 215.082 192.063C215.338 192.291 215.522 192.599 215.634 192.987C215.722 192.767 215.834 192.577 215.97 192.417C216.11 192.257 216.266 192.125 216.438 192.021C216.61 191.917 216.792 191.841 216.984 191.793C217.18 191.745 217.378 191.721 217.578 191.721C217.898 191.721 218.182 191.773 218.43 191.877C218.682 191.977 218.894 192.125 219.066 192.321C219.242 192.517 219.376 192.759 219.468 193.047C219.56 193.331 219.606 193.657 219.606 194.025V197.895H218.532V194.025C218.532 193.549 218.428 193.189 218.22 192.945C218.012 192.697 217.712 192.573 217.32 192.573C217.144 192.573 216.976 192.605 216.816 192.669C216.66 192.729 216.522 192.819 216.402 192.939C216.282 193.059 216.186 193.211 216.114 193.395C216.046 193.575 216.012 193.785 216.012 194.025V197.895H214.938V194.025C214.938 193.537 214.84 193.173 214.644 192.933C214.448 192.693 214.162 192.573 213.786 192.573C213.522 192.573 213.278 192.645 213.054 192.789C212.83 192.929 212.624 193.121 212.436 193.365V197.895H211.362ZM224.523 195.159C224.031 195.175 223.611 195.215 223.263 195.279C222.919 195.339 222.637 195.419 222.417 195.519C222.201 195.619 222.043 195.737 221.943 195.873C221.847 196.009 221.799 196.161 221.799 196.329C221.799 196.489 221.825 196.627 221.877 196.743C221.929 196.859 221.999 196.955 222.087 197.031C222.179 197.103 222.285 197.157 222.405 197.193C222.529 197.225 222.661 197.241 222.801 197.241C222.989 197.241 223.161 197.223 223.317 197.187C223.473 197.147 223.619 197.091 223.755 197.019C223.895 196.947 224.027 196.861 224.151 196.761C224.279 196.661 224.403 196.547 224.523 196.419V195.159ZM221.073 192.675C221.409 192.351 221.771 192.109 222.159 191.949C222.547 191.789 222.977 191.709 223.449 191.709C223.789 191.709 224.091 191.765 224.355 191.877C224.619 191.989 224.841 192.145 225.021 192.345C225.201 192.545 225.337 192.787 225.429 193.071C225.521 193.355 225.567 193.667 225.567 194.007V197.895H225.093C224.989 197.895 224.909 197.879 224.853 197.847C224.797 197.811 224.753 197.743 224.721 197.643L224.601 197.067C224.441 197.215 224.285 197.347 224.133 197.463C223.981 197.575 223.821 197.671 223.653 197.751C223.485 197.827 223.305 197.885 223.113 197.925C222.925 197.969 222.715 197.991 222.483 197.991C222.247 197.991 222.025 197.959 221.817 197.895C221.609 197.827 221.427 197.727 221.271 197.595C221.119 197.463 220.997 197.297 220.905 197.097C220.817 196.893 220.773 196.653 220.773 196.377C220.773 196.137 220.839 195.907 220.971 195.687C221.103 195.463 221.317 195.265 221.613 195.093C221.909 194.921 222.295 194.781 222.771 194.673C223.247 194.561 223.831 194.497 224.523 194.481V194.007C224.523 193.535 224.421 193.179 224.217 192.939C224.013 192.695 223.715 192.573 223.323 192.573C223.059 192.573 222.837 192.607 222.657 192.675C222.481 192.739 222.327 192.813 222.195 192.897C222.067 192.977 221.955 193.051 221.859 193.119C221.767 193.183 221.675 193.215 221.583 193.215C221.511 193.215 221.449 193.197 221.397 193.161C221.345 193.121 221.301 193.073 221.265 193.017L221.073 192.675ZM229.06 197.991C228.58 197.991 228.21 197.857 227.95 197.589C227.694 197.321 227.566 196.935 227.566 196.431V192.711H226.834C226.77 192.711 226.716 192.693 226.672 192.657C226.628 192.617 226.606 192.557 226.606 192.477V192.051L227.602 191.925L227.848 190.047C227.86 189.987 227.886 189.939 227.926 189.903C227.97 189.863 228.026 189.843 228.094 189.843H228.634V191.937H230.392V192.711H228.634V196.359C228.634 196.615 228.696 196.805 228.82 196.929C228.944 197.053 229.104 197.115 229.3 197.115C229.412 197.115 229.508 197.101 229.588 197.073C229.672 197.041 229.744 197.007 229.804 196.971C229.864 196.935 229.914 196.903 229.954 196.875C229.998 196.843 230.036 196.827 230.068 196.827C230.124 196.827 230.174 196.861 230.218 196.929L230.53 197.439C230.346 197.611 230.124 197.747 229.864 197.847C229.604 197.943 229.336 197.991 229.06 197.991ZM235.527 194.193C235.527 193.945 235.491 193.719 235.419 193.515C235.351 193.307 235.249 193.129 235.113 192.981C234.981 192.829 234.819 192.713 234.627 192.633C234.435 192.549 234.217 192.507 233.973 192.507C233.461 192.507 233.055 192.657 232.755 192.957C232.459 193.253 232.275 193.665 232.203 194.193H235.527ZM236.391 197.043C236.259 197.203 236.101 197.343 235.917 197.463C235.733 197.579 235.535 197.675 235.323 197.751C235.115 197.827 234.899 197.883 234.675 197.919C234.451 197.959 234.229 197.979 234.009 197.979C233.589 197.979 233.201 197.909 232.845 197.769C232.493 197.625 232.187 197.417 231.927 197.145C231.671 196.869 231.471 196.529 231.327 196.125C231.183 195.721 231.111 195.257 231.111 194.733C231.111 194.309 231.175 193.913 231.303 193.545C231.435 193.177 231.623 192.859 231.867 192.591C232.111 192.319 232.409 192.107 232.761 191.955C233.113 191.799 233.509 191.721 233.949 191.721C234.313 191.721 234.649 191.783 234.957 191.907C235.269 192.027 235.537 192.203 235.761 192.435C235.989 192.663 236.167 192.947 236.295 193.287C236.423 193.623 236.487 194.007 236.487 194.439C236.487 194.607 236.469 194.719 236.433 194.775C236.397 194.831 236.329 194.859 236.229 194.859H232.167C232.179 195.243 232.231 195.577 232.323 195.861C232.419 196.145 232.551 196.383 232.719 196.575C232.887 196.763 233.087 196.905 233.319 197.001C233.551 197.093 233.811 197.139 234.099 197.139C234.367 197.139 234.597 197.109 234.789 197.049C234.985 196.985 235.153 196.917 235.293 196.845C235.433 196.773 235.549 196.707 235.641 196.647C235.737 196.583 235.819 196.551 235.887 196.551C235.975 196.551 236.043 196.585 236.091 196.653L236.391 197.043ZM241.339 192.819C241.291 192.907 241.217 192.951 241.117 192.951C241.057 192.951 240.989 192.929 240.913 192.885C240.837 192.841 240.743 192.793 240.631 192.741C240.523 192.685 240.393 192.635 240.241 192.591C240.089 192.543 239.909 192.519 239.701 192.519C239.521 192.519 239.359 192.543 239.215 192.591C239.071 192.635 238.947 192.697 238.843 192.777C238.743 192.857 238.665 192.951 238.609 193.059C238.557 193.163 238.531 193.277 238.531 193.401C238.531 193.557 238.575 193.687 238.663 193.791C238.755 193.895 238.875 193.985 239.023 194.061C239.171 194.137 239.339 194.205 239.527 194.265C239.715 194.321 239.907 194.383 240.103 194.451C240.303 194.515 240.497 194.587 240.685 194.667C240.873 194.747 241.041 194.847 241.189 194.967C241.337 195.087 241.455 195.235 241.543 195.411C241.635 195.583 241.681 195.791 241.681 196.035C241.681 196.315 241.631 196.575 241.531 196.815C241.431 197.051 241.283 197.257 241.087 197.433C240.891 197.605 240.651 197.741 240.367 197.841C240.083 197.941 239.755 197.991 239.383 197.991C238.959 197.991 238.575 197.923 238.231 197.787C237.887 197.647 237.595 197.469 237.355 197.253L237.607 196.845C237.639 196.793 237.677 196.753 237.721 196.725C237.765 196.697 237.821 196.683 237.889 196.683C237.961 196.683 238.037 196.711 238.117 196.767C238.197 196.823 238.293 196.885 238.405 196.953C238.521 197.021 238.661 197.083 238.825 197.139C238.989 197.195 239.193 197.223 239.437 197.223C239.645 197.223 239.827 197.197 239.983 197.145C240.139 197.089 240.269 197.015 240.373 196.923C240.477 196.831 240.553 196.725 240.601 196.605C240.653 196.485 240.679 196.357 240.679 196.221C240.679 196.053 240.633 195.915 240.541 195.807C240.453 195.695 240.335 195.601 240.187 195.525C240.039 195.445 239.869 195.377 239.677 195.321C239.489 195.261 239.295 195.199 239.095 195.135C238.899 195.071 238.705 194.999 238.513 194.919C238.325 194.835 238.157 194.731 238.009 194.607C237.861 194.483 237.741 194.331 237.649 194.151C237.561 193.967 237.517 193.745 237.517 193.485C237.517 193.253 237.565 193.031 237.661 192.819C237.757 192.603 237.897 192.415 238.081 192.255C238.265 192.091 238.491 191.961 238.759 191.865C239.027 191.769 239.333 191.721 239.677 191.721C240.077 191.721 240.435 191.785 240.751 191.913C241.071 192.037 241.347 192.209 241.579 192.429L241.339 192.819ZM242.895 197.235C242.895 197.131 242.913 197.033 242.949 196.941C242.989 196.849 243.041 196.769 243.105 196.701C243.173 196.633 243.253 196.579 243.345 196.539C243.437 196.499 243.535 196.479 243.639 196.479C243.743 196.479 243.841 196.499 243.933 196.539C244.025 196.579 244.105 196.633 244.173 196.701C244.241 196.769 244.295 196.849 244.335 196.941C244.375 197.033 244.395 197.131 244.395 197.235C244.395 197.343 244.375 197.443 244.335 197.535C244.295 197.623 244.241 197.701 244.173 197.769C244.105 197.837 244.025 197.889 243.933 197.925C243.841 197.965 243.743 197.985 243.639 197.985C243.535 197.985 243.437 197.965 243.345 197.925C243.253 197.889 243.173 197.837 243.105 197.769C243.041 197.701 242.989 197.623 242.949 197.535C242.913 197.443 242.895 197.343 242.895 197.235ZM242.895 192.735C242.895 192.631 242.913 192.533 242.949 192.441C242.989 192.349 243.041 192.269 243.105 192.201C243.173 192.133 243.253 192.079 243.345 192.039C243.437 191.999 243.535 191.979 243.639 191.979C243.743 191.979 243.841 191.999 243.933 192.039C244.025 192.079 244.105 192.133 244.173 192.201C244.241 192.269 244.295 192.349 244.335 192.441C244.375 192.533 244.395 192.631 244.395 192.735C244.395 192.843 244.375 192.943 244.335 193.035C244.295 193.123 244.241 193.201 244.173 193.269C244.105 193.337 244.025 193.391 243.933 193.431C243.841 193.467 243.743 193.485 243.639 193.485C243.535 193.485 243.437 193.467 243.345 193.431C243.253 193.391 243.173 193.337 243.105 193.269C243.041 193.201 242.989 193.123 242.949 193.035C242.913 192.943 242.895 192.843 242.895 192.735ZM258.419 196.119C258.483 196.119 258.539 196.145 258.587 196.197L259.049 196.695C258.697 197.103 258.269 197.421 257.765 197.649C257.265 197.877 256.659 197.991 255.947 197.991C255.331 197.991 254.771 197.885 254.267 197.673C253.763 197.457 253.333 197.157 252.977 196.773C252.621 196.385 252.345 195.921 252.149 195.381C251.953 194.841 251.855 194.247 251.855 193.599C251.855 192.951 251.957 192.357 252.161 191.817C252.365 191.277 252.651 190.813 253.019 190.425C253.391 190.037 253.835 189.737 254.351 189.525C254.867 189.309 255.437 189.201 256.061 189.201C256.673 189.201 257.213 189.299 257.681 189.495C258.149 189.691 258.561 189.957 258.917 190.293L258.533 190.827C258.509 190.867 258.477 190.901 258.437 190.929C258.401 190.953 258.351 190.965 258.287 190.965C258.215 190.965 258.127 190.927 258.023 190.851C257.919 190.771 257.783 190.683 257.615 190.587C257.447 190.491 257.237 190.405 256.985 190.329C256.733 190.249 256.423 190.209 256.055 190.209C255.611 190.209 255.205 190.287 254.837 190.443C254.469 190.595 254.151 190.817 253.883 191.109C253.619 191.401 253.413 191.757 253.265 192.177C253.117 192.597 253.043 193.071 253.043 193.599C253.043 194.135 253.119 194.613 253.271 195.033C253.427 195.453 253.637 195.809 253.901 196.101C254.169 196.389 254.483 196.609 254.843 196.761C255.207 196.913 255.599 196.989 256.019 196.989C256.275 196.989 256.505 196.975 256.709 196.947C256.917 196.915 257.107 196.867 257.279 196.803C257.455 196.739 257.617 196.659 257.765 196.563C257.917 196.463 258.067 196.345 258.215 196.209C258.283 196.149 258.351 196.119 258.419 196.119ZM264.797 190.641C264.761 190.701 264.721 190.747 264.677 190.779C264.637 190.807 264.587 190.821 264.527 190.821C264.459 190.821 264.379 190.787 264.287 190.719C264.195 190.651 264.079 190.577 263.939 190.497C263.803 190.413 263.637 190.337 263.441 190.269C263.249 190.201 263.015 190.167 262.739 190.167C262.479 190.167 262.249 190.203 262.049 190.275C261.853 190.343 261.687 190.437 261.551 190.557C261.419 190.677 261.319 190.819 261.251 190.983C261.183 191.143 261.149 191.317 261.149 191.505C261.149 191.745 261.207 191.945 261.323 192.105C261.443 192.261 261.599 192.395 261.791 192.507C261.987 192.619 262.207 192.717 262.451 192.801C262.699 192.881 262.951 192.965 263.207 193.053C263.467 193.141 263.719 193.241 263.963 193.353C264.211 193.461 264.431 193.599 264.623 193.767C264.819 193.935 264.975 194.141 265.091 194.385C265.211 194.629 265.271 194.929 265.271 195.285C265.271 195.661 265.207 196.015 265.079 196.347C264.951 196.675 264.763 196.961 264.515 197.205C264.271 197.449 263.969 197.641 263.609 197.781C263.253 197.921 262.847 197.991 262.391 197.991C261.831 197.991 261.323 197.891 260.867 197.691C260.411 197.487 260.021 197.213 259.697 196.869L260.033 196.317C260.065 196.273 260.103 196.237 260.147 196.209C260.195 196.177 260.247 196.161 260.303 196.161C260.355 196.161 260.413 196.183 260.477 196.227C260.545 196.267 260.621 196.319 260.705 196.383C260.789 196.447 260.885 196.517 260.993 196.593C261.101 196.669 261.223 196.739 261.359 196.803C261.499 196.867 261.657 196.921 261.833 196.965C262.009 197.005 262.207 197.025 262.427 197.025C262.703 197.025 262.949 196.987 263.165 196.911C263.381 196.835 263.563 196.729 263.711 196.593C263.863 196.453 263.979 196.287 264.059 196.095C264.139 195.903 264.179 195.689 264.179 195.453C264.179 195.193 264.119 194.981 263.999 194.817C263.883 194.649 263.729 194.509 263.537 194.397C263.345 194.285 263.125 194.191 262.877 194.115C262.629 194.035 262.377 193.955 262.121 193.875C261.865 193.791 261.613 193.695 261.365 193.587C261.117 193.479 260.897 193.339 260.705 193.167C260.513 192.995 260.357 192.781 260.237 192.525C260.121 192.265 260.063 191.945 260.063 191.565C260.063 191.261 260.121 190.967 260.237 190.683C260.357 190.399 260.529 190.147 260.753 189.927C260.981 189.707 261.259 189.531 261.587 189.399C261.919 189.267 262.299 189.201 262.727 189.201C263.207 189.201 263.643 189.277 264.035 189.429C264.431 189.581 264.779 189.801 265.079 190.089L264.797 190.641ZM273.752 189.297L270.248 197.895H269.204L265.7 189.297H266.63C266.734 189.297 266.818 189.323 266.882 189.375C266.946 189.427 266.994 189.493 267.026 189.573L269.45 195.639C269.502 195.775 269.552 195.923 269.6 196.083C269.652 196.243 269.698 196.411 269.738 196.587C269.778 196.411 269.82 196.243 269.864 196.083C269.908 195.923 269.956 195.775 270.008 195.639L272.426 189.573C272.45 189.505 272.496 189.443 272.564 189.387C272.636 189.327 272.722 189.297 272.822 189.297H273.752Z" fill="#676767"/>
<path d="M207.526 81.5931L207.443 81.5717C206.967 81.4484 206.661 80.9971 206.817 80.541C206.817 80.541 206.817 80.5409 206.817 80.5409L206.959 80.5896L207.526 81.5931ZM207.526 81.5931L207.529 81.59M207.526 81.5931L207.529 81.59M207.529 81.59C207.977 81.6658 208.444 81.4382 208.586 81.0217L207.529 81.59Z" fill="#7D4EF1" stroke="#F9FFF9" stroke-width="0.3"/>
<path d="M228.939 107.029H224.292C223.864 107.029 223.517 106.728 223.517 106.356C223.517 105.985 223.864 105.683 224.292 105.683H228.939C235.345 105.683 240.557 101.155 240.557 95.589C240.557 90.0233 235.345 85.4948 228.939 85.4948H228.827C228.603 85.4948 228.389 85.4102 228.242 85.2627C228.095 85.1151 228.028 84.9195 228.06 84.7262C228.13 84.3071 228.165 83.886 228.165 83.476C228.165 78.6524 223.647 74.7276 218.096 74.7276C215.936 74.7276 213.876 75.3141 212.139 76.4239C211.757 76.6676 211.215 76.5595 210.994 76.1946C206.074 68.0549 193.224 66.9618 186.562 74.0427C183.755 77.0258 182.653 80.9062 183.536 84.6883C183.634 85.106 183.266 85.4954 182.777 85.4954H182.467C176.061 85.4954 170.849 90.0238 170.849 95.5896C170.849 101.155 176.061 105.684 182.467 105.684H187.114C187.542 105.684 187.889 105.985 187.889 106.357C187.889 106.728 187.542 107.03 187.114 107.03H182.467C175.207 107.03 169.3 101.897 169.3 95.5895C169.3 89.4585 174.88 84.4383 181.859 84.1614C181.203 80.2376 182.457 76.2797 185.362 73.1909C192.495 65.6092 206.165 66.459 211.943 74.9132C213.787 73.9091 215.896 73.3823 218.095 73.3823C224.822 73.3823 230.151 78.3564 229.685 84.1677C236.6 84.5046 242.106 89.4984 242.106 95.589C242.106 101.897 236.199 107.029 228.939 107.029L228.939 107.029Z" fill="#7D4EF1"/>
<path d="M186.086 105.972C186.086 115.351 194.86 122.946 205.6 122.946C216.339 122.946 225.113 115.351 225.113 105.972C225.113 96.5936 216.339 88.9984 205.6 88.9984C194.86 88.9984 186.086 96.5937 186.086 105.972ZM187.936 105.972C187.936 97.54 195.839 90.6446 205.6 90.6446C215.36 90.6446 223.264 97.5399 223.264 105.972C223.264 114.405 215.36 121.3 205.6 121.3C195.84 121.3 187.936 114.405 187.936 105.972Z" fill="#7D4EF1" stroke="#F9FFF9" stroke-width="0.3"/>
<path d="M205.239 112.752C205.239 113.126 205.58 113.394 205.956 113.394C206.331 113.394 206.673 113.126 206.673 112.752V99.9419C206.673 99.5679 206.331 99.2992 205.956 99.2992C205.58 99.2992 205.239 99.5679 205.239 99.9419V112.752Z" fill="#7D4EF1" stroke="#7D4EF1" stroke-width="0.3"/>
<path d="M209.992 104.345C210.133 104.467 210.314 104.526 210.491 104.526L201.918 104.345L205.955 100.837L209.992 104.345ZM200.919 104.345C201.197 104.586 201.64 104.587 201.918 104.345L205.554 99.5936L205.456 99.4804L205.456 99.4804L200.919 103.422C200.629 103.674 200.629 104.093 200.919 104.345ZM210.491 104.526C210.668 104.526 210.85 104.468 210.991 104.345L210.491 104.526Z" fill="#7D4EF1" stroke="#7D4EF1" stroke-width="0.3"/>
</svg>
